<svg width="32" height="32" viewBox="0 0 32 32" fill="none" xmlns="http://www.w3.org/2000/svg">
<path fill-rule="evenodd" clip-rule="evenodd" d="M17.1984 11.2L16.9734 19.2H15.0141L14.7984 11.2H17.1984ZM17.181 23.5464C16.9028 23.8488 16.5086 24 15.9984 24C15.4883 24 15.0941 23.8488 14.8158 23.5464C14.5376 23.2439 14.3984 22.868 14.3984 22.4184C14.3984 21.9525 14.5414 21.5663 14.8274 21.2598C15.1134 20.9533 15.5038 20.8 15.9984 20.8C16.4931 20.8 16.8835 20.9533 17.1695 21.2598C17.4554 21.5663 17.5984 21.9525 17.5984 22.4184C17.5984 22.868 17.4593 23.2439 17.181 23.5464Z" fill="#FF6400"/>
<path fill-rule="evenodd" clip-rule="evenodd" d="M16.0016 5.55313L3.86515 26.72H28.138L16.0016 5.55313ZM17.5742 4.1143C16.8753 2.89525 15.1279 2.89525 14.4289 4.1143L1.84756 26.0572C1.1486 27.2762 2.02231 28.8 3.42023 28.8H28.5829C29.9808 28.8 30.8545 27.2762 30.1556 26.0572L17.5742 4.1143Z" fill="#FF6400"/>
</svg>
