<?xml version="1.0" encoding="UTF-8"?>
<svg width="21px" height="21px" viewBox="0 0 21 21" version="1.1" xmlns="http://www.w3.org/2000/svg" xmlns:xlink="http://www.w3.org/1999/xlink">
    <g stroke="none" stroke-width="1" fill="none" fill-rule="evenodd">
        <g transform="translate(-34.000000, -185.000000)" fill="#FFD60B" fill-rule="nonzero">
            <g transform="translate(18.000000, 129.000000)">
                <g transform="translate(15.847190, 56.000000)">
                    <path d="M20.5085811,4.31184365 L15.9013799,0.477272727 L14.6136523,2.00823718 L19.2208535,5.8428081 L20.5085811,4.31184365 Z M10.4929288,2.60908429 L10.4929286,2.60908429 C5.54628609,2.64079623 1.56188335,6.67646734 1.59349798,11.6231098 C1.62511281,16.5697523 5.66078391,20.5541551 10.6074264,20.5225404 C15.5372339,20.4910331 19.5148047,16.4816424 19.5070446,11.5517371 L19.5070446,11.5518621 C19.491355,6.5972523 15.4621422,2.59345011 10.5075128,2.60908429 C10.5026941,2.60908429 10.4978754,2.60908429 10.4930568,2.60908429 L10.4929288,2.60908429 Z M14.2416411,15.386308 L9.49136167,12.5246847 L9.49136167,6.58683056 L10.9221694,6.58683056 L10.9221694,11.809274 L14.9284381,14.1701137 L14.2416411,15.386308 Z M6.37220147,1.99393915 L5.08447392,0.477282515 L0.477272727,4.31185344 L1.76500028,5.82851007 L6.37220147,1.99393915 Z"></path>
                </g>
            </g>
        </g>
    </g>
</svg>