<?xml version="1.0" encoding="UTF-8"?>
<svg width="93px" height="48px" viewBox="0 0 93 48" version="1.1" xmlns="http://www.w3.org/2000/svg" xmlns:xlink="http://www.w3.org/1999/xlink">
    <title>coupert_logo</title>
    <defs>
        <filter x="-7.3%" y="-9.5%" width="114.6%" height="119.0%" filterUnits="objectBoundingBox" id="filter-1">
            <feOffset dx="0" dy="8" in="SourceAlpha" result="shadowOffsetOuter1"></feOffset>
            <feGaussianBlur stdDeviation="11" in="shadowOffsetOuter1" result="shadowBlurOuter1"></feGaussianBlur>
            <feColorMatrix values="0 0 0 0 0   0 0 0 0 0   0 0 0 0 0  0 0 0 0.164308348 0" type="matrix" in="shadowBlurOuter1" result="shadowMatrixOuter1"></feColorMatrix>
            <feMerge>
                <feMergeNode in="shadowMatrixOuter1"></feMergeNode>
                <feMergeNode in="SourceGraphic"></feMergeNode>
            </feMerge>
        </filter>
    </defs>
    <g stroke="none" stroke-width="1" fill="none" fill-rule="evenodd">
        <g transform="translate(-477.000000, -73.000000)" fill="#F46042" fill-rule="nonzero">
            <g filter="url(#filter-1)" transform="translate(445.000000, 42.000000)">
                <g transform="translate(32.500000, 31.500000)">
                    <path d="M88.1746479,4.83239437 L88.1746479,7.77816901 L87.6119718,7.77816901 L87.6119718,4.83239437 L87.0492958,4.83239437 L87.0492958,4.3028169 L88.7704225,4.3028169 L88.7704225,4.83239437 L88.1746479,4.83239437 Z M90.921831,7.77816901 L90.921831,5.69295775 L90.4915493,7.05 L90.1605634,7.05 L89.7302817,5.72605634 L89.7302817,7.77816901 L89.1676056,7.77816901 L89.1676056,4.3028169 L89.6640845,4.3028169 L90.3260563,6.09014085 L90.9880282,4.3028169 L91.484507,4.3028169 L91.484507,7.77816901 L90.921831,7.77816901 Z" ></path>
                    <path d="M34.0915493,39.0232394 C29.9211268,40.0823944 18.5352113,45.8084507 10.856338,40.9429577 C1.12535211,34.8197183 1.09225352,16.8802817 13.3056338,5.8584507 C16.284507,3.17746479 19.7598592,1.72112676 23.4669014,1.65492958 C26.6443662,1.62183099 29.3915493,3.30985915 30.1528169,6.48732394 C30.8478873,9.46619718 29.7225352,12.7098592 27.7366197,14.9605634 C26.8429577,15.8873239 25.85,16.6485915 24.7246479,17.2774648 C24.3274648,17.5091549 23.8971831,17.7408451 23.4338028,17.8732394 C21.7788732,18.5021127 20.1901408,18.4359155 19.6274648,16.5492958 C18.965493,14.1992958 20.5211268,11.6838028 22.7387324,10.8232394 C23.5,10.5253521 26.1809859,9.63169014 25.1549296,9.4 C22.4739437,8.77112676 18.2042254,11.021831 17.178169,14.4309859 C16.1852113,17.7739437 18.4690141,19.9584507 21.8119718,19.5612676 C23.5,19.3295775 25.121831,18.7669014 26.578169,17.906338 C31.2450704,15.8873239 36.143662,14.4640845 41.1415493,13.6697183 C41.9028169,13.5373239 42.465493,12.1140845 41.5056338,12.2464789 C37.9640845,12.8091549 34.4556338,13.6366197 31.0133803,14.7619718 C30.8478873,14.828169 30.6492958,14.7288732 30.5830986,14.5633803 C30.55,14.4640845 30.5830986,14.3647887 30.6161972,14.265493 C31.0464789,13.7028169 31.4105634,13.0739437 31.7084507,12.4450704 C33.1978873,9.43309859 33.4626761,5.4943662 31.1788732,2.81338028 C28.5309859,-0.297887324 23.7316901,-0.198591549 20.1570423,0.794366197 C15.4901408,2.11830986 11.1211268,4.99788732 7.81126761,8.6056338 C0.761267606,16.3507042 -3.04507042,30.4838028 4.3028169,39.2549296 C7.41408451,42.9619718 11.8492958,44.65 16.6485915,44.9809859 C22.9042254,45.4443662 30.7816901,41.2739437 33.0323944,40.1816901 C34.4887324,39.4866197 35.6140845,38.6591549 34.0915493,39.0232394 Z"></path>
                    <path d="M25.3535211,26.2802817 C25.9125196,26.1037559 26.9684055,25.9010781 27.591331,25.6490021 L27.8028169,25.5521127 C27.9683099,25.4528169 28.1669014,25.5190141 28.2661972,25.684507 C28.2992958,25.7507042 28.3323944,25.85 28.2992958,25.9492958 L28.0884463,26.5985826 L27.9543847,27.0367723 C26.556145,31.7277426 26.2251174,36.8867014 31.8739437,35.3823944 C33.0985915,35.0514085 34.1908451,34.4225352 35.084507,33.5619718 C35.1979879,33.4484909 35.3601035,33.4565967 35.48748,33.5446023 L35.5809859,33.628169 C36.0112676,34.2570423 36.8056338,34.5880282 37.5669014,34.4225352 C38.9901408,34.2239437 40.4464789,32.1387324 41.3070423,30.3514085 C41.3401408,30.2852113 41.4394366,30.2521127 41.5387324,30.2852113 C41.6049296,30.3183099 41.6380282,30.384507 41.6049296,30.4507042 L41.281184,32.0399538 C40.9367518,33.7047095 40.5457746,35.5230634 40.2478873,36.8387324 C40.1485915,37.2359155 39.8838028,37.5338028 39.5197183,37.6992958 C36.6401408,38.9901408 33.7605634,41.7373239 34.7204225,45.1464789 C35.0514085,46.4042254 36.3091549,47.165493 37.5669014,46.9007042 C39.2880282,46.5035211 40.1485915,44.9147887 40.7774648,43.3922535 C41.406338,41.7704225 41.9359155,40.115493 42.3992958,38.4605634 C42.4985915,38.1295775 42.7633803,37.8316901 43.0943662,37.765493 C44.2528169,37.4676056 45.378169,37.2359155 46.3711268,37.0042254 C52.5605634,35.5809859 58.8823944,34.9190141 65.2373239,35.1176056 C72.3866197,35.3161972 76.7556338,36.8056338 80.9260563,39.0232394 C83.2429577,40.2478873 84.8978873,39.1225352 83.5739437,37.7323944 C80.7041011,34.6994925 69.544135,32.7912199 56.9325468,33.9388198 L56.3669014,33.9922535 C51.9978873,34.3894366 47.6619718,35.2169014 43.4253521,36.4084507 C43.2598592,36.4415493 43.0612676,36.3422535 43.028169,36.1767606 L43.028169,36.0112676 C43.2929577,34.9190141 43.5246479,33.793662 43.7232394,32.7014085 C43.7516097,32.5595573 43.8772492,32.4420236 44.0376278,32.4321808 L44.1535211,32.4366197 C44.9809859,32.7014085 46.3380282,32.4366197 47.0330986,32.171831 C48.1253521,31.7084507 49.0852113,31.0133803 49.8464789,30.1197183 C50.1443662,29.7556338 50.4422535,29.3584507 50.7070423,28.9612676 C50.806338,28.7957746 50.971831,28.6633803 51.1373239,28.5640845 L52.4943662,27.8690141 L53.7521127,27.2070423 C53.8939638,27.1219316 54.0601322,27.1584076 54.1672443,27.2747834 L54.215493,27.3394366 C54.2485915,27.3725352 54.2485915,27.4056338 54.2485915,27.471831 C54.2485915,27.5380282 54.2816901,27.6373239 54.2816901,27.7035211 C55.2746479,32.3042254 60.7028169,31.3774648 62.9866197,28.1338028 C65.2704225,24.8901408 66.0978873,21.4147887 66.9253521,18.2373239 C67.0246479,17.8732394 67.3887324,17.6746479 67.7528169,17.7739437 L67.8521127,17.8070423 C68.4478873,18.071831 69.1098592,18.2373239 69.771831,18.3035211 C70.1359155,18.3366197 70.4007042,18.6676056 70.3676056,19.0316901 C70.3676056,19.0978873 70.334507,19.1640845 70.3014085,19.2302817 C69.2626219,21.430065 68.5622635,23.7708601 68.2523992,26.1745681 L68.1830986,26.7767606 C68.0838028,27.6704225 67.9514085,29.0274648 68.6795775,29.7556338 C69.5401408,30.5830986 71.0957746,30.0866197 71.9894366,29.656338 C73.2471831,29.0274648 74.3725352,27.1077465 75.2661972,25.2211268 C75.3323944,25.0887324 75.4978873,25.0225352 75.6633803,25.0887324 C75.7626761,25.1549296 75.8288732,25.2542254 75.8288732,25.3866197 L75.764606,26.0084487 L75.7440415,26.60435 C75.6984648,28.3502676 75.8057042,30.715493 77.6823944,31.3112676 C81.0584507,32.3704225 83.1767606,28.3323944 83.8056338,26.9091549 L83.9498866,26.5677772 L84.0161949,26.3870437 C84.1393366,26.0106291 83.9469921,26.1897055 83.5343482,26.6958242 L82.5809859,27.9021127 C81.9852113,28.6633803 80.3302817,30.1859155 79.4035211,29.9873239 C78.8739437,29.8880282 78.6422535,28.928169 78.5429577,28.5309859 C77.9802817,26.2802817 78.443662,23.6985915 78.8077465,21.4478873 C79.2711268,18.6676056 79.9,15.8873239 80.6612676,13.1732394 C80.8267606,12.643662 81.356338,12.3457746 81.8859155,12.5112676 L81.9190141,12.5112676 C83.1353873,12.9167254 84.2757372,13.4488886 85.3622373,14.1077575 L85.8246479,14.3978873 C88.7373239,16.284507 89.9288732,14.0007042 87.8767606,12.9084507 C86.1556338,12.0147887 84.3352113,11.2866197 82.4485915,10.7901408 C81.9190141,10.6577465 81.6211268,10.0950704 81.7535211,9.56549296 L81.7535211,9.53239437 C82.1507042,8.37394366 82.5478873,7.21549296 83.0112676,6.05704225 L83.0443662,5.99084507 C83.3091549,5.29577465 83.6070423,4.60070423 83.9049296,3.9056338 C84.434507,2.61478873 81.9852113,2.61478873 81.356338,4.23661972 C80.6943662,5.92464789 80.0323944,7.61267606 79.4035211,9.30070423 C79.2380282,9.76408451 78.7746479,10.0288732 78.3112676,9.96267606 C76.1929577,9.66478873 74.0415493,9.46619718 71.8901408,9.4 C64.7077465,9.13521127 57.0950704,9.99577465 50.0119718,11.021831 C49.3169014,11.1211268 49.0852113,12.5112676 50.0119718,12.3788732 C56.3357498,11.4754764 62.7474853,10.7479945 69.1368002,10.8311014 L70.334507,10.856338 C72.684507,10.8894366 75.0676056,11.1211268 77.384507,11.4852113 C77.9140845,11.584507 78.278169,12.0809859 78.2119718,12.6105634 C78.2119718,12.6767606 78.1788732,12.7098592 78.1788732,12.7760563 L77.20028,15.6362077 C75.7893998,19.8228056 73.0320423,28.9908199 70.7978873,28.8950704 C69.771831,28.8619718 71.0626761,22.1760563 73.8429577,17.2112676 C74.3725352,16.2514085 72.5190141,16.4830986 72.1549296,16.6485915 C70.665493,17.3767606 68.315493,16.8802817 69.3746479,14.7950704 C69.9042254,13.7028169 67.256338,13.9676056 66.9915493,14.7288732 C65.4028169,19.1640845 65.1049296,23.5 62.3246479,27.1739437 L62.1181579,27.4379344 L61.8963924,27.7056382 C60.9416305,28.8208446 59.609422,29.8834628 58.1542254,29.0274648 C57.5584507,28.6633803 57.1612676,28.0676056 56.9957746,27.4056338 C56.8633803,26.9422535 56.7971831,26.4788732 56.7640845,26.015493 C56.7309859,25.7507042 56.8633803,25.5190141 57.0950704,25.3866197 C58.4190141,24.6253521 59.643662,23.7647887 60.8352113,22.8049296 L61.0374733,22.6360487 L61.2610683,22.4371866 C62.9696107,20.874868 66.0896127,17.0899061 63.8140845,15.3908451 C62.6225352,14.4971831 60.6366197,15.1591549 59.478169,15.721831 C58.1542254,16.4169014 57.0288732,17.4760563 56.2676056,18.7669014 C55.1246009,20.6513146 54.4140845,22.7663881 54.1629667,24.9506598 L54.1161972,25.4197183 C54.1161972,25.6514085 53.9507042,25.85 53.7521127,25.9823944 C53.4211268,26.1478873 53.0239437,26.3133803 52.6929577,26.4788732 C52.5274648,26.5450704 52.3288732,26.4457746 52.2626761,26.2802817 C52.2295775,26.2140845 52.2295775,26.1147887 52.2626761,26.0485915 C52.7591549,24.8570423 53.156338,23.6323944 53.4542254,22.3746479 L53.5695603,21.7919913 C53.9448861,19.788174 54.2785871,16.6723812 52.3288732,15.6225352 C51.0711268,14.9605634 49.2838028,15.3246479 48.0591549,15.8542254 C47.8274648,15.9535211 47.6288732,16.0528169 47.4302817,16.1852113 C47.2647887,16.284507 47.0330986,16.2514085 46.9338028,16.0859155 C46.8676056,15.9866197 46.8676056,15.8873239 46.9007042,15.7880282 C47.2647887,14.5633803 47.5626761,13.3056338 47.7612676,12.0478873 C47.893662,11.2204225 47.9598592,9.96267606 47.165493,9.46619718 C46.4373239,9.0028169 45.1795775,9.26760563 44.5507042,9.7971831 C43.8556338,10.3929577 44.0873239,11.4190141 44.0211268,12.2464789 C43.8509054,14.2323944 43.5347801,16.1939925 43.1978114,18.1312734 L43.028169,19.0978873 C42.4323944,22.5070423 42.134507,25.0556338 41.1746479,27.7697183 L40.9431441,28.3639238 L40.720085,28.9008591 C40.0394685,30.4968762 38.8829645,32.8412894 38.0633803,32.8669014 C37.6661972,32.8669014 37.6,31.3112676 37.5669014,30.4507042 C37.5669014,30.1528169 37.6,29.8880282 37.7323944,29.6232394 C39.056338,26.4126761 39.0894366,23.1359155 39.221831,20.1570423 C39.2880282,18.7007042 37.0373239,19.1309859 36.6732394,20.3887324 L36.3577523,21.4517741 L36.1952689,22.0244727 C35.6293131,24.0588037 34.8528169,27.2909171 34.8528169,30.0535211 C34.8528169,30.384507 34.7866197,30.6823944 34.6542254,30.9802817 C34.0584507,32.2049296 33.2309859,33.2971831 32.1056338,33.8598592 C29.4577465,35.1507042 29.5239437,31.1126761 29.7556338,29.5901408 C30.2521127,26.578169 31.3112676,23.665493 32.8338028,21.0176056 C33.4295775,19.9253521 30.8809859,20.3225352 30.4507042,20.9514085 C29.5239437,22.3415493 28.3323944,23.5 26.9091549,24.393662 C26.3464789,24.7246479 25.7176056,24.9232394 25.0887324,24.9894366 C24.7577465,25.0887324 24.393662,24.9232394 24.2612676,24.6253521 C24.0957746,24.1950704 23.8309859,23.8309859 23.5,23.5330986 C22.9439437,23.1006103 21.8112363,23.0717778 21.0168309,23.4466009 L20.8057114,23.5588302 L20.6877195,23.635543 C20.4729477,23.7884865 20.1239437,24.1110509 20.1239437,24.5922535 C20.1239437,25.5190141 20.7197183,26.0485915 21.5471831,26.3133803 C21.878169,26.4126761 22.1429577,26.7105634 22.2091549,27.0415493 C22.3084507,27.5049296 22.4077465,28.0014085 22.4739437,28.4647887 C22.771831,30.5169014 22.7387324,32.8669014 21.7788732,34.7866197 C21.3816901,35.6140845 20.7197183,36.4746479 19.7929577,36.7394366 C18.2704225,37.1697183 17.1450704,35.6471831 16.6816901,34.3894366 C15.5232394,31.3443662 16.3507042,26.6112676 19.0316901,24.5260563 C19.5943662,24.0957746 20.1570423,23.665493 20.7528169,23.3014085 C21.2492958,23.0035211 20.0577465,22.5732394 19.1640845,22.9373239 C14.3316901,24.7577465 11.9816901,31.6753521 14.6626761,36.1105634 C16.6485915,39.4204225 21.4478873,38.493662 23.5661972,35.7795775 C25.4197183,33.4295775 25.4859155,29.9211268 24.9232394,27.0415493 C24.8040845,26.743662 24.9530282,26.4457746 25.2494261,26.3167894 L25.3535211,26.2802817 Z M39.4204225,40.0492958 L39.3627602,40.2813252 L39.0920489,41.2483833 C38.6576682,42.7371257 37.9068549,45.0667488 37.5338028,45.1133803 C37.0042254,45.1795775 37.2028169,41.6711268 38.4274648,40.1816901 L38.736385,39.8176056 L39.0011737,39.5197183 C39.0820814,39.4314554 39.1556338,39.3542254 39.221831,39.2880282 C39.2880282,39.221831 39.4204225,39.221831 39.5197183,39.2880282 C39.5445423,39.3376761 39.5693662,39.3873239 39.5662632,39.4369718 L39.4776169,39.7466423 C39.4442535,39.8665915 39.4204225,39.9698592 39.4204225,40.0492958 Z M44.7273183,30.4814197 L44.3852113,30.715493 C44.3190141,30.7816901 44.2197183,30.7485915 44.1535211,30.6823944 C44.1204225,30.6492958 44.1204225,30.6161972 44.1204225,30.55 L44.9147887,25.9161972 C45.1795775,24.393662 45.4112676,22.8049296 45.7091549,21.2823944 C45.8084507,20.7197183 46.0070423,20.2232394 46.3049296,19.7267606 L46.6227941,19.2454462 L46.8553032,18.9122944 C47.7357059,17.6839554 48.9123631,16.430386 50.0450704,16.7809859 C50.8725352,17.0457746 51.1042254,18.1380282 51.2035211,18.8661972 C51.5510563,21.4885083 50.631955,24.5028736 49.5113432,26.9017413 L49.35,27.2401408 C49.2507042,27.471831 49.1183099,27.6704225 49.0190141,27.9021127 C48.8866197,28.1338028 48.6880282,28.2992958 48.4894366,28.4316901 C47.728169,28.8288732 46.9669014,29.2260563 46.2387324,29.656338 C45.6826761,29.8946479 45.190169,30.1753239 44.7273183,30.4814197 Z M59.1471831,18.1380282 L59.4036661,17.8280801 C59.819276,17.3392853 60.3658131,16.777977 60.934507,16.615493 C62.1260563,16.3176056 61.9605634,17.6084507 61.7288732,18.4359155 C61.0338028,20.5873239 59.3457746,22.4739437 57.4922535,23.7978873 C57.3598592,23.8971831 57.128169,23.8640845 57.0288732,23.7316901 C56.9626761,23.665493 56.9626761,23.5661972 56.9626761,23.4669014 L57.0495599,22.9030617 L57.0495599,22.9030617 L57.0619718,22.8380282 C57.3929577,21.1169014 58.1211268,19.528169 59.1471831,18.1380282 Z"></path>
                </g>
            </g>
        </g>
    </g>
</svg>