<svg width="28px" height="28px" viewBox="0 0 28 28" version="1.1" xmlns="http://www.w3.org/2000/svg" xmlns:xlink="http://www.w3.org/1999/xlink">
    <g stroke="none" stroke-width="1" fill="none" fill-rule="evenodd">
        <g id="Apple-TV" transform="translate(-518.000000, -548.000000)" fill-rule="nonzero">
            <g id="icon" transform="translate(532.000000, 562.000000) rotate(-270.000000) translate(-532.000000, -562.000000) translate(518.000000, 548.000000)">
                <rect fill="#000000" opacity="0" x="0" y="0" width="28" height="28"></rect>
                <path d="M12.7717187,14.4101562 C12.7717187,15.3318785 13.5189223,16.079082 14.4406445,16.079082 C15.3623668,16.079082 16.1095703,15.3318785 16.1095703,14.4101562 C16.1095703,13.488434 15.3623668,12.7412305 14.4406445,12.7412305 C13.5189223,12.7412305 12.7717187,13.488434 12.7717187,14.4101562 Z M18.2324609,14.4101562 C18.2324609,15.3318785 18.9796645,16.079082 19.9013867,16.079082 C20.823109,16.079082 21.5703125,15.3318785 21.5703125,14.4101562 C21.5703125,13.488434 20.823109,12.7412305 19.9013867,12.7412305 C18.9796645,12.7412305 18.2324609,13.488434 18.2324609,14.4101562 L18.2324609,14.4101562 Z M7.31097656,14.4101562 C7.31097656,15.33135 8.05775161,16.078125 8.97894531,16.078125 C9.90013902,16.078125 10.6469141,15.33135 10.6469141,14.4101562 C10.6469141,13.4889625 9.90013902,12.7421875 8.97894531,12.7421875 C8.05775161,12.7421875 7.31097656,13.4889625 7.31097656,14.4101562 L7.31097656,14.4101562 Z" fill="#3177EB"></path>
            </g>
        </g>
    </g>
</svg>