<?xml version="1.0" encoding="UTF-8"?>
<svg width="20px" height="20px" viewBox="0 0 20 20" version="1.1" xmlns="http://www.w3.org/2000/svg" xmlns:xlink="http://www.w3.org/1999/xlink">
    <title>1</title>
    <defs>
        <polygon id="path-1" points="0 0 19.9999346 0 19.9999346 19.9995346 0 19.9995346"></polygon>
    </defs>
    <g id="page-1" stroke="none" stroke-width="1" fill="none" fill-rule="evenodd">
        <g id="1">
            <mask id="mask-2" fill="white">
                <use xlink:href="#path-1"></use>
            </mask>
            <g id="Clip-2"></g>
            <path d="M10.2069,9.2395 L10.5009,9.3905 C11.4859,9.9025 12.0359,10.2635 12.4039,10.6355 C12.7989,11.0365 12.9969,11.4715 13.0649,12.0865 C13.1319,12.6995 12.9519,13.2895 12.5419,13.7945 C12.1129,14.3025 11.5329,14.6595 10.8859,14.8135 L10.7709,14.8425 L10.7709,15.9995 C10.7709,16.4245 10.4259,16.7695 10.0019,16.7695 C9.5769,16.7695 9.2319,16.4245 9.2319,15.9995 L9.2319,14.8495 L9.1149,14.8205 C8.6849,14.7195 8.2739,14.5465 7.8999,14.3095 C7.6089,14.1345 7.3439,13.9185 7.1149,13.6675 C6.8359,13.3465 6.8699,12.8605 7.1899,12.5815 C7.5109,12.3025 7.9969,12.3355 8.2759,12.6565 C8.3399,12.7305 8.4959,12.8665 8.7169,13.0055 C9.1199,13.2565 9.5499,13.3825 9.9989,13.3825 C10.5329,13.3825 11.0219,13.1925 11.3069,12.8755 C11.4689,12.7115 11.5519,12.4855 11.5359,12.2555 C11.4829,11.7735 11.0769,11.4245 9.7959,10.7595 L9.4999,10.6075 C8.5149,10.0965 7.9639,9.7365 7.5969,9.3645 C7.2009,8.9635 7.0039,8.5285 6.9379,7.9115 C6.8679,7.2995 7.0489,6.7085 7.4579,6.2055 C7.8559,5.7175 8.4449,5.3545 9.1149,5.1855 L9.2289,5.1555 L9.2289,4.0005 C9.2539,3.5925 9.5919,3.2745 9.9999,3.2745 C10.4089,3.2745 10.7459,3.5925 10.7709,4.0005 L10.7709,5.1505 L10.8879,5.1785 C11.3209,5.2805 11.7279,5.4535 12.1029,5.6895 C12.5319,5.9575 12.7779,6.2055 12.8879,6.3315 C13.1569,6.6525 13.1199,7.1295 12.8039,7.4055 C12.4879,7.6805 12.0089,7.6525 11.7279,7.3425 C11.5969,7.2075 11.4479,7.0895 11.2859,6.9935 C10.9039,6.7475 10.4589,6.6155 10.0039,6.6145 C9.4709,6.6145 8.9809,6.8045 8.6959,7.1225 C8.5339,7.2875 8.4499,7.5135 8.4649,7.7435 C8.5179,8.2255 8.9249,8.5745 10.2069,9.2395 M19.2149,6.1065 C17.6459,2.4065 14.0179,0.0025 9.9999,-0.000525453051 C7.3469,-0.0065 4.8009,1.0485 2.9289,2.9275 C1.0489,4.8005 -0.0051,7.3455 -0.000125453028,9.9995 C-0.0061,12.6535 1.0489,15.1995 2.9289,17.0715 C4.8029,18.9495 7.3479,20.0035 9.9999,19.9995346 C12.6539,20.0065 15.1999,18.9525 17.0719,17.0715 C18.9519,15.1995 20.0069,12.6535 19.9999346,9.9995 C19.9999346,8.6495 19.7359,7.3395 19.2149,6.1065" id="Fill-1" fill="#F7791A" mask="url(#mask-2)"></path>
        </g>
    </g>
</svg>