<?xml version="1.0" encoding="UTF-8"?>
<svg width="338px" height="109px" viewBox="0 0 338 109" version="1.1" xmlns="http://www.w3.org/2000/svg" xmlns:xlink="http://www.w3.org/1999/xlink">
    <defs>
        <path d="M87.92,-9.9475983e-14 C87.92,3.7210185 90.9364815,6.7375 94.6575,6.7375 C98.3785185,6.7375 101.395,3.7210185 101.395,-9.9475983e-14 L101.395,-9.9475983e-14 L323.4,8.02202749e-12 L323.4,93.2375224 L323.399,93.237 L323.4,88.385748 L318.489681,90.8409077 L323.281,93.237 L101.394,93.237 L101.395,93.2228484 C101.395,89.5810005 98.5055139,86.6140282 94.8940327,86.4894227 L94.6575,86.4853484 C90.9364815,86.4853484 87.92,89.5018299 87.92,93.2228484 C87.92,93.2278592 87.9200055,93.2328687 87.9200164,93.2378769 L0.096,93.237 L4.90975798,90.8305227 L-1.50990331e-13,88.3756437 L4.90975798,85.9207647 L-1.50990331e-13,83.4658857 L4.90975798,81.0110067 L-1.55431223e-13,78.5561277 L4.90975798,76.1012487 L-1.53654867e-13,73.6463698 L4.90975798,71.1914908 L-1.55431223e-13,68.7366118 L4.90975798,66.2817328 L-1.55431223e-13,63.8268538 L4.90975798,61.3719748 L-1.56319402e-13,58.9170958 L4.90975798,56.4622168 L-1.58095759e-13,54.0073378 L4.90975798,51.5524588 L-1.5720758e-13,49.0975798 L4.90975798,46.6427008 L-1.5720758e-13,44.1878219 L4.90975798,41.7329429 L-1.60760294e-13,39.2780639 L4.90975798,36.8231849 L-1.63424829e-13,34.3683059 L4.90975798,31.9134269 L-1.62536651e-13,29.4585479 L4.90975798,27.0036689 L-1.64313008e-13,24.5487899 L4.90975798,22.0939109 L-1.64313008e-13,19.6390319 L4.90975798,17.1841529 L-1.65201186e-13,14.729274 L4.90975798,12.274395 L-1.66977543e-13,9.81951597 L4.90975798,7.36463698 L-1.687539e-13,4.90975798 L4.90975798,2.45487899 L-1.687539e-13,7.92165646e-12 Z M323.4,83.4754287 L318.489681,85.9305883 L323.4,88.385748 L323.4,83.4754287 Z M323.4,78.5651093 L318.489681,81.020269 L323.4,83.4754287 L323.4,78.5651093 Z M323.4,73.65479 L318.489681,76.1099497 L323.4,78.5651093 L323.4,73.65479 Z M323.4,68.7444707 L318.489681,71.1996303 L323.4,73.65479 L323.4,68.7444707 Z M323.4,63.8341513 L318.489681,66.289311 L323.4,68.7444707 L323.4,63.8341513 Z M323.4,58.923832 L318.489681,61.3789917 L323.4,63.8341513 L323.4,58.923832 Z M323.4,54.0135127 L318.489681,56.4686723 L323.4,58.923832 L323.4,54.0135127 Z M323.4,49.1031933 L318.489681,51.558353 L323.4,54.0135127 L323.4,49.1031933 Z M323.4,44.192874 L318.489681,46.6480337 L323.4,49.1031933 L323.4,44.192874 Z M323.4,39.2825547 L318.489681,41.7377143 L323.4,44.192874 L323.4,39.2825547 Z M323.4,34.3722353 L318.489681,36.827395 L323.4,39.2825547 L323.4,34.3722353 Z M323.4,29.461916 L318.489681,31.9170757 L323.4,34.3722353 L323.4,29.461916 Z M323.4,24.5515967 L318.489681,27.0067563 L323.4,29.461916 L323.4,24.5515967 Z M323.4,19.6412773 L318.489681,22.096437 L323.4,24.5515967 L323.4,19.6412773 Z M323.4,14.730958 L318.489681,17.1861177 L323.4,19.6412773 L323.4,14.730958 Z M323.4,9.82063867 L318.489681,12.2757983 L323.4,14.730958 L323.4,9.82063867 Z M323.4,4.91031933 L318.489681,7.365479 L323.4,9.82063867 L323.4,4.91031933 Z M323.4,7.69428273e-12 L318.489681,2.45515967 L323.4,4.91031933 L323.4,7.69428273e-12 Z" id="path-1"></path>
        <filter x="-3.7%" y="-12.9%" width="107.4%" height="125.7%" filterUnits="objectBoundingBox" id="filter-3">
            <feOffset dx="0" dy="0" in="SourceAlpha" result="shadowOffsetOuter1"></feOffset>
            <feGaussianBlur stdDeviation="4" in="shadowOffsetOuter1" result="shadowBlurOuter1"></feGaussianBlur>
            <feColorMatrix values="0 0 0 0 0   0 0 0 0 0   0 0 0 0 0  0 0 0 0.178888494 0" type="matrix" in="shadowBlurOuter1"></feColorMatrix>
        </filter>
    </defs>
    <g stroke="none" stroke-width="1" fill="none" fill-rule="evenodd">
        <g transform="translate(-11.000000, -121.000000)">
            <g transform="translate(18.000000, 129.000000)">
                <g transform="translate(162.000000, 47.000000) scale(-1, 1) translate(-162.000000, -47.000000) ">
                    <g transform="translate(0.000000, -0.000000)">
                        <mask id="mask-2" fill="white">
                            <use xlink:href="#path-1"></use>
                        </mask>
                        <g>
                            <use fill="black" fill-opacity="1" filter="url(#filter-3)" xlink:href="#path-1"></use>
                            <use fill="#FFFFFF" fill-rule="evenodd" xlink:href="#path-1"></use>
                        </g>
                        <line x1="94.8401641" y1="9.18100078" x2="94.8401641" y2="92.5" stroke="#17B925" opacity="0.200000003" stroke-linecap="square" stroke-dasharray="5" mask="url(#mask-2)"></line>
                        <line x1="98.32" y1="40.1925" x2="320.264888" y2="40.1925" stroke="#17B925" opacity="0.200000003" stroke-linecap="square" stroke-dasharray="5" mask="url(#mask-2)" transform="translate(209.320000, 40.000000) scale(-1, 1) translate(-209.320000, -40.000000) "></line>
                    </g>
                </g>
            </g>
        </g>
    </g>
</svg>