<svg
                    t="1587535195572"
                    viewBox="0 0 1118 1024"
                    version="1.1"
                    xmlns="http://www.w3.org/2000/svg"
                    p-id="2214"
                    width="18"
                    height="18"
                    fill="#fff"
                    flex="0 0 22px"
                >
                    <path
                        d="M83.858742 413.835636C86.860924 413.835636 89.886379 413.44 92.935106 412.648727L265.548923 366.405818C284.143832 361.402182 295.198378 342.272 290.218014 323.630545 285.214378 305.012364 266.154014 294.074182 247.442742 298.938182L156.236924 323.397818C227.474742 170.007273 381.330742 69.818182 553.642014 69.818182 764.795469 69.818182 946.090014 220.253091 984.699469 427.52 987.841287 444.322909 1002.503105 456.029091 1018.980196 456.029091 1021.098014 456.029091 1023.239105 455.866182 1025.403469 455.447273 1044.347469 451.933091 1056.868196 433.710545 1053.330742 414.743273 1008.554014 174.429091 798.401287 0 553.642014 0 356.05656 0 179.439833 113.640727 95.70456 288.209455L68.661651 187.205818C63.658015 168.587636 44.551106 157.649455 25.886379 162.513455 7.268197 167.517091-3.786349 186.647273 1.194015 205.288727L50.159833 387.979636C54.325651 403.572364 68.452197 413.835636 83.858742 413.835636ZM1109.860196 790.360436 1060.894378 607.6928C1055.914014 589.097891 1036.807105 578.136436 1018.142378 583.023709L845.52856 629.266618C826.910378 634.270255 815.855832 653.400436 820.836196 672.041891 825.839832 690.660073 844.923469 701.621527 863.611469 696.734255L961.031105 670.598982C895.332196 835.113891 733.121287 947.009164 553.642014 947.009164 341.743832 947.009164 160.356197 795.969164 122.305288 587.864436 118.837651 568.873891 100.56856 556.306618 81.694379 559.797527 62.727106 563.265164 50.183106 581.441164 53.627469 600.408436 97.75256 841.700073 308.021651 1016.827345 553.642014 1016.827345 754.602014 1016.827345 936.687832 895.622982 1017.490742 715.492073L1042.415832 808.443345C1046.581651 824.036073 1060.708196 834.322618 1076.114742 834.322618 1079.116923 834.322618 1082.142378 833.926982 1085.167832 833.135709 1103.786014 828.132073 1114.84056 809.001891 1109.860196 790.360436Z"
                        p-id="2215"
                    ></path>
                </svg>