<?xml version="1.0" encoding="UTF-8"?>
<svg width="21px" height="21px" viewBox="0 0 21 21" version="1.1" xmlns="http://www.w3.org/2000/svg" xmlns:xlink="http://www.w3.org/1999/xlink">
    <g stroke="none" stroke-width="1" fill="none" fill-rule="evenodd">
        <g transform="translate(-33.000000, -293.000000)" fill="#17B925" fill-rule="nonzero">
            <g transform="translate(18.000000, 237.000000)">
                <g transform="translate(15.847190, 56.000000)">
                    <path d="M10.0227273,20.5227273 C15.558416,20.5227273 20.0454545,16.0356887 20.0454545,10.5 C20.0454545,4.9643113 15.558416,0.477272727 10.0227273,0.477272727 C4.48703858,0.477272727 0,4.9643113 0,10.5 C0,16.0356887 4.48703858,20.5227273 10.0227273,20.5227273 Z M15.304077,6.70389846 L15.3040769,6.70389851 C15.670795,6.33665625 16.2657884,6.33623342 16.6330307,6.70295145 C17.0002729,7.06966957 17.0006958,7.66466295 16.6339778,8.03190521 L9.12631944,15.5489452 L9.12631943,15.5489452 C8.77917058,15.8967129 8.22269693,15.9182818 7.84966933,15.59843 L3.46474955,11.839921 L3.46474958,11.839921 C3.0706948,11.5020943 3.02511243,10.9087879 3.3629391,10.5147331 C3.70076578,10.1206783 4.29407223,10.075096 4.688127,10.4129226 L8.41157599,13.6051865 L15.304077,6.70392048 L15.304077,6.70389846 Z"></path>
                </g>
            </g>
        </g>
    </g>
</svg>