<?xml version="1.0" encoding="UTF-8"?>
<svg width="12px" height="12px" viewBox="0 0 12 12" version="1.1" xmlns="http://www.w3.org/2000/svg" xmlns:xlink="http://www.w3.org/1999/xlink">
    <g stroke="none" stroke-width="1" fill="none" fill-rule="evenodd">
        <g transform="translate(-161.000000, -298.000000)" fill-rule="nonzero">
            <g transform="translate(18.000000, 237.000000)">
                <g transform="translate(143.000000, 60.000000)">
                    <rect fill="#000000" opacity="0" x="0" y="0.675" width="12.15" height="12.15"></rect>
                    <path d="M6.0671382,1.42921019 C3.13237577,1.42921019 0.753317774,3.80829247 0.753317774,6.74303062 C0.753317774,9.67776877 3.13240005,12.0568511 6.0671382,12.0568511 C9.00186421,12.0568511 11.3809465,9.67776877 11.3809465,6.74303062 C11.3809465,3.80829247 9.00187635,1.42921019 6.0671382,1.42921019 Z M6.0671382,11.2936195 C3.55391367,11.2936195 1.51656145,9.25624302 1.51656145,6.74303063 C1.51656145,4.2298061 3.55390153,2.19245388 6.0671382,2.19245388 C8.58033845,2.19245388 10.617715,4.2298061 10.617715,6.74303063 C10.617715,9.25624302 8.58033846,11.2936195 6.0671382,11.2936195 Z M5.95590747,3.88479776 C5.17377121,3.91045332 4.35318197,4.29509238 4.08393827,5.48749898 C4.72501147,5.57726307 5.03274458,5.6157282 5.03274458,5.6157282 C5.03274458,5.6157282 5.19943892,4.5899795 6.22516332,4.705387 C7.25089988,4.8207945 7.02012129,5.59009692 6.91752335,5.7439574 C6.81496184,6.00040367 5.86615552,6.61584561 5.71228291,6.98766297 C5.55842242,7.35949247 5.57124413,8.05187678 5.57124413,8.05187678 L6.49441916,8.05187678 C6.49441916,8.05187678 6.44312019,7.32102735 6.95600061,7.01330639 C7.46886888,6.70558543 8.34074494,5.8080538 7.95610588,4.94899944 C7.34065181,3.961728 6.73803159,3.85915434 5.95590747,3.88479776 Z M5.55843455,8.39805073 L6.52006257,8.39805073 L6.52006257,9.44929713 L5.55843455,9.44929713 L5.55843455,8.39805073 L5.55843455,8.39805073 Z" fill="#666666"></path>
                </g>
            </g>
        </g>
    </g>
</svg>