<?xml version="1.0" encoding="UTF-8"?>
<svg width="338px" height="109px" viewBox="0 0 338 109" version="1.1" xmlns="http://www.w3.org/2000/svg" xmlns:xlink="http://www.w3.org/1999/xlink">
    <defs>
        <path d="M87.92,-9.9475983e-14 C87.92,3.7210185 90.9364815,6.7375 94.6575,6.7375 C98.3785185,6.7375 101.395,3.7210185 101.395,-9.9475983e-14 L101.395,-9.9475983e-14 L323.4,7.55306928e-12 L323.4,93.2375224 L323.399,93.237 L323.4,93.2291903 L323.383,93.237 L101.394,93.237 L101.395,93.2228484 C101.395,89.5810005 98.5055139,86.6140282 94.8940327,86.4894227 L94.6575,86.4853484 C90.9364815,86.4853484 87.92,89.5018299 87.92,93.2228484 C87.92,93.2278592 87.9200055,93.2328687 87.9200164,93.2378769 L0.12,93.237 L-1.5187851e-13,93.1772779 L4.90406726,90.7252442 L-1.50102153e-13,88.2732106 L4.90406726,85.821177 L-1.50990331e-13,83.3691434 L4.90406726,80.9171097 L-1.55431223e-13,78.4650761 L4.90406726,76.0130425 L-1.53654867e-13,73.5610088 L4.90406726,71.1089752 L-1.54543045e-13,68.6569416 L4.90406726,66.204908 L-1.55431223e-13,63.7528743 L4.90406726,61.3008407 L-1.55431223e-13,58.8488071 L4.90406726,56.3967734 L-1.58095759e-13,53.9447398 L4.90406726,51.4927062 L-1.5720758e-13,49.0406726 L4.90406726,46.5886389 L-1.58095759e-13,44.1366053 L4.90406726,41.6845717 L-1.60760294e-13,39.232538 L4.90406726,36.7805044 L-1.63424829e-13,34.3284708 L4.90406726,31.8764372 L-1.63424829e-13,29.4244035 L4.90406726,26.9723699 L-1.63424829e-13,24.5203363 L4.90406726,22.0683027 L-1.64313008e-13,19.616269 L4.90406726,17.1642354 L-1.64313008e-13,14.7122018 L4.90406726,12.2601681 L-1.66089364e-13,9.80813451 L4.90406726,7.35610088 L-1.687539e-13,4.90406726 L4.90406726,2.45203363 L-1.687539e-13,7.45269878e-12 Z M323.4,88.3223908 L318.493201,90.7757905 L323.4,93.2291903 L323.4,88.3223908 Z M323.4,83.4155913 L318.493201,85.8689911 L323.4,88.3223908 L323.4,83.4155913 Z M323.4,78.5087918 L318.493201,80.9621916 L323.4,83.4155913 L323.4,78.5087918 Z M323.4,73.6019923 L318.493201,76.0553921 L323.4,78.5087918 L323.4,73.6019923 Z M323.4,68.6951928 L318.493201,71.1485926 L323.4,73.6019923 L323.4,68.6951928 Z M323.4,63.7883934 L318.493201,66.2417931 L323.4,68.6951928 L323.4,63.7883934 Z M323.4,58.8815939 L318.493201,61.3349936 L323.4,63.7883934 L323.4,58.8815939 Z M323.4,53.9747944 L318.493201,56.4281941 L323.4,58.8815939 L323.4,53.9747944 Z M323.4,49.0679949 L318.493201,51.5213946 L323.4,53.9747944 L323.4,49.0679949 Z M323.4,44.1611954 L318.493201,46.6145951 L323.4,49.0679949 L323.4,44.1611954 Z M323.4,39.2543959 L318.493201,41.7077957 L323.4,44.1611954 L323.4,39.2543959 Z M323.4,34.3475964 L318.493201,36.8009962 L323.4,39.2543959 L323.4,34.3475964 Z M323.4,29.4407969 L318.493201,31.8941967 L323.4,34.3475964 L323.4,29.4407969 Z M323.4,24.5339974 L318.493201,26.9873972 L323.4,29.4407969 L323.4,24.5339974 Z M323.4,19.627198 L318.493201,22.0805977 L323.4,24.5339974 L323.4,19.627198 Z M323.4,14.7203985 L318.493201,17.1737982 L323.4,19.627198 L323.4,14.7203985 Z M323.4,9.81359898 L318.493201,12.2669987 L323.4,14.7203985 L323.4,9.81359898 Z M323.4,4.90679949 L318.493201,7.36019923 L323.4,9.81359898 L323.4,4.90679949 Z M323.4,7.45269853e-12 L318.493201,2.45339974 L323.4,4.90679949 L323.4,7.45269853e-12 Z" id="path-1"></path>
        <filter x="-3.7%" y="-12.9%" width="107.4%" height="125.7%" filterUnits="objectBoundingBox" id="filter-3">
            <feOffset dx="0" dy="0" in="SourceAlpha" result="shadowOffsetOuter1"></feOffset>
            <feGaussianBlur stdDeviation="4" in="shadowOffsetOuter1" result="shadowBlurOuter1"></feGaussianBlur>
            <feColorMatrix values="0 0 0 0 0   0 0 0 0 0   0 0 0 0 0  0 0 0 0.178888494 0" type="matrix" in="shadowBlurOuter1"></feColorMatrix>
        </filter>
    </defs>
    <g stroke="none" stroke-width="1" fill="none" fill-rule="evenodd">
        <g transform="translate(-11.000000, -121.000000)">
            <g transform="translate(18.000000, 129.000000)">
                <g transform="translate(162.000000, 47.000000) scale(-1, 1) translate(-162.000000, -47.000000) ">
                    <g transform="translate(0.000000, -0.000000)">
                        <mask id="mask-2" fill="white">
                            <use xlink:href="#path-1"></use>
                        </mask>
                        <g>
                            <use fill="black" fill-opacity="1" filter="url(#filter-3)" xlink:href="#path-1"></use>
                            <use fill="#FFFFFF" fill-rule="evenodd" xlink:href="#path-1"></use>
                        </g>
                        <line x1="94.8401641" y1="9.18100078" x2="94.8401641" y2="92.5" stroke="#E89F1F" opacity="0.200000003" stroke-linecap="square" stroke-dasharray="5" mask="url(#mask-2)"></line>
                        <line x1="98.32" y1="40.1925" x2="320.264888" y2="40.1925" stroke="#E89F1F" opacity="0.200000003" stroke-linecap="square" stroke-dasharray="5" mask="url(#mask-2)" transform="translate(209.320000, 40.000000) scale(-1, 1) translate(-209.320000, -40.000000) "></line>
                    </g>
                </g>
            </g>
        </g>
    </g>
</svg>