<?xml version="1.0" encoding="UTF-8"?>
<svg width="99px" height="84px" viewBox="0 0 99 84" version="1.1" xmlns="http://www.w3.org/2000/svg" xmlns:xlink="http://www.w3.org/1999/xlink">
    <g stroke="none" stroke-width="1" fill="none" fill-rule="evenodd">
        <g id="11.02cb" transform="translate(-179.000000, -83.000000)" fill="#000000" fill-rule="nonzero">
            <g transform="translate(179.000000, 83.000000)">
                <path d="M45.2025825,33.6254242 L45.2025825,55.9340574 C45.2025825,57.4777351 46.4474839,58.7226365 47.9911616,58.7226365 C49.5348394,58.7226365 50.7797408,57.4777351 50.7797408,55.9340574 L50.7797408,33.6254242 C50.7797408,32.0817464 49.5348394,30.836845 47.9911616,30.836845 C46.4474839,30.836845 45.2025825,32.0817464 45.2025825,33.6254242 Z M45.2025825,67.088374 C45.2025825,68.6284637 46.4510719,69.8769531 47.9911616,69.8769531 C49.5312514,69.8769531 50.7797408,68.6284637 50.7797408,67.088374 C50.7797408,65.5482842 49.5312514,64.2997948 47.9911616,64.2997948 C46.4510719,64.2997948 45.2025825,65.5482842 45.2025825,67.088374 Z M91.8714464,73.173452 L52.7118278,5.35122342 C51.6661106,3.53864697 49.8236565,2.62239953 47.9911616,2.62239953 C46.1586667,2.62239953 44.3162127,3.52868776 43.2704955,5.35122342 L4.11087683,73.173452 C2.00948326,76.8085642 4.63871503,81.3499645 8.83154297,81.3499645 L87.1507803,81.3499645 C91.3436082,81.3499645 93.97284,76.8085642 91.8714464,73.173452 L91.8714464,73.173452 Z M8.94109429,75.9620312 L47.9911616,8.32902758 L87.1507803,75.7728062 L8.94109429,75.9620312 Z"></path>
            </g>
        </g>
    </g>
</svg>