<?xml version="1.0" encoding="UTF-8"?>
<svg width="12px" height="12px" viewBox="0 0 12 12" version="1.1" xmlns="http://www.w3.org/2000/svg" xmlns:xlink="http://www.w3.org/1999/xlink">
    <g stroke="none" stroke-width="1" fill="none" fill-rule="evenodd">
        <g transform="translate(-210.000000, -336.000000)" fill-rule="nonzero">
            <g transform="translate(20.000000, 320.000000)">
                <g transform="translate(119.000000, 11.000000)">
                    <g transform="translate(71.000000, 5.000000)">
                        <rect fill="#000000" opacity="0" x="0" y="0" width="12" height="12"></rect>
                        <path d="M5.639352,3.51378 C5.639352,3.061116 6.004632,2.68482 6.484584,2.68482 C6.948264,2.68482 7.32444,3.061116 7.32444,3.51378 C7.32444,3.966372 6.948252,4.353612 6.484584,4.353612 C6.004632,4.353612 5.639352,3.966372 5.639352,3.51378 Z M5.224764,9.147408 C4.695972,9.07494 4.582128,8.683848 4.624848,8.247552 C4.66938,7.795008 4.912752,7.257144 5.0667,6.95502 C5.359956,6.37896 5.584692,5.477004 5.028528,5.477004 C4.957512,5.477004 4.841172,5.434896 5.099304,5.297148 C5.40312,5.134944 5.8518,4.911456 6.293796,4.9644 C7.035276,5.05326 7.16832,5.865348 6.833592,6.513252 C6.4866,7.185084 6.187332,7.994736 6.31002,8.269356 C6.394776,8.458644 6.806316,8.514792 7.073664,8.514792 C7.226256,8.514792 7.264332,8.552724 7.188096,8.623848 C6.936996,8.858136 6.288564,9.293088 5.224764,9.147408 Z M0.780204,5.989764 C0.780204,7.451304 1.26558,8.656584 2.31246,9.703692 C3.359592,10.750812 4.565076,11.230752 6.020988,11.230752 C7.47714,11.230752 8.682408,10.750812 9.72954,9.703692 C10.776636,8.656584 11.262024,7.451316 11.262024,5.989764 C11.262024,4.533552 10.776636,3.328344 9.72954,2.281236 C8.682408,1.234116 7.47714,0.7542 6.020988,0.7542 C4.565076,0.7542 3.35958,1.234116 2.31246,2.281236 C1.26558,3.328344 0.780204,4.533564 0.780204,5.989764 Z" fill="#999999"></path>
                    </g>
                </g>
            </g>
        </g>
    </g>
</svg>