<?xml version="1.0" encoding="UTF-8"?>
<svg width="30px" height="30px" viewBox="0 0 30 30" version="1.1" xmlns="http://www.w3.org/2000/svg" xmlns:xlink="http://www.w3.org/1999/xlink">
    <g stroke="none" stroke-width="1" fill="none" fill-rule="evenodd">
        <g transform="translate(-2186.000000, -571.000000)">
            <g transform="translate(2186.000000, 571.000000)">
                <rect x="0" y="0" width="30" height="30" rx="4"></rect>
                <path d="M18.3002634,6.833 C19.1382634,5.817 19.7032634,4.407 19.5492634,3 C18.3422634,3.05 16.8802634,3.804 16.0142634,4.818 C15.2372634,5.717 14.5582634,7.153 14.7402634,8.531 C16.0872634,8.636 17.4622634,7.846 18.3002634,6.833 M21.3222634,15.753 C21.2922634,12.713 23.8012634,11.256 23.9122634,11.183 C22.5022634,9.12 20.3062634,8.838 19.5242634,8.805 C17.6552634,8.616 15.8782634,9.905 14.9292634,9.905 C13.9832634,9.905 12.5192634,8.833 10.9692634,8.861 C8.93226342,8.891 7.05326342,10.045 6.00526342,11.87 C3.88826342,15.543 5.46226342,20.983 7.52626342,23.962 C8.53426342,25.42 9.73626342,27.057 11.3142634,26.999 C12.8332634,26.938 13.4092634,26.016 15.2452634,26.016 C17.0822634,26.016 17.5992634,26.999 19.2082634,26.969 C20.8432634,26.938 21.8792634,25.483 22.8802634,24.021 C24.0382634,22.329 24.5152634,20.691 24.5422634,20.607 C24.5062634,20.591 21.3532634,19.384 21.3222634,15.753" id="Fill-1" fill="#333333"></path>
            </g>
        </g>
    </g>
</svg>