<?xml version="1.0" encoding="UTF-8"?>
<svg width="20px" height="23px" viewBox="0 0 20 23" version="1.1" xmlns="http://www.w3.org/2000/svg" xmlns:xlink="http://www.w3.org/1999/xlink">
    <title>1</title>
    <defs>
        <path d="M3.41111863,7.58686929 L6.109,10.285 L8.58569772,7.80950231 C9.36819011,7.02700991 10.6368609,7.02700991 11.4193533,7.80950231 C12.1935489,8.58369786 12.1935489,9.83891686 11.4193533,10.6131124 C11.4143725,10.6180933 11.4093651,10.6230475 11.4043314,10.627975 L7.50921562,14.4409236 C6.77397413,15.1606552 5.61345885,15.1793581 4.85610447,14.5058634 C4.84251277,14.4954031 4.82915384,14.4844447 4.81590893,14.4732627 C4.78459888,14.4468294 4.75419799,14.4193376 4.7247591,14.3908351 L0.600172715,10.3974452 C-0.182116979,9.64003892 -0.202288945,8.39186869 0.555117367,7.60957899 C0.56250463,7.60194903 0.569953423,7.59437889 0.577463015,7.58686929 C1.35995541,6.8043769 2.62862624,6.8043769 3.41111863,7.58686929 Z" id="path-1"></path>
        <filter x="-50.0%" y="-75.0%" width="200.0%" height="250.1%" filterUnits="objectBoundingBox" id="filter-2">
            <feOffset dx="0" dy="0" in="SourceAlpha" result="shadowOffsetOuter1"></feOffset>
            <feGaussianBlur stdDeviation="2" in="shadowOffsetOuter1" result="shadowBlurOuter1"></feGaussianBlur>
            <feComposite in="shadowBlurOuter1" in2="SourceAlpha" operator="out" result="shadowBlurOuter1"></feComposite>
            <feColorMatrix values="0 0 0 0 0   0 0 0 0 0   0 0 0 0 0  0 0 0 0.2 0" type="matrix" in="shadowBlurOuter1"></feColorMatrix>
        </filter>
        <path d="M3.41111863,0.586869294 L6.109,3.285 L8.58569772,0.809502305 C9.36819011,0.0270099134 10.6368609,0.0270099134 11.4193533,0.809502305 C12.1935489,1.58369786 12.1935489,2.83891686 11.4193533,3.61311241 C11.4143725,3.61809327 11.4093651,3.62304755 11.4043314,3.62797503 L7.50921562,7.44092359 C6.77397413,8.1606552 5.61345885,8.17935813 4.85610447,7.50586343 C4.84251277,7.49540313 4.82915384,7.48444469 4.81590893,7.47326274 C4.78459888,7.44682941 4.75419799,7.41933761 4.7247591,7.39083512 L0.600172715,3.39744523 C-0.182116979,2.64003892 -0.202288945,1.39186869 0.555117367,0.609578994 C0.56250463,0.601949033 0.569953423,0.594378886 0.577463015,0.586869294 C1.35995541,-0.195623098 2.62862624,-0.195623098 3.41111863,0.586869294 Z" id="path-3"></path>
        <filter x="-50.0%" y="-75.0%" width="200.0%" height="250.1%" filterUnits="objectBoundingBox" id="filter-4">
            <feOffset dx="0" dy="0" in="SourceAlpha" result="shadowOffsetOuter1"></feOffset>
            <feGaussianBlur stdDeviation="2" in="shadowOffsetOuter1" result="shadowBlurOuter1"></feGaussianBlur>
            <feComposite in="shadowBlurOuter1" in2="SourceAlpha" operator="out" result="shadowBlurOuter1"></feComposite>
            <feColorMatrix values="0 0 0 0 0   0 0 0 0 0   0 0 0 0 0  0 0 0 0.2 0" type="matrix" in="shadowBlurOuter1"></feColorMatrix>
        </filter>
    </defs>
    <g id="11" stroke="none" stroke-width="1" fill="none" fill-rule="evenodd">
        <g id="1" transform="translate(-17.000000, -6.000000)">
            <g transform="translate(21.000000, 10.000000)">
                <g id="2">
                    <use fill="black" fill-opacity="1" filter="url(#filter-2)" xlink:href="#path-1"></use>
                    <path stroke="#FDD0C7" stroke-width="1.2" d="M1.99135403,7.60285281 C2.35285666,7.5999783 2.71257375,7.73685255 2.98683496,8.01111376 L2.98683496,8.01111376 L6.1088776,11.1334449 L9.00996179,8.23376637 C9.2840507,7.95967747 9.64328811,7.82263301 10.0025255,7.82263301 C10.3617629,7.82263301 10.7210004,7.95967747 10.9950893,8.23376637 C11.2650298,8.50370686 11.4,8.85750711 11.4,9.21130736 C11.4,9.5651076 11.2650298,9.91890785 10.9996269,10.1843587 L10.9996269,10.1843587 L7.08949801,14.0121613 C6.83614128,14.2601735 6.50978157,14.3878761 6.18124829,14.3959175 C5.85406973,14.4039258 5.52461717,14.2935359 5.26318258,14.0648794 L5.26318258,14.0648794 L1.01752565,9.96638082 C0.745415957,9.7029265 0.605852825,9.35411912 0.600180698,9.00314791 C0.594508572,8.65217669 0.72272745,8.29904163 0.979477356,8.03374712 C1.26304061,7.7500556 1.62753293,7.60574576 1.99135403,7.60285281 Z" stroke-linejoin="square" fill="#FFFFFF" fill-rule="evenodd"></path>
                </g>
                <g>
                    <use fill="black" fill-opacity="1" filter="url(#filter-4)" xlink:href="#path-3"></use>
                    <path stroke="#FDD0C7" stroke-width="1.2" d="M1.99135403,0.602852813 C2.35285666,0.599978298 2.71257375,0.736852546 2.98683496,1.01111376 L2.98683496,1.01111376 L6.1088776,4.13344494 L9.00996179,1.23376637 C9.2840507,0.959677465 9.64328811,0.822633011 10.0025255,0.822633011 C10.3617629,0.822633011 10.7210004,0.959677465 10.9950893,1.23376637 C11.2650298,1.50370686 11.4,1.85750711 11.4,2.21130736 C11.4,2.5651076 11.2650298,2.91890785 10.9996269,3.18435872 L10.9996269,3.18435872 L7.08949801,7.01216126 C6.83614128,7.26017345 6.50978157,7.38787606 6.18124829,7.39591753 C5.85406973,7.40392583 5.52461717,7.29353593 5.26318258,7.06487942 L5.26318258,7.06487942 L1.01752565,2.96638082 C0.745415957,2.7029265 0.605852825,2.35411912 0.600180698,2.00314791 C0.594508572,1.65217669 0.72272745,1.29904163 0.979477356,1.03374712 C1.26304061,0.750055605 1.62753293,0.605745762 1.99135403,0.602852813 Z" stroke-linejoin="square" fill="#FFFFFF" fill-rule="evenodd"></path>
                </g>
            </g>
        </g>
    </g>
</svg>