<?xml version="1.0" encoding="UTF-8"?>
<svg width="16px" height="17px" viewBox="0 0 16 17" version="1.1" xmlns="http://www.w3.org/2000/svg" xmlns:xlink="http://www.w3.org/1999/xlink">
    <title>logo</title>
    <g stroke="none" stroke-width="1" fill="none" fill-rule="evenodd">
        <g transform="translate(-44.000000, -198.000000)">
            <g transform="translate(36.000000, 191.500000)">
                <g id="logo" transform="translate(8.000000, 7.000000)">
                    <circle fill="#FFFFFF" cx="8" cy="8" r="8"></circle>
                    <path d="M11.4779136,12.0999333 C10.3568265,12.3639306 7.29416717,13.7978947 5.22967951,12.5800863 C2.61148238,11.047512 2.60459912,6.56093118 5.87562471,3.80085203 C6.61744395,3.1502809 7.5909342,2.77669646 8.610149,2.75163227 C9.44715395,2.68878886 10.2092297,3.20095812 10.4080577,3.95992729 C10.5643078,4.72264693 10.3234918,5.50915011 9.7585725,6.08077821 C9.52129654,6.30900866 9.24950593,6.50394217 8.95195224,6.65944989 C8.84437665,6.72110413 8.72972113,6.7712325 8.610149,6.80892026 C8.16578511,6.96470241 7.73853106,6.94878573 7.58473926,6.4909527 C7.44343568,5.88593618 7.79969378,5.27588853 8.42213755,5.05689706 C8.62725883,4.98380843 9.34842827,4.75804781 9.07152438,4.70078438 C8.35035493,4.5418006 7.20193143,5.10775724 6.92846917,5.97265461 C6.6550069,6.83755197 7.27027241,7.35585007 8.17266838,7.24452483 C8.62529218,7.18588928 9.06090448,7.04428577 9.45443055,6.82803856 C10.706988,6.32318731 12.0230682,5.96734905 13.3714997,5.76912244 C13.5766209,5.73738057 13.7133029,5.38126788 13.4706187,5.41300975 C12.5126649,5.5540644 11.5684777,5.76674408 10.6473003,6.04894486 C10.6002974,6.06230023 10.5500496,6.04025473 10.5310714,5.99808469 C10.5227132,5.97430116 10.5227132,5.94868812 10.5310714,5.92499606 C10.645137,5.78293518 10.743666,5.63053761 10.8250852,5.47027318 C11.2250028,4.71670105 11.2967854,3.73096503 10.6815199,3.05999494 C9.97047871,2.28099272 8.67848998,2.30642281 7.7179796,2.55441189 C6.44113404,2.91381768 5.29300554,3.58853825 4.39562452,4.5068571 C2.51570668,6.42737748 1.49029694,9.9504507 3.48300199,12.1571968 C4.32866019,13.0433164 5.53205148,13.5627122 6.80535707,13.5912524 C8.4870369,13.7057793 10.6062957,12.6627798 11.2113346,12.3892692 C11.5872592,12.2144602 11.8880578,12.0077264 11.4779136,12.0999333" id="Fill-2" fill="#EA5A4F"></path>
                </g>
            </g>
        </g>
    </g>
</svg>