<?xml version="1.0" encoding="UTF-8"?>
<svg width="16px" height="16px" viewBox="0 0 16 16" version="1.1" xmlns="http://www.w3.org/2000/svg" xmlns:xlink="http://www.w3.org/1999/xlink">
    <title>1</title>
    <g id="1" stroke="none" stroke-width="1" fill="none" fill-rule="evenodd">
        <g>
            <rect x="0" y="0" width="16" height="16"></rect>
            <path d="M14.8503226,12.2371084 L13.2642357,9.25301205 C13.2478632,9.22024096 13.2376304,9.18554217 13.2376304,9.14891566 L13.2335373,5.84481928 C13.2314907,3.98072289 11.8909915,2.41156627 10.0715963,1.94313253 L10.0715963,1.94120482 C10.0715963,0.86939759 9.14859606,0 8.01070662,0 C6.87486374,0 5.95391006,0.865542169 5.94981693,1.93542169 C4.10995613,2.39614458 2.75308437,3.97686747 2.75513093,5.85445783 L2.75922406,9.15855422 C2.75922406,9.19518072 2.75103781,9.22987952 2.73261873,9.2626506 L1.1485784,12.2428916 C0.68605499,13.1142169 1.35937446,14.1416867 2.39493571,14.1397617 L13.6080585,14.1320482 C14.6415731,14.1339759 15.3148926,13.1084337 14.8503226,12.2371084 Z M6.14219392,14.6987829 C5.93549099,14.6987829 5.82292998,14.9243373 5.9518635,15.0766265 C6.43075941,15.6395181 7.16752236,16 7.99228755,16 C8.8190993,16 9.55586224,15.6395181 10.0368047,15.0746988 C10.1657382,14.9224096 10.0531772,14.6968675 9.84647429,14.6987829 L6.14219392,14.6987829 Z" fill="#CCCCCC" fill-rule="nonzero"></path>
        </g>
    </g>
</svg>