<?xml version="1.0" encoding="UTF-8"?>
<svg width="142px" height="28px" viewBox="0 0 142 28" version="1.1" xmlns="http://www.w3.org/2000/svg" xmlns:xlink="http://www.w3.org/1999/xlink">
    <title>img_low</title>
    <defs>
        <linearGradient x1="50%" y1="0%" x2="50%" y2="100%" id="linearGradient-1">
            <stop stop-color="#EA5A4F" stop-opacity="0.408587262" offset="0%"></stop>
            <stop stop-color="#EA5A4F" stop-opacity="0.0195047872" offset="100%"></stop>
        </linearGradient>
        <linearGradient x1="2.6397436%" y1="49.7222826%" x2="100%" y2="50.3820507%" id="linearGradient-2">
            <stop stop-color="#EA5A4F" stop-opacity="0" offset="0%"></stop>
            <stop stop-color="#EA5A4F" stop-opacity="0.783750307" offset="5.39884457%"></stop>
            <stop stop-color="#EA5A4F" offset="50.8072334%"></stop>
            <stop stop-color="#EA5A4F" stop-opacity="0.805143343" offset="95.3887321%"></stop>
            <stop stop-color="#EA5A4F" stop-opacity="0" offset="100%"></stop>
        </linearGradient>
    </defs>
    <g stroke="none" stroke-width="1" fill="none" fill-rule="evenodd">
        <g transform="translate(-439.000000, -63.000000)">
            <g id="img_low" transform="translate(440.000000, 64.000000)">
                <path d="M0,5.9145936 C0,5.9145936 2.3246754,5.41781141 7.83773432,9.76235895 C13.3507932,14.1069065 20.2147367,18.4199802 30.6239469,7.87015723 C41.033157,-2.67966577 48.9895044,8.54399126 52.7450927,11.9805563 C56.500681,15.4171213 62.7856029,18.4149126 68.6190348,6.68183355 C74.4524666,-5.05124552 87.6188559,1.3910936 94.2167498,5.54485115 C100.814644,9.69860869 103.83032,3.46772375 113.440352,9.9145936 C117.095951,12.366945 121.894481,12.1743053 124.926307,11.0444495 C127.958133,9.9145936 137.445253,11.0444495 139.840339,15.0643968 C139.840339,15.580282 139.840339,17.058659 139.840339,19.4995278 L0,19.4995278 C0,10.442905 0,5.9145936 0,5.9145936 Z" fill="url(#linearGradient-1)"></path>
                <path d="M0,5.9145936 C0,5.9145936 2.3246754,5.41781141 7.83773432,9.76235895 C13.3507932,14.1069065 20.2147367,18.4199802 30.6239469,7.87015723 C41.033157,-2.67966577 48.9895044,8.54399126 52.7450927,11.9805563 C56.500681,15.4171213 63.1577179,15.4171213 68.6190348,6.68183355 C74.0803516,-2.05345425 86.7538208,0.377244986 94.2167498,5.54485115 C101.679679,10.7124573 105.243272,4.57823865 113.440352,8.9145936 C118.047534,11.3518494 121.894481,11.1743053 124.926307,10.0444495 C127.958133,8.9145936 137.445253,10.0444495 139.840339,14.0643968" stroke="url(#linearGradient-2)" stroke-width="2"></path>
                <g transform="translate(48.452959, 1.544851)" fill="#EA5B50">
                    <circle opacity="0.100000001" cx="12.5" cy="12.5" r="12.5"></circle>
                    <circle opacity="0.200000003" cx="12.5" cy="12.5" r="8.5"></circle>
                    <circle cx="12.5" cy="12.5" r="3.5"></circle>
                </g>
            </g>
        </g>
    </g>
</svg>