<?xml version="1.0" encoding="UTF-8"?>
<svg width="140px" height="37px" viewBox="0 0 140 37" version="1.1" xmlns="http://www.w3.org/2000/svg" xmlns:xlink="http://www.w3.org/1999/xlink">
    <title>img_medium</title>
    <defs>
        <linearGradient x1="50%" y1="22.0258414%" x2="50%" y2="100%" id="linearGradient-1">
            <stop stop-color="#FF7A17" stop-opacity="0.3488411" offset="0%"></stop>
            <stop stop-color="#FF7A17" stop-opacity="0.0197830734" offset="100%"></stop>
        </linearGradient>
        <linearGradient x1="0%" y1="50%" x2="100%" y2="50%" id="linearGradient-2">
            <stop stop-color="#FF7A17" stop-opacity="0" offset="0%"></stop>
            <stop stop-color="#FF7A17" offset="4.80424843%"></stop>
            <stop stop-color="#FF7A17" offset="49.7916313%"></stop>
            <stop stop-color="#FF7A17" offset="93.9935909%"></stop>
            <stop stop-color="#FF7A17" stop-opacity="0" offset="100%"></stop>
        </linearGradient>
    </defs>
    <g stroke="none" stroke-width="1" fill="none" fill-rule="evenodd">
        <g transform="translate(-249.000000, -54.000000)">
            <g id="img_medium" transform="translate(250.000000, 54.000000)">
                <path d="M0,22.0645236 C5.23004746,23.2351775 10.1481696,22.3819136 14.7543664,19.5047321 C21.6636616,15.1889599 31.2380371,15.3139997 39.5922596,23.8205044 C47.946482,32.3270091 59.6190531,20.3314343 66.2108299,16.0156621 C72.8026067,11.6998898 86.5634522,10.2808557 94.5566924,16.0156621 C102.549933,21.7504685 106.551855,19.3826464 111.696059,13.9828718 C116.840262,8.5830973 125.402461,5.43663731 138,16.0156621 C137.727648,16.1972186 137.727648,23.1919979 138,37 L0,37 L0,22.0645236 Z" fill="url(#linearGradient-1)"></path>
                <path d="M0,22.0645236 C5.23004746,23.2351775 10.1481696,22.3819136 14.7543664,19.5047321 C21.6636616,15.1889599 31.2380371,15.3139997 39.5922596,23.8205044 C47.946482,32.3270091 59.6190531,20.3314343 66.2108299,16.0156621 C72.8026067,11.6998898 86.5634522,10.2808557 94.5566924,16.0156621 C102.549933,21.7504685 106.551855,19.3826464 111.696059,13.9828718 C116.840262,8.5830973 125.402461,5.43663731 138,16.0156621" stroke="url(#linearGradient-2)" stroke-width="2"></path>
                <g transform="translate(67.000000, 0.000000)" fill="#FF7A17">
                    <circle opacity="0.100000001" cx="12.5" cy="12.5" r="12.5"></circle>
                    <circle opacity="0.200000003" cx="12.5" cy="12.5" r="8.5"></circle>
                    <circle cx="12.5" cy="12.5" r="3.5"></circle>
                </g>
            </g>
        </g>
    </g>
</svg>