<?xml version="1.0" encoding="UTF-8"?>
<svg width="142px" height="56px" viewBox="0 0 142 56" version="1.1" xmlns="http://www.w3.org/2000/svg" xmlns:xlink="http://www.w3.org/1999/xlink">
    <title>img_high</title>
    <defs>
        <linearGradient x1="50%" y1="32.2189058%" x2="50%" y2="91.5185584%" id="linearGradient-1">
            <stop stop-color="#21B88D" stop-opacity="0.270364401" offset="0%"></stop>
            <stop stop-color="#21B88D" stop-opacity="0" offset="100%"></stop>
        </linearGradient>
        <linearGradient x1="0%" y1="52.3615125%" x2="100%" y2="48.4889114%" id="linearGradient-2">
            <stop stop-color="#21B88D" stop-opacity="0" offset="0%"></stop>
            <stop stop-color="#21B88D" offset="9.9432829%"></stop>
            <stop stop-color="#21B88D" offset="53.0141843%"></stop>
            <stop stop-color="#21B88D" offset="93.6313652%"></stop>
            <stop stop-color="#21B88D" stop-opacity="0" offset="100%"></stop>
        </linearGradient>
    </defs>
    <g stroke="none" stroke-width="1" fill="none" fill-rule="evenodd">
        <g transform="translate(-48.000000, -45.000000)">
            <g id="img_high-2" transform="translate(48.000000, 45.000000)">
                <g id="img_high" transform="translate(0.998647, 0.000000)">
                    <path d="M0,37.5 C0,37.5 0.508093557,39.0382846 8.33544925,41.1216745 C19.962373,44.2163871 23.7623936,35.6863275 35.5550026,32.3431638 C47.3476116,29 62.3589008,42.5 71.0848138,29 C79.8107267,15.5 92.3592211,21.772744 99.6092269,22.9292803 C106.859233,24.0858167 110.690152,21.1729898 114.285453,18.1476077 C117.880754,15.1222257 123.715062,9.2923214 139.84425,12.1717479 L139.84425,56 L0,56 L0,37.5 Z" fill="url(#linearGradient-1)"></path>
                    <path d="M0,37.5 C0,37.5 0.508093557,39.0382846 8.33544925,41.1216745 C19.962373,44.2163871 23.7623936,35.6863275 35.5550026,32.3431638 C47.3476116,29 62.3589008,42.5 71.0848138,29 C79.8107267,15.5 92.3592211,21.772744 99.6092269,22.9292803 C106.859233,24.0858167 110.690152,21.1729898 114.285453,18.1476077 C117.880754,15.1222257 123.715062,9.2923214 139.84425,12.1717479" stroke="url(#linearGradient-2)" stroke-width="2"></path>
                    <circle fill="#21B88D" opacity="0.100000001" cx="123.501353" cy="12.5" r="12.5"></circle>
                    <circle fill="#21B88D" opacity="0.200000003" cx="123.501353" cy="12.5" r="8.5"></circle>
                    <circle fill="#21B88D" cx="123.501353" cy="12.5" r="3.5"></circle>
                </g>
            </g>
        </g>
    </g>
</svg>