<?xml version="1.0" encoding="UTF-8"?>
<svg width="95px" height="51px" viewBox="0 0 95 51" version="1.1" xmlns="http://www.w3.org/2000/svg" xmlns:xlink="http://www.w3.org/1999/xlink">
    <title>img_AT </title>
    <defs>
        <ellipse id="path-1" cx="7.26595497" cy="7.33625979" rx="7.26595497" ry="7.33625979"></ellipse>
        <filter x="-3.4%" y="-3.4%" width="106.9%" height="113.6%" filterUnits="objectBoundingBox" id="filter-2">
            <feOffset dx="0" dy="1" in="SourceAlpha" result="shadowOffsetOuter1"></feOffset>
            <feColorMatrix values="0 0 0 0 1   0 0 0 0 0.410893794   0 0 0 0 0  0 0 0 1 0" type="matrix" in="shadowOffsetOuter1"></feColorMatrix>
        </filter>
        <ellipse id="path-3" cx="9.44574146" cy="9.53713773" rx="9.44574146" ry="9.53713773"></ellipse>
        <filter x="-2.6%" y="-2.6%" width="105.3%" height="110.5%" filterUnits="objectBoundingBox" id="filter-4">
            <feOffset dx="0" dy="1" in="SourceAlpha" result="shadowOffsetOuter1"></feOffset>
            <feColorMatrix values="0 0 0 0 1   0 0 0 0 0.411764706   0 0 0 0 0  0 0 0 1 0" type="matrix" in="shadowOffsetOuter1"></feColorMatrix>
        </filter>
    </defs>
    <g stroke="none" stroke-width="1" fill="none" fill-rule="evenodd">
        <g transform="translate(-24.000000, -87.000000)">
            <g id="img_AT-" transform="translate(24.000000, 87.000000)">
                <g transform="translate(51.399651, 21.938522) rotate(-357.000000) translate(-51.399651, -21.938522) translate(20.220087, 6.426020)">
                    <path d="M12.4718256,-4.4408921e-16 C12.4718256,1.71346372 13.8677823,3.10250051 15.589782,3.10250051 C17.3117818,3.10250051 18.7077384,1.71346372 18.7077384,-4.4408921e-16 L59.2503423,0 C60.9672773,2.73449345e-15 62.3591282,1.39185085 62.3591282,3.10878589 L62.3591282,27.9162192 C62.3591282,29.6331542 60.9672773,31.0250051 59.2503423,31.0250051 L18.7077384,31.0250051 C18.7077384,29.3115414 17.3117818,27.9225046 15.589782,27.9225046 C13.8677823,27.9225046 12.4718256,29.3115414 12.4718256,31.0250051 L3.10878589,31.0250051 C1.39185085,31.0250051 2.05359166e-15,29.6331542 0,27.9162192 L-4.4408921e-16,19.3906282 C2.15249972,19.3906282 3.89744551,17.6543322 3.89744551,15.5125025 C3.89744551,13.3706729 2.15249972,11.6343769 -4.4408921e-16,11.6343769 L0,3.10878589 C-2.102639e-16,1.39185085 1.39185085,-1.2869336e-16 3.10878589,0 L12.4718256,-4.4408921e-16 Z M16.3692711,24.0443789 L14.8102929,24.0443789 L14.8102929,25.5956292 L16.3692711,25.5956292 L16.3692711,24.0443789 Z M16.3692711,19.3906282 L14.8102929,19.3906282 L14.8102929,21.7175035 L16.3692711,21.7175035 L16.3692711,19.3906282 Z M16.3692711,14.7368774 L14.8102929,14.7368774 L14.8102929,17.0637528 L16.3692711,17.0637528 L16.3692711,14.7368774 Z M16.3692711,10.0831266 L14.8102929,10.0831266 L14.8102929,12.410002 L16.3692711,12.410002 L16.3692711,10.0831266 Z M16.3692711,5.42937589 L14.8102929,5.42937589 L14.8102929,7.75625127 L16.3692711,7.75625127 L16.3692711,5.42937589 Z" fill="#2F3AA4"></path>
                    <rect stroke-opacity="0.29" stroke="#FFFFFF" stroke-width="0.522222222" x="22.8662951" y="2.58798649" width="36.1137656" height="25.8490321" rx="1.55439294"></rect>
                    <text id="$" font-family="Circular-Black, Circular" font-size="18.6527153" font-weight="800" fill="#FFFFFF">
                        <tspan x="35.3957836" y="21.4602926">$</tspan>
                    </text>
                </g>
                <g transform="translate(13.084681, 11.077852)">
                    <path d="M14.4600877,3.15303339e-14 C14.4600877,2.01583967 16.0785881,3.6500006 18.0751096,3.6500006 C20.0716311,3.6500006 21.6901315,2.01583967 21.6901315,3.15303339e-14 L65.684623,0 C67.6815828,-7.4614616e-15 69.3004384,1.6188557 69.3004384,3.6158154 L69.3004384,28.8841846 C69.3004384,30.8811443 67.6815828,32.5 65.684623,32.5 L21.6901315,32.500006 L21.6901315,32.500006 C21.6901315,30.4841663 20.0716311,28.8500054 18.0751096,28.8500054 C16.0785881,28.8500054 14.4600877,30.4841663 14.4600877,32.500006 L3.6158154,32.5 C1.6188557,32.5 -1.99532179e-16,30.8811443 0,28.8841846 L-1.77635684e-14,20.8125037 L-1.77635684e-14,20.8125037 C2.49565185,20.8125037 4.5187774,18.7698026 4.5187774,16.250003 C4.5187774,13.7302034 2.49565185,11.6875022 -1.77635684e-14,11.6875022 L0,3.6158154 C-2.44557031e-16,1.6188557 1.6188557,1.69910318e-15 3.6158154,0 L14.4600877,3.15303339e-14 L14.4600877,3.15303339e-14 Z" fill="#646FD2"></path>
                    <path d="M17.1713541,6.25000298 L17.1713541,8.55769529 L18.9788651,8.55769529 L18.9788651,6.25000298 L17.1713541,6.25000298 Z M17.1713541,10.8653876 L17.1713541,13.1730799 L18.9788651,13.1730799 L18.9788651,10.8653876 L17.1713541,10.8653876 Z M17.1713541,15.4807722 L17.1713541,17.7884645 L18.9788651,17.7884645 L18.9788651,15.4807722 L17.1713541,15.4807722 Z M17.1713541,20.0961568 L17.1713541,22.4038491 L18.9788651,22.4038491 L18.9788651,20.0961568 L17.1713541,20.0961568 Z M17.1713541,24.7115414 L17.1713541,26.250003 L18.9788651,26.250003 L18.9788651,24.7115414 L17.1713541,24.7115414 Z" fill="#FFFFFF" fill-rule="nonzero"></path>
                    <path d="M63.8775088,2.99861156 C64.3046449,2.99861156 64.6913441,3.17174266 64.9712592,3.45165779 C65.2511743,3.73157292 65.4243054,4.11827206 65.4243054,4.54540815 L65.4243054,4.54540815 L65.4243054,27.9545978 C65.4243054,28.3817339 65.2511743,28.768433 64.9712592,29.0483482 C64.6913441,29.3282633 64.3046449,29.5013944 63.8775088,29.5013944 L63.8775088,29.5013944 L28.0168166,29.5013944 C27.5896806,29.5013944 27.2029814,29.3282633 26.9230663,29.0483482 C26.6431512,28.768433 26.47002,28.3817339 26.47002,27.9545978 L26.47002,27.9545978 L26.47002,4.54540815 C26.47002,4.11827206 26.6431512,3.73157292 26.9230663,3.45165779 C27.2029814,3.17174266 27.5896806,2.99861156 28.0168166,2.99861156 L28.0168166,2.99861156 Z" stroke-opacity="0.29" stroke="#FFFFFF" stroke-width="0.522222222"></path>
                    <text id="$" font-family="Circular-Black, Circular" font-size="21.6948929" font-weight="800" fill="#FFFFFF">
                        <tspan x="40.0385897" y="23.0614117">$</tspan>
                    </text>
                </g>
                <g transform="translate(11.448593, 39.429126) rotate(-30.000000) translate(-11.448593, -39.429126) translate(3.125873, 30.947313)">
                    <ellipse fill="#FCA022" cx="8.32272002" cy="8.48181292" rx="8.32272002" ry="8.48181292"></ellipse>
                    <ellipse fill="#FFD62F" cx="8.32272002" cy="8.48181292" rx="6.87529045" ry="7.00671502"></ellipse>
                    <text id="$" font-family="Circular-Black, Circular" font-size="10.17457" font-weight="800" fill="#FF8500">
                        <tspan x="5.06600349" y="11.9397518">$</tspan>
                    </text>
                </g>
                <g transform="translate(21.285499, 39.699220) rotate(-345.000000) translate(-21.285499, -39.699220) translate(14.019544, 32.362961)">
                    <g>
                        <use fill="black" fill-opacity="1" filter="url(#filter-2)" xlink:href="#path-1"></use>
                        <use fill="#FCA022" fill-rule="evenodd" xlink:href="#path-1"></use>
                    </g>
                    <ellipse fill="#FFD62F" cx="7.26595497" cy="7.33625979" rx="6.00231063" ry="6.06038852"></ellipse>
                    <text id="$" font-family="Circular-Black, Circular" font-size="8.84745215" font-weight="800" fill="#FF8500">
                        <tspan x="4.4227552" y="10.6464369">$</tspan>
                    </text>
                </g>
                <g transform="translate(81.115665, 12.982274) rotate(-330.000000) translate(-81.115665, -12.982274) translate(71.669924, 3.445137)">
                    <g>
                        <use fill="black" fill-opacity="1" filter="url(#filter-4)" xlink:href="#path-3"></use>
                        <use fill="#FCA022" fill-rule="evenodd" xlink:href="#path-3"></use>
                    </g>
                    <ellipse fill="#FFD62F" cx="9.44574146" cy="9.53713773" rx="7.80300381" ry="7.87850508"></ellipse>
                    <text id="$" font-family="Circular-Black, Circular" font-size="11.5016878" font-weight="800" fill="#FF8500">
                        <tspan x="5.74958176" y="13.1394791">$</tspan>
                    </text>
                </g>
            </g>
        </g>
    </g>
</svg>