<svg width="112" height="71" xmlns="http://www.w3.org/2000/svg" xmlns:xlink="http://www.w3.org/1999/xlink"><defs><path d="M2.83 0a2.83 2.83 0 0 1 2.829 2.83v10.222H0V2.83A2.83 2.83 0 0 1 2.83 0Z" id="a"/><path d="M2.83 0a2.83 2.83 0 0 1 2.829 2.83v13.298H0V2.83A2.83 2.83 0 0 1 2.83 0Z" id="c"/><path d="M2.83 0a2.83 2.83 0 0 1 2.829 2.83v13.298H0V2.83A2.83 2.83 0 0 1 2.83 0Z" id="e"/><path d="M3.836 9.601C1.506 6.681.24 4.642.036 3.485-.267 1.75 1.352-.805 4.212.246 7.07 1.298 14.29 15.888 14.29 16.225c0 .225-3.485-1.983-10.455-6.624Z" id="k"/><path d="M3.836 9.601C1.506 6.681.24 4.642.036 3.485-.267 1.75 1.352-.805 4.212.246 7.07 1.298 14.29 15.888 14.29 16.225c0 .225-3.485-1.983-10.455-6.624Z" id="m"/><path d="M3.836 9.601C1.506 6.681.24 4.642.036 3.485-.267 1.75 1.352-.805 4.212.246 7.07 1.298 14.29 15.888 14.29 16.225c0 .225-3.485-1.983-10.455-6.624Z" id="o"/><ellipse id="h" cx="10.41" cy="10.84" rx="10.41" ry="10.84"/><ellipse id="j" cx="8.008" cy="8.339" rx="8.008" ry="8.339"/><filter x="-2.4%" y="-2.3%" width="104.8%" height="109.2%" filterUnits="objectBoundingBox" id="g"><feOffset dy="1" in="SourceAlpha" result="shadowOffsetOuter1"/><feColorMatrix values="0 0 0 0 1 0 0 0 0 0.411764706 0 0 0 0 0 0 0 0 1 0" in="shadowOffsetOuter1"/></filter><filter x="-3.1%" y="-3%" width="106.2%" height="112%" filterUnits="objectBoundingBox" id="i"><feOffset dy="1" in="SourceAlpha" result="shadowOffsetOuter1"/><feColorMatrix values="0 0 0 0 1 0 0 0 0 0.410893794 0 0 0 0 0 0 0 0 1 0" in="shadowOffsetOuter1"/></filter></defs><g fill="none" fill-rule="evenodd"><g transform="rotate(-10 102.235 -298.622)"><ellipse fill="#FCA022" cx="9.209" cy="9.59" rx="9.209" ry="9.59"/><ellipse fill="#FFD62F" cx="9.209" cy="9.59" rx="7.607" ry="7.922"/><text font-family="Circular-Black, Circular" font-size="11.235" font-weight="800" fill="#FF8500">
                            <tspan x="5.605" y="13.368">$</tspan>
                        </text></g><path fill="#FFEBD1" d="m14.68 58.618-5.185 1.083 2.236 10.606 18.016-3.387-3.355-6.406-6.321-3.12z"/><path d="M18 26.095c.061.688.646 1.199 1.306 1.141.661-.058 1.148-.663 1.088-1.35l1.596-.14c.06.688.644 1.199 1.305 1.141.661-.058 1.148-.663 1.088-1.35l1.595-.14c.06.688.645 1.199 1.306 1.141.66-.058 1.148-.663 1.087-1.35l1.596-.14c.06.688.645 1.199 1.306 1.141.66-.058 1.147-.662 1.087-1.35l1.596-.14c.06.688.644 1.199 1.305 1.141.661-.058 1.148-.662 1.088-1.35l1.595-.14c.06.688.645 1.199 1.306 1.141.66-.058 1.148-.662 1.088-1.35l1.595-.14c.06.688.645 1.199 1.306 1.141.66-.058 1.147-.662 1.087-1.35l1.596-.14c.06.688.644 1.2 1.305 1.141.661-.058 1.148-.662 1.088-1.35l1.595-.14c.06.688.645 1.2 1.306 1.141.66-.058 1.148-.662 1.088-1.35l1.595-.14c.06.688.645 1.2 1.306 1.141.66-.058 1.147-.662 1.087-1.35l1.596-.14c.06.688.645 1.2 1.305 1.141.661-.057 1.148-.662 1.088-1.35l1.595-.14c.06.688.645 1.2 1.306 1.141.66-.057 1.148-.662 1.088-1.35l1.595-.14c.06.688.645 1.2 1.306 1.141.66-.057 1.148-.662 1.087-1.35l1.596-.14c.06.688.645 1.2 1.305 1.141.661-.057 1.148-.662 1.088-1.35l1.596-.14c.06.688.644 1.2 1.305 1.141.661-.057 1.148-.662 1.088-1.35l1.595-.14c.06.688.645 1.2 1.306 1.142.66-.058 1.148-.663 1.087-1.351l1.596-.14c.06.688.645 1.2 1.306 1.142.66-.058 1.147-.663 1.087-1.351l1.596-.14c.06.688.644 1.2 1.305 1.142.661-.058 1.148-.663 1.088-1.351l1.595-.14c.06.688.645 1.2 1.306 1.142.66-.058 1.148-.663 1.087-1.351l1.596-.14c.06.688.645 1.2 1.306 1.142.66-.058 1.147-.663 1.087-1.351l.798-.07 1.235 14.122c-3.524.308-6.121 3.534-5.8 7.204.321 3.67 3.439 6.395 6.963 6.087l1.236 14.122-.798.07c-.06-.688-.645-1.2-1.306-1.142-.66.058-1.147.663-1.087 1.351l-1.596.14c-.06-.688-.644-1.2-1.305-1.142-.661.058-1.148.663-1.088 1.351l-1.595.14c-.06-.688-.645-1.2-1.306-1.142-.66.058-1.148.663-1.088 1.351l-1.595.14c-.06-.689-.645-1.2-1.306-1.142-.66.058-1.147.663-1.087 1.351l-1.596.14c-.06-.689-.645-1.2-1.305-1.142-.661.058-1.148.663-1.088 1.351l-1.595.14c-.06-.689-.645-1.2-1.306-1.142-.66.058-1.148.663-1.088 1.351l-1.595.14c-.06-.689-.645-1.2-1.306-1.142-.66.058-1.148.663-1.087 1.35l-1.596.14c-.06-.688-.645-1.199-1.305-1.14-.661.057-1.148.662-1.088 1.35l-1.596.14c-.06-.689-.644-1.2-1.305-1.142-.661.058-1.148.663-1.088 1.35l-1.595.14c-.06-.688-.645-1.199-1.306-1.14-.66.057-1.148.662-1.087 1.35l-1.596.14c-.06-.689-.645-1.2-1.306-1.142-.66.058-1.147.663-1.087 1.35l-1.596.14c-.06-.688-.644-1.199-1.305-1.141-.661.058-1.148.663-1.088 1.35l-1.595.14c-.06-.688-.645-1.199-1.306-1.141-.66.058-1.148.663-1.087 1.35l-1.596.14c-.06-.688-.645-1.199-1.306-1.141-.66.058-1.147.663-1.087 1.35l-1.596.14c-.06-.688-.644-1.199-1.305-1.141-.661.058-1.148.662-1.088 1.35l-1.595.14c-.06-.688-.645-1.199-1.306-1.141-.66.058-1.148.662-1.088 1.35l-1.595.14c-.06-.688-.645-1.199-1.306-1.141-.66.058-1.147.662-1.087 1.35l-1.596.14c-.06-.688-.644-1.199-1.305-1.141-.661.058-1.148.662-1.088 1.35l-1.595.14c-.06-.688-.645-1.199-1.306-1.141-.66.058-1.148.662-1.088 1.35l-1.595.14c-.06-.688-.645-1.2-1.306-1.141-.66.058-1.148.662-1.087 1.35l-.798.07-1.24-14.173c3.112-.684 5.304-3.694 5.007-7.083-.296-3.389-2.977-5.972-6.16-6.105l-1.24-14.174.797-.07Z" fill="#646FD2"/><text font-family="Circular-Black, Circular" font-size="23.957" font-weight="800" fill="#FFF" transform="rotate(-5 116.336 3.67)">
                        <tspan x="47.069" y="46.635">%</tspan>
                    </text><g transform="rotate(-41 65.918 16.546)"><mask id="b" fill="#fff"><use xlink:href="#a"/></mask><use fill="#FFD798" xlink:href="#a"/><path d="M-.716 1.164H.312c.887 0 1.605.719 1.605 1.605v1.793c0 .887-.718 1.605-1.605 1.605H-.716V1.164Z" fill="#FFECD5" mask="url(#b)"/></g><g transform="rotate(-5 453.376 -109.938)"><mask id="d" fill="#fff"><use xlink:href="#c"/></mask><use fill="#FDDDAE" xlink:href="#c"/><path d="M-.716 1.164H.312c.887 0 1.605.719 1.605 1.605v1.793c0 .887-.718 1.605-1.605 1.605H-.716V1.164Z" fill="#FFECD5" mask="url(#d)"/></g><g transform="rotate(5 -418.048 211.941)"><mask id="f" fill="#fff"><use xlink:href="#e"/></mask><use fill="#FEE4BD" xlink:href="#e"/><path d="M-.716 1.164H.312c.887 0 1.605.719 1.605 1.605v1.793c0 .887-.718 1.605-1.605 1.605H-.716V1.164Z" fill="#FFECD5" mask="url(#f)"/></g><path d="M28.91 50.825a7.654 7.654 0 0 0-4.922-1.266c-4.34.38-7.537 4.35-7.141 8.87" stroke="#FFEBD1" stroke-width="6.42" stroke-linecap="round"/><g transform="rotate(25 -39.369 241.972)"><use fill="#000" filter="url(#g)" xlink:href="#h"/><use fill="#FCA022" xlink:href="#h"/><ellipse fill="#FFD62F" cx="10.41" cy="10.84" rx="8.6" ry="8.955"/><text font-family="Circular-Black, Circular" font-size="12.701" font-weight="800" fill="#FF8500">
                            <tspan x="6.337" y="15.674">$</tspan>
                        </text></g><g transform="rotate(-35 135.551 -99.316)"><use fill="#000" filter="url(#i)" xlink:href="#j"/><use fill="#FCA022" xlink:href="#j"/><ellipse fill="#FFD62F" cx="8.008" cy="8.339" rx="6.615" ry="6.888"/><text font-family="Circular-Black, Circular" font-size="9.77" font-weight="800" fill="#FF8500">
                            <tspan x="4.874" y="12.048">$</tspan>
                        </text></g><path fill="#F3F3F3" d="m4.626 59.97 5.642-.966 2.3 11.631L6.7 71.848z"/><path fill="#FF8A0C" d="m4.47 59.811 1.393-.247 1.935 12.087-1.357.42z"/><g transform="rotate(35 44.856 158.492)"><mask id="l" fill="#fff"><use xlink:href="#k"/></mask><use fill="#FEDFAA" xlink:href="#k"/><path d="M3.423-.407c-.742.885-.838 1.846-.289 2.882.825 1.555 2.196 2.923 4.349.595 1.435-1.552.082-2.711-4.06-3.477Z" fill="#FFF1E0" mask="url(#l)"/></g><g transform="rotate(4 12.176 1290.18)"><mask id="n" fill="#fff"><use xlink:href="#m"/></mask><use fill="#FFE5BB" xlink:href="#m"/><path d="M3.423-.407c-.742.885-.838 1.846-.289 2.882.825 1.555 2.196 2.923 4.349.595 1.435-1.552.082-2.711-4.06-3.477Z" fill="#FFF1E0" mask="url(#n)"/></g><g transform="rotate(-5 92.959 -972.355)"><mask id="p" fill="#fff"><use xlink:href="#o"/></mask><use fill="#FFE7C5" xlink:href="#o"/><path d="M3.423-.407c-.742.885-.838 1.846-.289 2.882.825 1.555 2.196 2.923 4.349.595 1.435-1.552.082-2.711-4.06-3.477Z" fill="#FFF1E0" mask="url(#p)"/></g><path d="m95.878 34.076-.271.066a6.167 6.167 0 0 1 2.26-.795 11.05 11.05 0 0 1-1.99.73Zm-2.003-21.434c4.169.272 7.34 2.679 8.882 6.069l2.285-1.178 4.427 9.407-9.67 5.225c-.5.385-1.035.725-1.597 1.017l-.822-9.392a5.297 5.297 0 0 0-.125-1.43l-.278-3.175-.798.07c.03.344-.076.666-.272.91-.626-.498-1.433-.805-2.388-.867-1.458-.095-2.54.274-3.422 1.234a1.265 1.265 0 0 1-.3-.719l-1.595.14c.06.688-.427 1.293-1.088 1.35-.66.058-1.245-.453-1.305-1.14l-1.596.139c.056.638-.359 1.205-.947 1.33a3.442 3.442 0 0 1 .155-2.737c2.2-4.35 5.847-6.554 10.454-6.253Z" fill="#FFEBD1" fill-rule="nonzero"/><path d="m106.858 21.393 2.611 5.547-9.67 5.225c-3.693 2.84-9.28 3.25-13.626-.051-1.434-1.09-1.756-3.176-.72-4.661 1.003-1.435 2.908-1.783 4.33-.82l.144.104c2.841 2.158 6.817.692 7.334-1.954.042-.215.073-.427.094-.634l9.67-.846-.167-1.91Z" fill="#FFEBD1" fill-rule="nonzero"/><path fill="#FF8A0C" d="m104.759 17.005 5.048 11.082 6.036-3.248-4.637-11.013z"/></g></svg>