<?xml version="1.0" encoding="UTF-8"?>
<svg width="90px" height="61px" viewBox="0 0 90 61" version="1.1" xmlns="http://www.w3.org/2000/svg" xmlns:xlink="http://www.w3.org/1999/xlink">
    <title>img_UnAT </title>
    <defs>
        <polygon id="path-1" points="0 0 3.04392944 0 3.04392944 3.05825381 0 3.05825381"></polygon>
    </defs>
    <g stroke="none" stroke-width="1" fill="none" fill-rule="evenodd">
        <g transform="translate(-43.000000, -2026.000000)">
            <g id="img_UnAT-" transform="translate(43.000000, 2026.000000)">
                <rect fill="#F3F4F5" x="0" y="0" width="90" height="61" rx="1.42857143"></rect>
                <rect fill="#E3E5E6" x="0" y="0" width="90" height="8.97058824" rx="1.42857143"></rect>
                <ellipse fill="#EF4235" cx="82.8571429" cy="4.48529412" rx="2.17423531" ry="2.18446701"></ellipse>
                <g transform="translate(81.335178, 2.956167)">
                    <mask id="mask-2" fill="white">
                        <use xlink:href="#path-1"></use>
                    </mask>
                    <g id="Clip-3"></g>
                    <path d="M2.46719004,2.64864805 C2.16250165,2.7207347 1.33013389,3.11229063 0.769048638,2.77975783 C0.0574765582,2.36127557 0.0556058286,1.13617711 0.944603246,0.382514381 C1.14621444,0.204870483 1.41078905,0.102860123 1.68779066,0.0960161372 C1.91527137,0.0788562162 2.12238786,0.218708323 2.17642522,0.425951211 C2.21889078,0.634218199 2.15344197,0.84897948 1.99990852,1.00506732 C1.9354218,1.06738756 1.86155471,1.12061578 1.78068574,1.16307847 C1.75144891,1.17991368 1.7202879,1.19360165 1.68779066,1.20389261 C1.5670217,1.24643023 1.45090284,1.24208404 1.4091054,1.1170689 C1.37070199,0.951864072 1.46752561,0.785285451 1.63669301,0.725487997 C1.69244075,0.705530534 1.88843976,0.643884705 1.81318299,0.628248445 C1.61718398,0.584836593 1.30506611,0.739375793 1.2307447,0.975543264 C1.15642328,1.21171074 1.32363978,1.35323637 1.56889243,1.32283808 C1.69190626,1.30682715 1.81029672,1.26816113 1.917249,1.20911302 C2.25766833,1.07125916 2.61535183,0.974094537 2.98182775,0.919967101 C3.03757549,0.911299717 3.07472283,0.814060165 3.00876625,0.822727549 C2.74841415,0.861243703 2.4918035,0.919317672 2.24144643,0.996374959 C2.22867202,1.00002175 2.2150157,0.994002044 2.20985783,0.982487162 C2.20758623,0.975992869 2.20758623,0.968999015 2.20985783,0.9625297 C2.24085849,0.923738787 2.26763665,0.882125354 2.28976471,0.838363809 C2.39845409,0.632594626 2.41796313,0.36343115 2.25074663,0.180217147 C2.05750027,-0.0324959345 1.70636433,-0.0255520364 1.44531738,0.0421634595 C1.09829704,0.140302221 0.78625935,0.324540325 0.542369663,0.575294977 C0.0314466924,1.09970915 -0.247238564,2.06171381 0.294337647,2.6642843 C0.524170137,2.90624668 0.851227115,3.04807206 1.19728536,3.05586521 C1.65433132,3.08713773 2.23030223,2.80233799 2.39473936,2.72765362 C2.49690792,2.67992056 2.5786588,2.62347017 2.46719004,2.64864805" id="Fill-2" fill="#FFFFFF" mask="url(#mask-2)"></path>
                </g>
                <rect fill="#D8D8D8" x="7.89994987" y="13.9941176" width="32.1428571" height="40.9058824" rx="0.714285714"></rect>
                <ellipse fill="#F05635" cx="3.63848257" cy="4.48529412" rx="1.63476218" ry="1.64245518"></ellipse>
                <ellipse fill="#EDC82D" cx="7.89994987" cy="4.48529412" rx="1.63476218" ry="1.64245518"></ellipse>
                <ellipse fill="#81C654" cx="12.1614172" cy="4.48529412" rx="1.63476218" ry="1.64245518"></ellipse>
                <rect fill="#D8D8D8" x="45.6208924" y="14.8911765" width="35.7142857" height="4.66470588" rx="2.32142857"></rect>
                <rect fill="#646FD2" x="45.6208924" y="42.8794118" width="35.7142857" height="11.1235294" rx="2.32142857"></rect>
                <text id="Apply-Coupons" font-family="Circular-Black, Circular" font-size="4.09090909" font-weight="800" fill="#FFFFFF">
                    <tspan x="48.5073535" y="49.9868449">Apply Coupons</tspan>
                </text>
                <rect fill="#D8D8D8" x="45.6208924" y="23.5029412" width="35.7142857" height="2.87058824" rx="1.43529412"></rect>
                <rect fill="#D8D8D8" x="45.6208924" y="29.9617647" width="21.4285714" height="2.87058824" rx="1.43529412"></rect>
                <rect fill="#D8D8D8" x="45.6208924" y="36.4205882" width="21.4285714" height="2.87058824" rx="1.43529412"></rect>
            </g>
        </g>
    </g>
</svg>