<?xml version="1.0" encoding="UTF-8"?>
<svg width="91px" height="69px" viewBox="0 0 91 69" version="1.1" xmlns="http://www.w3.org/2000/svg" xmlns:xlink="http://www.w3.org/1999/xlink">
    <g stroke="none" stroke-width="1" fill="none" fill-rule="evenodd">
        <g transform="translate(-308.000000, -2027.000000)">
            <g id="img_AT_02" transform="translate(308.000000, 2027.000000)">
                <g>
                    <ellipse fill="#505EDA" cx="74.1117969" cy="17.3578421" rx="1.87405913" ry="1.87154933"></ellipse>
                    <path d="M65.1375799,12.1794035 C68.0270538,10.228059 69.8008978,7.2750144 70.4591121,3.32026977 C71.4464334,-2.61184717 76.4144058,0.286130912 73.7994938,5.13842021 C72.0562191,8.37327973 69.1689144,10.7202742 65.1375799,12.1794035 Z" fill="#FEBD00"></path>
                    <ellipse fill="#3F82F6" cx="14.9659024" cy="44.8404964" rx="1.96002907" ry="1.95740414"></ellipse>
                    <ellipse fill="#505EDA" cx="43.6235982" cy="7.04665491" rx="1" ry="1"></ellipse>
                    <ellipse fill="#FEBD00" cx="1.87405913" cy="37.9312385" rx="1.87405913" ry="1.87154933"></ellipse>
                    <ellipse stroke="#EE8800" stroke-width="1.30668605" cx="9.62381551" cy="60.583726" rx="2.39559109" ry="2.39238284"></ellipse>
                    <ellipse stroke="#EE8800" stroke-width="0.871124032" cx="77.9458851" cy="46.3629219" rx="1.96002907" ry="1.95740414"></ellipse>
                    <polyline stroke="#505EDA" stroke-width="1.74224806" transform="translate(11.891849, 13.253820) rotate(-18.000000) translate(-11.891849, -13.253820) " points="7.26690607 5.81325049 13.9509766 7.46953925 11.6908176 13.1636324 16.5167912 15.2185866 14.7972037 20.6943889"></polyline>
                    <polyline stroke="#505EDA" stroke-width="1.74224806" points="73.120945 64.7439276 77.9131986 62.1427027 82.4730016 67 90 59.931258"></polyline>
                </g>
                <g transform="translate(19.737403, 10.555854)">
                    <polygon fill="#F0F0F0" points="-4.48753869e-14 14.7040854 27.2748496 25.7333239 50.5251939 15.9290116 25.2625969 6.12469929"></polygon>
                    <polygon fill="#EC412D" points="10.1637485 18.7863225 18.1995395 22.110592 41.2782782 12.3172576 34.8689324 9.77662791"></polygon>
                    <polygon fill="#EC412D" transform="translate(26.470868, 15.835023) scale(-1, 1) rotate(-360.000000) translate(-26.470868, -15.835023) " points="10.3877651 19.4955372 18.4235562 22.8198067 42.5539715 11.1580938 35.6483978 8.8502388"></polygon>
                    <polygon fill="#E3E3E3" points="0 14.7040854 0 21.3063151 27.2748496 32.8962325 27.2748496 25.7333239"></polygon>
                    <polygon fill="#EC412D" points="10.1637485 18.7863225 10.1637485 25.3885522 18.2023418 28.8353694 18.2023418 21.6724608"></polygon>
                    <polygon fill="#F0F0F0" points="2.16917171 22.110592 2.16917171 45.6750221 27.2748496 56.4441464 27.2748496 32.2140573"></polygon>
                    <polygon fill="#D93724" points="11.076232 25.7333239 11.076232 49.6793488 17.451178 52.5110668 17.451178 28.004363"></polygon>
                    <polygon fill="#D9D9D9" points="27.2748496 56.4441464 27.2748496 32.2140573 49.4775251 23.1171369 49.4775251 45.2482853"></polygon>
                    <polygon fill="#D93724" transform="translate(38.376187, 38.866771) scale(-1, 1) translate(-38.376187, -38.866771) " points="35.1887143 25.2881685 35.1887143 49.2774511 41.5636603 52.4453726 41.5636603 27.5592077"></polygon>
                    <polygon fill="#D2D2D2" points="27.2748496 25.7333239 27.2748496 32.2691837 50.5251939 22.6990292 50.5251939 15.9290116"></polygon>
                    <polygon fill="#EC412D" transform="translate(38.316056, 24.393009) scale(-1, 1) translate(-38.316056, -24.393009) " points="34.3568907 19.3786977 34.3568907 26.1208061 42.2752223 29.4073198 42.2752223 22.7343639"></polygon>
                    <path d="M18.4750679,10.0628019 C15.142951,5.79865305 20.6510308,2.33375613 22.2473597,2.64095499 C26.6460069,3.48743431 29.2174376,6.84203994 29.9616519,12.7047719 C24.5253405,13.7862244 20.6964792,12.9055677 18.4750679,10.0628019 Z M21.7974157,10.4893271 C25.9858912,12.5967037 28.2567961,11.7983226 29.0655102,11.9353309 C28.6047812,9.53564689 25.6414908,4.98331965 22.3110963,4.46074138 C21.1026584,4.27112318 17.6089402,8.38195049 21.7974157,10.4893271 Z" fill="#FF800C" transform="translate(23.692447, 7.886902) rotate(30.000000) translate(-23.692447, -7.886902) "></path>
                    <path d="M27.2864821,12.5781877 C25.2627177,9.98835288 28.6080553,7.88394442 29.5775872,8.07052194 C32.2491097,8.58463197 33.8108706,10.6220549 34.2628699,14.1827907 C30.961121,14.839612 28.6356584,14.3047443 27.2864821,12.5781877 Z M29.3043132,12.8372382 C31.8481878,14.1171554 33.2274241,13.6322579 33.7185974,13.71547 C33.4387732,12.2580197 31.6390159,9.49315936 29.6162977,9.17577095 C28.8823517,9.06060615 26.7604386,11.557321 29.3043132,12.8372382 Z" fill="#FF800C" transform="translate(30.455262, 11.256653) rotate(96.000000) translate(-30.455262, -11.256653) "></path>
                    <path d="M8.8624403,11.6668468 C3.63783906,4.9808638 12.2742469,-0.451930145 14.7772148,0.0297430904 C21.6740849,1.35698249 25.7059663,6.61684493 26.872859,15.8093304 C18.3489807,17.5049967 12.3455078,16.1241688 8.8624403,11.6668468 Z M14.071724,12.3356181 C20.6390549,15.6398846 24.1997259,14.3880609 25.4677513,14.6028835 C24.7453501,10.8402928 20.0990513,3.70245973 14.8771508,2.8830818 C12.9823774,2.58576945 7.50439307,9.03135161 14.071724,12.3356181 Z" fill="#D93724"></path>
                    <path d="M27.718092,11.6668468 C22.4934908,4.9808638 31.1298986,-0.451930145 33.6328666,0.0297430904 C40.5297366,1.35698249 44.561618,6.61684493 45.7285107,15.8093304 C37.2046324,17.5049967 31.2011595,16.1241688 27.718092,11.6668468 Z M32.9273757,12.3356181 C39.4947066,15.6398846 43.0553777,14.3880609 44.323403,14.6028835 C43.6010018,10.8402928 38.954703,3.70245973 33.7328026,2.8830818 C31.8380292,2.58576945 26.3600448,9.03135161 32.9273757,12.3356181 Z" fill="#D93724" transform="translate(35.898694, 8.255139) scale(-1, 1) translate(-35.898694, -8.255139) "></path>
                </g>
            </g>
        </g>
    </g>
</svg>