<?xml version="1.0" encoding="UTF-8"?>
<svg width="56px" height="36px" viewBox="0 0 56 36" version="1.1" xmlns="http://www.w3.org/2000/svg" xmlns:xlink="http://www.w3.org/1999/xlink">
    <title>img_02</title>
    <defs>
        <rect id="path-1" x="0" y="0" width="56" height="36"></rect>
        <path d="M187.579431,0 C191.997709,8.11624501e-16 195.579431,3.581722 195.579431,8 L195.579431,8 L195.579431,28 C195.579431,32.418278 191.997709,36 187.579431,36 L187.579431,36 L20.0769528,36 C19.1113313,36 18.1783044,35.6506929 17.4500919,35.0165546 L17.4500919,35.0165546 L1.37319781,21.0165546 C1.23449524,20.8957703 1.10428838,20.7655635 0.983504105,20.6268609 C-0.467271116,18.9608638 -0.292799302,16.4342206 1.37319781,14.9834454 L1.37319781,14.9834454 L17.4500919,0.983445384 C18.1783044,0.349307055 19.1113313,-7.03853505e-15 20.0769528,0 L20.0769528,0 Z M18.9091386,14.0006415 C16.6999996,14.0006415 14.9091386,15.7915025 14.9091386,18.0006415 C14.9091386,20.2097805 16.6999996,22.0006415 18.9091386,22.0006415 C21.1182776,22.0006415 22.9091386,20.2097805 22.9091386,18.0006415 C22.9091386,15.7915025 21.1182776,14.0006415 18.9091386,14.0006415 Z" id="path-3"></path>
    </defs>
    <g stroke="none" stroke-width="1" fill="none" fill-rule="evenodd">
        <g transform="translate(-725.000000, -98.000000)">
            <g id="img_02" transform="translate(725.000000, 98.000000)">
                <mask id="mask-2" fill="white">
                    <use xlink:href="#path-1"></use>
                </mask>
                <use fill-opacity="0" fill="#D8D8D8" xlink:href="#path-1"></use>
                <g mask="url(#mask-2)">
                    <g transform="translate(-79.880145, -0.000641)">
                        <g transform="translate(6.971007, 0.000000)">
                            <mask id="mask-4" fill="white">
                                <use xlink:href="#path-3"></use>
                            </mask>
                            <path stroke="#EA5A50" stroke-width="2" d="M187.579431,1 C189.472916,1 191.190827,1.75177771 192.450902,2.97318653 C193.641541,4.12728917 194.423632,5.70061728 194.558579,7.45523684 L194.575627,7.76670907 L194.579431,28 C194.579431,29.8934851 193.827653,31.6113955 192.606244,32.8714713 C191.452158,34.0620932 189.878858,34.8441784 188.124269,34.9791424 L187.812802,34.9961935 L20.0769528,35 C19.4951342,35 18.9290904,34.8309186 18.4458011,34.5178172 L18.2685776,34.3937022 L2.02991304,20.262416 C1.21322554,19.3679314 0.971907374,18.6157793 1.00260166,17.8762731 C1.03035637,17.2075892 1.28021468,16.5490844 1.74449821,16.021354 L1.89020834,15.8670787 L18.1068071,1.73758404 C18.5455484,1.35552154 19.0834179,1.11131011 19.6534593,1.03003153 L19.8686021,1.00723853 L187.579431,1 Z M18.9091386,13.0006415 C17.5284267,13.0006415 16.2784267,13.5602855 15.3736047,14.4651076 C14.4687827,15.3699296 13.9091386,16.6199296 13.9091386,18.0006415 C13.9091386,19.3813533 14.4687827,20.6313533 15.3736047,21.5361754 C16.2784267,22.4409974 17.5284267,23.0006415 18.9091386,23.0006415 C20.2898505,23.0006415 21.5398505,22.4409974 22.4446725,21.5361754 C23.3494945,20.6313533 23.9091386,19.3813533 23.9091386,18.0006415 C23.9091386,16.6199296 23.3494945,15.3699296 22.4446725,14.4651076 C21.5398505,13.5602855 20.2898505,13.0006415 18.9091386,13.0006415 Z"></path>
                        </g>
                        <path d="M190.550438,4 L30.8649655,4 C30.0110774,4 29.1795969,4.27325105 28.4921693,4.77977665 L14.9207407,14.7797767 C13.1422605,16.0902358 12.7628544,18.5943159 14.0733135,20.3727962 C14.3116299,20.6962255 14.5973114,20.981907 14.9207407,21.2202233 L28.4921693,31.2202233 C29.1795969,31.726749 30.0110774,32 30.8649655,32 L190.550438,32 C194.968716,32 198.550438,28.418278 198.550438,24 L198.550438,12 C198.550438,7.581722 194.968716,4 190.550438,4 Z" stroke="#EA5A50" opacity="0.246769496" stroke-dasharray="4,4"></path>
                    </g>
                </g>
            </g>
        </g>
    </g>
</svg>