<?xml version="1.0" encoding="UTF-8"?>
<svg width="87px" height="82px" viewBox="0 0 87 82" version="1.1" xmlns="http://www.w3.org/2000/svg" xmlns:xlink="http://www.w3.org/1999/xlink">
    <title>img_CB_inactivated</title>
    <defs>
        <path d="M11.485832,2.71338957 C15.0997125,3.65212793 16.741479,5.32872902 23.2513608,2.71338957 C29.7612426,0.0980501308 54.388602,-3.63794316 41.5270271,8.04244097 C42.2513082,9.15372601 72.6312173,48.5643474 25.9262604,48.5643474 C9.36498218,48.5643474 -1.89160068,48.5643474 0.264263949,30.3038154 C0.908781367,24.8446456 8.97189078,11.0676542 8.27101262,8.72082885 C7.57013446,6.37400352 1.74605063,4.07397193 3.28418886,2.10689273 C4.8223271,0.139813521 8.02496476,1.81439781 11.485832,2.71338957 Z" id="path-1"></path>
    </defs>
    <g id="-" stroke="none" stroke-width="1" fill="none" fill-rule="evenodd">
        <g transform="translate(-64.000000, -503.000000)">
            <g id="img_CB_inactivated" transform="translate(64.000000, 503.000000)">
                <g transform="translate(17.379451, 0.000000)">
                    <g transform="translate(34.087703, 24.000000) scale(-1, 1) rotate(-8.000000) translate(-34.087703, -24.000000) translate(26.587703, 21.000000)">
                        <path d="M7.5,1 C10.8115169,1 13.6217639,1.71539717 14.6156741,2.70783585 L15,2.5 L15,3.5 C15,4.88071187 11.6421356,6 7.5,6 C3.35786438,6 0,4.88071187 0,3.5 L0,3.5 L5.73985304e-14,2.5 L0.385313213,2.70685073 C1.38009601,1.71492379 4.18957891,1 7.5,1 Z" fill="#FCA022"></path>
                        <ellipse fill="#FFD62F" cx="7.5" cy="2.5" rx="7.5" ry="2.5"></ellipse>
                    </g>
                    <g transform="translate(15.587703, 11.581475) rotate(-315.000000) translate(-15.587703, -11.581475) translate(8.587703, 8.581475)">
                        <path d="M7,1 C10.089643,1 12.7117689,1.7148852 13.6402992,2.70677043 L14,2.5 L13.999,3.483 L14,3.5 C14,4.84619408 11.0207348,5.9438722 7.28853949,5.99791474 L7,6 C3.13400675,6 6.82121026e-13,4.88071187 6.82121026e-13,3.5 L6.82121026e-13,3.5 L6.82121026e-13,2.5 L0.359700833,2.70677043 C1.28823113,1.7148852 3.91035703,1 7,1 Z" fill="#FCA022"></path>
                        <ellipse fill="#FFD62F" cx="7" cy="2.5" rx="7" ry="2.5"></ellipse>
                    </g>
                    <g transform="translate(28.587703, 6.010408) scale(-1, 1) rotate(-315.000000) translate(-28.587703, -6.010408) translate(22.587703, 3.510408)">
                        <path d="M6,0.833333333 C8.64888598,0.833333333 10.8968552,1.42935024 11.6922443,2.25622313 L12,2.08333333 L11.999,2.90233333 L12,2.91666667 C12,4.0343858 9.46501798,4.94652273 6.28244761,4.99773241 L6,5 C2.6862915,5 6.8904629e-13,4.0672599 6.8904629e-13,2.91666667 L6.8904629e-13,2.91666667 L9.18751434e-13,2.08333333 L0.307755738,2.25622313 C1.1031448,1.42935024 3.35111402,0.833333333 6,0.833333333 Z" fill="#FCA022"></path>
                        <ellipse fill="#FFD62F" cx="6" cy="2.08333333" rx="6" ry="2.08333333"></ellipse>
                    </g>
                    <g transform="translate(0.000000, 25.213714)">
                        <mask id="mask-2" fill="white">
                            <use xlink:href="#path-1"></use>
                        </mask>
                        <use fill="#646FD2" xlink:href="#path-1"></use>
                        <text id="$" mask="url(#mask-2)" font-family="Circular-Black, Circular" font-size="26" font-weight="700" fill="#FFFFFF">
                            <tspan x="17.9519132" y="37.9537595">$</tspan>
                        </text>
                        <rect fill="#3743AC" mask="url(#mask-2)" x="5.56978422" y="8.17773916" width="38.8598348" height="3.77602036"></rect>
                    </g>
                    <g transform="translate(16.725352, 27.500000) rotate(-374.000000) translate(-16.725352, -27.500000) translate(8.225352, 24.000000)">
                        <path d="M8.5,1.16666667 C12.2520622,1.16666667 15.4363182,2.00085629 16.5635385,3.15822534 L17,2.91666667 L17,4.08333333 C17,5.69416385 13.1944204,7 8.5,7 C3.80557963,7 -2.34114851e-13,5.69416385 -2.34114851e-13,4.08333333 L-2.34114851e-13,4.08333333 L-2.34114851e-13,2.91666667 L0.43646152,3.15822534 C1.56368176,2.00085629 4.74793783,1.16666667 8.5,1.16666667 Z" fill="#FCA022"></path>
                        <ellipse fill="#FFD62F" cx="8.5" cy="2.91666667" rx="8.5" ry="2.91666667"></ellipse>
                    </g>
                    <g transform="translate(13.725352, 26.500000) rotate(-374.000000) translate(-13.725352, -26.500000) translate(5.225352, 23.000000)">
                        <path d="M8.5,1.16666667 C12.2520622,1.16666667 15.4363182,2.00085629 16.5635385,3.15822534 L17,2.91666667 L17,4.08333333 C17,5.69416385 13.1944204,7 8.5,7 C3.80557963,7 -2.34114851e-13,5.69416385 -2.34114851e-13,4.08333333 L-2.34114851e-13,4.08333333 L-2.34114851e-13,2.91666667 L0.43646152,3.15822534 C1.56368176,2.00085629 4.74793783,1.16666667 8.5,1.16666667 Z" fill="#FCA022"></path>
                        <ellipse fill="#FFD62F" cx="8.5" cy="2.91666667" rx="8.5" ry="2.91666667"></ellipse>
                    </g>
                    <path d="M40.2965277,34.2271816 C42.6183954,31.8765835 44.8604214,31.2449817 47.0226058,32.3323763 C50.2658824,33.9634681 48.6927004,37.92003 46.6300899,38.8808763 C48.5641002,42.1351589 51.8620486,39.7480633 52.6040989,39.3456397 C49.4547559,45.7597671 42.071966,38.9982408 41.1345324,37.5028826 C40.2965277,39.3456397 40.3301536,40.6057284 41.7908699,42.3085395 C44.3841459,45.3316176 45.1020024,47.4760381 43.4124988,48.6092784 C44.2432353,47.0749016 42.6495874,46.0832027 42.2416221,45.9336619 C39.3719691,44.8817831 39.0787307,43.0996251 38.8088614,42.3085395 C37.7332741,42.3085395 33.8030434,42.1037382 34.2208987,38.2664851 C34.499469,35.7083164 36.5246786,34.3618819 40.2965277,34.2271816 Z M36.2094608,39.6592419 C37.1733471,40.9712553 38.0611884,39.9953697 38.6085523,39.3080151 C39.1559161,38.6206605 39.2482451,37.5177834 38.416915,37.1652567 C37.5855848,36.81273 35.2455744,38.3472286 36.2094608,39.6592419 Z M45.0860464,34.1303357 C43.7334295,34.3283388 43.0943044,35.4645194 43.5371241,36.2270498 C43.9799438,36.9895802 45.9233409,37.1809029 46.7281887,36.1478893 C47.5330365,35.1148757 46.4386634,33.9323326 45.0860464,34.1303357 Z" fill="#313EAA"></path>
                </g>
                <g transform="translate(0.000000, 50.952797)">
                    <g transform="translate(9.059865, 20.139086)">
                        <path d="M8,1.16666667 C11.5307681,1.16666667 14.5273073,2.00058014 15.5886857,3.15765061 L16,2.91666667 L15.999,4.06466667 L16,4.08333333 C16,5.65755407 12.5792335,6.94048627 8.29991768,6.99798824 L8,7 C3.581722,7 0,5.69416385 0,4.08333333 L0,4.08333333 L0,2.91666667 L0.411314322,3.15765061 C1.47269269,2.00058014 4.46923193,1.16666667 8,1.16666667 Z" fill="#FCA022"></path>
                        <ellipse fill="#FFD62F" cx="8" cy="2.91666667" rx="8" ry="2.91666667"></ellipse>
                    </g>
                    <g transform="translate(16.059865, 18.139086)">
                        <path d="M8,1.16666667 C11.5307681,1.16666667 14.5273073,2.00058014 15.5886857,3.15765061 L16,2.91666667 L15.999,4.06466667 L16,4.08333333 C16,5.65755407 12.5792335,6.94048627 8.29991768,6.99798824 L8,7 C3.581722,7 0,5.69416385 0,4.08333333 L0,4.08333333 L0,2.91666667 L0.411314322,3.15765061 C1.47269269,2.00058014 4.46923193,1.16666667 8,1.16666667 Z" fill="#FCA022"></path>
                        <ellipse fill="#FFD62F" cx="8" cy="2.91666667" rx="8" ry="2.91666667"></ellipse>
                    </g>
                    <g transform="translate(12.059865, 13.139086)">
                        <path d="M8,1.16666667 C11.5307681,1.16666667 14.5273073,2.00058014 15.5886857,3.15765061 L16,2.91666667 L15.999,4.06466667 L16,4.08333333 C16,5.65755407 12.5792335,6.94048627 8.29991768,6.99798824 L8,7 C3.581722,7 0,5.69416385 0,4.08333333 L0,4.08333333 L0,2.91666667 L0.411314322,3.15765061 C1.47269269,2.00058014 4.46923193,1.16666667 8,1.16666667 Z" fill="#FCA022"></path>
                        <ellipse fill="#FFD62F" cx="8" cy="2.91666667" rx="8" ry="2.91666667"></ellipse>
                    </g>
                    <g transform="translate(21.059865, 11.139086)">
                        <path d="M8,1.16666667 C11.5307681,1.16666667 14.5273073,2.00058014 15.5886857,3.15765061 L16,2.91666667 L15.999,4.06466667 L16,4.08333333 C16,5.65755407 12.5792335,6.94048627 8.29991768,6.99798824 L8,7 C3.581722,7 0,5.69416385 0,4.08333333 L0,4.08333333 L0,2.91666667 L0.411314322,3.15765061 C1.47269269,2.00058014 4.46923193,1.16666667 8,1.16666667 Z" fill="#FCA022"></path>
                        <ellipse fill="#FFD62F" cx="8" cy="2.91666667" rx="8" ry="2.91666667"></ellipse>
                    </g>
                    <g transform="translate(42.059865, 19.139086)">
                        <path d="M8,1.16666667 C11.5307681,1.16666667 14.5273073,2.00058014 15.5886857,3.15765061 L16,2.91666667 L15.999,4.06466667 L16,4.08333333 C16,5.65755407 12.5792335,6.94048627 8.29991768,6.99798824 L8,7 C3.581722,7 0,5.69416385 0,4.08333333 L0,4.08333333 L0,2.91666667 L0.411314322,3.15765061 C1.47269269,2.00058014 4.46923193,1.16666667 8,1.16666667 Z" fill="#FCA022"></path>
                        <ellipse fill="#FFD62F" cx="8" cy="2.91666667" rx="8" ry="2.91666667"></ellipse>
                    </g>
                    <g transform="translate(64.059865, 24.639086) rotate(18.000000) translate(-64.059865, -24.639086) translate(56.059865, 21.139086)">
                        <path d="M8,1.16666667 C11.5307681,1.16666667 14.5273073,2.00058014 15.5886857,3.15765061 L16,2.91666667 L15.999,4.06466667 L16,4.08333333 C16,5.65755407 12.5792335,6.94048627 8.29991768,6.99798824 L8,7 C3.581722,7 0,5.69416385 0,4.08333333 L0,4.08333333 L0,2.91666667 L0.411314322,3.15765061 C1.47269269,2.00058014 4.46923193,1.16666667 8,1.16666667 Z" fill="#FCA022"></path>
                        <ellipse fill="#FFD62F" cx="8" cy="2.91666667" rx="8" ry="2.91666667"></ellipse>
                    </g>
                    <g transform="translate(70.059865, 20.139086)">
                        <path d="M8,1.16666667 C11.5307681,1.16666667 14.5273073,2.00058014 15.5886857,3.15765061 L16,2.91666667 L15.999,4.06466667 L16,4.08333333 C16,5.65755407 12.5792335,6.94048627 8.29991768,6.99798824 L8,7 C3.581722,7 0,5.69416385 0,4.08333333 L0,4.08333333 L0,2.91666667 L0.411314322,3.15765061 C1.47269269,2.00058014 4.46923193,1.16666667 8,1.16666667 Z" fill="#FCA022"></path>
                        <ellipse fill="#FFD62F" cx="8" cy="2.91666667" rx="8" ry="2.91666667"></ellipse>
                    </g>
                    <g transform="translate(61.059865, 15.139086)">
                        <path d="M8,1.16666667 C11.5307681,1.16666667 14.5273073,2.00058014 15.5886857,3.15765061 L16,2.91666667 L15.999,4.06466667 L16,4.08333333 C16,5.65755407 12.5792335,6.94048627 8.29991768,6.99798824 L8,7 C3.581722,7 0,5.69416385 0,4.08333333 L0,4.08333333 L0,2.91666667 L0.411314322,3.15765061 C1.47269269,2.00058014 4.46923193,1.16666667 8,1.16666667 Z" fill="#FCA022"></path>
                        <ellipse fill="#FFD62F" cx="8" cy="2.91666667" rx="8" ry="2.91666667"></ellipse>
                    </g>
                    <g transform="translate(8.059865, 3.639086) rotate(1.000000) translate(-8.059865, -3.639086) translate(0.059865, 0.139086)">
                        <path d="M8,1.16666667 C11.5307681,1.16666667 14.5273073,2.00058014 15.5886857,3.15765061 L16,2.91666667 L15.999,4.06466667 L16,4.08333333 C16,5.65755407 12.5792335,6.94048627 8.29991768,6.99798824 L8,7 C3.581722,7 0,5.69416385 0,4.08333333 L0,4.08333333 L0,2.91666667 L0.411314322,3.15765061 C1.47269269,2.00058014 4.46923193,1.16666667 8,1.16666667 Z" fill="#FCA022"></path>
                        <ellipse fill="#FFD62F" cx="8" cy="2.91666667" rx="8" ry="2.91666667"></ellipse>
                    </g>
                </g>
            </g>
        </g>
    </g>
</svg>