<?xml version="1.0" encoding="UTF-8"?>
<svg width="77px" height="71px" viewBox="0 0 77 71" version="1.1" xmlns="http://www.w3.org/2000/svg" xmlns:xlink="http://www.w3.org/1999/xlink">
    <title>img_CB_activated</title>
    <defs>
        <path d="M11.485832,2.71338957 C15.0997125,3.65212793 16.741479,5.32872902 23.2513608,2.71338957 C29.7612426,0.0980501308 54.388602,-3.63794316 41.5270271,8.04244097 C42.2513082,9.15372601 72.6312173,48.5643474 25.9262604,48.5643474 C9.36498218,48.5643474 -1.89160068,48.5643474 0.264263949,30.3038154 C0.908781367,24.8446456 8.97189078,11.0676542 8.27101262,8.72082885 C7.57013446,6.37400352 1.74605063,4.07397193 3.28418886,2.10689273 C4.8223271,0.139813521 8.02496476,1.81439781 11.485832,2.71338957 Z" id="path-1"></path>
    </defs>
    <g stroke="none" stroke-width="1" fill="none" fill-rule="evenodd">
        <g transform="translate(-1245.000000, -453.000000)">
            <g id="img_CB_activated" transform="translate(1245.000000, 453.000000)">
                <path d="M4.88691909,8.60819363 C6.83542888,11.1037475 10.6238832,12.6448509 16.252282,13.2315039 C19.8662756,13.6081936 22.8059129,15.9655629 22.8059129,18.6081936 C22.3410492,17.6938545 21.2281778,14.9496999 16.476793,14.5615513 C11.7254082,14.1734026 9.77517381,16.1950921 4.65437717,11.141272 C4.65369056,10.2837972 4.73120453,9.43943775 4.88691909,8.60819363 Z" fill="#FF5102" transform="translate(13.730145, 13.608194) rotate(21.000000) translate(-13.730145, -13.608194) "></path>
                <g transform="translate(52.817544, 21.121561) scale(-1, 1) rotate(-297.000000) translate(-52.817544, -21.121561) translate(43.907998, 17.303184)">
                    <path d="M8.90954544,1.27279221 C12.8433352,1.27279221 16.1816745,2.18330175 17.3624525,3.44642413 L17.8190909,3.18198052 L17.8190909,4.45477272 C17.8190909,6.21213203 13.8301515,7.63675324 8.90954544,7.63675324 C3.98893937,7.63675324 0,6.21213203 0,4.45477272 L0,4.45477272 L0,3.18198052 L0.45757227,3.44542569 C1.63917579,2.18282196 4.97679224,1.27279221 8.90954544,1.27279221 Z" fill="#FCA022"></path>
                    <ellipse fill="#FFD62F" cx="8.90954544" cy="3.18198052" rx="8.90954544" ry="3.18198052"></ellipse>
                </g>
                <g transform="translate(26.095713, 22.243391) rotate(-315.000000) translate(-26.095713, -22.243391) translate(14.095713, 17.100534)">
                    <path d="M12,1.71428571 C17.2973254,1.71428571 21.7929525,2.94017094 23.3840862,4.64094318 L24,4.28571429 L23.999,5.97828571 L24,6 C24,8.32466795 18.8175818,10.2170435 12.3538163,10.2838871 L12,10.2857143 C5.372583,10.2857143 -1.13686838e-13,8.36693464 -1.13686838e-13,6 L-1.13686838e-13,6 L-1.13686838e-13,4.28571429 L0.615913798,4.64094318 C2.20704753,2.94017094 6.70267459,1.71428571 12,1.71428571 Z" fill="#FCA022"></path>
                    <ellipse fill="#FFD62F" cx="12" cy="4.28571429" rx="12" ry="4.28571429"></ellipse>
                </g>
                <g transform="translate(41.817544, 23.121561) scale(-1, 1) rotate(-294.000000) translate(-41.817544, -23.121561) translate(32.907998, 19.303184)">
                    <path d="M8.90954544,1.27279221 C12.8433352,1.27279221 16.1816745,2.18330175 17.3624525,3.44642413 L17.8190909,3.18198052 L17.8190909,4.45477272 C17.8190909,6.21213203 13.8301515,7.63675324 8.90954544,7.63675324 C3.98893937,7.63675324 2.27373675e-13,6.21213203 2.27373675e-13,4.45477272 L2.27373675e-13,4.45477272 L2.27373675e-13,3.18198052 L0.45757227,3.44542569 C1.63917579,2.18282196 4.97679224,1.27279221 8.90954544,1.27279221 Z" fill="#FCA022"></path>
                    <ellipse fill="#FFD62F" cx="8.90954544" cy="3.18198052" rx="8.90954544" ry="3.18198052"></ellipse>
                </g>
                <g transform="translate(33.727488, 24.121561) rotate(-297.000000) translate(-33.727488, -24.121561) translate(24.784207, 20.386683)">
                    <path d="M8.90954544,1.10579491 C12.8433352,1.10579491 16.1816745,2.01630445 17.3624525,3.27942684 L17.8190909,3.01498322 L17.8190909,4.28777543 C17.8190909,6.04513474 13.8301515,7.46975594 8.90954544,7.46975594 C3.98893937,7.46975594 0,6.04513474 0,4.28777543 L0,4.28777543 L0,3.01498322 L0.45757227,3.2784284 C1.63917579,2.01582467 4.97679224,1.10579491 8.90954544,1.10579491 Z" fill="#FCA022"></path>
                    <ellipse fill="#FFD62F" cx="8.97701673" cy="3.18198052" rx="8.90954544" ry="3.18198052"></ellipse>
                </g>
                <g transform="translate(37.817544, 19.121561) rotate(-276.000000) translate(-37.817544, -19.121561) translate(28.907998, 15.303184)">
                    <path d="M8.90954544,1.27279221 C12.8433352,1.27279221 16.1816745,2.18330175 17.3624525,3.44642413 L17.8190909,3.18198052 L17.8190909,4.45477272 C17.8190909,6.21213203 13.8301515,7.63675324 8.90954544,7.63675324 C3.98893937,7.63675324 1.59161573e-12,6.21213203 1.59161573e-12,4.45477272 L1.59161573e-12,4.45477272 L1.59161573e-12,3.18198052 L0.45757227,3.44542569 C1.63917579,2.18282196 4.97679224,1.27279221 8.90954544,1.27279221 Z" fill="#FCA022"></path>
                    <ellipse fill="#FFD62F" cx="8.90954544" cy="3.18198052" rx="8.90954544" ry="3.18198052"></ellipse>
                </g>
                <g transform="translate(44.817544, 24.121561) scale(-1, 1) rotate(-315.000000) translate(-44.817544, -24.121561) translate(35.907998, 20.303184)">
                    <path d="M8.90954544,1.27279221 C12.8433352,1.27279221 16.1816745,2.18330175 17.3624525,3.44642413 L17.8190909,3.18198052 L17.8190909,4.45477272 C17.8190909,6.21213203 13.8301515,7.63675324 8.90954544,7.63675324 C3.98893937,7.63675324 0,6.21213203 0,4.45477272 L0,4.45477272 L0,3.18198052 L0.45757227,3.44542569 C1.63917579,2.18282196 4.97679224,1.27279221 8.90954544,1.27279221 Z" fill="#FCA022"></path>
                    <ellipse fill="#FFD62F" cx="8.90954544" cy="3.18198052" rx="8.90954544" ry="3.18198052"></ellipse>
                </g>
                <g transform="translate(13.386180, 19.243391)">
                    <mask id="mask-2" fill="white">
                        <use xlink:href="#path-1"></use>
                    </mask>
                    <use fill="#646FD2" xlink:href="#path-1"></use>
                    <text id="$" mask="url(#mask-2)" font-family="Circular-Black, Circular" font-size="26" font-weight="800" fill="#FFFFFF">
                        <tspan x="17.9519132" y="37.9537595">$</tspan>
                    </text>
                    <rect fill="#3F4AAB" mask="url(#mask-2)" x="5.56978422" y="8.17773916" width="38.8598348" height="3.77602036"></rect>
                </g>
                <path d="M53.6827077,28.2568595 C56.0045755,25.9062614 58.2466015,25.2746596 60.4087859,26.3620542 C63.6520624,27.993146 62.0788804,31.9497079 60.0162699,32.9105541 C61.9502803,36.1648367 65.2482287,33.7777412 65.990279,33.3753175 C62.840936,39.7894449 55.4581461,33.0279186 54.5207125,31.5325605 C53.6827077,33.3753175 53.7163337,34.6354063 55.1770499,36.3382174 C57.770326,39.3612954 58.4881824,41.5057159 56.7986789,42.6389562 C57.6294154,41.1045795 56.0357675,40.1128805 55.6278022,39.9633398 C52.7581491,38.9114609 52.4649108,37.1293029 52.1950415,36.3382174 C51.1194541,36.3382174 47.1892234,36.133416 47.6070788,32.296163 C47.885649,29.7379942 49.9108587,28.3915597 53.6827077,28.2568595 Z M49.5956408,33.6889198 C50.5595272,35.0009331 51.4473685,34.0250476 51.9947323,33.337693 C52.5420962,32.6503384 52.6344251,31.5474612 51.803095,31.1949345 C50.9717649,30.8424078 48.6317545,32.3769065 49.5956408,33.6889198 Z M58.4722265,28.1600135 C57.1196096,28.3580167 56.4804845,29.4941973 56.9233042,30.2567277 C57.3661239,31.0192581 59.309521,31.2105807 60.1143688,30.1775671 C60.9192166,29.1445536 59.8248434,27.9620104 58.4722265,28.1600135 Z" fill="#3F4AAB"></path>
                <g transform="translate(0.000000, 57.409805)">
                    <path d="M14,3 C19.7521266,3 24.6940243,4.23892951 26.8477275,6.01037226 L28,5.02335071 L27.999,7.977 L28,8 C28,10.7161545 21.9358106,12.9264635 14.3790602,12.9982027 L14,13 C6.2680135,13 0,10.7614237 0,8 L0,8 L0,5.02335071 L1.15227252,6.01037226 C3.30597569,4.23892951 8.24787336,3 14,3 Z" fill="#FCA022"></path>
                    <ellipse fill="#FFD62F" cx="14" cy="5" rx="14" ry="5"></ellipse>
                </g>
                <g transform="translate(48.929643, 59.266948)">
                    <path d="M12,2.57142857 C16.9308194,2.57142857 21.1670371,3.63355131 23.0128154,5.15214048 L24,4.30572918 L23.999,6.83542857 L24,6.85714286 C24,9.18181081 18.8175818,11.0741864 12.3538163,11.1410299 L12,11.1428571 C5.372583,11.1428571 0,9.2240775 0,6.85714286 L0,6.85714286 L0,4.30572918 L0.987184631,5.15214048 C2.83296288,3.63355131 7.06918056,2.57142857 12,2.57142857 Z" fill="#FCA022"></path>
                    <ellipse fill="#FFD62F" cx="12" cy="4.28571429" rx="12" ry="4.28571429"></ellipse>
                </g>
                <g transform="translate(52.817544, 55.955310)">
                    <path d="M12,2.57142857 C16.9308194,2.57142857 21.1670371,3.63355131 23.0128154,5.15214048 L24,4.30572918 L23.999,6.83542857 L24,6.85714286 C24,9.18181081 18.8175818,11.0741864 12.3538163,11.1410299 L12,11.1428571 C5.372583,11.1428571 0,9.2240775 0,6.85714286 L0,6.85714286 L0,4.30572918 L0.987184631,5.15214048 C2.83296288,3.63355131 7.06918056,2.57142857 12,2.57142857 Z" fill="#FCA022"></path>
                    <ellipse fill="#FFD62F" cx="12" cy="4.28571429" rx="12" ry="4.28571429"></ellipse>
                </g>
                <g transform="translate(45.370496, 53.695519)">
                    <path d="M12,2.57142857 C16.9308194,2.57142857 21.1670371,3.63355131 23.0128154,5.15214048 L24,4.30572918 L23.999,6.83542857 L24,6.85714286 C24,9.18181081 18.8175818,11.0741864 12.3538163,11.1410299 L12,11.1428571 C5.372583,11.1428571 0,9.2240775 0,6.85714286 L0,6.85714286 L0,4.30572918 L0.987184631,5.15214048 C2.83296288,3.63355131 7.06918056,2.57142857 12,2.57142857 Z" fill="#FCA022"></path>
                    <ellipse fill="#FFD62F" cx="12" cy="4.28571429" rx="12" ry="4.28571429"></ellipse>
                </g>
                <path d="M24.4857473,54.0078996 C24.3815928,55.0713938 23.7251789,55.7278077 22.5165058,55.9771412 C24.3426565,56.4132197 24.4280141,57.5496887 24.4857473,57.9027207 C24.5667101,57.5495768 24.8040985,56.2647123 26.3395224,55.9771412 C25.3383262,55.8591234 24.7204012,55.2027096 24.4857473,54.0078996 Z" fill="#FFFFFF"></path>
                <path d="M50.5501366,39.9027207 C50.3896858,41.5410412 49.3784755,42.5522515 47.5165058,42.9363515 C50.3297041,43.6081336 50.4611981,45.3588723 50.5501366,45.9027207 C50.6748604,45.3587 51.0405589,43.3793569 53.4058905,42.9363515 C51.8635405,42.7545444 50.9116226,41.7433341 50.5501366,39.9027207 Z" fill="#FFFFFF"></path>
                <path d="M19.685386,2.94874497 L19.0665939,6.25641521 C21.3517213,6.73302476 22.8015864,7.56911099 23.4161891,8.76467391 C23.8899587,8.23317635 24.5442468,6.67908018 23.8805822,5.64449703 C23.120045,4.36147299 21.7216462,3.46288897 19.685386,2.94874497 Z" fill="#22BDFE"></path>
                <path d="M42.1002817,13.8567094 L41.6145689,16.1316136 C43.4082501,16.4594096 44.5463029,17.0344415 45.0287274,17.8567094 C45.4006067,17.4911633 45.9141816,16.4223083 45.3932467,15.7107569 C44.7962729,14.8283362 43.6986179,14.2103204 42.1002817,13.8567094 Z" fill="#2CC872"></path>
                <path d="M35.7168787,2.30188863 C37.0039562,1.706934 38.0262904,0.939637795 38.7838812,0 C39.6682158,0.28633627 40.4305434,0.775449937 40.7386173,1.48164375 C39.4354599,3.18025069 37.761547,3.45366565 35.7168787,2.30188863 Z" fill="#646FD2"></path>
                <path d="M65.8783758,30.5049184 C67.1654533,29.9099638 68.1877875,29.1426676 68.9453784,28.2030298 C69.829713,28.489366 70.5920405,28.9784797 70.9001145,29.6846735 C69.5969571,31.3832805 67.9230442,31.6566954 65.8783758,30.5049184 Z" fill="#FF5102" transform="translate(68.389245, 29.703030) rotate(-58.000000) translate(-68.389245, -29.703030) "></path>
                <path d="M47.8652277,9.8113172 C48.9609659,7.65647829 52.2993456,6.98910122 57.8803667,7.80918602 C61.0034506,8.26809732 64.5555912,7.67275862 65.6919191,6.57950313 C65.6431544,7.09181456 66.9949535,12.8052177 57.7243254,9.61774135 C52.0924651,7.68136538 48.8060992,7.74589066 47.8652277,9.8113172 Z" fill="#FF8A00" transform="translate(56.800216, 8.579503) rotate(-36.000000) translate(-56.800216, -8.579503) "></path>
            </g>
        </g>
    </g>
</svg>