<?xml version="1.0" encoding="UTF-8"?>
<svg width="68px" height="26px" viewBox="0 0 68 26" version="1.1" xmlns="http://www.w3.org/2000/svg" xmlns:xlink="http://www.w3.org/1999/xlink">
    <title>img_middle</title>
    <defs>
        <linearGradient x1="50%" y1="22.0258414%" x2="50%" y2="100%" id="linearGradient-1">
            <stop stop-color="#FF7A17" stop-opacity="0.3488411" offset="0%"></stop>
            <stop stop-color="#FF7A17" stop-opacity="0.0197830734" offset="100%"></stop>
        </linearGradient>
        <linearGradient x1="0%" y1="50%" x2="100%" y2="50%" id="linearGradient-2">
            <stop stop-color="#FF7A17" stop-opacity="0" offset="0%"></stop>
            <stop stop-color="#FF7A17" offset="4.80424843%"></stop>
            <stop stop-color="#FF7A17" offset="49.7916313%"></stop>
            <stop stop-color="#FF7A17" offset="93.9935909%"></stop>
            <stop stop-color="#FF7A17" stop-opacity="0" offset="100%"></stop>
        </linearGradient>
    </defs>
    <g stroke="none" stroke-width="1" fill="none" fill-rule="evenodd">
        <g transform="translate(-123.000000, -31.000000)">
            <g id="img_middle-2" transform="translate(123.000000, 31.000000)">
                <g id="img_middle" transform="translate(1.000000, 10.000000)">
                    <path d="M0,4.75150579 C3.31185982,1.58383526 7.34127372,0 12.0882417,0 C19.2086937,0 20.9019846,3.7283319 28.4157506,3.7283319 C35.9295166,3.7283319 36.8381741,3.89366144 42.8488248,4.32258361 C48.8594754,4.75150579 55.2650753,4.13027789 58.6329693,3.25301539 C62.0008633,2.37575289 63.6228879,2.37575289 66,2.49624374 C66,2.49624374 66,6.99749583 66,16 L0,16 L0,4.75150579 Z" fill="url(#linearGradient-1)"></path>
                    <path d="M0,5.03219625 C3.31185982,1.67739875 7.34127372,0 12.0882417,0 C19.2086937,0 20.9019846,3.94857939 28.4157506,3.94857939 C35.9295166,3.94857939 36.8381741,4.1236756 42.8488248,4.57793592 C48.8594754,5.03219625 55.2650753,4.37426994 58.6329693,3.44518403 C62.0008633,2.51609812 63.6228879,2.51609812 66,2.64370685" stroke="url(#linearGradient-2)"></path>
                </g>
            </g>
        </g>
    </g>
</svg>