<?xml version="1.0" encoding="UTF-8"?>
<svg width="284px" height="284px" viewBox="0 0 284 284" version="1.1" xmlns="http://www.w3.org/2000/svg" xmlns:xlink="http://www.w3.org/1999/xlink">
    <title>1</title>
    <g stroke="none" stroke-width="1" fill="none" fill-rule="evenodd">
        <g id="1">
            <rect fill="#EFEFEF" x="0" y="0" width="284" height="284" rx="2"></rect>
            <path d="M209.708628,105.503235 L185.075022,105.503235 C185.332606,105.17974 185.587307,104.837653 185.838787,104.472667 C190.544654,97.6415857 192.95024,89.7155479 192.612278,82.1544954 C192.43999,78.2983896 191.567189,74.724459 190.018463,71.5323859 C188.349849,68.0932588 185.982586,65.2694422 182.982301,63.1390979 C179.982186,61.0085814 176.557455,59.7197696 172.803241,59.3081279 C169.318651,58.925754 165.712646,59.3196627 162.085782,60.4779752 C154.974328,62.749321 148.466222,67.7623617 143.760355,74.593271 C143.348627,75.1908486 142.955723,75.7973786 142.579437,76.4107952 C142.20332,75.7973786 141.810246,75.1908485 141.398519,74.593271 C136.692652,67.7621896 130.184545,62.749321 123.073091,60.4779752 C119.446228,59.3194906 115.840222,58.925754 112.355632,59.3081279 C108.601418,59.7197695 105.176688,61.0085814 102.176572,63.1389256 C99.1762872,65.26927 96.8088551,68.0932588 95.1402402,71.5323859 C93.591345,74.7246313 92.7187136,78.2983898 92.5464258,82.1544954 C92.2084635,89.7155477 94.6140499,97.6417578 99.3199171,104.472667 C99.5713964,104.837653 99.8260975,105.17974 100.083681,105.503235 L74.2915415,105.503235 C65.9516889,105.503235 59.1666667,112.391818 59.1666667,120.858964 L59.1666667,130.561552 C59.1666667,139.028698 65.9516889,145.917281 74.2915415,145.917281 L75.0210518,145.917281 L75.0210518,209.477604 C75.0210518,217.944922 81.806074,224.833333 90.1459266,224.833333 L194.786734,224.833333 C203.126587,224.833333 209.911439,217.94475 209.911439,209.477604 L209.911439,145.914699 C218.158026,145.803826 224.833333,138.959832 224.833333,130.561552 L224.833333,120.858964 C224.833333,112.391818 218.04848,105.503235 209.708628,105.503235 Z M152.79275,81.0070295 C155.848995,76.0105164 160.588099,72.6875993 165.393676,71.1527666 C167.057373,70.6214718 168.677998,70.3578903 170.21248,70.3578903 C172.634176,70.3578903 174.84136,71.0141754 176.665135,72.309013 C179.644563,74.4247235 181.397626,78.1012632 181.601454,82.6615154 C181.829872,87.7707952 179.64965,94.1712972 175.291581,98.0465129 C165.722142,106.555839 154.271103,105.989423 151.291675,103.873712 C149.058716,102.288608 146.634646,91.07443 152.79275,81.0070295 Z M103.557419,82.6616875 C103.761248,78.1014353 105.514311,74.4247235 108.493738,72.3091851 C110.317514,71.0141754 112.524698,70.3580624 114.946394,70.3580624 C116.480875,70.3580624 118.1015,70.6214716 119.765198,71.1529387 C124.570605,72.6879435 129.309878,76.0106885 132.366123,81.0072016 C138.524058,91.0746021 136.100158,102.288608 133.867198,103.874056 C130.887771,105.989767 119.436732,106.556183 109.867293,98.0468572 C105.509223,94.1714693 103.329002,87.7709673 103.557419,82.6616875 Z M70.1891906,130.561552 L70.1891906,120.858964 C70.1891906,118.562311 72.0295847,116.693826 74.291711,116.693826 L136.616512,116.693826 L136.616512,134.72669 L74.2915415,134.72669 C72.0295847,134.72669 70.1891906,132.858378 70.1891906,130.561552 Z M86.0435757,209.477604 L86.0435757,145.917281 L136.616512,145.917281 L136.616512,213.642742 L90.1462656,213.642742 C87.8839698,213.642742 86.0435757,211.774257 86.0435757,209.477604 Z M194.786904,213.642742 L148.062125,213.642742 L148.062125,145.917281 L198.889254,145.917281 L198.889254,209.477604 C198.889254,211.774257 197.04903,213.642742 194.786904,213.642742 Z M213.811148,130.561552 C213.811148,132.858205 211.970585,134.72669 209.708628,134.72669 L148.062125,134.72669 L148.062125,116.693826 L209.708628,116.693826 C211.970754,116.693826 213.811148,118.562311 213.811148,120.858964 L213.811148,130.561552 Z" fill="#CCCCCC" fill-rule="nonzero"></path>
        </g>
    </g>
</svg>