<?xml version="1.0" encoding="UTF-8"?>
<svg width="200px" height="140px" viewBox="0 0 200 140" version="1.1" xmlns="http://www.w3.org/2000/svg" xmlns:xlink="http://www.w3.org/1999/xlink">
    <title>img_unnotification</title>
    <defs>
        <linearGradient x1="50%" y1="0%" x2="50%" y2="100%" id="linearGradient-1">
            <stop stop-color="#EBEBEB" offset="0%"></stop>
            <stop stop-color="#F5F5F5" stop-opacity="0" offset="100%"></stop>
        </linearGradient>
        <linearGradient x1="50%" y1="7.53719168%" x2="50%" y2="94.6446512%" id="linearGradient-2">
            <stop stop-color="#E7E7E7" offset="0%"></stop>
            <stop stop-color="#D0D0D0" offset="100%"></stop>
        </linearGradient>
    </defs>
    <g stroke="none" stroke-width="1" fill="none" fill-rule="evenodd">
        <g transform="translate(-414.000000, -54.000000)">
            <g id="img_unnotification" transform="translate(414.000000, 54.000000)">
                <ellipse fill="url(#linearGradient-1)" cx="100" cy="104.351704" rx="100" ry="34.666342"></ellipse>
                <g transform="translate(63.414634, 11.299944)">
                    <path d="M6.00375235,40.4982785 C6.00375235,24.311891 17.6501119,10.8456565 33.0202197,8.02218644 L33.0206379,6.00375235 C33.0206379,2.68797148 35.7086094,6.09099063e-16 39.0243902,0 C42.3401711,-6.09099063e-16 45.0281426,2.68797148 45.0281426,6.00375235 L45.0283173,8.02214171 C60.3985456,10.8455143 72.0450281,24.3118055 72.0450281,40.4982785 L72.0450281,74.7764064 L75.8054883,74.7764064 C77.0444244,74.7764064 78.0487805,75.7807626 78.0487805,77.0196986 C78.0487805,78.2586347 77.0444244,79.2629908 75.8054883,79.2629908 L2.24329219,79.2629908 C1.00435613,79.2629908 1.51725909e-16,78.2586347 0,77.0196986 C-1.51725909e-16,75.7807626 1.00435613,74.7764064 2.24329219,74.7764064 L6.00375235,74.7764064 L6.00375235,40.4982785 Z" fill="url(#linearGradient-2)"></path>
                    <path d="M48.7804878,83.9290386 C48.7804878,89.3032679 44.4125341,93.6599416 39.0243902,93.6599416 C33.6362463,93.6599416 29.2682927,89.3032679 29.2682927,83.9290386 L29.2682927,83.9290386 Z" fill="#D0D0D0"></path>
                </g>
                <g transform="translate(71.156347, 14.761457) rotate(-30.000000) translate(-71.156347, -14.761457) translate(57.180413, 5.785404)">
                    <polygon fill="#D7D7D7" transform="translate(14.526383, 5.552720) rotate(-6.000000) translate(-14.526383, -5.552720) " points="12.3106561 0.201106678 16.7421105 0.202296379 15.46982 10.9043325 12.9825834 10.9036647"></polygon>
                    <polygon fill="#C6C6C6" points="2.18098448 8.3526168 2.27373675e-13 10.3154231 7.20600272 17.9521068 8.50558934 16.9524926"></polygon>
                    <polygon fill="#C6C6C6" points="26.2195853 6.17876139 27.9518672 7.58101538 20.106826 15.5811725 19.2204259 14.4241446"></polygon>
                </g>
            </g>
        </g>
    </g>
</svg>