<?xml version="1.0" encoding="UTF-8"?>
<svg width="340px" height="97px" viewBox="0 0 340 97" version="1.1" xmlns="http://www.w3.org/2000/svg" xmlns:xlink="http://www.w3.org/1999/xlink">
    <title>bg_AT </title>
    <defs>
        <linearGradient x1="50%" y1="100%" x2="50%" y2="26.1409652%" id="linearGradient-1">
            <stop stop-color="#B6B6B6" offset="0%"></stop>
            <stop stop-color="#EFEFEF" offset="100%"></stop>
        </linearGradient>
        <linearGradient x1="50%" y1="100%" x2="50%" y2="26.1409652%" id="linearGradient-2">
            <stop stop-color="#B6B6B6" offset="0%"></stop>
            <stop stop-color="#EFEFEF" offset="100%"></stop>
        </linearGradient>
    </defs>
    <g  stroke="none" stroke-width="1" fill="none" fill-rule="evenodd">
        <g transform="translate(-10.000000, -358.000000)">
            <g transform="translate(10.000000, 263.000000)">
                <g id="bg_AT-" transform="translate(0.000000, 95.000000)">
                    <path d="M338,20.5 C338.414214,20.5 338.789214,20.6678932 339.06066,20.9393398 C339.298176,21.1768556 339.456409,21.4936545 339.492256,21.8466337 L339.5,22 L339.5,95 C339.5,95.4142136 339.332107,95.7892136 339.06066,96.0606602 C338.823144,96.298176 338.506346,96.4564087 338.153366,96.4922557 L338,96.5 L2,96.5 C1.58578644,96.5 1.21078644,96.3321068 0.939339828,96.0606602 C0.701824045,95.8231444 0.543591326,95.5063455 0.507744331,95.1533663 L0.5,95 L0.5,22 C0.5,21.5857864 0.667893219,21.2107864 0.939339828,20.9393398 C1.17685561,20.701824 1.49365446,20.5435913 1.84663371,20.5077443 L2,20.5 L338,20.5 Z M302,22.5 C300.205075,22.5 298.580075,23.2275373 297.403806,24.4038059 C296.227537,25.5800746 295.5,27.2050746 295.5,29 C295.5,30.7949254 296.227537,32.4199254 297.403806,33.5961941 C298.580075,34.7724627 300.205075,35.5 302,35.5 C303.794925,35.5 305.419925,34.7724627 306.596194,33.5961941 C307.772463,32.4199254 308.5,30.7949254 308.5,29 C308.5,27.2050746 307.772463,25.5800746 306.596194,24.4038059 C305.419925,23.2275373 303.794925,22.5 302,22.5 Z M38,21.5 C36.2050746,21.5 34.5800746,22.2275373 33.4038059,23.4038059 C32.2275373,24.5800746 31.5,26.2050746 31.5,28 C31.5,29.7949254 32.2275373,31.4199254 33.4038059,32.5961941 C34.5800746,33.7724627 36.2050746,34.5 38,34.5 C39.7949254,34.5 41.4199254,33.7724627 42.5961941,32.5961941 C43.7724627,31.4199254 44.5,29.7949254 44.5,28 C44.5,26.2050746 43.7724627,24.5800746 42.5961941,23.4038059 C41.4199254,22.2275373 39.7949254,21.5 38,21.5 Z" stroke="#FFC3BF" fill="#FFFFFF"></path>
                    <rect fill="url(#linearGradient-1)" x="35" y="0" width="6" height="31" rx="3"></rect>
                    <rect fill="url(#linearGradient-2)" x="299" y="2" width="6" height="30" rx="3"></rect>
                </g>
            </g>
        </g>
    </g>
</svg>