<?xml version="1.0" encoding="UTF-8"?>
<svg width="98px" height="81px" viewBox="0 0 98 81" version="1.1" xmlns="http://www.w3.org/2000/svg" xmlns:xlink="http://www.w3.org/1999/xlink">
    <title>img_save</title>
    <defs>
        <linearGradient x1="0%" y1="46.3848109%" x2="100%" y2="48.8304886%" id="linearGradient-1">
            <stop stop-color="#FFC763" offset="0%"></stop>
            <stop stop-color="#FFBC2A" offset="12.3518365%"></stop>
            <stop stop-color="#FFC94B" offset="24.7374638%"></stop>
            <stop stop-color="#FFBC2B" offset="41.7289971%"></stop>
            <stop stop-color="#FFAF1E" offset="64.6559941%"></stop>
            <stop stop-color="#FFAE00" offset="100%"></stop>
        </linearGradient>
    </defs>
    <g stroke="none" stroke-width="1" fill="none" fill-rule="evenodd">
        <g id="AT-inject2.0" transform="translate(-67.000000, -591.000000)">
            <g id="img_save" transform="translate(67.000000, 590.996824)">
                <path d="M24.8803059,18.5172179 C12.5420358,20.7073563 -6.94241566,23.5715739 2.49796929,31.1965421 C11.9383542,38.8215103 36.0192416,39.2746074 15.4322268,58.6051099 C-5.15478808,77.9356124 24.0504146,83.4032053 52.2148498,80.1029549 C80.3792849,76.8027045 93.9683238,65.8252495 87.6474512,53.3107744 C81.3265787,40.7962993 79.238296,35.7075117 91.349783,26.8314402 C103.46127,17.9553688 99.5848007,12.4845283 72.8728713,14.1908556 C46.160942,15.8971828 39.6404235,15.8971828 24.8803059,18.5172179 Z" fill="#F7F7F7"></path>
                <g transform="translate(10.524498, 20.228451)">
                    <path d="M47.3389679,13.1870034 C56.680115,8.71212169 63.8037956,8.71212169 68.7100097,13.1870034 C68.6242175,13.4346856 68.5787476,16.0372105 68.5736001,20.9945783 L68.5736001,23.008275 C68.5786381,28.448611 68.6223008,36.1446497 68.7045883,46.0963912 L68.7077051,46.1937387 L68.7077051,46.1937387 L68.7099935,46.4035944 C68.7099935,46.4332751 68.7098477,46.4628469 68.7095567,46.49231 C68.7085735,46.5765487 68.7092902,46.6624995 68.7100097,46.7486158 C68.30302,56.9222369 50.1337337,53.7080709 49.6493009,53.5487993 C49.0326607,50.9667661 47.7582211,49.5683176 45.825982,49.353454 L45.825982,49.353454 L45.8266252,44.721439 C45.8469934,43.4202542 46.3511077,32.9087756 47.3389679,13.1870034 Z" fill="#CC6702"></path>
                    <path d="M4.42225859,0.688083163 C16.7289067,-0.416341875 25.2599937,-0.191253204 30.0155196,1.36334918 C36.6805909,3.54219035 51.6203491,6.44450104 59.0001015,4.91181216 L58.9995678,6.47468085 L60.6796235,6.47468085 L60.6803699,4.43787867 C64.9900234,2.97680899 67.66657,3.30997172 68.7100097,5.43736685 C68.6657555,16.2011189 68.6414157,24.8864029 68.6369903,31.4932189 L68.6369903,35.5898416 C68.6414157,41.2728939 68.6657555,44.8774782 68.7100097,46.4035944 C65.8382284,45.5046608 63.2397082,45.181807 60.6792104,45.1016329 L60.6796235,44.511175 L58.9995678,44.511175 L58.9996454,45.0803754 C52.550671,45.1059769 46.0156691,46.2122987 35.6124533,43.0389076 C20.1845624,38.3327924 5.93577792,41.1774768 4.42225859,41.4860633 C3.75744064,38.8347613 2.28335444,37.8227445 0,38.4500127 L0,38.4500127 L0,6.8558428 C2.56555298,5.63902137 4.03963918,3.58310149 4.42225859,0.688083163 Z M60.6796235,41.1550138 L58.9995678,41.1550138 L58.9995678,43.3924546 L60.6796235,43.3924546 L60.6796235,41.1550138 Z M60.6796235,37.7988525 L58.9995678,37.7988525 L58.9995678,40.0362933 L60.6796235,40.0362933 L60.6796235,37.7988525 Z M60.6796235,34.4426913 L58.9995678,34.4426913 L58.9995678,36.6801321 L60.6796235,36.6801321 L60.6796235,34.4426913 Z M60.6796235,31.08653 L58.9995678,31.08653 L58.9995678,33.3239708 L60.6796235,33.3239708 L60.6796235,31.08653 Z M60.6796235,27.7303688 L58.9995678,27.7303688 L58.9995678,29.9678096 L60.6796235,29.9678096 L60.6796235,27.7303688 Z M60.6796235,24.3742075 L58.9995678,24.3742075 L58.9995678,26.6116483 L60.6796235,26.6116483 L60.6796235,24.3742075 Z M60.6796235,21.0180463 L58.9995678,21.0180463 L58.9995678,23.2554871 L60.6796235,23.2554871 L60.6796235,21.0180463 Z M60.6796235,17.661885 L58.9995678,17.661885 L58.9995678,19.8993258 L60.6796235,19.8993258 L60.6796235,17.661885 Z M60.6796235,14.3057238 L58.9995678,14.3057238 L58.9995678,16.5431646 L60.6796235,16.5431646 L60.6796235,14.3057238 Z M60.6796235,10.9495625 L58.9995678,10.9495625 L58.9995678,13.1870034 L60.6796235,13.1870034 L60.6796235,10.9495625 Z M60.6796235,7.59340127 L58.9995678,7.59340127 L58.9995678,9.8308421 L60.6796235,9.8308421 L60.6796235,7.59340127 Z" fill="url(#linearGradient-1)"></path>
                    <text id="$" transform="translate(35.425289, 21.584310) rotate(3.000000) translate(-35.425289, -21.584310) " font-family="Circular-Black, Circular" font-size="24.6408169" font-weight="800" fill="#FFE9DF">
                        <tspan x="28.2393618" y="30.5843097">$</tspan>
                    </text>
                </g>
                <path d="M3.87722605,12.9190987 C8.21317398,12.7825864 10.9071376,13.9052992 11.959117,16.2872369 C12.8308975,15.534908 13.411305,14.1277127 13.7003395,12.065651 C11.7017844,10.2101937 9.31238105,9.43408722 6.53212936,9.73733158 C3.75187767,10.0405759 2.8669099,11.101165 3.87722605,12.9190987 Z" fill="#19A8D8"></path>
                <path d="M48.8520111,9.11578346 C48.3010164,13.4444463 47.0856479,15.9377196 45.2059057,16.5956033 C45.3220399,16.7564521 45.6149534,17.2670654 45.6149534,18.0655468 C47.3094494,17.7309451 50.6837681,16.26727 51.1479169,12.2098785 C50.3321151,11.3547545 49.5668132,10.3233895 48.8520111,9.11578346 Z" fill="#73BD37"></path>
                <path d="M74.4175242,0.831206257 C73.6055408,4.89701326 72.6080019,7.32895898 71.4249075,8.1270434 C72.7972344,8.73256753 74.0907674,9.16167253 75.3055065,9.4143584 C74.8774309,6.85563886 75.4587891,5.11165248 77.0495812,4.18239925 C76.3551752,3.43496089 75.4778229,2.31789656 74.4175242,0.831206257 Z" fill="#DB4B4A" transform="translate(74.237244, 5.122782) rotate(-330.000000) translate(-74.237244, -5.122782) "></path>
                <path d="M32.4294992,70.9402187 C31.7947193,74.1224588 31.0148793,76.0259025 30.0899792,76.6505498 C31.1628141,77.1244839 32.1740508,77.4603376 33.1236894,77.658111 C32.789036,75.6554432 33.243521,74.2904538 34.4871444,73.563143 C33.9442834,72.9781351 33.2584017,72.103827 32.4294992,70.9402187 Z" fill="#DB4B4A" transform="translate(32.288562, 74.299165) rotate(-300.000000) translate(-32.288562, -74.299165) "></path>
                <path d="M91.2095064,33.8924147 C94.8872691,36.5067703 97.150767,37.8139482 98,37.8139482 C97.7006505,38.2276932 97.1391034,38.9553272 96.3153587,39.9968504 C93.4977432,37.9620385 91.1173102,36.9446326 89.1740597,36.9446326 C89.1120235,36.4378998 89.7905057,35.4204938 91.2095064,33.8924147 Z" fill="#9D68AB"></path>
            </g>
        </g>
    </g>
</svg>