<?xml version="1.0" encoding="UTF-8"?>
<svg width="202px" height="62px" viewBox="0 0 202 62" version="1.1" xmlns="http://www.w3.org/2000/svg" xmlns:xlink="http://www.w3.org/1999/xlink">
    <title>1</title>
    <defs>
        <path d="M5.1277704,-2.07168062e-16 L184.87223,2.07168062e-16 C186.655267,-1.2037061e-16 187.30184,0.185651222 187.953691,0.534265408 C188.605543,0.882879593 189.11712,1.39445674 189.465735,2.04630859 C189.814349,2.69816044 190,3.34473292 190,5.1277704 L190,44.8722296 C190,46.6552671 189.814349,47.3018396 189.465735,47.9536914 C189.11712,48.6055433 188.605543,49.1171204 187.953691,49.4657346 C187.30184,49.8143488 186.655267,50 184.87223,50 L5.1277704,50 C3.34473292,50 2.69816044,49.8143488 2.04630859,49.4657346 C1.39445674,49.1171204 0.882879593,48.6055433 0.534265408,47.9536914 C0.185651222,47.3018396 8.02470732e-17,46.6552671 -1.38112041e-16,44.8722296 L1.38112041e-16,5.1277704 C-8.02470732e-17,3.34473292 0.185651222,2.69816044 0.534265408,2.04630859 C0.882879593,1.39445674 1.39445674,0.882879593 2.04630859,0.534265408 C2.69816044,0.185651222 3.34473292,1.2037061e-16 5.1277704,-2.07168062e-16 Z" id="path-1"></path>
        <filter x="-5.3%" y="-16.0%" width="110.5%" height="140.0%" filterUnits="objectBoundingBox" id="filter-2">
            <feOffset dx="0" dy="2" in="SourceAlpha" result="shadowOffsetOuter1"></feOffset>
            <feGaussianBlur stdDeviation="3" in="shadowOffsetOuter1" result="shadowBlurOuter1"></feGaussianBlur>
            <feColorMatrix values="0 0 0 0 0.2   0 0 0 0 0.2   0 0 0 0 0.2  0 0 0 0.1 0" type="matrix" in="shadowBlurOuter1"></feColorMatrix>
        </filter>
    </defs>
    <g id="1" stroke="none" stroke-width="1" fill="none" fill-rule="evenodd">
        <g transform="translate(6.000000, 4.000000)">
            <g id="0">
                <use fill="black" fill-opacity="1" filter="url(#filter-2)" xlink:href="#path-1"></use>
                <use fill="#D8D8D8" fill-rule="evenodd" xlink:href="#path-1"></use>
            </g>
            <path d="M16.0701788,4 L62.5162087,4 C64.2992461,4 64.9458186,4.18565122 65.5976705,4.53426541 C66.2495223,4.88287959 66.7610995,5.39445674 67.1097137,6.04630859 C67.4583278,6.69816044 67.6439791,7.34473292 67.6439791,9.1277704 L67.6439791,21.8722296 C67.6439791,23.6552671 67.4583278,24.3018396 67.1097137,24.9536914 C66.7610995,25.6055433 66.2495223,26.1171204 65.5976705,26.4657346 C64.9458186,26.8143488 64.2992461,27 62.5162087,27 L16.0701788,27 C14.2871413,27 13.6405688,26.8143488 12.988717,26.4657346 C12.3368651,26.1171204 11.825288,25.6055433 11.4766738,24.9536914 C11.1280596,24.3018396 10.9424084,23.6552671 10.9424084,21.8722296 L10.9424084,9.1277704 C10.9424084,7.34473292 11.1280596,6.69816044 11.4766738,6.04630859 C11.825288,5.39445674 12.3368651,4.88287959 12.988717,4.53426541 C13.6405688,4.18565122 14.2871413,4 16.0701788,4 Z" id="0" fill="#FFFFFF"></path>
            <path d="M71.7717495,4 L118.217779,4 C120.000817,4 120.647389,4.18565122 121.299241,4.53426541 C121.951093,4.88287959 122.46267,5.39445674 122.811284,6.04630859 C123.159899,6.69816044 123.34555,7.34473292 123.34555,9.1277704 L123.34555,16.8722296 C123.34555,18.6552671 123.159899,19.3018396 122.811284,19.9536914 C122.46267,20.6055433 121.951093,21.1171204 121.299241,21.4657346 C120.647389,21.8143488 120.000817,22 118.217779,22 L71.7717495,22 C69.988712,22 69.3421395,21.8143488 68.6902877,21.4657346 C68.0384358,21.1171204 67.5268587,20.6055433 67.1782445,19.9536914 C66.8296303,19.3018396 66.6439791,18.6552671 66.6439791,16.8722296 L66.6439791,9.1277704 C66.6439791,7.34473292 66.8296303,6.69816044 67.1782445,6.04630859 C67.5268587,5.39445674 68.0384358,4.88287959 68.6902877,4.53426541 C69.3421395,4.18565122 69.988712,4 71.7717495,4 Z" id="0" fill="#E7E7E7"></path>
            <path d="M128.478556,4 L174.924586,4 C176.707623,4 177.354196,4.18565122 178.006047,4.53426541 C178.657899,4.88287959 179.169476,5.39445674 179.518091,6.04630859 C179.866705,6.69816044 180.052356,7.34473292 180.052356,9.1277704 L180.052356,16.8722296 C180.052356,18.6552671 179.866705,19.3018396 179.518091,19.9536914 C179.169476,20.6055433 178.657899,21.1171204 178.006047,21.4657346 C177.354196,21.8143488 176.707623,22 174.924586,22 L128.478556,22 C126.695518,22 126.048946,21.8143488 125.397094,21.4657346 C124.745242,21.1171204 124.233665,20.6055433 123.885051,19.9536914 C123.536437,19.3018396 123.350785,18.6552671 123.350785,16.8722296 L123.350785,9.1277704 C123.350785,7.34473292 123.536437,6.69816044 123.885051,6.04630859 C124.233665,5.39445674 124.745242,4.88287959 125.397094,4.53426541 C126.048946,4.18565122 126.695518,4 128.478556,4 Z" id="0" fill="#E7E7E7"></path>
            <path d="M5.1277704,19 L184.87223,19 C186.655267,19 187.30184,19.1856512 187.953691,19.5342654 C188.605543,19.8828796 189.11712,20.3944567 189.465735,21.0463086 C189.814349,21.6981604 190,22.3447329 190,24.1277704 L190,44.8722296 C190,46.6552671 189.814349,47.3018396 189.465735,47.9536914 C189.11712,48.6055433 188.605543,49.1171204 187.953691,49.4657346 C187.30184,49.8143488 186.655267,50 184.87223,50 L5.1277704,50 C3.34473292,50 2.69816044,49.8143488 2.04630859,49.4657346 C1.39445674,49.1171204 0.882879593,48.6055433 0.534265408,47.9536914 C0.185651222,47.3018396 8.02470732e-17,46.6552671 -1.38112041e-16,44.8722296 L1.38112041e-16,24.1277704 C-8.02470732e-17,22.3447329 0.185651222,21.6981604 0.534265408,21.0463086 C0.882879593,20.3944567 1.39445674,19.8828796 2.04630859,19.5342654 C2.69816044,19.1856512 3.34473292,19 5.1277704,19 Z" id="0" fill="#FFFFFF"></path>
            <path d="M11.6976975,33.7863475 L6.80961277,33.7863475 L8.39084693,32.3781028 C8.48842939,32.2916667 8.48842939,32.1515957 8.39084693,32.0647163 C8.29376234,31.9782801 8.13593764,31.9782801 8.03885305,32.0647163 L6.04139983,33.8430851 C5.94431524,33.9299645 5.94431524,34.0700355 6.04139983,34.1564716 L8.03885305,35.9348404 C8.08764428,35.9782801 8.15087373,36 8.21509892,36 C8.27882625,36 8.34255357,35.9782801 8.39084693,35.9348404 C8.48842939,35.8484043 8.48842939,35.7078901 8.39084693,35.6214539 L6.80961277,34.2136525 L11.6976975,34.2136525 C11.8301308,34.2136525 11.9371728,34.1179078 11.9371728,34 C11.9371728,33.8820922 11.8301308,33.7863475 11.6976975,33.7863475" id="Fill-1" fill="#000000"></path>
            <path d="M23.6348702,33.7863475 L18.7467855,33.7863475 L20.3280197,32.3781028 C20.4256022,32.2916667 20.4256022,32.1515957 20.3280197,32.0647163 C20.2309351,31.9782801 20.0731104,31.9782801 19.9760258,32.0647163 L17.9785726,33.8430851 C17.881488,33.9299645 17.881488,34.0700355 17.9785726,34.1564716 L19.9760258,35.9348404 C20.0248171,35.9782801 20.0880465,36 20.1522717,36 C20.215999,36 20.2797263,35.9782801 20.3280197,35.9348404 C20.4256022,35.8484043 20.4256022,35.7078901 20.3280197,35.6214539 L18.7467855,34.2136525 L23.6348702,34.2136525 C23.7673036,34.2136525 23.8743455,34.1179078 23.8743455,34 C23.8743455,33.8820922 23.7673036,33.7863475 23.6348702,33.7863475" id="Fill-1" fill="#999999" transform="translate(20.890052, 33.999945) scale(-1, 1) translate(-20.890052, -33.999945) "></path>
            <path d="M31.9606825,35.8132453 C31.462052,35.6032401 31.0353923,35.1421286 30.8952386,34.6612165 C30.7626607,34.2091052 30.8614915,33.719493 31.1669371,33.3087827 C31.4296823,32.9562739 31.7974567,32.718668 32.3360328,32.5536638 C32.468955,32.5128628 32.5777721,32.4675617 32.5777721,32.4525613 C32.5777721,32.4378609 32.5192313,32.3745594 32.4472604,32.3121578 C32.3002195,32.1846546 32.288167,32.1390535 32.380455,32.0577514 C32.4875503,31.9632491 32.5774278,31.9812495 32.766136,32.1342534 C32.8570465,32.2077552 33.0168287,32.3280582 33.1222023,32.40156 C33.3274397,32.5455636 33.3784047,32.6106653 33.3525778,32.6997675 C33.3381148,32.7486687 33.0412781,33.0876772 32.8212333,33.3066827 C32.7175815,33.4092852 32.6483655,33.4359859 32.5691632,33.4041851 C32.529562,33.3867847 32.4965036,33.359784 32.473776,33.3267832 C32.4352079,33.2634816 32.4699881,33.1968799 32.6283928,33.0297757 C32.6865893,32.9685742 32.7347994,32.9097727 32.7347994,32.8998725 C32.7347994,32.8632716 32.5967118,32.8530713 32.4389958,32.8776719 C32.163165,32.920873 31.9179821,33.041776 31.6748653,33.2538813 C31.5536512,33.359784 31.4317485,33.4917873 31.3942134,33.5568889 C31.1311239,34.0183005 31.1438651,34.5499137 31.4286492,34.9762244 C31.560194,35.1727293 31.8656396,35.4256356 32.0901611,35.5228381 C32.6111749,35.7490437 33.1896964,35.7358434 33.6755857,35.4865372 C34.2578952,35.1889297 34.5871015,34.5517138 34.4507357,33.9870997 C34.403903,33.7923948 34.2658154,33.5265882 34.1315158,33.3717843 C34.009613,33.2310808 33.9796539,33.1689792 33.9989379,33.0996775 C34.0202881,33.0258756 34.1411578,32.9853746 34.2272473,33.0234756 C34.3804867,33.0903773 34.6704362,33.4905873 34.7644459,33.7638941 C34.839516,33.9813995 34.8326288,34.4911123 34.7523934,34.719718 C34.6818,34.919823 34.5030782,35.2279307 34.3773875,35.3674342 C34.2475645,35.5111378 33.9552045,35.719643 33.7534106,35.8135453 C33.4348794,35.960849 32.9813598,36.0298507 32.6039434,35.9881497 C32.3549725,35.960549 32.2265269,35.9257481 31.9606825,35.8132453" id="Fill-1" fill="#000000"></path>
            <path d="M52.7696335,25 L140.21466,25 C145.185222,25 149.21466,29.0294373 149.21466,34 C149.21466,38.9705627 145.185222,43 140.21466,43 L52.7696335,43 C47.7990708,43 43.7696335,38.9705627 43.7696335,34 C43.7696335,29.0294373 47.7990708,25 52.7696335,25 Z" id="0" fill="#F5F5F5"></path>
            <path d="M54.0182657,35.8012343 C53.944038,35.732673 53.9627683,35.6126102 54.0366492,35.5611087 C54.110877,35.5096073 54.2402552,35.5096073 54.2957526,35.5781686 L54.6467736,35.9731205 C54.7210013,36.0416818 54.7026178,36.1617446 54.6287369,36.2132461 C54.5545092,36.2647475 54.4251309,36.2647475 54.3696335,36.1965081 L54.0182657,35.8012343 Z M52.6492147,35.5266671 C53.666551,35.5266671 54.4993586,34.7541451 54.4993586,33.8100588 C54.4993586,32.8656506 53.666551,32.0931285 52.6492147,32.0931285 C51.6318783,32.0931285 50.7994175,32.8656506 50.7994175,33.8100588 C50.7994175,34.7541451 51.6318783,35.5266671 52.6492147,35.5266671 L52.6492147,35.5266671 Z M52.6492147,35.8701175 C51.4282723,35.8701175 50.4293194,34.9430911 50.4293194,33.8100588 C50.4293194,32.6770264 51.4282723,31.75 52.6492147,31.75 C53.8701571,31.75 54.8691099,32.6770264 54.8691099,33.8100588 C54.8691099,34.9430911 53.8701571,35.8701175 52.6492147,35.8701175 L52.6492147,35.8701175 Z" id="Fill-1" fill="#999999"></path>
            <path d="M179.526178,29.25 C180.975925,29.25 182.288425,29.8376263 183.238489,30.7876894 C184.188552,31.7377525 184.776178,33.0502525 184.776178,34.5 C184.776178,35.9497475 184.188552,37.2622475 183.238489,38.2123106 C182.288425,39.1623737 180.975925,39.75 179.526178,39.75 L179.526178,39.75 L158.693717,39.75 C157.24397,39.75 155.93147,39.1623737 154.981407,38.2123106 C154.031344,37.2622475 153.443717,35.9497475 153.443717,34.5 C153.443717,33.0502525 154.031344,31.7377525 154.981407,30.7876894 C155.93147,29.8376263 157.24397,29.25 158.693717,29.25 L158.693717,29.25 L179.526178,29.25 Z" id="5" stroke-opacity="0.5" stroke="#999999" stroke-width="0.5"></path>
            <path d="M175.528969,30.9999206 C175.978825,31.0003177 176.342975,31.3676046 176.34258,31.8194669 C176.34258,31.9123805 176.326782,32.004103 176.295975,32.0914578 L177.427131,32.0914578 C177.726508,32.0914578 177.969012,32.3352569 177.969012,32.6362337 L177.969012,33.7738306 C178.3928,33.622151 178.858849,33.8437144 179.010118,34.2697673 C179.161386,34.6958202 178.940605,35.1639622 178.516817,35.3160389 C178.339876,35.3795696 178.145952,35.3795696 177.969012,35.3160389 L177.969012,36.4536358 C177.969802,36.7546126 177.728088,36.9992059 177.428711,37 L177.427131,37 L176.29795,37 C176.448428,36.5739471 176.226463,36.1058051 175.802279,35.9549197 C175.378491,35.8036371 174.912837,36.0263917 174.762753,36.4524446 C174.699955,36.6299336 174.699955,36.8229081 174.762753,37 L173.631202,37 C173.331825,37 173.088926,36.7562009 173.088926,36.4552241 L173.088926,36.4536358 L173.088926,35.3215978 C173.512715,35.4704979 173.976394,35.2461551 174.124503,34.8201022 C174.273007,34.3944464 174.049461,33.9282897 173.626067,33.7789925 C173.452286,33.7178442 173.262707,33.7178442 173.088926,33.7789925 L173.088926,32.6417926 C173.088926,32.3404188 173.331825,32.0966196 173.631202,32.0966196 L174.762358,32.0966196 C174.612669,31.6705667 174.83503,31.203616 175.258424,31.0531276 C175.346104,31.0221563 175.437734,31.0066707 175.530154,31.0066707 L175.529364,30.9999206 L175.528969,30.9999206 Z" id="Fill-1" fill="#999999"></path>
            <ellipse id="0" fill="#EA5A4F" cx="162.643979" cy="34.5" rx="3.48167539" ry="3.5"></ellipse>
            <path d="M164.1576,36.2937208 C163.669692,36.4092196 162.336794,37.0365789 161.438309,36.5037878 C160.298845,35.8332865 160.29585,33.8704074 161.719431,32.6628728 C162.042278,32.3782479 162.46595,32.2148047 162.909522,32.2038391 C163.273794,32.1763451 163.605457,32.4004192 163.691988,32.7324682 C163.75999,33.066158 163.655185,33.4102532 163.409326,33.6603405 C163.306062,33.7601913 163.187776,33.8454747 163.058278,33.9135093 C163.01146,33.9404831 162.961561,33.9624142 162.909522,33.9789026 C162.71613,34.0470573 162.530185,34.0400938 162.463254,33.8397918 C162.401757,33.5750971 162.556804,33.3082012 162.827697,33.2123925 C162.916968,33.1804162 163.230828,33.0816459 163.110317,33.0565932 C162.796457,32.9870378 162.296652,33.2346438 162.177639,33.6130364 C162.058625,33.991429 162.326395,34.2181844 162.719126,34.1694796 C162.916112,34.1438266 163.105695,34.081875 163.276961,33.9872669 C163.822086,33.7663944 164.394856,33.6107152 164.981706,33.5239911 C165.070977,33.510104 165.130462,33.3543047 165.024844,33.3681918 C164.607933,33.4299032 164.197014,33.5229505 163.796109,33.6464134 C163.775653,33.6522564 163.753785,33.6426114 163.745525,33.6241621 C163.741888,33.6137568 163.741888,33.6025511 163.745525,33.5921858 C163.795168,33.5300341 163.838048,33.4633602 163.873483,33.3932445 C164.047531,33.0635567 164.078771,32.6322972 163.811002,32.3387478 C163.50155,31.9979343 162.939264,32.00906 162.521241,32.1175552 C161.965546,32.2747952 161.46587,32.5699855 161.075321,32.97175 C160.257163,33.8119776 159.810895,35.3533222 160.678139,36.3187736 C161.046177,36.7064509 161.569905,36.9336866 162.124059,36.9461729 C162.855942,36.9962784 163.778263,36.5399662 164.041582,36.4203053 C164.205188,36.3438263 164.336098,36.2533803 164.1576,36.2937208" id="Fill-2" fill="#FFFFFF"></path>
            <text id="****" font-family="Circular-Book, Circular" font-size="8" font-weight="300" fill="#333333">
                <tspan x="18.9005236" y="17">****</tspan>
            </text>
            <path d="M118.090416,11.4949001 L119.327673,10.2568003 C119.386163,10.1983003 119.386462,10.1032003 119.328269,10.0444003 C119.270077,9.98530029 119.175478,9.98530029 119.117285,10.0438003 L117.87973,11.2822002 L116.652919,10.0444003 C116.595025,9.98560029 116.500425,9.98530029 116.441934,10.0441003 C116.383742,10.1026003 116.383444,10.1974003 116.441636,10.2565003 L117.668149,11.4940001 L116.43149,12.7318 C116.372999,12.7903 116.372701,12.8848 116.430893,12.9439 C116.460138,12.9733 116.498336,12.9883 116.536534,12.9883 C116.574732,12.9883 116.61293,12.9736 116.641877,12.9445 L117.878835,11.7067001 L119.116688,12.9559 C119.145934,12.9853 119.184132,13 119.22233,13 C119.260528,13 119.298726,12.9853 119.327673,12.9562 C119.386163,12.8974 119.386163,12.8029 119.327971,12.7441 L118.090416,11.4949001 Z" id="2" fill="#999999"></path>
            <path d="M174.791987,11.4949001 L176.029243,10.2568003 C176.087734,10.1983003 176.088032,10.1032003 176.02984,10.0444003 C175.971648,9.98530029 175.877048,9.98530029 175.818856,10.0438003 L174.581301,11.2822002 L173.354489,10.0444003 C173.296595,9.98560029 173.201996,9.98530029 173.143505,10.0441003 C173.085313,10.1026003 173.085014,10.1974003 173.143207,10.2565003 L174.36972,11.4940001 L173.13306,12.7318 C173.07457,12.7903 173.074271,12.8848 173.132464,12.9439 C173.161709,12.9733 173.199907,12.9883 173.238105,12.9883 C173.276303,12.9883 173.314501,12.9736 173.343448,12.9445 L174.580406,11.7067001 L175.818259,12.9559 C175.847504,12.9853 175.885702,13 175.9239,13 C175.962098,13 176.000296,12.9853 176.029243,12.9562 C176.087734,12.8974 176.087734,12.8029 176.029542,12.7441 L174.791987,11.4949001 Z" fill="#999999"></path>
            <path d="M179.180693,41.9520741 L175.618353,40.2519209 C174.589866,39.7611311 174.649882,39.1352467 175.799326,38.8761801 L188.335815,36.0517058 C189.471357,35.7957675 190.207066,36.5145729 189.948004,37.6639201 L187.123575,50.2006097 C186.86764,51.3361693 186.248602,51.43106 185.747856,50.3815855 L184.04773,46.8191886 L169.728275,57.2024743 C167.858415,58.5584028 167.439698,58.1444292 168.797574,56.271758 L179.180693,41.9520741 Z" id="Fill-1" fill="#EA5A4F" transform="translate(179.000000, 47.000000) scale(-1, 1) translate(-179.000000, -47.000000) "></path>
        </g>
    </g>
</svg>