<?xml version="1.0" encoding="UTF-8"?>
<svg width="14px" height="14px" viewBox="0 0 14 14" version="1.1" xmlns="http://www.w3.org/2000/svg" xmlns:xlink="http://www.w3.org/1999/xlink">
    <title>Fill 1</title>
    <g id="1" stroke="none" stroke-width="1" fill="none" fill-rule="evenodd">
        <path d="M7.941,4.544 C7.496,4.544 7.136,4.221 7.136,3.743 C7.136,3.266 7.497,2.942 7.941,2.942 C8.386,2.942 8.746,3.266 8.746,3.743 C8.746,4.221 8.386,4.544 7.941,4.544 M8.097,9.576 C7.569,10.369 7.031,10.981 6.127,10.981 C5.51,10.88 5.256,10.437 5.39,9.987 L6.553,6.135 C6.582,6.04 6.535,5.94 6.449,5.909 C6.363,5.878 6.195,5.99 6.049,6.149 L5.347,6.995 C5.327,6.854 5.344,6.619 5.344,6.524 C5.873,5.731 6.74,5.105 7.329,5.105 C7.889,5.163 8.153,5.61 8.056,6.101 L6.885,9.972 C6.87,10.06 6.916,10.148 6.995,10.176 C7.081,10.207 7.262,10.095 7.408,9.935 L8.11,9.09 C8.129,9.232 8.097,9.482 8.097,9.576 M7,0 C3.134,0 0,3.135 0,7.001 C0,10.867 3.135,14.001 7.001,14.001 C10.867,14.001 14.001,10.866 14.001,7 C14.001,3.134 10.866,0 7,0" id="Fill-1" fill="#FFFFFF"></path>
    </g>
</svg>