<?xml version="1.0" encoding="UTF-8"?>
<svg width="24px" height="24px" viewBox="0 0 24 24" version="1.1" xmlns="http://www.w3.org/2000/svg" xmlns:xlink="http://www.w3.org/1999/xlink">
    <title>2</title>
    <g id="1" stroke="none" stroke-width="1" fill="none" fill-rule="evenodd">
        <g id="2">
            <circle fill="#DB382C" cx="12" cy="12" r="12"></circle>
            <path d="M17.27766,18.2148549 C15.5885221,18.6126186 10.9740242,20.7731673 7.86346801,18.9382997 C3.91863975,16.6291754 3.90826876,9.86926014 8.83671133,5.71065875 C9.95440773,4.73044555 11.421162,4.16756721 12.9568093,4.12980309 C14.2179217,4.03511714 15.3661384,4.80680074 15.6657119,5.95033687 C15.9011334,7.09952384 15.5382969,8.28454537 14.6871349,9.14581538 C14.3296321,9.48968939 13.9201261,9.78339501 13.471803,10.0176979 C13.3097193,10.1105922 13.1369682,10.1861204 12.9568093,10.2429044 C12.2872878,10.4776208 11.6435457,10.4536392 11.4118281,9.76382382 C11.1989265,8.85224759 11.7356993,7.93309097 12.6735331,7.60313732 C12.9825886,7.49301494 14.0691721,7.15286221 13.651962,7.0665836 C12.5653785,6.82704331 10.8350529,7.67976816 10.4230283,8.98290593 C10.0110037,10.2860437 10.938022,11.0669616 12.2976588,10.8992283 C12.9796255,10.8108823 13.635961,10.5975288 14.2288853,10.2717099 C16.1161092,9.51105231 18.0990424,8.97491207 20.1307194,8.67624474 C20.4397749,8.62841938 20.6457131,8.09186567 20.2800616,8.13969103 C18.8367161,8.35221757 17.4141126,8.67266129 16.0261779,9.0978522 C15.9553588,9.11797468 15.8796506,9.0847588 15.8510563,9.02122135 C15.8384629,8.98538679 15.8384629,8.94679572 15.8510563,8.91109898 C16.0229184,8.69705636 16.1713717,8.46743948 16.2940457,8.22596964 C16.8966002,7.0905652 17.0047548,5.60536026 16.0777365,4.59441202 C15.0064132,3.42069216 13.0597784,3.45900758 11.6125809,3.83265184 C9.68876223,4.37416726 7.95888111,5.39076634 6.60680034,6.77439406 C3.77433483,9.66803527 2.22935365,14.9762371 5.23175523,18.3011335 C6.50590542,19.6362468 8.31905078,20.4188186 10.2375358,20.46182 C12.7713168,20.6343773 15.9643964,19.0628937 16.8760064,18.6507962 C17.4424106,18.3874121 17.8956229,18.0759271 17.27766,18.2148549" id="Fill-2" fill="#FFFFFF"></path>
        </g>
    </g>
</svg>