<?xml version="1.0" encoding="UTF-8"?>
<svg width="94px" height="94px" viewBox="0 0 94 94" version="1.1" xmlns="http://www.w3.org/2000/svg" xmlns:xlink="http://www.w3.org/1999/xlink">
    <title>check</title>
    <g stroke="none" stroke-width="1" fill="none" fill-rule="evenodd">
        <g id="check" transform="translate(0.000000, -0.000000)" fill="#60AB08" fill-rule="nonzero">
            <path d="M45.081164,76.0927778 C43.624164,74.5887778 42.214164,73.1317778 40.804164,71.6277778 C32.203164,62.6507778 23.602164,53.6737778 14.954164,44.6967778 C14.484164,44.2267778 14.578164,44.0387778 15.048164,43.6627778 C17.351164,41.8297778 19.607164,39.9497778 21.910164,38.0697778 C22.192164,37.8347778 22.380164,37.7877778 22.709164,38.0697778 C28.302164,42.5817778 33.895164,47.0467778 39.488164,51.5587778 C39.911164,51.8877778 40.099164,51.8877778 40.475164,51.4647778 C46.538164,44.1797778 53.165164,37.3647778 60.215164,31.0197778 C68.017164,23.9697778 76.336164,17.6247778 85.125164,11.9847778 C85.595164,11.7027778 85.689164,11.7967778 85.877164,12.2667778 C86.300164,13.3947778 86.770164,14.5227778 87.287164,15.6037778 C87.475164,16.0267778 87.381164,16.2617778 87.099164,16.5437778 C81.976164,21.3847778 77.229164,26.5547778 72.764164,32.0067778 C65.526164,40.7957778 59.040164,50.0547778 53.259164,59.8777778 C50.251164,64.9537778 47.525164,70.1707778 45.316164,75.6697778 C45.269164,75.7167778 45.175164,75.9047778 45.081164,76.0927778 Z"></path>
            <path d="M46.914164,93.7647778 C34.318164,93.5767778 23.367164,89.2527778 14.296164,80.5107778 C6.96416404,73.4607778 2.40516404,64.8597778 0.713164038,54.8017778 C-1.30783596,42.7227778 0.948164038,31.4427778 7.71616404,21.1967778 C14.719164,10.5747778 24.542164,3.85377778 36.950164,1.08077778 C42.026164,-0.0472222178 47.196164,-0.282222218 52.413164,0.328777782 C54.810164,0.610777782 57.160164,1.08077778 59.510164,1.73877778 C60.967164,2.16177778 61.766164,3.14877778 61.578164,4.41777778 C61.343164,5.87477778 60.027164,6.72077778 58.570164,6.34477778 C54.199164,5.12277778 49.781164,4.51177778 45.269164,4.74677778 C35.634164,5.16977778 27.033164,8.41277778 19.654164,14.6637778 C12.134164,21.0087778 7.29316404,29.0457778 5.50716404,38.7277778 C2.92216404,52.5927778 6.40016404,64.9537778 15.847164,75.4347778 C22.333164,82.6257778 30.464164,87.0437778 40.005164,88.5007778 C53.353164,90.5687778 65.197164,87.0907778 75.255164,78.0667778 C81.788164,72.2387778 85.971164,64.9067778 87.992164,56.3997778 C89.261164,50.9947778 89.402164,45.5427778 88.509164,40.0437778 C88.321164,38.7277778 89.120164,37.5527778 90.389164,37.3177778 C91.658164,37.0827778 92.880164,37.9287778 93.115164,39.2447778 C93.820164,43.3337778 93.914164,47.4227778 93.538164,51.5587778 C93.021164,57.1047778 91.517164,62.3687778 89.073164,67.3507778 C86.958164,71.7217778 84.232164,75.6697778 80.895164,79.1477778 C74.691164,85.6807778 67.218164,90.0517778 58.476164,92.3077778 C54.669164,93.2947778 50.815164,93.7647778 46.914164,93.7647778 Z"></path>
        </g>
    </g>
</svg>