<?xml version="1.0" encoding="utf-8"?>
<!-- Generator: Adobe Illustrator 24.1.0, SVG Export Plug-In . SVG Version: 6.00 Build 0)  -->
<svg version="1.1" id="_1" xmlns="http://www.w3.org/2000/svg" xmlns:xlink="http://www.w3.org/1999/xlink" x="0px" y="0px"
	 viewBox="0 0 26 26" style="enable-background:new 0 0 26 26;" xml:space="preserve">
<style type="text/css">
	.st0{fill-rule:evenodd;clip-rule:evenodd;fill:#EA5A4F;}
	.st1{fill-rule:evenodd;clip-rule:evenodd;fill:#FFFFFF;}
	.st2{fill:none;}
	.st3{fill:#FFFFFF;}
	.st4{font-family:'Circular-Black';}
	.st5{font-size:14px;}
</style>
<g>
	<path id="" class="st0" d="M23.3,26H2.7C1.2,26,0,24.9,0,23.6V4.7c0-1.4,1.2-2.4,2.7-2.4h20.6c1.5,0,2.7,1.1,2.7,2.4v18.9
		C26,24.9,24.8,26,23.3,26L23.3,26z"/>
	<path id="_1_" class="st1" d="M2.7,3.9C2.2,3.9,1.8,4,1.8,4.1v0v4.6c0,0.1,0.4,0.2,0.9,0.2h20.6c0.5,0,0.9-0.1,0.9-0.2V4.1
		c0-0.1-0.4-0.2-0.9-0.2H2.7z"/>
	<polygon id="Clip-4_1_" class="st2" points="0.4,0 25.7,0 25.7,21.6 0.4,21.6 	"/>
	<text transform="matrix(1 0 0 1 9.328 21.7975)" class="st3 st4 st5">$</text>
	<path id="_2_" class="st0" d="M17.8,6.9c-0.5,0-0.9-0.4-0.9-0.8v0V0.8c0-0.5,0.4-0.8,0.9-0.8c0.5,0,0.9,0.4,0.9,0.8v5.2
		C18.7,6.5,18.3,6.9,17.8,6.9C17.8,6.9,17.8,6.9,17.8,6.9"/>
	<path id="_3_" class="st0" d="M8.2,6.9c-0.5,0-0.9-0.4-0.9-0.8v0V0.8C7.3,0.4,7.7,0,8.2,0h0c0.5,0,0.9,0.4,0.9,0.8v5.2
		C9.1,6.5,8.7,6.9,8.2,6.9"/>
</g>
</svg>
