<svg xmlns="http://www.w3.org/2000/svg" viewBox="0 0 13.78 13.32">
    <defs>
        <style>.cls-1{fill:#F8E71E;}</style>
    </defs>
    <g fill="#F8E71E">
        <g>
            <path class="cls-1" d="M6.49,12.37l-2.66.88a1.28,1.28,0,0,1-1.62-.81A1.4,1.4,0,0,1,2.15,12V9.19a1.2,1.2,0,0,0-.24-.75L.24,6.13A1.29,1.29,0,0,1,.53,4.34a2.31,2.31,0,0,1,.35-.18l2.69-.87a1.25,1.25,0,0,0,.64-.47L5.85.53A1.29,1.29,0,0,1,7.64.24a1.33,1.33,0,0,1,.29.29L9.58,2.82a1.21,1.21,0,0,0,.64.47l2.68.87a1.28,1.28,0,0,1,.64,2L11.87,8.44a1.26,1.26,0,0,0-.24.75V12a1.28,1.28,0,0,1-1.28,1.28,1.13,1.13,0,0,1-.41-.06l-2.66-.88A1.36,1.36,0,0,0,6.49,12.37Z" />
        </g>
    </g>
</svg>