<svg xmlns="http://www.w3.org/2000/svg" xmlns:xlink="http://www.w3.org/1999/xlink" viewBox="0 0 17.98 17.99">
  <defs>
    <style>
      .cls-1 {
        fill: none;
      }

      .cls-2 {
        clip-path: url(#clip-path);
      }

      .cls-3 {
        fill: #ddd;
      }
    </style>
    <clipPath id="clip-path" transform="translate(-0.07 -0.04)">
      <rect class="cls-1" x="0.05" y="0.05" width="18" height="18" transform="translate(-0.05 0.05) rotate(-0.33)"/>
    </clipPath>
  </defs>
  <g>
    <g>
      <g>
        <g class="cls-2">
          <path class="cls-3" d="M.47,9.66a1.43,1.43,0,0,0,0,2l5.13,5.12h0a1.43,1.43,0,0,0,1,.41h0a1.43,1.43,0,0,0,1-.43l8.17-8.33a1.4,1.4,0,0,0,.4-1.11l-.39-4.78a1.46,1.46,0,0,0-1.3-1.29L9.74.91a1.37,1.37,0,0,0-1.09.41ZM12.37,8a2.35,2.35,0,1,1,2.32-2.36A2.35,2.35,0,0,1,12.37,8Z" transform="translate(-0.07 -0.04)"/>
          <path d="M7.63,18A2.29,2.29,0,0,1,6,17.38L.91,12.27a2.28,2.28,0,0,1,0-3.22L9.06.72A2.21,2.21,0,0,1,10.82.05l4.74.34a2.31,2.31,0,0,1,2.09,2.08L18,7.24A2.27,2.27,0,0,1,17.39,9L9.22,17.36A2.27,2.27,0,0,1,7.63,18ZM10.65.9a1.39,1.39,0,0,0-1,.42L1.49,9.65a1.44,1.44,0,0,0,0,2l5.13,5.11h0a1.38,1.38,0,0,0,1,.4h0a1.38,1.38,0,0,0,1-.42l8.17-8.34a1.42,1.42,0,0,0,.4-1.11L16.8,2.54a1.47,1.47,0,0,0-1.3-1.3L10.76.9Z" transform="translate(-0.07 -0.04)"/>
        </g>
        <path d="M12.37,8a2.35,2.35,0,1,1,2.32-2.36A2.35,2.35,0,0,1,12.37,8Zm0-3.85a1.5,1.5,0,1,0,1.5,1.49,1.49,1.49,0,0,0-1.5-1.49Z" transform="translate(-0.07 -0.04)"/>
      </g>
    </g>
  </g>
</svg>
