<?xml version="1.0" encoding="UTF-8"?>
<svg width="424px" height="222px" viewBox="0 0 424 222" version="1.1" xmlns="http://www.w3.org/2000/svg" xmlns:xlink="http://www.w3.org/1999/xlink">
    <title>1</title>
    <g id="1" stroke="none" stroke-width="1" fill="none" fill-rule="evenodd">
        <g transform="translate(-0.000000, -0.000383)" fill="#EA5A4F">
            <path d="M161.646032,184.060216 C141.683374,189.069671 87.1480755,216.27973 50.3867389,193.171315 C3.76576485,164.090088 3.64319788,78.9553766 61.8887737,26.5817422 C75.0979913,14.2368879 92.432463,7.14796988 110.58113,6.67236666 C125.485273,5.47988707 139.055188,15.198509 142.595622,29.6002604 C145.377893,44.0731787 141.0898,58.9973993 131.030553,69.844277 C126.805495,74.1750435 121.96585,77.8739868 116.667455,80.8248097 C114.751908,81.9947241 112.710293,82.9459306 110.58113,83.6610712 C102.668556,86.6171014 95.060649,86.315076 92.3221527,77.6275063 C89.8060279,66.1470695 96.1497441,54.571165 107.2333,50.4157121 C110.885796,49.0288253 123.727313,44.7449248 118.796619,43.6583277 C105.955102,40.6415453 85.5056781,51.3808047 80.6362674,67.7925872 C75.7668568,84.2043697 86.7225931,94.0392888 102.791123,91.9268468 C110.850777,90.814213 118.607515,88.1272284 125.614844,84.0238488 C147.918531,74.4440891 171.353336,67.6919121 195.364206,63.9304808 C199.016701,63.3281658 201.450531,56.5707814 197.12917,57.1730964 C180.071349,59.8496664 163.258663,63.8853506 146.8557,69.2402262 C146.018743,69.4936498 145.124004,69.0753273 144.786069,68.2751336 C144.637238,67.8238312 144.637238,67.3378133 144.786069,66.8882468 C146.817179,64.1925833 148.571638,61.3007769 150.02143,58.2596936 C157.142571,43.9603531 158.420769,25.2556076 147.465033,12.5236748 C134.803865,-2.25821197 111.798044,-1.77566564 94.6946991,2.93002895 C71.9585259,9.74990134 51.514355,22.553001 35.5351239,39.978478 C2.06033299,76.4211405 -16.1986438,143.272901 19.2844944,185.146813 C34.3427223,201.961296 55.7709308,211.817044 78.4440696,212.358607 C108.388932,214.531801 146.125551,194.740459 156.899188,189.550482 C163.593096,186.23341 168.949272,182.310551 161.646032,184.060216" id="Fill-2"></path>
            <path d="M281.670264,84.9283628 C283.802929,81.7761897 286.772552,79.269726 290.249952,77.6884321 C295.912546,76.2390573 295.121114,82.3941267 294.025015,86.3152495 C290.101121,96.6847883 283.018501,105.584123 273.755939,111.777379 C273.088825,112.334564 272.089029,112.249511 271.526972,111.584708 C271.203045,111.204573 271.082228,110.692518 271.201294,110.208236 C271.201294,109.123375 271.201294,107.976025 271.68806,107.193189 C273.28143,99.120085 276.692294,91.5104336 281.670264,84.9283628 L281.670264,84.9283628 Z M210.945619,144.599209 C210.639202,144.890819 210.155938,144.890819 209.849521,144.599209 C209.779482,144.383972 209.779482,144.153114 209.849521,143.937877 C211.068186,136.574706 212.344634,129.154255 213.622832,121.97334 C214.901031,114.795898 215.99713,107.191453 217.457428,99.9515228 C217.853144,97.3096684 218.763641,94.7684892 220.13464,92.4703189 C224.457753,85.8327032 231.395043,76.421314 238.395368,78.471268 C242.350779,79.7383861 243.446878,84.9283628 243.933644,88.3669393 C244.744337,102.180262 241.667906,115.946719 235.047539,128.12841 C234.560773,129.215007 233.95144,130.180099 233.466425,131.266697 C232.822073,132.296013 231.948345,133.163902 230.910028,133.800933 C227.257532,135.670366 223.66632,137.541535 220.13464,139.832762 C217.009183,141.198819 214.032556,142.877317 211.250286,144.842218 L210.945619,144.599209 Z M187.207899,188.948341 C186.903232,190.517484 180.696091,212.65907 178.139694,213.0826 C175.583297,213.50613 176.556829,196.73157 182.461055,189.67216 C183.646453,188.201956 184.905391,186.790768 186.234367,185.449012 C186.673857,185.145251 187.256926,185.145251 187.696416,185.449012 L187.696416,186.353352 C187.44778,187.198676 187.28319,188.068301 187.207899,188.948341 L187.207899,188.948341 Z M119.832835,123.54422 C123.819763,122.653765 127.743657,121.50468 131.578253,120.103907 C132.332915,119.664755 133.302945,119.916443 133.744186,120.662828 C133.752941,120.676714 133.761696,120.692336 133.77045,120.707958 C133.924535,121.115866 133.924535,121.565432 133.77045,121.97334 C125.796593,145.385516 121.597799,174.466743 150.872045,166.803283 C156.6467,165.206367 161.93634,162.222564 166.271709,158.117449 C166.854778,157.51687 167.817804,157.497776 168.423635,158.07579 C168.435892,158.089676 168.449899,158.103563 168.462156,158.117449 C170.5563,161.17589 174.308601,162.677338 177.957595,161.917067 C184.774069,160.951975 191.713111,151.056303 195.850621,142.610007 C196.083499,142.245493 196.540498,142.094481 196.94672,142.247229 C197.263643,142.358319 197.429984,142.703739 197.317923,143.017915 C197.316172,143.021386 197.314421,143.026594 197.31267,143.031801 C195.363855,152.503942 192.686643,165.055354 190.799111,173.199625 C190.352617,175.029136 189.069166,176.547941 187.330466,177.303005 C173.513666,183.33657 159.698618,196.490297 164.322894,212.65907 C165.54156,218.909607 171.638392,222.995629 177.941836,221.789263 C178.069656,221.764962 178.195725,221.738926 178.323544,221.709418 C186.539033,219.839984 190.494445,212.298028 193.721458,205.058098 C196.94672,197.818167 199.259734,189.491639 201.451932,181.647658 C201.891422,180.029912 203.166119,178.76453 204.79801,178.32885 C210.336286,176.940227 215.753747,175.794614 220.50059,174.708017 C250.083004,167.801355 280.442843,164.718613 310.821943,165.537901 C337.054776,165.331343 362.909404,171.703385 385.990515,184.060389 C397.067068,190.093954 404.979641,184.542936 398.651683,178.026824 C384.468934,163.30569 329.692003,154.19459 268.34023,160.167403 C247.374274,162.083702 226.632441,165.921508 206.380875,171.632218 C205.559677,171.824889 204.731474,171.349286 204.493344,170.545621 L204.493344,169.761049 C205.71201,164.571072 206.867641,159.20231 207.77989,154.073086 C207.991755,153.208668 208.844471,152.654955 209.728704,152.805968 C214.363487,153.677328 219.150603,153.238176 223.545504,151.53885 C228.737091,149.367391 233.342107,146.019075 236.994603,141.766419 C238.475912,140.011547 239.857417,138.178565 241.135615,136.274417 C241.667906,135.500259 242.377044,134.859757 243.203495,134.403248 L249.83787,131.205944 L255.924196,128.067657 C256.684111,127.644128 257.650639,127.909702 258.079624,128.666501 C258.09188,128.68733 258.104137,128.709895 258.114643,128.73246 L258.114643,129.334775 L258.114643,130.421373 C262.863238,152.262669 288.548022,147.859 299.806674,132.473062 C309.014955,118.118177 315.414702,102.173319 318.674984,85.4699256 C319.138987,83.800107 320.88294,82.8193923 322.56736,83.2811093 C322.588372,83.2863167 322.609383,83.2932598 322.632146,83.2984671 L323.118912,83.2984671 C326.053515,84.511776 329.147456,85.3050267 332.307933,85.6521823 C334.016866,85.7736868 335.305571,87.2456266 335.183004,88.9414819 C335.181253,88.9900837 335.176,89.0404213 335.168996,89.0907588 C335.214521,89.4118778 335.214521,89.7364683 335.168996,90.0575873 C329.746283,101.321052 326.307404,113.422897 325.004692,125.835447 C323.787777,130.685211 324.647497,135.816171 327.377238,140.015018 C331.518251,143.937877 338.942308,141.584162 343.263669,139.532472 C349.349995,136.51569 354.646639,127.465342 358.904965,118.475747 C359.281421,117.784908 360.130635,117.496768 360.85378,117.810944 C361.344048,118.132063 361.641711,118.677098 361.645213,119.260319 L361.645213,122.39687 C361.279263,130.723398 360.792497,144.238167 370.835985,147.376454 C386.964047,152.384174 397.128351,133.257634 400.111981,126.50025 C403.093861,119.74113 400.111981,123.783757 394.023905,131.205944 C391.162841,134.826778 383.252019,142.064972 378.809842,141.101616 C376.253445,140.617333 375.157346,136.093896 374.668829,134.16371 C372.872347,122.985299 373.306585,111.56735 375.948778,100.555574 C378.083195,87.3410944 380.928499,74.2498556 384.468934,61.3374018 C385.115037,58.8864831 387.643418,57.4197505 390.115769,58.0602527 C390.264601,58.1001756 390.411681,58.1453058 390.555259,58.1991149 C397.142359,60.3740449 403.42129,63.3752054 409.239719,67.1296935 C423.177334,76.1192886 428.899461,65.2585247 419.099356,60.0702838 C410.833089,55.7863833 402.116827,52.408559 393.111656,49.9940916 C390.569267,49.357061 389.028425,46.798524 389.671026,44.2781741 C389.697291,44.1705558 389.728808,44.0646734 389.763827,43.9587909 C391.651358,38.4685246 393.53889,32.9782583 395.850153,27.4879919 C397.067068,24.1691841 398.527365,20.8503763 399.928131,17.5923206 C402.484528,11.5587558 390.737359,11.5587558 387.75548,19.1614641 C384.7736,26.7641724 381.669154,35.1497167 378.382608,43.2957236 C377.620942,45.4480886 375.425242,46.7638084 373.147248,46.4340105 C363.058235,45.0158798 352.900935,44.1288972 342.715619,43.77827 C307.617692,43.2714227 272.544277,45.8559964 237.908602,51.5024828 C234.622056,51.9242769 233.466425,58.5618926 237.908602,57.8970895 C270.105195,52.7643935 302.683496,50.3603407 335.289812,50.717911 C346.607996,50.8845457 357.898165,51.8739393 369.07102,53.6739413 C371.602904,54.1616949 373.329347,56.5032597 373.026432,59.0427031 L373.026432,59.8290106 L368.888921,70.8685597 C362.375362,89.5733052 348.558562,136.395921 337.48201,135.913375 C332.553067,135.913375 338.758457,103.99415 352.028958,80.4639414 C354.585355,75.8780155 345.942633,76.9646126 343.995569,77.7474486 C336.811393,81.2467773 325.734841,78.8947979 330.663784,68.9383744 C333.220181,63.8091499 320.501231,65.0172515 319.221282,68.9383744 C311.615126,89.996835 310.214361,110.571014 296.884327,128.067657 C292.321334,134.102958 284.711676,141.584162 276.921669,136.817715 C274.10438,135.113181 272.104787,132.348086 271.383393,129.154255 C270.753049,126.993211 270.385348,124.766207 270.287294,122.518375 C269.889827,121.157525 270.565696,119.716829 271.870159,119.137079 C278.13158,115.568319 284.114599,111.53437 289.764937,107.071685 C297.068177,101.03812 315.934736,80.6444623 304.007219,71.8353881 C298.346376,67.6105041 288.789654,70.748791 283.251378,73.4027958 C276.870891,76.7302825 271.540979,81.7414741 267.853464,87.884393 C262.033284,97.5058113 258.513861,108.321445 257.566593,119.499856 C257.456283,120.602076 256.824188,121.587998 255.862913,122.155597 L250.750119,124.507576 C249.886897,124.785301 248.960641,124.316641 248.680488,123.460902 C248.575431,123.134576 248.575431,122.782213 248.680488,122.457622 C251.068793,116.811136 252.982589,110.978921 254.402615,105.019995 C256.290146,95.9088954 259.331558,78.471268 249.046438,72.9810017 C242.377044,70.4953674 234.959991,70.889389 228.595263,74.0675989 C227.52718,74.4807141 226.508123,75.0066548 225.552101,75.6350065 C224.757166,76.124496 223.715347,75.912731 223.179554,75.154196 C222.978194,74.7115725 222.978194,74.2064611 223.179554,73.7655735 C224.946269,67.9281515 226.329525,61.9813755 227.318816,55.9669042 C227.987681,52.0440456 228.292348,46.0712329 224.457753,43.8997744 C220.309736,42.0615854 215.475344,42.6673719 211.919151,45.4689179 C208.632606,48.3034436 209.728704,53.1913949 209.424038,57.1125178 C208.450506,68.0947862 206.562975,78.9555502 204.677194,89.6340574 C202.870207,103.511604 199.897082,117.215572 195.791089,130.601894 C193.721458,136.152912 185.929701,154.736153 180.879941,154.736153 C178.99241,154.736153 178.687743,147.315701 178.505644,143.214058 C178.46187,141.861886 178.731517,140.521866 179.297076,139.291199 C184.366096,124.85126 186.778915,109.62675 186.418217,94.339752 C186.418217,87.4625989 175.949247,89.5142887 174.243815,95.4871013 C169.223822,110.35057 166.234939,125.812882 165.35771,141.464393 C165.368216,142.977992 165.056545,144.47944 164.445461,145.868062 C161.976612,151.610017 157.70778,156.411179 152.27281,159.565088 C139.613393,165.596917 140.100159,146.53113 141.012407,139.291199 C143.454992,124.958879 148.443468,111.169857 155.741455,98.5629002 C158.602519,93.3746593 146.429868,95.2458282 144.360237,98.2626106 C139.916308,104.830795 134.131147,110.400907 127.379458,114.613641 C124.703996,116.137654 121.741378,117.104483 118.675452,117.449902 C117.103093,117.904676 115.429179,117.165235 114.720041,115.700238 C113.926858,113.712772 112.676675,111.933599 111.067545,110.510261 C107.134896,108.328388 102.340777,108.328388 98.4081281,110.510261 C96.4505585,111.478826 95.1215823,113.363881 94.8781993,115.519717 C94.9114675,119.505064 97.7532703,122.926282 101.694674,123.72474 C103.295048,124.22638 104.501458,125.538629 104.860404,127.165053 C105.34717,129.397263 105.833936,131.749243 106.138602,133.920701 C108.106677,144.076739 106.961552,154.583405 102.852056,164.090262 C101.074835,168.40367 97.5694198,171.791909 93.1745184,173.442634 C85.8695269,175.492588 80.5133503,168.252658 78.2616199,162.279845 C72.7233438,147.859 76.678755,125.354636 89.5220227,115.457229 C92.260519,113.407275 94.9394828,111.416338 97.7987952,109.423664 C100.659858,107.432727 94.4527169,105.985088 90.1908882,107.674 C67.0625006,116.304289 55.8020979,149.306639 68.6453655,170.243595 C78.1408039,185.931558 101.146624,181.526153 111.249645,168.676187 C120.137501,157.513398 120.440417,140.860342 117.763204,127.165053 C117.232664,125.759072 117.954058,124.195136 119.370582,123.670931 C119.521164,123.615386 119.675249,123.571992 119.832835,123.54422 L119.832835,123.54422 Z" id="Fill-4"></path>
        </g>
    </g>
</svg>