<?xml version="1.0" encoding="UTF-8"?>
<svg width="22px" height="22px" viewBox="0 0 22 22" version="1.1" xmlns="http://www.w3.org/2000/svg" xmlns:xlink="http://www.w3.org/1999/xlink">
    <title>1</title>
    <g id="1" stroke="none" stroke-width="1" fill="none" fill-rule="evenodd">
        <g>
            <circle fill="#FFE3D1" cx="11" cy="11" r="11"></circle>
            <g transform="translate(4.000000, 4.000000)" fill="#E66806">
                <path d="M3.44315867,12.7251079 C0.257332112,10.8093899 0.248956544,5.20116397 4.22914586,1.75106504 C5.13179273,0.93785112 6.31633727,0.470870573 7.55651951,0.43954034 C8.57498851,0.360986071 9.50228348,1.00119765 9.74421773,1.94990911 C9.93434311,2.90330867 9.6413179,3.88643764 8.95392312,4.60097276 C8.66520534,4.88626083 8.33449008,5.12992771 7.97242626,5.32431237 C7.84152811,5.40138016 7.70201508,5.46404063 7.55651951,5.51115032 C7.0158168,5.70587801 6.49593337,5.68598217 6.30879926,5.11369088 C6.13686082,4.35742023 6.57035627,3.59486066 7.32774687,3.32112133 C7.57733878,3.22976054 8.45485895,2.94755976 8.11792183,2.87598047 C7.24040166,2.67725075 5.84299806,3.38469655 5.51024873,4.46581826 C5.1774994,5.54693997 5.92615548,6.19481259 7.02419237,6.05565604 C7.57494576,5.98236159 8.10499953,5.80535721 8.58384269,5.5350482 C10.1079567,4.90398414 11.1562188,4.20843011 10.0353285,4.56118108 C9.97813537,4.57787529 9.91699372,4.55031841 9.89390109,4.49760586 C9.88373076,4.46787645 9.88373076,4.43586015 9.89390109,4.40624508 C10.0326962,4.22866898 10.1525865,4.03817202 10.2516575,3.83784148 C10.7382779,2.89587631 10.8256231,1.66370629 10.0769671,0.824993676 C9.21177094,-0.1487591 7.63967693,-0.116971491 6.47092631,0.193014861 C4.91725855,0.642272101 3.5202139,1.48567281 2.4282792,2.63357137 C0.140792073,5.03422186 -1.10692818,9.43806338 1.3177986,12.196496 C2.34679689,13.3041455 3.81108539,13.9533902 5.36044572,13.9890655 C7.4067165,14.1322241 9.98543408,12.8284748 10.7216465,12.4865865 C11.1790721,12.2680753 11.5450844,12.009658 11.0460202,12.1249167 C9.68187958,12.4549132 5.95523066,14.2473684 3.44315867,12.7251079 Z" stroke="#E66806" stroke-width="0.514285714"></path>
                <path d="M9.92669883,12.169354 C10.9419973,11.8001405 10.3628305,12.0870675 12.4141278,11.1939964 C14.4654251,10.3009253 11.632612,12.7077346 10.4323765,12.8119456 C9.23214096,12.9161567 9.47992413,12.3318237 9.92669883,12.169354 Z"></path>
                <path d="M10.1677299,4.23517581 C11.5868361,3.81520734 12.7664098,3.64792652 13.7064511,3.73333333 C14.4083802,3.79710662 13.8303812,4.09141551 12.1985106,4.59559792 C11.6391842,4.76840729 10.1693894,5.14780523 9.02700547,5.67606855 C8.6970349,5.60415827 9.07727637,5.12386069 10.1677299,4.23517581 Z"></path>
            </g>
        </g>
    </g>
</svg>