<?xml version="1.0" encoding="UTF-8"?>
<svg width="12px" height="25px" viewBox="0 0 12 25" version="1.1" xmlns="http://www.w3.org/2000/svg" xmlns:xlink="http://www.w3.org/1999/xlink">
    <title>Fill 1</title>
    <g stroke="none" stroke-width="1" fill="none" fill-rule="evenodd">
        <g transform="translate(-2188.000000, -516.000000)" fill="#385287">
            <path d="M2195.53721,516 C2194.75307,516 2194.01245,516.088453 2193.14106,516.441603 C2191.35456,517.192682 2190.48318,518.871084 2190.48318,521.565482 L2190.48318,524.171427 L2188,524.171427 L2188,528.50011 L2190.48318,528.50011 L2190.48318,541 L2195.53721,541 L2195.53721,528.50011 L2198.97902,528.50011 L2199.45833,524.171427 L2195.53699,524.171427 L2195.53699,522.228107 C2195.53699,521.609598 2195.58072,521.167995 2195.75478,520.946972 C2195.97279,520.549485 2196.40838,520.3728 2197.10548,520.3728 L2199.4146,520.3728 L2199.4146,516.044116 L2195.53699,516.044116 L2195.53721,516 Z" id="Fill-1"></path>
        </g>
    </g>
</svg>