<svg xmlns="http://www.w3.org/2000/svg" xmlns:xlink="http://www.w3.org/1999/xlink" viewBox="0 0 737.38 737.07">
    <defs>
        <style>.cls-1{fill:rgb(204, 204, 204);}.cls-2{clip-path:url(#clip-path);}</style>
        <clipPath id="clip-path" transform="translate(-590.88 -171.92)">
            <rect class="cls-1" x="591" y="171" width="737.88" height="738.96" />
        </clipPath>
    </defs>
    <title>guanbi</title>
    <g class="cls-2" fill="rgb(204, 204, 204)">
        <path d="M1016.66,540.46,1316.9,240.23a39.32,39.32,0,0,0,0-55.3l-1.64-1.64a39.32,39.32,0,0,0-55.3,0L959.72,483.94,659.49,183.29a39.32,39.32,0,0,0-55.3,0l-1.64,1.64a38.59,38.59,0,0,0,0,55.3L902.79,540.46,602.55,840.7a39.31,39.31,0,0,0,0,55.29l1.64,1.64a39.31,39.31,0,0,0,55.3,0L959.72,597.4,1260,897.63a39.31,39.31,0,0,0,55.3,0l1.64-1.64a39.31,39.31,0,0,0,0-55.29Zm0,0" transform="translate(-590.88 -171.92)" />
    </g>
</svg>