<svg xmlns="http://www.w3.org/2000/svg" xmlns:xlink="http://www.w3.org/1999/xlink" viewBox="0 0 27.98 28"><defs><style>.cls-1{fill:none;}.cls-2{clip-path:url(#clip-path);}.cls-3{fill:#fbbc05;}.cls-4{fill:#ea4335;}.cls-5{fill:#34a853;}.cls-6{fill:#4285f4;}</style><clipPath id="clip-path" transform="translate(0 0)"><rect class="cls-1" width="28" height="28.03"/></clipPath></defs><g><g id="_1" data-name=" 1"><g class="cls-2"><path class="cls-3" d="M5.86,14a8,8,0,0,1,.43-2.6L1.47,7.8a13.81,13.81,0,0,0,0,12.4l4.81-3.61A8.17,8.17,0,0,1,5.86,14" transform="translate(0 0)"/><path class="cls-4" d="M14.32,5.73a8.43,8.43,0,0,1,5.27,1.84L23.75,3.5A14.47,14.47,0,0,0,1.47,7.8l4.82,3.6a8.41,8.41,0,0,1,8-5.67" transform="translate(0 0)"/></g><path class="cls-5" d="M14.32,22.27a8.41,8.41,0,0,1-8-5.67L1.47,20.2A14.31,14.31,0,0,0,14.32,28a13.81,13.81,0,0,0,9.33-3.49l-4.58-3.46a9,9,0,0,1-4.75,1.22" transform="translate(0 0)"/><path class="cls-6" d="M28,14a11.55,11.55,0,0,0-.32-2.54H14.32v5.4H22a6.31,6.31,0,0,1-2.93,4.19l4.58,3.46A13.81,13.81,0,0,0,28,14" transform="translate(0 0)"/></g></g></svg>