<?xml version="1.0" encoding="UTF-8"?>
<svg width="16px" height="16px" viewBox="0 0 16 16" version="1.1" xmlns="http://www.w3.org/2000/svg" xmlns:xlink="http://www.w3.org/1999/xlink">
    <title>Fill 1</title>
    <g id="1" stroke="none" stroke-width="1" fill="none" fill-rule="evenodd">
        <g transform="translate(-11.000000, -6.000000)" fill="#666666" id="Fill-1">
            <path d="M20.0753475,11.1930965 C19.5667807,11.1930965 19.1553558,10.8239569 19.1553558,10.2776761 C19.1553558,9.7325381 19.5679235,9.3622557 20.0753475,9.3622557 C20.5839144,9.3622557 20.9953393,9.7325381 20.9953393,10.2776761 C20.9953393,10.8239569 20.5839144,11.1930965 20.0753475,11.1930965 M20.2536317,16.9439023 C19.6502085,17.8501799 19.0353568,18.5496022 18.0022232,18.5496022 C17.2970866,18.4341747 17.0068035,17.9278935 17.159945,17.4136124 L18.489076,13.011366 C18.5222186,12.9027955 18.4685047,12.7885108 18.3702199,12.7530826 C18.2719351,12.7176543 18.0799368,12.8456532 17.9130811,13.0273658 L17.1108026,13.9942143 C17.0879456,13.8330729 17.107374,13.5645039 17.107374,13.4559334 C17.7119401,12.5496558 18.7027884,11.8342336 19.3759252,11.8342336 C20.0159195,11.9005187 20.3176311,12.4113713 20.2067749,12.9725092 L18.8685012,17.3964697 C18.8513585,17.4970402 18.9039294,17.5976107 18.9942143,17.6296105 C19.0924992,17.6650387 19.2993545,17.5370399 19.4662101,17.3541843 L20.2684887,16.3884787 C20.2902028,16.5507629 20.2536317,16.8364747 20.2536317,16.9439023 M18.9999286,6 C14.5816823,6 11,9.58282516 11,14.0010714 C11,18.4193177 14.5828252,22.001 19.0010714,22.001 C23.4193177,22.001 27.001,18.4181748 27.001,13.9999286 C27.001,9.58168231 23.4181748,6 18.9999286,6"></path>
        </g>
    </g>
</svg>