<?xml version="1.0" encoding="UTF-8"?>
<svg width="14px" height="14px" viewBox="0 0 14 14" version="1.1" xmlns="http://www.w3.org/2000/svg" xmlns:xlink="http://www.w3.org/1999/xlink">
    <g stroke="none" stroke-width="1" fill="none" fill-rule="evenodd">
        <g transform="translate(-766.000000, -487.000000)" fill-rule="nonzero">
            <g transform="translate(766.000000, 487.000000)">
                <path d="M12.3949864,4.10797207 L8.25699094,4.10797207 C8.45349072,3.41647283 8.55299061,2.8019735 8.55299061,2.2609741 C8.55299061,1.03347545 7.43099184,-0.142023264 6.35699302,0.0139765647 C5.40999406,0.151476414 4.95799456,0.949975537 4.95799456,1.97547441 L4.95799456,2.90197339 C4.95799456,4.09047209 4.04849556,5.10397098 2.89199683,5.21547086 L1.05249884,5.21247086 C0.471219784,5.21247086 0,5.68369064 0,6.2649697 L0,12.342463 C0,12.9239624 0.470999483,13.3949619 1.05249884,13.3949619 L11.2429877,13.3949619 C12.0141403,13.3949619 12.6763257,12.8466164 12.8199859,12.0889633 L13.9719847,6.01146998 C14.0608737,5.54186231 13.9358478,5.05707083 13.6309309,4.68902426 C13.3260139,4.32097769 12.8729327,4.10797148 12.3949864,4.10797207 Z" fill="#00B968"></path>
                <path d="M0.999998902,12.342463 L0.999998902,6.2649697 C0.999998902,6.23596973 1.02349888,6.21246976 1.05249884,6.21246976 L2.24999753,6.21246976 L2.24999753,12.394963 L1.05249884,12.394963 C1.02350393,12.394963 0.999998902,12.3714579 0.999998902,12.342463 L0.999998902,12.342463 Z" fill="#FFFFFF"></path>
                <path d="M12.9894857,5.82547019 L11.837487,11.9029635 C11.7832072,12.1884623 11.5336006,12.394963 11.2429877,12.394963 L3.24999643,12.394963 L3.24999643,6.16846981 C4.81883961,5.86897299 5.95469783,4.49864477 5.95799346,2.9014734 L5.95799346,1.97547441 C5.95799346,1.38847506 6.14649325,1.05497542 6.50049286,1.00397548 C6.9229924,0.942475546 7.55299171,1.60297482 7.55299171,2.2614741 C7.55299171,2.84447346 7.40449187,3.57397266 7.1019922,4.4444717 C7.04890641,4.59736486 7.07311009,4.76649665 7.16694671,4.89836441 C7.26078333,5.03023217 7.4126448,5.10852314 7.57449169,5.10847097 L12.3949864,5.10847097 C12.5750469,5.10848368 12.7457447,5.1886993 12.860674,5.32731039 C12.9756033,5.46592147 13.0228193,5.64852203 12.9894857,5.82547019 Z" fill="#00B968"></path>
            </g>
        </g>
    </g>
</svg>