<?xml version="1.0" encoding="UTF-8"?>
<svg width="14px" height="14px" viewBox="0 0 14 14" version="1.1" xmlns="http://www.w3.org/2000/svg" xmlns:xlink="http://www.w3.org/1999/xlink">
    <title>1</title>
    <g id="1" stroke="none" stroke-width="1" fill="none" fill-rule="evenodd">
        <g>
            <path d="M5.99178375,14 C5.76120647,14 5.55533391,13.925 5.39990012,13.784 L0.26440901,9.116 C0.0564777205,8.928 -0.0351355706,8.64 0.0122151192,8.326 C0.053389632,8.049 0.199559153,7.771 0.420872159,7.54 L6.55072776,1.176 C6.91100474,0.803 7.37318865,0.555 7.81993212,0.497 L11.4731408,0.023 C11.5884294,0.008 11.703718,0 11.8179773,0 C12.446918,0 13.0151263,0.231 13.4196659,0.651 C13.8344991,1.082 14.0383129,1.673 13.9940503,2.314 L13.7500913,5.887 C13.7202398,6.324 13.4968681,6.789 13.1376204,7.163 L7.00879421,13.528 C6.72263135,13.823 6.34382583,14 5.99178375,14" fill="#EA5A4F"></path>
            <path d="M10.3543263,5.2438 C9.93434629,5.2438 9.53392415,5.0898 9.22614467,4.8118 C8.90498347,4.5198 8.71969816,4.1228 8.70425771,3.6948 C8.68984664,3.2668 8.84630978,2.8588 9.14894245,2.5448 C9.45981003,2.2218 9.89934795,2.0368 10.3543263,2.0368 C10.7743063,2.0368 11.1747285,2.1908 11.482508,2.4698 C12.1474764,3.0748 12.1824747,4.0898 11.5597102,4.7368 C11.2478132,5.0598 10.8093047,5.2438 10.3543263,5.2438" fill="#FFFFFF"></path>
        </g>
    </g>
</svg>