<?xml version="1.0" encoding="UTF-8"?>
<svg width="10px" height="10px" viewBox="0 0 10 10" version="1.1" xmlns="http://www.w3.org/2000/svg" xmlns:xlink="http://www.w3.org/1999/xlink">
    <title>1</title>
    <g id="1" stroke="none" stroke-width="1" fill="none" fill-rule="evenodd">
        <path d="M5.67230491,3.24580701 C5.35443868,3.24580701 5.09728848,3.01508614 5.09728848,2.67364781 C5.09728848,2.33292379 5.35515299,2.10148861 5.67230491,2.10148861 C5.99017113,2.10148861 6.24732133,2.33292379 6.24732133,2.67364781 C6.24732133,3.01508614 5.99017113,3.24580701 5.67230491,3.24580701 M5.78373666,6.84019541 C5.40658303,7.40664017 5.02228634,7.84379551 4.3765536,7.84379551 C3.93582673,7.7716506 3.75439297,7.45521298 3.85010999,7.13377523 L4.68084801,4.38226805 C4.70156289,4.31440897 4.6679905,4.24297836 4.60656017,4.22083487 C4.54512985,4.19869138 4.42512642,4.27869366 4.32083773,4.39226834 L3.81939483,4.99657132 C3.80510871,4.89585415 3.81725191,4.72799221 3.81725191,4.66013313 C4.19511985,4.09368838 4.81442326,3.64653275 5.23514956,3.64653275 C5.63516099,3.6879625 5.8237378,4.00725734 5.75445011,4.35798164 L4.91799764,7.12306064 C4.90728305,7.18591958 4.94014113,7.24877852 4.99657132,7.26877909 C5.05800164,7.29092258 5.18729105,7.21092029 5.29157974,7.09663131 L5.79302264,6.49304264 C5.80659446,6.59447411 5.78373666,6.77305064 5.78373666,6.84019541 M5.00014285,0 C2.23863538,0 0,2.23934969 0,5.00085715 C0,7.76236462 2.23934969,10.001 5.00085715,10.001 C7.76236462,10.001 10.001,7.76165031 10.001,5.00014285 C10.001,2.23863538 7.76165031,0 5.00014285,0" fill="#275AC8"></path>
    </g>
</svg>