<?xml version="1.0" encoding="UTF-8"?>
<svg width="24px" height="24px" viewBox="0 0 24 24" version="1.1" xmlns="http://www.w3.org/2000/svg" xmlns:xlink="http://www.w3.org/1999/xlink">
    <title>icon_close</title>
    <defs>
        <rect id="path-1" x="0" y="0" width="24" height="24"></rect>
    </defs>
    <g id="-" stroke="none" stroke-width="1" fill="none" fill-rule="evenodd">
        <g transform="translate(-128.000000, -206.000000)">
            <g id="icon_close" transform="translate(128.000000, 206.000000)">
                <mask id="mask-2" fill="white">
                    <use xlink:href="#path-1"></use>
                </mask>
                <use fill="#D8D8D8" opacity="0" xlink:href="#path-1"></use>
                <path d="M12,4 C12.5522847,4 13,4.44771525 13,5 L13,10.999 L19,11 C19.5522847,11 20,11.4477153 20,12 C20,12.5522847 19.5522847,13 19,13 L13,12.999 L13,19 C13,19.5522847 12.5522847,20 12,20 C11.4477153,20 11,19.5522847 11,19 L11,12.999 L5,13 C4.44771525,13 4,12.5522847 4,12 C4,11.4477153 4.44771525,11 5,11 L11,10.999 L11,5 C11,4.44771525 11.4477153,4 12,4 Z" fill="#CCCCCC" mask="url(#mask-2)" transform="translate(12.000000, 12.000000) rotate(-315.000000) translate(-12.000000, -12.000000) "></path>
            </g>
        </g>
    </g>
</svg>