<?xml version="1.0" encoding="UTF-8"?>
<svg width="16px" height="16px" viewBox="0 0 16 16" version="1.1" xmlns="http://www.w3.org/2000/svg" xmlns:xlink="http://www.w3.org/1999/xlink">
    <title>3</title>
    <g stroke="none" stroke-width="1" fill="none" fill-rule="evenodd">
        <path d="M7.99942861,0 C3.58115061,0.000315568745 -0.000315568745,3.58229339 0,8.00057139 C0.000315568745,12.4188494 3.58229339,16.0003156 8.00057139,16 C12.4188494,15.9996844 16.0003156,12.4177066 16,7.99942861 C15.9996844,3.58115061 12.4177066,-0.000315568745 7.99942861,0 Z M9.25305335,10.9432183 C8.64966788,11.8494393 8.03485465,12.5488179 7.00178559,12.5488179 C6.29669309,12.4333976 6.00642811,11.9271481 6.15956003,11.4128991 L7.48860796,7.01092779 C7.52174845,6.90236412 7.468038,6.78808657 7.3697593,6.75266052 C7.27148061,6.71723448 7.07949432,6.84522534 6.9126491,7.02692665 L6.11042068,7.99371473 C6.08756517,7.83258339 6.10699236,7.56403114 6.10699236,7.45546747 C6.71152061,6.54924648 7.70230698,5.83386901 8.37540176,5.83386901 C9.01535605,5.90014999 9.31704878,6.41097064 9.20619956,6.97207342 L7.86800943,11.3957574 C7.8508678,11.4963217 7.90343547,11.5968859 7.99371473,11.6288837 C8.09199343,11.6643097 8.2988358,11.5363188 8.46568102,11.3534748 L9.26790944,10.3878294 C9.28962217,10.5501036 9.25305335,10.8357974 9.25305335,10.9432183 L9.25305335,10.9432183 Z M9.07478037,5.19277194 C8.56624527,5.19277194 8.15484608,4.82365545 8.15484608,4.27740876 C8.15484608,3.73230484 8.56738804,3.36204557 9.07478037,3.36204557 C9.58331548,3.36204557 9.99471466,3.73230484 9.99471466,4.27740876 C9.99471466,4.82365545 9.58331548,5.19277194 9.07478037,5.19277194 Z" id="3" fill="#FFB48D" fill-rule="nonzero"></path>
    </g>
</svg>