<?xml version="1.0" encoding="UTF-8"?>
<svg width="10px" height="16px" viewBox="0 0 10 16" version="1.1" xmlns="http://www.w3.org/2000/svg" xmlns:xlink="http://www.w3.org/1999/xlink">
    <title>2</title>
    <defs>
        <polygon id="path-1" points="0 0 10 0 10 16 0 16"></polygon>
    </defs>
    <g id="1" stroke="none" stroke-width="1" fill="none" fill-rule="evenodd">
        <g id="2" transform="translate(5.000000, 8.000000) rotate(180.000000) translate(-5.000000, -8.000000) ">
            <mask id="mask-2" fill="white">
                <use xlink:href="#path-1"></use>
            </mask>
            <g id="Clip-2"></g>
            <path d="M1.16503286,16 C0.833302272,16 0.612148546,15.8995884 0.390994819,15.6987652 C-0.0500701977,15.2982471 0.0605066657,14.6969057 0.501571682,14.2952594 L7.56979388,8.47815629 C7.79094761,8.27846132 7.90152447,8.07763813 7.90152447,7.87681495 C7.90152447,7.67711998 7.79094761,7.4762968 7.56979388,7.27547361 L0.390994819,1.75960532 C-0.0500701977,1.35795894 -0.160647061,0.756617606 0.281660392,0.356099454 C0.722725409,-0.0455469177 1.38618659,-0.145958511 1.82725161,0.255687861 L8.8954738,5.77155616 C9.55769255,6.2724859 10,7.07465042 10,7.87681495 C10,8.67897947 9.66826941,9.38186062 9.00605067,9.98320196 L1.93782847,15.7991768 C1.71667474,15.8995884 1.38618659,16 1.16503286,16" id="Fill-1" fill="#333333" mask="url(#mask-2)"></path>
        </g>
    </g>
</svg>