<?xml version="1.0" encoding="UTF-8"?>
<svg width="14px" height="14px" viewBox="0 0 14 14" version="1.1" xmlns="http://www.w3.org/2000/svg" xmlns:xlink="http://www.w3.org/1999/xlink">
    <g stroke="none" stroke-width="1" fill="none" fill-rule="evenodd">
        <g transform="translate(-100.000000, -266.000000)" fill="#5F6368">
            <g transform="translate(0.000000, 180.000000)">
                <g transform="translate(24.000000, 61.000000)">
                    <g transform="translate(76.000000, 25.000000)">
                        <path d="M5.72314816,0 C6.77828992,0.000926477401 7.63240818,0.857918073 7.6314818,1.91224935 C7.6314818,2.12904507 7.59442678,2.34306135 7.52216949,2.54688637 L10.1753091,2.54688637 C10.8775017,2.54688637 11.4462963,3.1157435 11.4462963,3.81801337 L11.4462963,6.47237112 C12.4402973,6.11845675 13.5334204,6.63543114 13.8882223,7.62954139 C14.2430241,8.62365164 13.7251802,9.7159685 12.7311792,10.0708093 C12.316163,10.2190457 11.8613126,10.2190457 11.4462963,10.0708093 L11.4462963,12.7251671 C11.4481491,13.427437 10.8812072,13.998147 10.1790146,14 L10.1753091,14 L7.52680136,14 C7.87975045,13.0058897 7.35912739,11.9135729 6.36420005,11.5615115 C5.37019908,11.2085236 4.2780023,11.7282774 3.92597959,12.7223877 C3.77868588,13.1365231 3.77868588,13.5867911 3.92597959,14 L1.27191363,14 C0.569720965,14 0,13.4311429 0,12.728873 L0,12.7251671 L0,10.08378 C0.994000968,10.4312091 2.08156587,9.90774932 2.4289567,8.91363907 C2.77727391,7.9204553 2.25294534,6.83277083 1.25987075,6.48441533 C0.852265508,6.34173781 0.407605243,6.34173781 0,6.48441533 L0,3.83098405 C0,3.1277877 0.569720965,2.55893058 1.27191363,2.55893058 L3.92505322,2.55893058 C3.57395688,1.56482033 4.09550632,0.475282906 5.08858091,0.124147972 C5.29423628,0.0518827344 5.50915541,0.0157501158 5.72592729,0.0157501158 L5.72407454,0 L5.72314816,0 Z"></path>
                    </g>
                </g>
            </g>
        </g>
    </g>
</svg>