<?xml version="1.0" encoding="UTF-8"?>
<svg width="14px" height="16px" viewBox="0 0 14 16" version="1.1" xmlns="http://www.w3.org/2000/svg" xmlns:xlink="http://www.w3.org/1999/xlink">
    <title>2</title>
    <g id="2" stroke="none" stroke-width="1" fill="none" fill-rule="evenodd">
        <path d="M12.950951,12.2371084 L11.4678568,9.25301205 C11.4525474,9.22024096 11.4429791,9.18554217 11.4429791,9.14891566 L11.4391517,5.84481928 C11.4372381,3.98072289 10.1837842,2.41156627 8.48253161,1.94313253 L8.48253161,1.94120482 C8.48253161,0.86939759 7.61946644,0 6.55546593,0 C5.49337908,0 4.63222759,0.865542169 4.62840025,1.93542169 C2.90801093,2.39614458 1.63924772,3.97686747 1.64116139,5.85445783 L1.64498873,9.15855422 C1.64498873,9.19518072 1.63733405,9.22987952 1.62011102,9.2626506 L0.138930448,12.2428916 C-0.29355897,13.1142169 0.336038457,14.1416867 1.30435547,14.1397617 L11.7893534,14.1320482 C12.7557567,14.1339759 13.3853541,13.1084337 12.950951,12.2371084 Z M4.80828523,14.6987829 C4.61500456,14.6987829 4.50975271,14.9243373 4.63031392,15.0766265 C5.0781127,15.6395181 5.76703389,16 6.5382429,16 C7.31136558,16 8.00028677,15.6395181 8.44999922,15.0746988 C8.57056043,14.9224096 8.46530858,14.6968675 8.27202791,14.6987829 L4.80828523,14.6987829 Z" fill="#FFFFFF" fill-rule="nonzero"></path>
    </g>
</svg>