<?xml version="1.0" encoding="UTF-8"?>
<svg width="38px" height="38px" viewBox="0 0 38 38" version="1.1" xmlns="http://www.w3.org/2000/svg" xmlns:xlink="http://www.w3.org/1999/xlink">
    <title>logo</title>
    <g stroke="none" stroke-width="1" fill="none" fill-rule="evenodd">
        <g transform="translate(-1906.000000, -820.000000)" fill="#FFFFFF">
            <g transform="translate(1892.750000, 806.937500)">
                <g id="logo-2" transform="translate(13.250000, 13.062500)">
                    <g id="logo" transform="translate(0.750000, 1.937500)">
                        <path d="M8.85383659,30.9038334 C0.661711144,26.2513756 0.64017397,12.6313982 10.8749465,4.25258652 C13.1960384,2.27763843 16.2420101,1.14354282 19.4310502,1.06745511 C22.0499705,0.876680458 24.4344432,2.43148 25.0565599,4.73549354 C25.5454537,7.05089247 24.7919603,9.43849142 23.0243737,11.173791 C22.2819566,11.8666334 21.4315459,12.4583959 20.5005247,12.9304729 C20.1639294,13.1176375 19.8051816,13.269813 19.4310502,13.3842222 C18.0406718,13.8571323 16.7038287,13.8088138 16.2226267,12.4189636 C15.7804993,10.5823063 16.8952018,8.73037589 18.8427777,8.06558037 C19.4845854,7.84370417 21.7410659,7.15835942 20.8746561,6.984524 C18.6181757,6.50189467 15.0248521,8.21997732 14.169211,10.8455586 C13.3135699,13.4711399 15.2386855,15.0445449 18.062209,14.7065932 C19.4784319,14.5285924 20.8414274,14.0987247 22.0727383,13.4422599 C25.9918886,11.9096758 28.6874197,10.2204731 25.8051305,11.0771541 C25.6580624,11.1176971 25.500841,11.0507733 25.4414599,10.9227571 C25.4153077,10.8505571 25.4153077,10.7728032 25.4414599,10.7008809 C25.7983617,10.2696247 26.1066509,9.80698918 26.3614049,9.32047216 C27.6127147,7.03284247 27.8373167,4.04042956 25.912201,2.00355607 C23.687411,-0.361272099 19.6448835,-0.284073622 16.6395248,0.468750376 C12.6443791,1.55980367 9.05197859,3.60806255 6.24414651,6.39581619 C0.362036758,12.2259674 -2.84638674,22.9210111 3.38862498,29.6200616 C6.03462058,32.3100676 9.79993386,33.8868048 13.7840033,33.9734448 C19.0458424,34.3211157 25.6768305,31.1548673 27.569948,30.3245672 C28.7461854,29.7938971 29.6873599,29.1663123 28.404052,29.4462262 C24.8962618,30.2476464 15.3134503,34.6007519 8.85383659,30.9038334 Z" id="Fill-2" stroke="#FFFFFF"></path>
                        <path d="M25.466112,29.7524803 C28.0768796,28.855819 26.6472785,29.3543067 31.9220429,27.1854198 C37.1968073,25.0165329 28.552432,31.2800915 25.466112,31.5331754 C22.379792,31.7862594 24.3172628,30.1470495 25.466112,29.7524803 Z"></path>
                        <path d="M26.1455911,10.285427 C29.7947214,9.26550354 32.827911,8.85925011 35.24516,9.06666667 C37.0501204,9.22154466 35.5638374,9.9362948 31.3675986,11.1607378 C29.9293307,11.5804177 25.8709473,12.3966409 22.9333886,13.6795661 C22.0848929,13.5049269 23.155627,12.3735472 26.1455911,10.285427 Z"></path>
                    </g>
                </g>
            </g>
        </g>
    </g>
</svg>