<?xml version="1.0" encoding="UTF-8"?>
<svg width="17px" height="16px" viewBox="0 0 17 16" version="1.1" xmlns="http://www.w3.org/2000/svg" xmlns:xlink="http://www.w3.org/1999/xlink">
    <title>icon_gold</title>
    <defs>
        <polygon id="path-1" points="0 0 16 0 16 16 0 16"></polygon>
    </defs>
    <g stroke="none" stroke-width="1" fill="none" fill-rule="evenodd">
        <g transform="translate(-66.000000, -132.000000)">
            <g id="icon_gold-2" transform="translate(66.000000, 132.000000)">
                <g id="icon_gold" transform="translate(0.500000, 0.000000)">
                    <mask id="mask-2" fill="white">
                        <use xlink:href="#path-1"></use>
                    </mask>
                    <g id="Clip-2"></g>
                    <path d="M15.3721331,4.88485398 C14.1169079,1.92515903 11.2146167,0.00205104635 7.99991129,-8.88178386e-14 C5.8774871,-0.00480928577 3.84110298,0.838457816 2.34329215,2.34237798 C0.839205958,3.8402069 -0.00446042535,5.8767411 -2.03602718e-05,7.99944476 C-0.00479880244,10.1226406 0.838867581,12.1596671 2.34329215,13.6575883 C3.84217963,15.1599702 5.87797929,16.0028374 7.99991129,16 C10.1228277,16.0051447 12.159704,15.1618776 13.6577609,13.6575883 C15.1618471,12.159544 16.0051443,10.1225176 16,7.99944476 C16,6.91935776 15.7888598,5.87157278 15.3721331,4.88485398 Z M8.16550074,7.39161318 L8.40104196,7.51276111 C9.18881459,7.92170458 9.62885863,8.21057686 9.9232467,8.50837065 C10.2389218,8.82948342 10.3977744,9.17736071 10.4521916,9.66958185 C10.5055629,10.1596495 10.3611067,10.6319049 10.0333115,11.0352186 C9.69038173,11.4417625 9.22618988,11.7276507 8.70887283,11.8507983 L8.61658816,11.8741173 L8.61658816,12.7998006 C8.61658816,13.1397716 8.34105692,13.4154462 8.00114175,13.4154462 C7.66119582,13.4154462 7.38554153,13.1397716 7.38554153,12.7998006 L7.38554153,11.8797778 L7.29218021,11.8563358 C6.94755852,11.7754577 6.61890208,11.6372666 6.31993053,11.4475154 C6.08681948,11.3078784 5.87533379,11.1348319 5.69221026,10.9341595 C5.46881985,10.6775892 5.49573621,10.2885807 5.75216453,10.0651738 C6.00871589,9.84179772 6.39769574,9.86859301 6.62105539,10.1251633 C6.67224261,10.1840452 6.79661158,10.2929184 6.97327518,10.4040681 C7.29553322,10.6052327 7.63990882,10.7062919 7.99883463,10.7062919 C8.42663557,10.7062919 8.81773797,10.5540417 9.0455888,10.3007324 C9.17500266,10.1690017 9.24169371,9.98826427 9.22883538,9.80405051 C9.18666129,9.41842601 8.86114252,9.13952121 7.83662896,8.60727634 L7.60001109,8.48612841 C6.81223845,8.07718494 6.37111776,7.78951244 6.07780634,7.4915956 C5.76105462,7.1705136 5.60327861,6.8227286 5.54993807,6.32930767 C5.49441347,5.83936306 5.63886973,5.36710764 5.96666485,4.96477838 C6.28449322,4.57373945 6.75551414,4.28363662 7.29218021,4.14809122 L7.38338822,4.12477225 L7.38338822,3.20028866 C7.40295257,2.87403833 7.67319282,2.61949848 7.99991129,2.61949848 C8.32678356,2.61949848 8.59702382,2.87403833 8.61658816,3.20028866 L8.61658816,4.12031149 L8.70998024,4.14255374 C9.0566322,4.22475467 9.38215096,4.36257659 9.68219916,4.55149721 C10.0254981,4.76589028 10.2222182,4.96477838 10.3099194,5.06485309 C10.5253734,5.32179253 10.4955654,5.70394072 10.242767,5.92433273 C9.9900608,6.14472475 9.60732554,6.12226716 9.38215096,5.87372624 C9.27713102,5.76571447 9.15842218,5.67197711 9.02888527,5.59482144 C8.7230539,5.3977484 8.36714272,5.29235155 8.00329506,5.29152093 C7.57660154,5.29152093 7.18439173,5.44377108 6.95666394,5.69815712 C6.82725008,5.83001085 6.76022066,6.01062525 6.77221766,6.19496207 C6.81439175,6.58046351 7.13991052,6.85936831 8.16550074,7.39161318 Z" id="Fill-1" fill="#F7791A" mask="url(#mask-2)"></path>
                </g>
            </g>
        </g>
    </g>
</svg>