<?xml version="1.0" encoding="UTF-8"?>
<svg width="12px" height="7px" viewBox="0 0 12 7" version="1.1" xmlns="http://www.w3.org/2000/svg" xmlns:xlink="http://www.w3.org/1999/xlink">
    <title>Fill 1</title>
    <g id="1" stroke="none" stroke-width="1" fill="none" fill-rule="evenodd">
        <path d="M3.31537554,9.5 C3.08385539,9.5 2.92919234,9.42523027 2.77452928,9.27476772 C2.46520317,8.97384262 2.54206027,8.52245497 2.85138638,8.22152986 L7.79965526,3.85903899 C7.95431831,3.70857644 8.03117541,3.55811389 8.03117541,3.40765134 C8.03117541,3.25718879 7.95431831,3.10672624 7.79965526,2.95626369 L2.77452928,-1.18007182 C2.46520317,-1.48099692 2.38739722,-1.93238457 2.69672333,-2.23330967 C3.00604944,-2.53423477 3.4700386,-2.6090045 3.77936471,-2.30900249 L8.72763358,1.8282561 C9.19162275,2.20395094 9.5,2.80580114 9.5,3.40765134 C9.5,4.00950154 9.26847985,4.53565893 8.80449068,4.98704658 L3.85622181,9.34953745 C3.70155875,9.42523027 3.4700386,9.5 3.31537554,9.5" id="Fill-1" fill="#666666" transform="translate(6.000000, 3.500000) rotate(90.000000) translate(-6.000000, -3.500000) "></path>
    </g>
</svg>