<?xml version="1.0" encoding="UTF-8"?>
<svg width="20px" height="20px" viewBox="0 0 20 20" version="1.1" xmlns="http://www.w3.org/2000/svg" xmlns:xlink="http://www.w3.org/1999/xlink">
    <title>3</title>
    <g id="1" stroke="none" stroke-width="1" fill="none" fill-rule="evenodd">
        <g id="3" fill-rule="nonzero">
            <g>
                <path d="M10,20 C15.52275,20 20,15.52275 20,10 C20,4.47724999 15.52275,0 10,0 C4.47725001,0 0,4.47725001 0,10 C0,15.52275 4.47724999,20 10,20 Z" fill="#FA9992"></path>
                <path d="M8.41080293,13.9242954 L11.9410529,10.3937954 L11.9410529,6.20454545 C11.9410529,5.79033189 12.2768394,5.45454545 12.6910529,5.45454545 C13.1052665,5.45454545 13.4410529,5.79033189 13.4410529,6.20454545 L13.4410529,10.7045455 C13.4410529,10.9034416 13.361965,11.0941759 13.2213029,11.2347955 L9.47130293,14.9847954 C9.28299707,15.1797629 9.00414451,15.2579549 8.74192243,15.1893183 C8.47970036,15.1206817 8.27491664,14.915898 8.20628006,14.6536759 C8.13764348,14.3914539 8.21583549,14.1126013 8.41080293,13.9242954 L8.41080293,13.9242954 Z" fill="#FFF2EC" transform="translate(10.811436, 10.334163) scale(-1, 1) translate(-10.811436, -10.334163) "></path>
            </g>
        </g>
    </g>
</svg>