<?xml version="1.0" encoding="UTF-8"?>
<svg width="12px" height="12px" viewBox="0 0 12 12" version="1.1" xmlns="http://www.w3.org/2000/svg" xmlns:xlink="http://www.w3.org/1999/xlink">
    <title>icon_code</title>
    <g stroke="none" stroke-width="1" fill="none" fill-rule="evenodd">
        <g transform="translate(-32.000000, -131.000000)" fill="#666666">
            <g transform="translate(20.000000, 117.000000)">
                <g transform="translate(12.000000, 10.000000)">
                    <g id="icon_code-2" transform="translate(0.000000, 4.000000)">
                        <path d="M11.2009548,0.00139459553 L6.05327012,0.314045156 C5.94300575,0.320087077 5.83878326,0.368479093 5.76023878,0.445475831 L0.220863882,5.98636689 C-0.0736212939,6.28092945 -0.0736212939,6.75975174 0.220863882,7.05431429 L4.94565451,11.7790781 C5.24015856,12.0736406 5.71895895,12.0736406 6.01353853,11.7790781 L11.5529134,6.23818702 C11.6314579,6.15964204 11.6782825,6.05541889 11.6843433,5.94515382 L11.9984457,0.800457604 C12.0272202,0.348786205 11.6525479,-0.0258129325 11.2009548,0.00139459553 Z M9.13963047,3.81382604 C8.61294558,3.81382604 8.18617396,3.38709368 8.18617396,2.86040683 C8.18617396,2.33364538 8.61294558,1.90691302 9.13963047,1.90691302 C9.66637132,1.90691302 10.093087,2.33364538 10.093087,2.86040683 C10.093087,3.38709368 9.66637132,3.81382604 9.13963047,3.81382604 Z" id="icon_code" transform="translate(6.000000, 6.000000) rotate(-360.000000) translate(-6.000000, -6.000000) "></path>
                    </g>
                </g>
            </g>
        </g>
    </g>
</svg>