<?xml version="1.0" encoding="UTF-8"?>
<svg width="40px" height="40px" viewBox="0 0 40 40" version="1.1" xmlns="http://www.w3.org/2000/svg" xmlns:xlink="http://www.w3.org/1999/xlink">
    <title>1</title>
    <g id="1" stroke="none" stroke-width="1" fill="none" fill-rule="evenodd">
        <g>
            <circle fill="#EA5A4F" cx="20" cy="20" r="20"></circle>
            <g transform="translate(8.571429, 8.571429)" fill="#FFFFFF">
                <path d="M5.62148355,20.7756863 C0.42013406,17.6479836 0.406459664,8.49169628 6.90472793,2.8588817 C8.37843711,1.5311855 10.3123874,0.768768282 12.3371747,0.717616882 C13.9999812,0.589365014 15.5139322,1.63460841 15.9089269,3.18352507 C16.2193357,4.74009578 15.7409272,6.34520431 14.61865,7.51179227 C14.147274,7.9775687 13.6073307,8.37539218 13.0162061,8.69275488 C12.8024949,8.81857986 12.5747185,8.92088266 12.3371747,8.99779645 C11.4543948,9.3157192 10.6056055,9.28323619 10.3000804,8.34888306 C10.0193646,7.11415547 10.7271123,5.86916026 11.9636684,5.4222389 C12.3711654,5.27307843 13.8038513,4.81234247 13.2537499,4.69547832 C11.8210639,4.37102163 9.53958866,5.52603518 8.99632445,7.29113185 C8.45306024,9.05622852 9.67535588,10.1139797 11.4680692,9.88678538 C12.3672584,9.76712097 13.2326523,9.47813423 14.014437,9.03681339 C16.5027864,8.00650471 18.2142347,6.87090629 16.3842098,7.44682626 C16.2908333,7.47408211 16.1910102,7.42909128 16.1533079,7.34302998 C16.1367033,7.29449216 16.1367033,7.24222065 16.1533079,7.19386951 C16.3799122,6.90394935 16.5756514,6.5929339 16.7374,6.26586364 C17.5318824,4.72796132 17.6744868,2.71625517 16.4521911,1.34692845 C15.039626,-0.242871999 12.4729419,-0.190973864 10.5647777,0.315126303 C8.02817722,1.04860751 5.74728799,2.42558827 3.96453747,4.29970836 C0.229864609,8.21913772 -1.80722968,15.4090831 2.15150792,19.9126465 C3.83150513,21.7210538 6.22218023,22.7810453 8.75174811,22.8392906 C12.0925984,23.0730189 16.3027495,20.9444486 17.5047289,20.3862636 C18.2515463,20.0295106 18.8491174,19.6076049 18.0343187,19.7957823 C15.8071503,20.3345522 9.72282557,23.2610097 5.62148355,20.7756863 Z" stroke="#FFFFFF" stroke-width="0.514285714"></path>
                <path d="M16.2068552,19.868333 C17.8644855,19.2655355 16.918907,19.7339877 20.2679638,18.2759125 C23.6170205,16.8178372 18.9920197,20.7473218 17.0324514,20.9174622 C15.0728832,21.0876027 15.4774272,20.1335896 16.2068552,19.868333 Z"></path>
                <path d="M16.6003753,6.91457274 C18.9172834,6.22890995 20.8431181,5.9557984 22.3778794,6.0952381 C23.523886,6.19935775 22.5802142,6.67986205 19.9159357,7.50301701 C19.0027497,7.78515476 16.6030848,8.40457998 14.7379681,9.2670507 C14.1992407,9.14964615 14.8200431,8.36548683 16.6003753,6.91457274 Z"></path>
            </g>
        </g>
    </g>
</svg>