<?xml version="1.0" encoding="UTF-8"?>
<svg width="13px" height="14px" viewBox="0 0 13 14" version="1.1" xmlns="http://www.w3.org/2000/svg" xmlns:xlink="http://www.w3.org/1999/xlink">
    <title>icon_tips</title>
    <defs>
        <polygon id="path-1" points="0 0 10 0 10 12 0 12"></polygon>
    </defs>
    <g  stroke="none" stroke-width="1" fill="none" fill-rule="evenodd">
        <g  transform="translate(-20.000000, -398.000000)">
            <g  transform="translate(10.000000, 263.000000)">
                <g id="icon_tips-2" transform="translate(10.000000, 135.000000)">
                    <g id="icon_tips" transform="translate(0.579643, 0.000000)">
                        <g id="remind-s" transform="translate(1.420357, 2.000000)">
                            <mask id="mask-2" fill="white">
                                <use xlink:href="#path-1"></use>
                            </mask>
                            <g id="Clip-2"></g>
                            <path d="M2.33658468,10.3573698 C2.33658468,10.6697368 2.61130823,10.925294 2.94710215,10.925294 L6.05291648,10.925294 C6.38869177,10.925294 6.66341532,10.6697368 6.66341532,10.3573698 L6.66341532,10.0251767 L2.33658468,10.0251767 L2.33658468,10.3573698 Z M4.49923615,1 C2.0145586,1 0,2.87401117 0,5.18534303 C0,6.76832122 0.944690549,8.14405993 2.33658468,8.8567294 L2.33658468,9.4572698 L6.66341532,9.4572698 L6.66341532,8.8567294 C8.05530945,8.14549837 9,6.76832122 9,5.18534303 C8.99847231,2.87401117 6.9839137,1 4.49923615,1 Z M5.70192017,11.356861 L3.29655214,11.356861 C3.12874833,11.356861 2.99133066,11.4846742 2.99133066,11.6408577 L2.99133066,11.7160726 C2.99133066,11.8722561 3.12874833,12 3.29655214,12 L5.70039248,12 C5.86819629,12 6.00560825,11.8722561 6.00560825,11.7160726 L6.00560825,11.6408577 C6.00714164,11.4846742 5.86972398,11.356861 5.70192017,11.356861 Z" id="Fill-1" fill="#FF8314" mask="url(#mask-2)"></path>
                        </g>
                        <line x1="5.96730017" y1="0" x2="5.96730017" y2="2" stroke="#FF8314"></line>
                        <line x1="10.9591999" y1="2.29455722" x2="10.9591999" y2="4.29455722" stroke="#FF8314" transform="translate(10.959200, 3.294557) rotate(51.000000) translate(-10.959200, -3.294557) "></line>
                        <line x1="1.09180616" y1="2.29455722" x2="1.09180616" y2="4.29455722" stroke="#FF8314" transform="translate(1.091806, 3.294557) rotate(309.000000) translate(-1.091806, -3.294557) "></line>
                    </g>
                </g>
            </g>
        </g>
    </g>
</svg>