<?xml version="1.0" encoding="UTF-8"?>
<svg width="43px" height="43px" viewBox="0 0 43 43" version="1.1" xmlns="http://www.w3.org/2000/svg" xmlns:xlink="http://www.w3.org/1999/xlink">
    <title>icon_drag</title>
    <g id="-" stroke="none" stroke-width="1" fill="none" fill-rule="evenodd">
        <g transform="translate(-291.000000, -196.000000)" fill="#FFFFFF" fill-rule="nonzero">
            <g id="icon_drag-2" transform="translate(291.000000, 196.000000)">
                <g id="icon_drag" transform="translate(3.000000, 3.000000)">
                    <g transform="translate(12.336293, 0.000000)">
                        <g>
                            <path d="M10.863961,0.363961031 C11.6923882,0.363961031 12.363961,1.03553391 12.363961,1.86396103 C12.363961,2.64365715 11.7690729,3.28440971 11.008421,3.35709445 L10.863961,3.36396103 L3.86396103,3.36396103 C3.61850114,3.36396103 3.41435266,3.54083619 3.3720167,3.7740854 L3.36396103,3.86396103 L3.36396103,10.863961 C3.36396103,11.6923882 2.69238816,12.363961 1.86396103,12.363961 C1.08426491,12.363961 0.443512353,11.7690729 0.370827609,11.008421 L0.363961031,10.863961 L0.363961031,3.86396103 C0.363961031,1.99539763 1.82823863,0.468834582 3.67192583,0.369139893 L3.86396103,0.363961031 L10.863961,0.363961031 Z" transform="translate(6.363961, 6.363961) rotate(-315.000000) translate(-6.363961, -6.363961) "></path>
                            <path d="M6.36396103,-0.0994920689 C7.14365715,-0.0994920689 7.78440971,0.495396014 7.85709445,1.25604792 L7.86396103,1.40050793 L7.86396103,13.4005079 C7.86396103,14.2289351 7.19238816,14.9005079 6.36396103,14.9005079 C5.58426491,14.9005079 4.94351235,14.3056198 4.87082761,13.5449679 L4.86396103,13.4005079 L4.86396103,1.40050793 C4.86396103,0.572080806 5.53553391,-0.0994920689 6.36396103,-0.0994920689 Z"></path>
                        </g>
                        <g transform="translate(6.363961, 30.700254) scale(1, -1) translate(-6.363961, -30.700254) translate(0.000000, 24.000000)">
                            <g transform="translate(0.000000, 0.000000)">
                                <path d="M10.863961,0.363961031 C11.6923882,0.363961031 12.363961,1.03553391 12.363961,1.86396103 C12.363961,2.64365715 11.7690729,3.28440971 11.008421,3.35709445 L10.863961,3.36396103 L3.86396103,3.36396103 C3.61850114,3.36396103 3.41435266,3.54083619 3.3720167,3.7740854 L3.36396103,3.86396103 L3.36396103,10.863961 C3.36396103,11.6923882 2.69238816,12.363961 1.86396103,12.363961 C1.08426491,12.363961 0.443512353,11.7690729 0.370827609,11.008421 L0.363961031,10.863961 L0.363961031,3.86396103 C0.363961031,1.99539763 1.82823863,0.468834582 3.67192583,0.369139893 L3.86396103,0.363961031 L10.863961,0.363961031 Z" transform="translate(6.363961, 6.363961) rotate(-315.000000) translate(-6.363961, -6.363961) "></path>
                                <path d="M6.36396103,-0.0994920689 C7.14365715,-0.0994920689 7.78440971,0.495396014 7.85709445,1.25604792 L7.86396103,1.40050793 L7.86396103,13.4005079 C7.86396103,14.2289351 7.19238816,14.9005079 6.36396103,14.9005079 C5.58426491,14.9005079 4.94351235,14.3056198 4.87082761,13.5449679 L4.86396103,13.4005079 L4.86396103,1.40050793 C4.86396103,0.572080806 5.53553391,-0.0994920689 6.36396103,-0.0994920689 Z" ></path>
                            </g>
                        </g>
                    </g>
                    <g transform="translate(18.700254, 18.700254) rotate(-270.000000) translate(-18.700254, -18.700254) translate(12.336293, 0.000000)">
                        <g>
                            <path d="M10.863961,0.363961031 C11.6923882,0.363961031 12.363961,1.03553391 12.363961,1.86396103 C12.363961,2.64365715 11.7690729,3.28440971 11.008421,3.35709445 L10.863961,3.36396103 L3.86396103,3.36396103 C3.61850114,3.36396103 3.41435266,3.54083619 3.3720167,3.7740854 L3.36396103,3.86396103 L3.36396103,10.863961 C3.36396103,11.6923882 2.69238816,12.363961 1.86396103,12.363961 C1.08426491,12.363961 0.443512353,11.7690729 0.370827609,11.008421 L0.363961031,10.863961 L0.363961031,3.86396103 C0.363961031,1.99539763 1.82823863,0.468834582 3.67192583,0.369139893 L3.86396103,0.363961031 L10.863961,0.363961031 Z" transform="translate(6.363961, 6.363961) rotate(-315.000000) translate(-6.363961, -6.363961) "></path>
                            <path d="M6.36396103,-0.0994920689 C7.14365715,-0.0994920689 7.78440971,0.495396014 7.85709445,1.25604792 L7.86396103,1.40050793 L7.86396103,13.4005079 C7.86396103,14.2289351 7.19238816,14.9005079 6.36396103,14.9005079 C5.58426491,14.9005079 4.94351235,14.3056198 4.87082761,13.5449679 L4.86396103,13.4005079 L4.86396103,1.40050793 C4.86396103,0.572080806 5.53553391,-0.0994920689 6.36396103,-0.0994920689 Z"></path>
                        </g>
                        <g transform="translate(6.363961, 30.700254) scale(1, -1) translate(-6.363961, -30.700254) translate(0.000000, 24.000000)">
                            <path d="M10.863961,0.363961031 C11.6923882,0.363961031 12.363961,1.03553391 12.363961,1.86396103 C12.363961,2.64365715 11.7690729,3.28440971 11.008421,3.35709445 L10.863961,3.36396103 L3.86396103,3.36396103 C3.61850114,3.36396103 3.41435266,3.54083619 3.3720167,3.7740854 L3.36396103,3.86396103 L3.36396103,10.863961 C3.36396103,11.6923882 2.69238816,12.363961 1.86396103,12.363961 C1.08426491,12.363961 0.443512353,11.7690729 0.370827609,11.008421 L0.363961031,10.863961 L0.363961031,3.86396103 C0.363961031,1.99539763 1.82823863,0.468834582 3.67192583,0.369139893 L3.86396103,0.363961031 L10.863961,0.363961031 Z" transform="translate(6.363961, 6.363961) rotate(-315.000000) translate(-6.363961, -6.363961) "></path>
                            <path d="M6.36396103,-0.0994920689 C7.14365715,-0.0994920689 7.78440971,0.495396014 7.85709445,1.25604792 L7.86396103,1.40050793 L7.86396103,13.4005079 C7.86396103,14.2289351 7.19238816,14.9005079 6.36396103,14.9005079 C5.58426491,14.9005079 4.94351235,14.3056198 4.87082761,13.5449679 L4.86396103,13.4005079 L4.86396103,1.40050793 C4.86396103,0.572080806 5.53553391,-0.0994920689 6.36396103,-0.0994920689 Z"></path>
                        </g>
                    </g>
                </g>
            </g>
        </g>
    </g>
</svg>