<?xml version="1.0" encoding="UTF-8"?>
<svg width="14px" height="14px" viewBox="0 0 14 14" version="1.1" xmlns="http://www.w3.org/2000/svg" xmlns:xlink="http://www.w3.org/1999/xlink">
    <title>1</title>
    <g id="1" stroke="none" stroke-width="1" fill="none" fill-rule="evenodd">
        <path d="M7.98927802,6.97620134 L13.793678,1.19840134 C14.068078,0.925401339 14.069478,0.481601339 13.796478,0.207201339 C13.523478,-0.0685986607 13.079678,-0.0685986607 12.806678,0.204401339 L7.00087802,5.98360134 L1.24547802,0.207201339 C0.973878021,-0.0671986607 0.530078021,-0.0685986607 0.255678021,0.205801339 C-0.0173219789,0.478801339 -0.0187219789,0.921201339 0.254278021,1.19700134 L6.00827802,6.97200134 L0.206678021,12.7484013 C-0.0677219789,13.0214013 -0.0691219789,13.4624013 0.203878021,13.7382013 C0.341078021,13.8754013 0.520278021,13.9454013 0.699478021,13.9454013 C0.878678021,13.9454013 1.05787802,13.8768013 1.19367802,13.7410013 L6.99667802,7.96460134 L12.803878,13.7942013 C12.941078,13.9314013 13.120278,14 13.299478,14 C13.478678,14 13.657878,13.9314013 13.793678,13.7956013 C14.068078,13.5212013 14.068078,13.0802013 13.795078,12.8058013 L7.98927802,6.97620134 Z" fill="#EA5A4F"></path>
    </g>
</svg>