<?xml version="1.0" encoding="UTF-8"?>
<svg width="14px" height="14px" viewBox="0 0 14 14" version="1.1" xmlns="http://www.w3.org/2000/svg" xmlns:xlink="http://www.w3.org/1999/xlink">
    <g stroke="none" stroke-width="1" fill="none" fill-rule="evenodd">
        <g transform="translate(-1202.000000, -488.000000)" fill-rule="nonzero">
            <g transform="translate(1202.000000, 488.000000)">
                <path d="M12.3949864,4.10797207 L8.25699094,4.10797207 C8.45349072,3.41647283 8.55299061,2.8019735 8.55299061,2.2609741 C8.55299061,1.03347545 7.43099184,-0.142023264 6.35699302,0.0139765647 C5.40999406,0.151476414 4.95799456,0.949975537 4.95799456,1.97547441 L4.95799456,2.90197339 C4.95799456,4.09047209 4.04849556,5.10397098 2.89199683,5.21547086 L1.05249884,5.21247086 C0.471219784,5.21247086 0,5.68369064 0,6.2649697 L0,12.342463 C0,12.9239624 0.470999483,13.3949619 1.05249884,13.3949619 L11.2429877,13.3949619 C12.0141403,13.3949619 12.6763257,12.8466164 12.8199859,12.0889633 L13.9719847,6.01146998 C14.0608737,5.54186231 13.9358478,5.05707083 13.6309309,4.68902426 C13.3260139,4.32097769 12.8729327,4.10797148 12.3949864,4.10797207 Z" fill="#333333" transform="translate(7.000000, 6.697481) scale(1, -1) translate(-7.000000, -6.697481) "></path>
                <path d="M0.999998902,7.12999217 L0.999998902,1.05249884 C0.999998902,1.02349888 1.02349888,0.999998902 1.05249884,0.999998902 L2.24999753,0.999998902 L2.24999753,7.18249212 L1.05249884,7.18249212 C1.02350393,7.18249212 0.999998902,7.15898709 0.999998902,7.12999217 L0.999998902,7.12999217 Z" fill="#FFFFFF" transform="translate(1.624998, 4.091246) scale(1, -1) translate(-1.624998, -4.091246) "></path>
                <path d="M12.9894857,5.82548032 L11.837487,11.9029737 C11.7832072,12.1884725 11.5336006,12.3949731 11.2429877,12.3949731 L3.24999643,12.3949731 L3.24999643,6.16847995 C4.81883961,5.86898312 5.95469783,4.49865491 5.95799346,2.90148353 L5.95799346,1.97548455 C5.95799346,1.38848519 6.14649325,1.05498556 6.50049286,1.00398561 C6.9229924,0.942485682 7.55299171,1.60298496 7.55299171,2.26148423 C7.55299171,2.84448359 7.40449187,3.57398279 7.1019922,4.44448184 C7.04890641,4.59737499 7.07311009,4.76650678 7.16694671,4.89837454 C7.26078333,5.0302423 7.4126448,5.10853327 7.57449169,5.10848111 L12.3949864,5.10848111 C12.5750469,5.10849381 12.7457447,5.18870944 12.860674,5.32732052 C12.9756033,5.46593161 13.0228193,5.64853217 12.9894857,5.82548032 Z" fill="#333333" transform="translate(8.124972, 6.697486) scale(1, -1) translate(-8.124972, -6.697486) "></path>
            </g>
        </g>
    </g>
</svg>