<?xml version="1.0" encoding="UTF-8"?>
<svg width="32px" height="32px" viewBox="0 0 32 32" version="1.1" xmlns="http://www.w3.org/2000/svg" xmlns:xlink="http://www.w3.org/1999/xlink">
    <title>logo</title>
    <g stroke="none" stroke-width="1" fill="none" fill-rule="evenodd">
        <g id="logo" transform="translate(1.000000, 1.000000)" fill="#FFFFFF">
            <path d="M7.57949868,27.2680883 C0.566470669,23.1629785 0.548033354,11.1453514 9.30970903,3.75228223 C11.2967249,2.00968097 13.904288,1.00900837 16.6343277,0.941872158 C18.8763052,0.773541581 20.9175794,2.14542353 21.4501545,4.17837666 C21.8686815,6.22137571 21.2236389,8.32808066 19.7104621,9.85922735 C19.0749015,10.4705589 18.3468909,10.9927022 17.5498721,11.4092408 C17.2617232,11.5743861 16.9546102,11.7086585 16.6343277,11.8096078 C15.4440673,12.2268814 14.2996368,12.1842475 13.8876945,10.957909 C13.5092027,9.33732905 14.4634655,7.70327284 16.1307256,7.11668856 C16.6801576,6.92091545 18.6118614,6.31619949 17.8701546,6.16281529 C15.9384507,5.73696589 12.8623163,7.25292117 12.1298281,9.56961055 C11.3973399,11.8862999 13.0453725,13.2745984 15.4625046,12.9764058 C16.6748898,12.8193463 17.8417084,12.4400512 18.8957961,11.8608176 C22.2508607,10.5085374 24.5584225,9.01806451 22.0909829,9.77395946 C21.9650823,9.80973277 21.8304899,9.75068231 21.7796556,9.63772685 C21.7572675,9.57402096 21.7572675,9.50541461 21.7796556,9.44195374 C22.0851883,9.06143352 22.3491053,8.65322575 22.5671924,8.22394602 C23.6384004,6.20544924 23.8306753,3.5650849 22.1826427,1.76784359 C20.278068,-0.318769499 16.8173839,-0.250653196 14.2445882,0.413603273 C10.8244662,1.37629736 7.74912198,3.1835846 5.34542283,5.64336722 C0.309928595,10.7876183 -2.43670462,20.2244215 2.90089819,26.1353485 C5.16605409,28.5088831 8.3894236,29.9001219 11.8000636,29.976569 C16.3045631,30.2833374 21.9811491,27.4895888 23.6017892,26.756971 C24.60873,26.2887327 25.4144407,25.7349815 24.3158401,25.9819643 C21.3129282,26.6890997 13.1093764,30.5300752 7.57949868,27.2680883 Z" id="Fill-2" stroke="#FFFFFF" stroke-width="1.3"></path>
            <path d="M21.851854,26.0771871 C24.0868523,25.2860154 22.81192,25.9008589 27.3274845,23.9871351 C31.8430489,22.0734114 25.6071172,27.2308598 22.965013,27.4541692 C20.3229089,27.6774786 20.8683593,26.4253364 21.851854,26.0771871 Z"></path>
            <path d="M22.3824408,9.07537673 C25.5063496,8.1754443 28.1029705,7.81698539 30.1723034,8 C31.7174748,8.13665705 30.4451134,8.76731894 26.8528417,9.84770982 C25.6215845,10.2180156 22.386094,11.0310112 19.8713398,12.163004 C19.1449686,12.0089106 19.9820022,10.9797015 22.3824408,9.07537673 Z"></path>
        </g>
    </g>
</svg>