<?xml version="1.0" encoding="UTF-8"?>
<svg width="12px" height="12px" viewBox="0 0 12 12" version="1.1" xmlns="http://www.w3.org/2000/svg" xmlns:xlink="http://www.w3.org/1999/xlink">
    <title>1</title>
    <g id="1" stroke="none" stroke-width="1" fill="none" fill-rule="evenodd">
        <g>
            <path d="M5.13581491,12 C4.93729493,12 4.76083272,11.9357143 4.62848607,11.8157143 L0.226636307,7.81371429 C0.0484094773,7.65257143 -0.030116205,7.40657143 0.0104701027,7.13742857 C0.0457625442,6.9 0.171050711,6.66085714 0.360747584,6.46285714 L5.61490981,1.008 C5.92371867,0.688285714 6.31987632,0.476571429 6.70279931,0.426 L9.83323887,0.0197142857 C9.93294002,0.00685714286 10.0317589,0 10.1296954,0 C10.6687874,0 11.1558231,0.198 11.501689,0.558 C11.8581427,0.927428571 12.0328403,1.434 11.9949009,1.98342857 L11.7857932,5.04685714 C11.7602062,5.42142857 11.5687447,5.81914286 11.2599358,6.13971429 L6.00753822,11.5954286 C5.76137344,11.8482857 5.43756529,12 5.13581491,12" id="Fill-1" fill="#333333"></path>
            <path d="M8.87487262,4.49494286 C8.51488972,4.49494286 8.17167073,4.36294286 7.90785973,4.12465714 C7.63257868,3.87351429 7.4737627,3.53322857 7.45964572,3.16722857 C7.44817568,2.80037143 7.58228695,2.45065714 7.8416864,2.18151429 C8.10814433,1.90465714 8.48577346,1.74608571 8.87487262,1.74608571 C9.23485553,1.74608571 9.57807452,1.87808571 9.84188552,2.11722857 C10.4118584,2.6358 10.441857,3.5058 9.90805885,4.05951429 C9.6407186,4.33637143 9.2648541,4.49494286 8.87487262,4.49494286" id="Fill-3" fill="#FFFFFF"></path>
        </g>
    </g>
</svg>