<?xml version="1.0" encoding="UTF-8"?>
<svg width="24px" height="15px" viewBox="0 0 24 15" version="1.1" xmlns="http://www.w3.org/2000/svg" xmlns:xlink="http://www.w3.org/1999/xlink">
    <title>icon_arrow</title>
    <defs>
        <filter x="-4.8%" y="-40.0%" width="109.6%" height="180.0%" filterUnits="objectBoundingBox" id="filter-1">
            <feOffset dx="0" dy="0" in="SourceAlpha" result="shadowOffsetOuter1"></feOffset>
            <feGaussianBlur stdDeviation="4" in="shadowOffsetOuter1" result="shadowBlurOuter1"></feGaussianBlur>
            <feColorMatrix values="0 0 0 0 0   0 0 0 0 0   0 0 0 0 0  0 0 0 0.25 0" type="matrix" in="shadowBlurOuter1" result="shadowMatrixOuter1"></feColorMatrix>
            <feMerge>
                <feMergeNode in="shadowMatrixOuter1"></feMergeNode>
                <feMergeNode in="SourceGraphic"></feMergeNode>
            </feMerge>
        </filter>
    </defs>
    <g stroke="none" stroke-width="1" fill="none" fill-rule="evenodd">
        <g transform="translate(-364.000000, -631.000000)" fill-rule="nonzero">
            <g transform="translate(38.000000, 101.000000)">
                <g filter="url(#filter-1)" transform="translate(64.000000, 517.000000)">
                    <g transform="translate(46.000000, 10.000000)">
                        <g transform="translate(216.000000, 3.000000)">
                            <g>
                                <rect fill="#000000" opacity="0" x="0" y="0" width="14.8965517" height="14.8965517"></rect>
                                <path d="M11.0239246,6.33404893 L6.1040582,1.40971665 C5.52201045,0.827668911 4.57822973,0.827668911 3.99618199,1.40971665 C3.41413425,1.9917644 3.41413425,2.93703374 3.99618199,3.51908147 L7.86062171,7.38798703 L3.99618199,11.2568926 C3.41413425,11.8404289 3.41413425,12.7842097 3.99618199,13.3662574 C4.57822973,13.9483051 5.52201045,13.9483051 6.1040582,13.3662574 L11.022436,8.44341374 C11.6059724,7.861366 11.6059724,6.91609665 11.0239246,6.33404893 L11.0239246,6.33404893 Z" fill="#E66756" opacity="0.473950763"></path>
                            </g>
                            <g transform="translate(9.103448, 0.000000)">
                                <rect fill="#000000" opacity="0" x="0" y="0" width="14.8965517" height="14.8965517"></rect>
                                <path d="M11.0239246,6.33404893 L6.1040582,1.40971665 C5.52201045,0.827668911 4.57822973,0.827668911 3.99618199,1.40971665 C3.41413425,1.9917644 3.41413425,2.93703374 3.99618199,3.51908147 L7.86062171,7.38798703 L3.99618199,11.2568926 C3.41413425,11.8404289 3.41413425,12.7842097 3.99618199,13.3662574 C4.57822973,13.9483051 5.52201045,13.9483051 6.1040582,13.3662574 L11.022436,8.44341374 C11.6059724,7.861366 11.6059724,6.91609665 11.0239246,6.33404893 L11.0239246,6.33404893 Z" fill="#E66756"></path>
                            </g>
                        </g>
                    </g>
                </g>
            </g>
        </g>
    </g>
</svg>