<?xml version="1.0" encoding="UTF-8"?>
<svg width="24px" height="24px" viewBox="0 0 24 24" version="1.1" xmlns="http://www.w3.org/2000/svg" xmlns:xlink="http://www.w3.org/1999/xlink">
    <title>icon_set</title>
    <defs>
        <rect id="path-1" x="0" y="0" width="24" height="24"></rect>
    </defs>
    <g id="-" stroke="none" stroke-width="1" fill="none" fill-rule="evenodd">
        <g transform="translate(-64.000000, -206.000000)">
            <g id="icon_set" transform="translate(64.000000, 206.000000)">
                <mask id="mask-2" fill="white">
                    <use xlink:href="#path-1"></use>
                </mask>
                <use fill="#D8D8D8" opacity="0" xlink:href="#path-1"></use>
                <g mask="url(#mask-2)" fill="#CCCCCC" fill-rule="nonzero">
                    <g transform="translate(3.750000, 3.902554)">
                        <path d="M6.75134278,0.671374658 L6.50848761,0 L5.82597284,0.209514072 C4.63344262,0.575589463 3.5426034,1.20873723 2.63256271,2.05548973 L2.11051381,2.54123308 L2.5693077,3.08711751 C2.99707015,3.59607995 3.06712411,4.32445041 2.72908805,4.90994605 C2.39083793,5.49581245 1.72452389,5.79918765 1.0698468,5.68239826 L0.366105362,5.55685617 L0.206955325,6.25376657 C0.0698343599,6.85421271 0,7.47155779 0,8.09744605 C0,8.7233357 0.0698353644,9.34070615 0.206911132,9.94073567 L0.366028762,10.6372503 L1.06944217,10.512108 C1.72442331,10.3955821 2.39084215,10.699087 2.72908805,11.284946 C3.06713331,11.8704576 2.99699052,12.5986168 2.56908312,13.1070946 L2.10959526,13.6530991 L2.6320957,14.1391477 C3.54277897,14.9862979 4.63367137,15.6194048 5.82582666,15.9849715 L6.50790382,16.1941261 L6.75087016,15.5233487 C6.97743874,14.897842 7.57349809,14.472446 8.25,14.472446 C8.92654024,14.472446 9.52239694,14.8978395 9.74863376,15.5234526 L9.99144952,16.1949114 L10.6740272,15.985378 C11.8665574,15.6193026 12.9573966,14.9861549 13.8674373,14.1394024 L14.3894862,13.653659 L13.9306923,13.1077746 C13.5029299,12.5988121 13.4328759,11.8704417 13.7709119,11.284946 C14.1091621,10.6990796 14.7754761,10.3957044 15.4301532,10.5124938 L16.1338946,10.6380359 L16.2930447,9.94112553 C16.4301656,9.34067939 16.5,8.72333431 16.5,8.09744605 C16.5,7.4715564 16.4301646,6.85418594 16.2930889,6.25415643 L16.1339712,5.55764182 L15.4305578,5.68278411 C14.7755767,5.79930996 14.1091579,5.49580513 13.7709119,4.90994605 C13.4328667,4.32443449 13.5030095,3.59627527 13.9309169,3.08779751 L14.3904047,2.54179302 L13.8679043,2.05574437 C12.957352,1.20871596 11.8665468,0.575586228 10.6740272,0.209514072 L10.0067903,0.0046899167 L9.71023473,0.770000257 C9.47124108,1.33415143 8.89648938,1.72244605 8.25,1.72244605 C7.57349147,1.72244605 6.97768525,1.29709986 6.75134278,0.671374658 Z M10.818,1.853493 L10.8707037,1.87486356 C11.3900753,2.09390184 11.8796025,2.37748287 12.3282311,2.71820394 L12.373,2.753493 L12.3514984,2.79595126 C11.9296428,3.69277701 11.953837,4.76267986 12.4718738,5.65994605 L12.5750349,5.82635431 C13.1138915,6.63750772 13.9923524,7.13283847 14.94,7.199493 L14.9727066,7.48574706 C14.9908544,7.68808207 15,7.89212524 15,8.09744605 L14.9931579,8.40442871 C14.9886022,8.50640336 14.9817775,8.6080084 14.9727012,8.70919369 L14.94,8.994493 C13.9298814,9.06639193 12.9971136,9.62520416 12.4718738,10.534946 L12.3748547,10.7165626 C11.9526804,11.5738936 11.9577199,12.5615563 12.35106,13.3987154 L12.372,13.440493 L12.3279336,13.4768726 C11.8794975,13.8174712 11.390033,14.1010126 10.8706862,14.3200368 L10.817,14.340493 C10.2508909,13.5009049 9.3005571,12.972446 8.25,12.972446 L8.05430279,12.9785822 C7.08238075,13.0396708 6.2141711,13.5527899 5.682,14.340493 L5.62903129,14.3197649 C5.1098637,14.1009108 4.62040646,13.817406 4.1717854,13.4766987 L4.127,13.440493 L4.1485016,13.3989408 C4.57035719,12.5021151 4.54616303,11.4322122 4.02812616,10.534946 L3.92496512,10.3685378 C3.38610852,9.55738437 2.50764762,9.06205363 1.559,8.994493 L1.52729335,8.70914503 C1.50914562,8.50681002 1.5,8.30276685 1.5,8.09744605 L1.50684215,7.79046338 C1.51139776,7.68848873 1.51822246,7.5868837 1.52729879,7.4856984 L1.559,7.198493 C2.57011865,7.12850016 3.50288643,6.56968793 4.02812616,5.65994605 L4.12514526,5.47832948 C4.54731963,4.62099847 4.54228006,3.63333581 4.14893999,2.79617672 L4.127,2.753493 L4.17206639,2.71801947 C4.62050253,2.37742094 5.109967,2.0938795 5.6293138,1.87485528 L5.682,1.853493 C6.24923101,2.69404577 7.19949239,3.22244605 8.25,3.22244605 C9.24031983,3.22244605 10.1441207,2.7527022 10.7171218,1.99613125 L10.818,1.853493 Z"></path>
                        <path d="M8.25,5.34098119 C6.7276465,5.34098119 5.49353515,6.57509255 5.49353515,8.09744605 C5.49353515,9.61979955 6.7276465,10.8539109 8.25,10.8539109 C9.7723535,10.8539109 11.0064649,9.61979955 11.0064649,8.09744605 C11.0064649,6.57509255 9.7723535,5.34098119 8.25,5.34098119 Z M8.25,6.84098119 C8.94392638,6.84098119 9.50646485,7.40351967 9.50646485,8.09744605 C9.50646485,8.79137242 8.94392638,9.3539109 8.25,9.3539109 C7.55607362,9.3539109 6.99353515,8.79137242 6.99353515,8.09744605 C6.99353515,7.40351967 7.55607362,6.84098119 8.25,6.84098119 Z"></path>
                    </g>
                </g>
            </g>
        </g>
    </g>
</svg>