<?xml version="1.0" encoding="UTF-8"?>
<svg width="40px" height="168px" viewBox="0 0 40 168" version="1.1" xmlns="http://www.w3.org/2000/svg" xmlns:xlink="http://www.w3.org/1999/xlink">
    <title>img_purchase</title>
    <defs>
        <linearGradient x1="50%" y1="0%" x2="50%" y2="100%" id="linearGradient-1">
            <stop stop-color="#FF8D85" offset="0%"></stop>
            <stop stop-color="#EA5A50" offset="100%"></stop>
        </linearGradient>
        <path d="M10.000845,0 C10.2917607,0 10.5826763,0.128105932 10.7554286,0.403092955 L10.7554286,0.403092955 L14.7376323,6.61958023 L19.0924942,6.61958023 C19.5925829,6.61958023 20.0016901,7.04632577 20.0016901,7.56797548 C20.0016901,7.65806098 19.9880287,7.74332782 19.9653819,7.81922177 L19.9653819,7.81922177 L17.6605627,16.6106383 C17.4515305,17.4120055 16.7468882,18 15.9104494,18 L15.9104494,18 L4.0912407,18 C3.25480188,18 2.55015957,17.4120055 2.33659233,16.6153688 L2.33659233,16.6153688 L0.031801294,7.82404043 C0.01363315,7.74344534 0,7.65806098 0,7.56797548 C0,7.04632577 0.409079002,6.61958023 0.90916773,6.61958023 L0.90916773,6.61958023 L5.26405778,6.61958023 L9.24626145,0.403092955 C9.41901374,0.132807067 9.70992938,0 10.000845,0 Z M10.000845,2.44676454 L7.27331367,6.61958023 L12.7283764,6.61958023 L10.000845,2.44676454 Z" id="path-2"></path>
        <filter x="-25.0%" y="-22.2%" width="150.0%" height="155.6%" filterUnits="objectBoundingBox" id="filter-3">
            <feOffset dx="0" dy="1" in="SourceAlpha" result="shadowOffsetOuter1"></feOffset>
            <feGaussianBlur stdDeviation="1.5" in="shadowOffsetOuter1" result="shadowBlurOuter1"></feGaussianBlur>
            <feColorMatrix values="0 0 0 0 1   0 0 0 0 0.642912852   0 0 0 0 0.618566001  0 0 0 1 0" type="matrix" in="shadowBlurOuter1"></feColorMatrix>
        </filter>
        <linearGradient x1="50%" y1="0%" x2="50%" y2="100%" id="linearGradient-4">
            <stop stop-color="#FF8D85" offset="0%"></stop>
            <stop stop-color="#EA5A50" offset="100%"></stop>
        </linearGradient>
        <circle id="path-5" cx="10.5" cy="10.5" r="10.5"></circle>
        <filter x="-23.8%" y="-19.0%" width="147.6%" height="147.6%" filterUnits="objectBoundingBox" id="filter-6">
            <feOffset dx="0" dy="1" in="SourceAlpha" result="shadowOffsetOuter1"></feOffset>
            <feGaussianBlur stdDeviation="1.5" in="shadowOffsetOuter1" result="shadowBlurOuter1"></feGaussianBlur>
            <feColorMatrix values="0 0 0 0 1   0 0 0 0 0.642912852   0 0 0 0 0.618566001  0 0 0 1 0" type="matrix" in="shadowBlurOuter1"></feColorMatrix>
        </filter>
        <polygon id="path-7" points="0 0 9.45 0 9.45 9.45 0 9.45"></polygon>
        <linearGradient x1="50%" y1="0%" x2="50%" y2="100%" id="linearGradient-9">
            <stop stop-color="#FF8D85" offset="0%"></stop>
            <stop stop-color="#EA5A50" offset="100%"></stop>
        </linearGradient>
        <path d="M18,0 C20.209139,-4.05812251e-16 22,1.790861 22,4 L22,6 L22,6 C20.8954305,6 20,6.8954305 20,8 C20,9.1045695 20.8954305,10 22,10 L22,12 C22,14.209139 20.209139,16 18,16 L4,16 C1.790861,16 2.705415e-16,14.209139 0,12 L0,10 L0,10 C1.1045695,10 2,9.1045695 2,8 C2,6.8954305 1.1045695,6 0,6 L0,4 C-2.705415e-16,1.790861 1.790861,4.05812251e-16 4,0 L18,0 Z" id="path-10"></path>
        <filter x="-22.7%" y="-25.0%" width="145.5%" height="162.5%" filterUnits="objectBoundingBox" id="filter-11">
            <feOffset dx="0" dy="1" in="SourceAlpha" result="shadowOffsetOuter1"></feOffset>
            <feGaussianBlur stdDeviation="1.5" in="shadowOffsetOuter1" result="shadowBlurOuter1"></feGaussianBlur>
            <feColorMatrix values="0 0 0 0 1   0 0 0 0 0.642912852   0 0 0 0 0.618566001  0 0 0 1 0" type="matrix" in="shadowBlurOuter1"></feColorMatrix>
        </filter>
    </defs>
    <g stroke="none" stroke-width="1" fill="none" fill-rule="evenodd">
        <g transform="translate(-738.000000, -375.000000)">
            <g id="img_purchase" transform="translate(738.000000, 375.000000)">
                <line x1="20" y1="20" x2="20" y2="148" stroke="#FFDCDB" stroke-width="2" stroke-dasharray="4,4"></line>
                <g>
                    <circle fill="#FFE9E8" cx="20" cy="20" r="20"></circle>
                    <g id="gouwudai" transform="translate(9.998310, 11.000000)">
                        <g>
                            <use fill="black" fill-opacity="1" filter="url(#filter-3)" xlink:href="#path-2"></use>
                            <use fill="url(#linearGradient-1)" fill-rule="evenodd" xlink:href="#path-2"></use>
                        </g>
                        <circle fill="#FFFFFF" cx="10.000845" cy="12.1274693" r="2.14173369"></circle>
                    </g>
                </g>
                <g transform="translate(0.000000, 64.000000)">
                    <circle fill="#FFE9E8" cx="20" cy="20" r="20"></circle>
                    <g transform="translate(9.500000, 9.500000)">
                        <g>
                            <use fill="black" fill-opacity="1" filter="url(#filter-6)" xlink:href="#path-5"></use>
                            <use fill="url(#linearGradient-4)" fill-rule="evenodd" xlink:href="#path-5"></use>
                        </g>
                        <g id="fenxiang" transform="translate(5.250000, 5.775000)">
                            <mask id="mask-8" fill="white">
                                <use xlink:href="#path-7"></use>
                            </mask>
                            <g id="Clip-2"></g>
                            <path d="M7.67798064,5.90381975 C7.09839471,5.90381975 6.58382006,6.18232533 6.26052753,6.61282328 L3.47566769,5.21484654 C3.5196805,5.06022082 3.54325479,4.89699467 3.54325479,4.72820765 C3.54325479,4.54336836 3.51493484,4.36516849 3.46248065,4.19762811 L6.23679925,2.80489008 C6.55834191,3.25372348 7.08401775,3.54618025 7.67798064,3.54618025 C8.65666359,3.54618025 9.45,2.752363 9.45,1.77306211 C9.45,0.793817257 8.65666359,0 7.67798064,0 C6.69931168,0 5.90596127,0.793817257 5.90596127,1.77306211 C5.90596127,1.84085706 5.90990898,1.9076575 5.91728645,1.97343542 L2.99121886,3.44233071 C2.67345593,3.14040505 2.2439671,2.95513153 1.77117943,2.95513153 C0.79251047,2.95513153 -0.000839939027,3.74894879 -0.000839939027,4.72820765 C-0.000839939027,5.70745251 0.79251047,6.50126977 1.77117943,6.50126977 C2.26119985,6.50126977 2.70468766,6.30231119 3.02546037,5.98069138 L5.92242408,7.43493512 C5.91165886,7.51410394 5.90590528,7.59481355 5.90590528,7.67688186 C5.90590528,8.65618274 6.69925568,9.45 7.67798064,9.45 C8.65666359,9.45 9.45,8.65618274 9.45,7.67688186 C9.45,6.69769303 8.65670559,5.90381975 7.67798064,5.90381975 Z" id="Fill-1" fill="#FFFFFF" mask="url(#mask-8)"></path>
                        </g>
                    </g>
                </g>
                <g transform="translate(0.000000, 128.000000)">
                    <circle fill="#FFE9E8" cx="20" cy="20" r="20"></circle>
                    <g transform="translate(9.000000, 12.000000)">
                        <g>
                            <use fill="black" fill-opacity="1" filter="url(#filter-11)" xlink:href="#path-10"></use>
                            <use fill="url(#linearGradient-9)" fill-rule="evenodd" xlink:href="#path-10"></use>
                        </g>
                        <text id="$" font-family="Circular-Black, Circular" font-size="11" font-weight="800" fill="#FFFFFF">
                            <tspan x="8" y="11">$</tspan>
                        </text>
                    </g>
                </g>
            </g>
        </g>
    </g>
</svg>