<?xml version="1.0" encoding="UTF-8"?>
<svg width="208px" height="143px" viewBox="0 0 208 143" version="1.1" xmlns="http://www.w3.org/2000/svg" xmlns:xlink="http://www.w3.org/1999/xlink">
    <title>img_congratulate</title>
    <defs>
        <rect id="path-1" x="0" y="0" width="202" height="89"></rect>
        <linearGradient x1="50%" y1="89.4195846%" x2="50%" y2="0%" id="linearGradient-3">
            <stop stop-color="#FFDE3C" stop-opacity="0.409910402" offset="0%"></stop>
            <stop stop-color="#FFD500" stop-opacity="0" offset="100%"></stop>
        </linearGradient>
        <ellipse id="path-4" cx="50" cy="50.1784172" rx="50" ry="50.1784172"></ellipse>
        <ellipse id="path-6" cx="50.1587302" cy="50.3377138" rx="36.6666667" ry="36.797506"></ellipse>
        <filter x="-3.4%" y="-3.4%" width="106.8%" height="106.8%" filterUnits="objectBoundingBox" id="filter-7">
            <feOffset dx="0" dy="5" in="SourceAlpha" result="shadowOffsetInner1"></feOffset>
            <feComposite in="shadowOffsetInner1" in2="SourceAlpha" operator="arithmetic" k2="-1" k3="1" result="shadowInnerInner1"></feComposite>
            <feColorMatrix values="0 0 0 0 1   0 0 0 0 0.543487762   0 0 0 0 0  0 0 0 1 0" type="matrix" in="shadowInnerInner1" result="shadowMatrixInner1"></feColorMatrix>
            <feOffset dx="0" dy="-1" in="SourceAlpha" result="shadowOffsetInner2"></feOffset>
            <feComposite in="shadowOffsetInner2" in2="SourceAlpha" operator="arithmetic" k2="-1" k3="1" result="shadowInnerInner2"></feComposite>
            <feColorMatrix values="0 0 0 0 1   0 0 0 0 0.962307209   0 0 0 0 0.771150915  0 0 0 1 0" type="matrix" in="shadowInnerInner2" result="shadowMatrixInner2"></feColorMatrix>
            <feMerge>
                <feMergeNode in="shadowMatrixInner1"></feMergeNode>
                <feMergeNode in="shadowMatrixInner2"></feMergeNode>
            </feMerge>
        </filter>
        <linearGradient x1="50%" y1="16.5829658%" x2="52.2678265%" y2="68.5940016%" id="linearGradient-8">
            <stop stop-color="#FFFFFF" stop-opacity="0.242242133" offset="0%"></stop>
            <stop stop-color="#FFFFFF" stop-opacity="0" offset="100%"></stop>
        </linearGradient>
        <linearGradient x1="50%" y1="16.5829658%" x2="54.0310086%" y2="68.5940016%" id="linearGradient-9">
            <stop stop-color="#FFFFFF" stop-opacity="0.242242133" offset="0%"></stop>
            <stop stop-color="#FFFFFF" stop-opacity="0" offset="100%"></stop>
        </linearGradient>
    </defs>
    <g stroke="none" stroke-width="1" fill="none" fill-rule="evenodd">
        <g transform="translate(-304.000000, -281.000000)">
            <g id="img_congratulate-3" transform="translate(304.000000, 281.000000)">
                <g id="img_congratulate" transform="translate(0.239094, 0.000000)">
                    <g id="img_radiation" transform="translate(5.760906, 0.000000)">
                        <mask id="mask-2" fill="white">
                            <use xlink:href="#path-1"></use>
                        </mask>
                        <use fill="#D8D8D8" opacity="0" xlink:href="#path-1"></use>
                        <g mask="url(#mask-2)" fill="url(#linearGradient-3)">
                            <g transform="translate(0.500000, 0.000000)">
                                <polygon points="94.5 0 112.5 0 108.5 113 99.5 113"></polygon>
                                <polygon transform="translate(120.109710, 60.997351) rotate(23.000000) translate(-120.109710, -60.997351) " points="111.10971 4.49735087 129.10971 4.49735087 125.10971 117.497351 116.10971 117.497351"></polygon>
                                <polygon transform="translate(133.734019, 71.508622) rotate(45.000000) translate(-133.734019, -71.508622) " points="124.734019 15.008622 142.734019 15.008622 138.734019 128.008622 129.734019 128.008622"></polygon>
                                <polygon transform="translate(142.298750, 86.433568) rotate(68.000000) translate(-142.298750, -86.433568) " points="133.29875 29.9335676 151.29875 29.9335676 147.29875 142.933568 138.29875 142.933568"></polygon>
                                <polygon transform="translate(144.500000, 103.500000) rotate(90.000000) translate(-144.500000, -103.500000) " points="135.5 47 153.5 47 149.5 160 140.5 160"></polygon>
                                <polygon transform="translate(140.002649, 120.109710) rotate(113.000000) translate(-140.002649, -120.109710) " points="131.002649 63.6097096 149.002649 63.6097096 145.002649 176.60971 136.002649 176.60971"></polygon>
                                <polygon transform="translate(129.491378, 133.734019) rotate(135.000000) translate(-129.491378, -133.734019) " points="120.491378 77.2340187 138.491378 77.2340187 134.491378 190.234019 125.491378 190.234019"></polygon>
                                <polygon transform="translate(114.566432, 142.298750) rotate(158.000000) translate(-114.566432, -142.298750) " points="105.566432 85.7987497 123.566432 85.7987497 119.566432 198.79875 110.566432 198.79875"></polygon>
                                <polygon transform="translate(97.500000, 144.500000) rotate(180.000000) translate(-97.500000, -144.500000) " points="88.5 88 106.5 88 102.5 201 93.5 201"></polygon>
                                <polygon transform="translate(80.890290, 140.002649) rotate(203.000000) translate(-80.890290, -140.002649) " points="71.8902904 83.5026491 89.8902904 83.5026491 85.8902904 196.502649 76.8902904 196.502649"></polygon>
                                <polygon transform="translate(67.265981, 129.491378) rotate(225.000000) translate(-67.265981, -129.491378) " points="58.2659813 72.991378 76.2659813 72.991378 72.2659813 185.991378 63.2659813 185.991378"></polygon>
                                <polygon transform="translate(58.701250, 114.566432) rotate(247.000000) translate(-58.701250, -114.566432) " points="49.7012503 58.0664324 67.7012503 58.0664324 63.7012503 171.066432 54.7012503 171.066432"></polygon>
                                <polygon transform="translate(56.500000, 97.500000) rotate(270.000000) translate(-56.500000, -97.500000) " points="47.5 41 65.5 41 61.5 154 52.5 154"></polygon>
                                <polygon transform="translate(60.997351, 80.890290) rotate(293.000000) translate(-60.997351, -80.890290) " points="51.9973509 24.3902904 69.9973509 24.3902904 65.9973509 137.39029 56.9973509 137.39029"></polygon>
                                <polygon transform="translate(71.508622, 67.265981) rotate(315.000000) translate(-71.508622, -67.265981) " points="62.508622 10.7659813 80.508622 10.7659813 76.508622 123.765981 67.508622 123.765981"></polygon>
                                <polygon transform="translate(86.433568, 58.701250) rotate(338.000000) translate(-86.433568, -58.701250) " points="77.4335676 2.20125027 95.4335676 2.20125027 91.4335676 115.20125 82.4335676 115.20125"></polygon>
                            </g>
                        </g>
                    </g>
                    <g transform="translate(0.000000, 12.535898)">
                        <ellipse fill="#EFEFEF" cx="110.760906" cy="124.964102" rx="41" ry="5.5"></ellipse>
                        <g transform="translate(60.760906, 20.464102)">
                            <ellipse fill="#FF7600" cx="50" cy="54.8215828" rx="50" ry="50.1784172"></ellipse>
                            <g>
                                <mask id="mask-5" fill="white">
                                    <use xlink:href="#path-4"></use>
                                </mask>
                                <use fill="#FFD500" xlink:href="#path-4"></use>
                                <g mask="url(#mask-5)">
                                    <use fill="#FFA60F" fill-rule="evenodd" xlink:href="#path-6"></use>
                                    <use fill="black" fill-opacity="1" filter="url(#filter-7)" xlink:href="#path-6"></use>
                                </g>
                                <polygon fill="url(#linearGradient-8)" mask="url(#mask-5)" transform="translate(45.553039, 28.052427) rotate(-315.000000) translate(-45.553039, -28.052427) " points="33.6582871 -21.381277 52.7500336 -21.0395306 57.4477911 77.4861318 43.3905596 71.4554927"></polygon>
                                <polygon fill="url(#linearGradient-9)" mask="url(#mask-5)" transform="translate(61.154665, 49.707228) rotate(-315.000000) translate(-61.154665, -49.707228) " points="45.4960303 0.896002729 64.5877768 1.23774922 76.8132997 98.5184542 48.5616589 94.0590094"></polygon>
                            </g>
                        </g>
                        <g>
                            <path d="M3.77422236,97.1091293 C6.88289326,100.683657 8.86644547,102.801612 9.72487898,103.462994 C9.3490373,104.026735 8.02472374,105.251559 6.3524827,105.795215 C0.937143987,102.899853 0.0777238746,100.004491 3.77422236,97.1091293 Z" fill="#FF8100" transform="translate(5.624851, 101.452172) rotate(-27.000000) translate(-5.624851, -101.452172) "></path>
                            <path d="M154.826539,19.2244437 C156.973884,21.6935842 158.344043,23.1565826 158.937014,23.6134389 C158.677398,24.0028482 157.762615,24.8489077 156.607498,25.2244437 C152.866799,23.2244437 152.273146,21.2244437 154.826539,19.2244437 Z" fill="#FF8100" transform="translate(156.104879, 22.224444) rotate(-27.000000) translate(-156.104879, -22.224444) "></path>
                            <path d="M100.285732,9.38050461 C102.075187,11.4381217 103.216985,12.6572871 103.711128,13.0380006 C103.494781,13.3625084 102.732462,14.0675579 101.769865,14.3805046 C98.6526155,12.7138379 98.1579047,11.0471713 100.285732,9.38050461 Z" fill="#DBFF00" transform="translate(101.351016, 11.880505) rotate(-60.000000) translate(-101.351016, -11.880505) "></path>
                            <path d="M56.6144039,107.795215 C58.7617492,110.264356 60.1319075,111.727354 60.724879,112.18421 C60.4652626,112.57362 59.5504799,113.419679 58.3953628,113.795215 C54.6546639,111.795215 54.0610109,109.795215 56.6144039,107.795215 Z" fill="#20E3BB" transform="translate(57.892744, 110.795215) rotate(-28.000000) translate(-57.892744, -110.795215) "></path>
                            <path d="M174.774222,107.109129 C175.927084,109.384191 176.786504,110.831872 177.352483,111.452172 C178.768891,113.004524 180.18815,113.04947 180.724879,113.462994 C180.349037,114.026735 179.024724,115.251559 177.352483,115.795215 C171.152842,114.240401 170.293422,111.345039 174.774222,107.109129 Z" fill="#46A8FF"></path>
                            <path d="M33.9955047,65.7393766 L31.3551844,69.8614136 C32.8974724,72.0865463 35.6348403,73.1991127 39.5672882,73.1991127 C41.7463836,73.1991127 45.2443604,77.5850112 45.2443604,80.3983974 C46.8337815,80.7456659 48.7619457,80.7456659 51.0288529,80.3983974 C48.5272127,73.913116 45.4330562,70.4007881 41.7463836,69.8614136 C38.059711,69.3220392 35.4760847,67.9480269 33.9955047,65.7393766 Z" fill="#46A8FF" transform="translate(41.192019, 73.199113) rotate(-10.000000) translate(-41.192019, -73.199113) "></path>
                            <path d="M50.6119958,33.6588488 L48.8422815,36.4217059 C49.8760231,37.9131345 51.710785,38.6588488 54.3465672,38.6588488 C55.8071386,38.6588488 58.1517101,41.598563 58.1517101,43.4842773 C59.2170434,43.7170392 60.5094244,43.7170392 62.0288529,43.4842773 C60.352091,39.1374202 58.2781863,36.7832297 55.8071386,36.4217059 C53.336091,36.0601821 51.6043767,35.1392297 50.6119958,33.6588488 Z" fill="#46FFDB"></path>
                            <path d="M181.995505,56.7393766 L179.355184,60.8614136 C180.897472,63.0865463 183.63484,64.1991127 187.567288,64.1991127 C189.746384,64.1991127 193.24436,68.5850112 193.24436,71.3983974 C194.833782,71.7456659 196.761946,71.7456659 199.028853,71.3983974 C196.527213,64.913116 193.433056,61.4007881 189.746384,60.8614136 C186.059711,60.3220392 183.476085,58.9480269 181.995505,56.7393766 Z" fill="#EC4E3F" transform="translate(189.192019, 64.199113) scale(-1, 1) rotate(-9.000000) translate(-189.192019, -64.199113) "></path>
                            <path d="M173.830224,43.9533902 L173.585335,44.0821356 C173.264912,44.2505924 172.868596,44.1273987 172.700139,43.8069749 C172.633058,43.6793804 172.609911,43.5332311 172.634279,43.3911526 L172.681048,43.1184655 C172.792324,42.4696774 172.577227,41.807677 172.105855,41.3482027 L171.907736,41.1550846 C171.648508,40.9023994 171.643204,40.4874115 171.895889,40.2281832 C171.99651,40.1249571 172.128353,40.0577796 172.271008,40.0370506 L172.544801,39.9972661 C173.196221,39.9026092 173.759353,39.4934705 174.050677,38.9031835 L174.173121,38.6550846 C174.333333,38.3304598 174.726371,38.1971768 175.050995,38.3573887 C175.180263,38.421186 175.284894,38.5258173 175.348691,38.6550846 L175.471135,38.9031835 C175.762459,39.4934705 176.325591,39.9026092 176.977011,39.9972661 L177.250804,40.0370506 C177.609049,40.0891066 177.857264,40.4217211 177.805208,40.7799659 C177.784479,40.9226209 177.717302,41.0544641 177.614076,41.1550846 L177.415957,41.3482027 C176.944585,41.807677 176.729488,42.4696774 176.840764,43.1184655 L176.887533,43.3911526 C176.948729,43.7479498 176.709096,44.0867999 176.352299,44.1479954 C176.21022,44.1723638 176.064071,44.149216 175.936476,44.0821356 L175.691588,43.9533902 C175.10894,43.647074 174.412872,43.647074 173.830224,43.9533902 Z" fill="#FFF000" transform="translate(174.760906, 41.464102) rotate(-345.000000) translate(-174.760906, -41.464102) "></path>
                            <path d="M56.8302237,7.95339023 L56.5853355,8.0821356 C56.2649116,8.2505924 55.8685955,8.12739875 55.7001388,7.80697488 C55.6330584,7.67938042 55.6099106,7.53323112 55.634279,7.3911526 L55.6810485,7.11846552 C55.7923243,6.46967739 55.5772274,5.80767699 55.1058552,5.34820268 L54.9077364,5.15508462 C54.6485081,4.90239943 54.6432038,4.48741151 54.895889,4.22818316 C54.9965096,4.12495707 55.1283528,4.05777961 55.2710077,4.03705063 L55.5448011,3.99726612 C56.1962214,3.90260921 56.7593526,3.49347046 57.0506766,2.90318352 L57.1731207,2.65508462 C57.3333327,2.33045979 57.7263705,2.1971768 58.0509954,2.35738873 C58.1802627,2.42118596 58.284894,2.52581731 58.3486912,2.65508462 L58.4711354,2.90318352 C58.7624594,3.49347046 59.3255906,3.90260921 59.9770109,3.99726612 L60.2508043,4.03705063 C60.609049,4.08910664 60.8572641,4.42172115 60.8052081,4.77996592 C60.7844791,4.92262086 60.7173016,5.05446405 60.6140755,5.15508462 L60.4159568,5.34820268 C59.9445846,5.80767699 59.7294876,6.46967739 59.8407635,7.11846552 L59.887533,7.3911526 C59.9487285,7.74794981 59.709096,8.08679987 59.3522988,8.14799538 C59.2102203,8.17236376 59.064071,8.14921598 58.9364765,8.0821356 L58.6915882,7.95339023 C58.1089402,7.64707403 57.4128718,7.64707403 56.8302237,7.95339023 Z" fill="#FFFBB9" transform="translate(57.760906, 5.464102) rotate(-30.000000) translate(-57.760906, -5.464102) "></path>
                        </g>
                    </g>
                </g>
            </g>
        </g>
    </g>
</svg>