<?xml version="1.0" encoding="UTF-8"?>
<svg width="92px" height="97px" viewBox="0 0 92 97" version="1.1" xmlns="http://www.w3.org/2000/svg" xmlns:xlink="http://www.w3.org/1999/xlink">
    <title>img_ Link</title>
    <defs>
        <path d="M0,26.407728 C16.4528479,10.6300653 35.406916,1.82748935 56.8622043,0 C57.1837753,0.787054614 57.4757824,1.64505389 57.7382259,2.57399782 C56.5971674,5.94521461 57.7736802,8.0080855 61.2677646,8.76261048 C61.4440174,8.89240589 61.7631063,9.63837293 62.2250312,11.0005116 C60.7370207,14.3755914 61.6829274,16.4953819 65.0627511,17.3598833 C65.224285,18.068831 65.5165426,18.8595164 65.9395239,19.7319397 C64.5833308,23.6434705 65.5540636,25.9013932 68.8517223,26.5057078 C68.9648827,26.9415043 69.0818092,27.6927024 69.2025016,28.7593023 C43.9894485,33.6252488 25.8415629,41.1970377 14.7588449,51.4746688 C14.0336206,50.6988605 13.3091456,49.8764962 12.5854201,49.0075759 C14.1156647,45.6868301 13.1201594,43.8049354 9.59890412,43.3618919 C9.21718629,42.4300783 8.87897756,41.724145 8.58427793,41.244092 C9.3578071,38.6216171 8.51285877,36.9187977 6.04943294,36.1356338 C5.68606693,35.5573986 5.24478215,34.8325018 4.7255786,33.9609433 C5.31990815,30.98225 4.29535871,29.0998891 1.65193027,28.3138604 C1.07758186,27.5642669 0.526938434,26.9288894 0,26.407728 Z" id="path-1"></path>
    </defs>
    <g stroke="none" stroke-width="1" fill="none" fill-rule="evenodd">
        <g transform="translate(-147.000000, -107.000000)">
            <g id="img_-Link" transform="translate(147.000000, 107.000000)">
                <g transform="translate(9.684645, 19.540705)">
                    <path d="M44.2755028,31.2397714 C44.2755028,31.8785713 49.5050217,41.0699176 82,45.2417244 C80.8659961,45.9707031 63.0233542,55.3651929 79.526457,71.7864812 C68.8301497,68.5055728 54.4225653,57.2128089 36.3037038,37.9081895 L36.3037038,35.2675783 C41.6182365,32.1565071 44.2755028,30.8139048 44.2755028,31.2397714 Z" fill-opacity="0.05" fill="#282626"></path>
                    <path d="M32.6222148,37.332424 L41.7724123,76.8418234 C58.9789139,76.8418234 71.4327953,76.8418234 79.1340566,76.8418234 C80.6539859,50.7863148 47.3311414,61.7289179 36.4771498,31.2014971 C35.323229,30.7718801 34.0382506,32.8155224 32.6222148,37.332424 Z" fill="#E1E1E1"></path>
                    <g transform="translate(19.490520, 28.333337)">
                        <path d="M19.3803047,22.8127242 C19.0229006,25.550471 20.3406536,27.5270176 23.3335636,28.7423641 C23.1381783,28.9443914 23.1381783,30.021634 23.3335636,31.9740917 C26.3613894,32.6254945 28.3448543,31.6193558 29.2839583,28.9556757 C28.4071689,27.7825697 27.5317742,26.5155048 26.6577743,25.154481 L28.3297685,22.8127242 L24.9126703,19.2131787 L21.2595738,19.7424626 L19.3803047,22.8127242 Z" fill="#FFD3B7"></path>
                        <path d="M2.85130779,15.9089255 L0,17.6459237 C1.10016107,26.0339523 7.58234245,32.720276 19.4465441,37.704895 C19.7441369,38.4717659 20.3248917,42.0911901 21.1888087,48.5631676 L40.4685019,48.5084859 C39.9303883,41.306092 38.6537037,35.7893109 36.6384481,31.9581428 C38.1853211,29.9997648 48.7703837,22.3095337 42.7044159,0 C41.7867143,0.053458342 40.5035069,0.297646931 38.8547936,0.732565768 C41.3035172,11.845374 40.305939,19.8247568 35.8620589,24.670714 C35.3896363,24.8732549 32.9766578,25.9812403 28.6231234,27.9946705 C28.0473066,30.7340997 26.244538,31.8139375 23.2148175,31.2341838 C15.493924,32.4168294 8.70608738,27.30841 2.85130779,15.9089255 Z" fill="#646FD2"></path>
                        <path d="M18.5345044,22.6948552 C19.1005911,23.0665784 20.2067715,22.9385175 22.8637678,19.9162015 C24.2089504,21.4212766 23.4522654,22.6948552 25.8594918,22.6948552 C28.2667183,22.6948552 26.6577743,25.154481 26.6577743,25.154481 C26.6577743,25.154481 26.8803744,25.5026524 27.3255747,26.1989954 C30.3633881,22.8413472 30.140788,19.8759917 26.6577743,17.3029289 C21.4332537,13.4433347 16.3098418,21.2340215 18.5345044,22.6948552 Z" fill="#030303"></path>
                    </g>
                    <g>
                        <mask id="mask-2" fill="white">
                            <use xlink:href="#path-1"></use>
                        </mask>
                        <use fill="#FF9500" xlink:href="#path-1"></use>
                        <text id="$" mask="url(#mask-2)" transform="translate(31.027689, 23.451891) rotate(-24.000000) translate(-31.027689, -23.451891) " font-family="Circular-Black, Circular" font-size="24.4636699" font-weight="700" fill="#FFFFFF">
                            <tspan x="23.8993515" y="31.9518914">$</tspan>
                        </text>
                        <path d="M43.6787696,2.05981603 L44.922555,4.85339966 L46.7849441,4.02420938 L45.5411587,1.23062575 L43.6787696,2.05981603 Z M46.1663404,7.64698329 L47.4101259,10.4405669 L49.2725149,9.61137663 L48.0287295,6.817793 L46.1663404,7.64698329 Z M48.6539113,13.2341505 L49.8976967,16.0277342 L51.7600858,15.1985439 L50.5163004,12.4049603 L48.6539113,13.2341505 Z M51.1414821,18.8213178 L52.3852676,21.6149014 L54.2476566,20.7857111 L53.0038712,17.9921275 L51.1414821,18.8213178 Z M53.629053,24.408485 L54.8728384,27.2020687 L56.7352275,26.3728784 L55.4914421,23.5792948 L53.629053,24.408485 Z M56.1166238,30.1881314 L56.8005601,31.962257 L58.7874512,30.9405877 L58.1035149,29.166462 L56.1166238,30.1881314 Z" fill="#FFFFFF" fill-rule="nonzero" mask="url(#mask-2)" transform="translate(51.233110, 16.596441) rotate(2.000000) translate(-51.233110, -16.596441) "></path>
                    </g>
                </g>
                <path d="M9.87008904,74.6440697 L9.87008904,77.7626589 C8.3983844,78.8942835 7.74259359,79.4600958 7.90271661,79.4600958 C8.06283962,79.4600958 9.0494586,79.4600958 10.8625736,79.4600958 L12.6643203,81.6440697 L12.6643203,78.730109 L14.8452102,76.8325788 L11.8626772,76.8325788 L9.87008904,74.6440697 Z" fill="#FF9F00" transform="translate(11.362179, 78.144070) rotate(-347.000000) translate(-11.362179, -78.144070) "></path>
                <path d="M1.34449968,39.2843829 L1.34449968,40.8436775 C0.608647364,41.4094898 0.280751959,41.692396 0.360813465,41.692396 C0.440874971,41.692396 0.934184462,41.692396 1.84074194,41.692396 L2.74161529,42.7843829 L2.74161529,41.3274026 L3.83206026,40.3786375 L2.34079377,40.3786375 L1.34449968,39.2843829 Z" fill="#FF9F00" transform="translate(2.090545, 41.034383) rotate(-347.000000) translate(-2.090545, -41.034383) "></path>
                <path d="M77.2340722,1.14406969 L77.2340722,4.26265886 C75.7623676,5.3942835 75.1065768,5.96009582 75.2666998,5.96009582 C75.4268228,5.96009582 76.4134418,5.96009582 78.2265567,5.96009582 L80.0283034,8.14406969 L80.0283034,5.23010903 L82.2091934,3.33257878 L79.2266604,3.33257878 L77.2340722,1.14406969 Z" fill="#FF9F00" transform="translate(78.726163, 4.644070) rotate(-335.000000) translate(-78.726163, -4.644070) "></path>
            </g>
        </g>
    </g>
</svg>