<?xml version="1.0" encoding="UTF-8"?>
<svg width="168px" height="132px" viewBox="0 0 168 132" version="1.1" xmlns="http://www.w3.org/2000/svg" xmlns:xlink="http://www.w3.org/1999/xlink">
    <title>img_gold</title>
    <defs>
        <circle id="path-1" cx="63" cy="63" r="63"></circle>
        <circle id="path-3" cx="63" cy="63.4827218" r="46.2"></circle>
        <filter x="-3.2%" y="-3.2%" width="106.5%" height="106.5%" filterUnits="objectBoundingBox" id="filter-4">
            <feOffset dx="0" dy="6" in="SourceAlpha" result="shadowOffsetInner1"></feOffset>
            <feComposite in="shadowOffsetInner1" in2="SourceAlpha" operator="arithmetic" k2="-1" k3="1" result="shadowInnerInner1"></feComposite>
            <feColorMatrix values="0 0 0 0 1   0 0 0 0 0.543487762   0 0 0 0 0  0 0 0 1 0" type="matrix" in="shadowInnerInner1" result="shadowMatrixInner1"></feColorMatrix>
            <feOffset dx="0" dy="-1" in="SourceAlpha" result="shadowOffsetInner2"></feOffset>
            <feComposite in="shadowOffsetInner2" in2="SourceAlpha" operator="arithmetic" k2="-1" k3="1" result="shadowInnerInner2"></feComposite>
            <feColorMatrix values="0 0 0 0 1   0 0 0 0 0.962307209   0 0 0 0 0.771150915  0 0 0 1 0" type="matrix" in="shadowInnerInner2" result="shadowMatrixInner2"></feColorMatrix>
            <feMerge>
                <feMergeNode in="shadowMatrixInner1"></feMergeNode>
                <feMergeNode in="shadowMatrixInner2"></feMergeNode>
            </feMerge>
        </filter>
        <linearGradient x1="50%" y1="16.5829658%" x2="52.2362956%" y2="68.5940016%" id="linearGradient-5">
            <stop stop-color="#FFFFFF" stop-opacity="0.242242133" offset="0%"></stop>
            <stop stop-color="#FFFFFF" stop-opacity="0" offset="100%"></stop>
        </linearGradient>
        <linearGradient x1="50%" y1="16.5829658%" x2="53.9909338%" y2="68.5940016%" id="linearGradient-6">
            <stop stop-color="#FFFFFF" stop-opacity="0.242242133" offset="0%"></stop>
            <stop stop-color="#FFFFFF" stop-opacity="0" offset="100%"></stop>
        </linearGradient>
    </defs>
    <g stroke="none" stroke-width="1" fill="none" fill-rule="evenodd">
        <g transform="translate(-50.000000, -113.000000)">
            <g id="img_gold" transform="translate(50.000000, 113.000000)">
                <g >
                    <circle fill="#FF7600" cx="63" cy="68.8295866" r="63"></circle>
                    <g>
                        <mask id="mask-2" fill="white">
                            <use xlink:href="#path-1"></use>
                        </mask>
                        <use fill="#FFD500" xlink:href="#path-1"></use>
                        <g mask="url(#mask-2)">
                            <use fill="#FFA60F" fill-rule="evenodd" xlink:href="#path-3"></use>
                            <use fill="black" fill-opacity="1" filter="url(#filter-4)" xlink:href="#path-3"></use>
                        </g>
                        <polygon fill="url(#linearGradient-5)" mask="url(#mask-2)" transform="translate(57.396829, 35.220380) rotate(-315.000000) translate(-57.396829, -35.220380) " points="42.5468214 -26.9287079 66.5588897 -26.5416396 72.2468371 97.3694679 54.5797235 89.8158608"></polygon>
                        <polygon fill="url(#linearGradient-6)" mask="url(#mask-2)" transform="translate(77.054878, 62.408413) rotate(-315.000000) translate(-77.054878, -62.408413) " points="57.4694147 1.05068531 81.4814831 1.43775363 96.6403411 123.766141 61.1165485 118.220515"></polygon>
                    </g>
                </g>
                <g transform="translate(93.500000, 50.645647)">
                    <g transform="translate(11.173728, 52.031397)">
                        <path d="M0,9 L1.81895806,9.00011169 C4.68250496,6.03661421 10.628789,4 17.5,4 C24.371211,4 30.317495,6.03661421 33.1810419,9.00011169 L35,9 L35,13 C35,17.9705627 27.1649831,22 17.5,22 C7.83501688,22 0,17.9705627 0,13 L0,13 L0,9 Z" fill="#FF9001"></path>
                        <ellipse fill="#FFD500" cx="17.5" cy="9" rx="17.5" ry="9"></ellipse>
                        <ellipse fill="#FFA60F" cx="17.5" cy="9" rx="13.6111111" ry="6"></ellipse>
                    </g>
                    <g transform="translate(11.173728, 47.031397)">
                        <path d="M0,9 L1.81895806,9.00011169 C4.68250496,6.03661421 10.628789,4 17.5,4 C24.371211,4 30.317495,6.03661421 33.1810419,9.00011169 L35,9 L35,13 C35,17.9705627 27.1649831,22 17.5,22 C7.83501688,22 0,17.9705627 0,13 L0,13 L0,9 Z" fill="#FF9001"></path>
                        <ellipse fill="#FFD500" cx="17.5" cy="9" rx="17.5" ry="9"></ellipse>
                        <ellipse fill="#FFA60F" cx="17.5" cy="9" rx="13.6111111" ry="6"></ellipse>
                    </g>
                    <g transform="translate(11.173728, 42.031397)">
                        <path d="M0,9 L1.81895806,9.00011169 C4.68250496,6.03661421 10.628789,4 17.5,4 C24.371211,4 30.317495,6.03661421 33.1810419,9.00011169 L35,9 L35,13 C35,17.9705627 27.1649831,22 17.5,22 C7.83501688,22 0,17.9705627 0,13 L0,13 L0,9 Z" fill="#FF9001"></path>
                        <ellipse fill="#FFD500" cx="17.5" cy="9" rx="17.5" ry="9"></ellipse>
                        <ellipse fill="#FFA60F" cx="17.5" cy="9" rx="13.6111111" ry="6"></ellipse>
                    </g>
                    <g transform="translate(11.173728, 37.031397)">
                        <path d="M0,9 L1.81895806,9.00011169 C4.68250496,6.03661421 10.628789,4 17.5,4 C24.371211,4 30.317495,6.03661421 33.1810419,9.00011169 L35,9 L35,13 C35,17.9705627 27.1649831,22 17.5,22 C7.83501688,22 0,17.9705627 0,13 L0,13 L0,9 Z" fill="#FF9001"></path>
                        <ellipse fill="#FFD500" cx="17.5" cy="9" rx="17.5" ry="9"></ellipse>
                        <ellipse fill="#FFA60F" cx="17.5" cy="9" rx="13.6111111" ry="6"></ellipse>
                    </g>
                    <g transform="translate(11.173728, 32.031397)">
                        <path d="M0,9 L1.81895806,9.00011169 C4.68250496,6.03661421 10.628789,4 17.5,4 C24.371211,4 30.317495,6.03661421 33.1810419,9.00011169 L35,9 L35,13 C35,17.9705627 27.1649831,22 17.5,22 C7.83501688,22 0,17.9705627 0,13 L0,13 L0,9 Z" fill="#FF9001"></path>
                        <ellipse fill="#FFD500" cx="17.5" cy="9" rx="17.5" ry="9"></ellipse>
                        <ellipse fill="#FFA60F" cx="17.5" cy="9" rx="13.6111111" ry="6"></ellipse>
                    </g>
                    <g transform="translate(11.173728, 27.031397)">
                        <path d="M0,9 L1.81895806,9.00011169 C4.68250496,6.03661421 10.628789,4 17.5,4 C24.371211,4 30.317495,6.03661421 33.1810419,9.00011169 L35,9 L35,13 C35,17.9705627 27.1649831,22 17.5,22 C7.83501688,22 0,17.9705627 0,13 L0,13 L0,9 Z" fill="#FF9001"></path>
                        <ellipse fill="#FFD500" cx="17.5" cy="9" rx="17.5" ry="9"></ellipse>
                        <ellipse fill="#FFA60F" cx="17.5" cy="9" rx="13.6111111" ry="6"></ellipse>
                    </g>
                    <g>
                        <path d="M26.7787046,4.21981007 C25.9674599,7.30718497 26.5889235,9.25717575 28.6430954,10.0697824 C29.2014684,11.1017812 28.8559742,12.7037187 29.2450717,12.900767 C29.5044701,13.0321325 30.8286791,13.0321325 33.2176989,12.900767 L33.2176989,9.81867594 L34.09907,3.8891744 L29.9809131,1.44474781 L26.7787046,2.48414638 L26.7787046,4.21981007 Z" fill="#FFBD9F"></path>
                        <path d="M27.9196357,0.900401153 C30.7147176,-0.586119718 33.0572879,-0.232007423 34.9473467,1.96273804 C37.7824348,5.25485623 35.1544346,10.0697824 33.6418443,10.0697824 C32.1292541,10.0697824 32.8940013,8.67641582 32.8940013,7.284641 C32.8940013,5.89286617 31.837123,6.07992089 31.4858886,6.29685981 C31.1346541,6.51379873 28.6698572,4.49276036 29.0947376,2.96102494 C28.0942936,2.96102494 27.6724752,2.80978247 27.0533327,4.29095339 C26.4341903,5.7721243 23.6866897,4.40485113 24.673792,2.40026325 C25.3318602,1.06387134 26.4138081,0.563917303 27.9196357,0.900401153 Z" fill="#000000"></path>
                        <path d="M7.75782247,18.0126705 C4.69708244,16.7502619 2.24967278,16.4150408 0.41559347,17.0070073 C-0.623015961,17.3422284 0.321057843,18.0126705 2.84493922,18.0126705 C2.86619141,18.5320355 0.95679161,20.9548457 8.06473482,21.5901531 C8.07597162,20.3543502 7.9736675,19.161856 7.75782247,18.0126705 Z" fill="#FFBD9F"></path>
                        <path d="M28.6644911,11.7034728 C29.6410626,12.5236663 31.2574322,12.573472 33.5135998,11.8528897 C37.4855143,13.0920194 40.6649039,16.2008795 41.7001842,21.63152 C42.7354644,27.0621604 41.7001842,31.4428864 38.3415358,31.7959336 C38.4423152,32.1993378 38.0969415,33.2122863 37.427649,33.2122863 C36.9814539,33.2122863 31.9535497,33.2122863 22.3439364,33.2122863 C23.7664923,25.3417514 24.7560592,21.1014733 25.3126368,20.491452 C24.5365252,21.63152 21.1586321,28.2551949 7.75782247,21.63152 C7.75782247,20.6187071 7.75782247,19.4124239 7.75782247,18.0126705 C12.3699482,20.2552743 16.2477748,20.3666076 19.3913022,18.3466703 C22.5348296,16.326733 25.6258926,14.1123338 28.6644911,11.7034728 Z" fill="#2BC2D4"></path>
                        <polygon fill="#B4E3FF" points="20.0592246 24.4944044 32.9709129 24.4944044 34.3817852 30.8293783 34.3817852 33.2122863 21.983003 33.2122863 21.983003 31.368158"></polygon>
                        <g transform="translate(22.333634, 54.470439)">
                            <polygon fill="#FFBD9F" points="0.656397129 0.280793069 2.43347105 3.43990516 3.6586577 2.57303222 2.15752741 4.77382738e-17"></polygon>
                            <path d="M3.61119071,2.46954408 C3.64283537,2.53853617 3.24471797,2.82599459 2.4168385,3.33191931 C2.37099527,4.06776022 1.55045875,6.03488784 2.15752741,6.97940769 C2.76459608,7.92392754 0.234214177,9.07531555 0.0255648579,9.07531555 C-0.183084462,9.07531555 0.87937314,11.1712234 3.43621788,9.07531555 C5.99306262,6.97940769 5.30477432,4.64482536 5.30477432,4.35068071 C5.30477432,4.15458428 4.74024645,3.52753873 3.61119071,2.46954408 Z" fill="#4D2C2C"></path>
                        </g>
                        <g transform="translate(17.701800, 53.784325)">
                            <polygon fill="#FFBD9F" transform="translate(7.385310, 2.277650) rotate(45.000000) translate(-7.385310, -2.277650) " points="5.88417931 0.838490026 7.66125323 3.99760211 8.88643988 3.13072918 7.38530959 0.557696957"></polygon>
                            <path d="M5.48681203,2.08360419 C5.51845668,2.15259629 5.12033928,2.4400547 4.29245981,2.94597942 C4.24661658,3.68182034 3.42608006,5.64894796 4.03314873,6.5934678 C4.64021739,7.53798765 2.10983549,8.68937566 1.90118617,8.68937566 C1.69253685,8.68937566 2.75499445,10.7852835 5.31183919,8.68937566 C7.86868393,6.5934678 7.18039563,4.25888548 7.18039563,3.96474083 C7.18039563,3.76864439 6.61586776,3.14159885 5.48681203,2.08360419 Z" fill="#4D2C2C" transform="translate(4.570159, 5.852247) rotate(45.000000) translate(-4.570159, -5.852247) "></path>
                        </g>
                        <path d="M37.427649,33.2122863 C38.4107565,36.5972336 36.9232458,38.5981944 32.9651169,39.2151685 C33.0177277,39.4872766 30.5884846,50.8627169 26.2857438,54.9225601 C26.1845809,54.9448417 25.9119225,54.9570965 25.4677686,54.9593247 L25.1462593,54.9593247 C24.6258851,54.9570965 23.9340154,54.9448417 23.0706502,54.9225601 C18.6385794,46.7585808 16.6367301,41.1426904 17.0651022,38.0748889 C17.4934743,35.0070875 19.1327746,33.3862199 21.983003,33.2122863 L37.427649,33.2122863 Z M27.9928848,39.1147056 L21.9554142,39.1147056 C22.6438444,46.6741915 23.6507922,50.1474655 24.9762576,49.5345275 C26.301723,48.9215894 27.3072654,45.4483155 27.9928848,39.1147056 L27.9928848,39.1147056 Z" fill="#404B6B"></path>
                    </g>
                </g>
                <g transform="translate(147.173728, 111.677043) rotate(-315.000000) translate(-147.173728, -111.677043) translate(129.673728, 100.677043)">
                    <path d="M9.09494702e-13,9 L1.81895806,9.00011169 C4.68250496,6.03661421 10.628789,4 17.5,4 C24.371211,4 30.317495,6.03661421 33.1810419,9.00011169 L35,9 L35,13 C35,17.9705627 27.1649831,22 17.5,22 C7.83501688,22 9.09494702e-13,17.9705627 9.09494702e-13,13 L9.09494702e-13,13 L9.09494702e-13,9 Z" fill="#FF7B00"></path>
                    <ellipse fill="#FFD500" cx="17.5" cy="9" rx="17.5" ry="9"></ellipse>
                    <ellipse fill="#FFA60F" cx="17.5" cy="9" rx="13.6111111" ry="6"></ellipse>
                    <text id="$" transform="translate(17.500000, 9.000000) rotate(-90.000000) translate(-17.500000, -9.000000) " font-family="Circular-Black, Circular" font-size="14" font-weight="700" fill="#FFF2C9">
                        <tspan x="13" y="14">$</tspan>
                    </text>
                </g>
            </g>
        </g>
    </g>
</svg>