<svg xmlns="http://www.w3.org/2000/svg" viewBox="0 0 14 14"><defs><style>.cls-1{fill:#ea5a4f;}.cls-2{fill:#fff;}</style></defs><g><g><path class="cls-1" d="M13.8,5.45,8,.37a1.45,1.45,0,0,0-1.93,0L.2,5.45a.52.52,0,0,0,.3.93.49.49,0,0,0,.33-.13L1,6.1v5.78A2,2,0,0,0,2.92,14h8.15A2,2,0,0,0,13,11.88V6.1l.15.13a.57.57,0,0,0,.35.13.51.51,0,0,0,.3-.91Z"/><path class="cls-2" d="M6,13V9.34a.51.51,0,0,1,.5-.52h1a.51.51,0,0,1,.5.52V13Z"/><path class="cls-1" d="M12,11.88A1,1,0,0,1,11.05,13H9V9.34A1.54,1.54,0,0,0,7.5,7.78h-1A1.54,1.54,0,0,0,5,9.34V13H3a1,1,0,0,1-1-1.08V5.24L6.7,1.17a.53.53,0,0,1,.65,0L12,5.22Z"/></g></g></svg>