<?xml version="1.0" standalone="no"?><!DOCTYPE svg PUBLIC "-//W3C//DTD SVG 1.1//EN" "http://www.w3.org/Graphics/SVG/1.1/DTD/svg11.dtd"><svg t="1625567460895" class="icon" viewBox="0 0 1024 1024" version="1.1" xmlns="http://www.w3.org/2000/svg" p-id="20975" width="10" height="10" xmlns:xlink="http://www.w3.org/1999/xlink"><defs><style type="text/css">
</style></defs><path d="M504.7208 1023.947523A511.973761 511.973761 0 1 1 1023.947523 519.226723 511.973761 511.973761 0 0 1 504.7208 1023.947523z m13.225989-938.618563A426.644801 426.644801 0 1 0 938.618562 517.946789 426.644801 426.644801 0 0 0 517.946789 85.32896z" p-id="20976" fill="#333333"></path><path d="M654.473125 265.373066a185.163844 185.163844 0 0 0-127.99344-42.66448A188.150357 188.150357 0 0 0 388.246769 274.332607a193.69674 193.69674 0 0 0-51.624021 141.219429v16.212503h97.275015v-16.212503c0-73.382906 28.585202-107.941135 90.875342-107.941134a81.062512 81.062512 0 0 1 57.597049 20.052305 63.143431 63.143431 0 0 1 21.33224 49.064152 108.367779 108.367779 0 0 1-42.664481 75.942775l-24.745398 22.18553a191.990161 191.990161 0 0 0-50.344087 61.863496 220.575362 220.575362 0 0 0-11.519409 82.342446v23.892109h93.435211v-29.438491a106.6612 106.6612 0 0 1 46.077639-85.32896c61.436851-50.344087 92.581922-100.261528 92.581922-148.472391a147.192456 147.192456 0 0 0-52.050666-114.340807z" p-id="20977" fill="#333333"></path><path d="M467.602702 691.164578m23.038819 0l55.463824 0q23.038819 0 23.03882 23.038819l0 53.757245q0 23.038819-23.03882 23.038819l-55.463824 0q-23.038819 0-23.038819-23.038819l0-53.757245q0-23.038819 23.038819-23.038819Z" p-id="20978" fill="#333333"></path></svg>