<svg xmlns="http://www.w3.org/2000/svg" xmlns:xlink="http://www.w3.org/1999/xlink" viewBox="0 0 694.43 817.39"><defs><style>.cls-1{fill:none;}.cls-2{clip-path:url(#clip-path);}.cls-3{fill:#f6863d;}</style><clipPath id="clip-path" transform="translate(-612 -131.4)"><rect class="cls-1" x="612" y="131" width="694.8" height="818.8"/></clipPath></defs><title>qizhi</title><g class="cls-2"><path class="cls-3" d="M1255.81,131.4H662.62C637.31,131.4,612,152.64,612,181V906.22c0,17.7,3.61,31.85,21.71,38.92,21.71,10.62,50.63-3.53,86.79-21.22,54.27-28.3,137.45-67.22,191.7-92,28.93-14.13,65.1-14.13,97.64,0,50.65,24.78,133.84,63.7,188.09,92,36.17,17.69,65.11,28.3,86.8,21.22,14.48-7.07,21.7-24.76,21.7-38.92V181c-3.62-28.33-25.31-49.55-50.62-49.55ZM1112.59,449.58l-46,57.67c-5.12,7.54-10.24,22.57-10.24,32.61l2.56,75.22c0,10-7.68,15.06-17.92,12.56l-71.62-25.09a86.09,86.09,0,0,0-35.81,0L861.9,627.64c-10.24,2.5-17.92-2.52-17.92-12.56l2.56-75.22c0-10-5.13-25.07-10.24-32.61l-46-57.67c-5.12-7.52-2.56-17.55,7.68-20.07l74.17-20.07c10.25-2.5,23-12.51,28.14-20.05l43.5-62.67a12.08,12.08,0,0,1,20.48,0l43.48,62.67c5.12,7.54,17.9,17.55,28.14,20.07L1110,429.53c5.12,2.5,7.68,12.53,2.56,20.05Zm0,0" transform="translate(-612 -131.4)"/></g></svg>