<?xml version="1.0" encoding="UTF-8"?>
<svg width="200px" height="112px" viewBox="0 0 200 112" version="1.1" xmlns="http://www.w3.org/2000/svg" xmlns:xlink="http://www.w3.org/1999/xlink">
    <title>img_addcode</title>
    <defs>
        <path d="M0,97.7539485 C41.7392634,88.8972737 77.8808616,84.4689362 108.424795,84.4689362 C138.968728,84.4689362 169.245609,88.8972737 199.255439,97.7539485 L199.255439,0 L8.06461706,0 L0,97.7539485 Z" ></path>
        <linearGradient x1="39.3079522%" y1="31.82363%" x2="39.3079522%" y2="78.1445986%" id="linearGradient-3">
            <stop stop-color="#E6E6E6" offset="0%"></stop>
            <stop stop-color="#F6F6F6" offset="100%"></stop>
        </linearGradient>
        <linearGradient x1="77.9454836%" y1="29.0909869%" x2="64.7199932%" y2="56.2764587%" id="linearGradient-4">
            <stop stop-color="#E6E6E6" offset="0%"></stop>
            <stop stop-color="#F6F6F6" offset="100%"></stop>
        </linearGradient>
        <linearGradient x1="42.9138387%" y1="46.8712605%" x2="45.130895%" y2="52.4030666%" id="linearGradient-5">
            <stop stop-color="#E6E6E6" offset="0%"></stop>
            <stop stop-color="#E4E4E4" stop-opacity="0" offset="100%"></stop>
        </linearGradient>
        <linearGradient x1="91.0745843%" y1="50%" x2="4.51414626%" y2="50%" id="linearGradient-6">
            <stop stop-color="#F6F6F6" offset="0%"></stop>
            <stop stop-color="#D4D4D4" offset="100%"></stop>
        </linearGradient>
        <linearGradient x1="72.4146568%" y1="12.1339227%" x2="35.7184527%" y2="85.7201875%" id="linearGradient-7">
            <stop stop-color="#EDECEC" offset="0%"></stop>
            <stop stop-color="#D5D5D5" offset="100%"></stop>
        </linearGradient>
        <path d="M46.589046,7.03668383 L35.0322129,1.1997124 C33.6696572,0.511530918 32.0081086,0.938702944 31.1464373,2.19873243 C31.1441222,2.20211778 31.1418152,2.20549129 31.1395165,2.20885295 C14.3465528,26.7669909 4.22319396,45.377703 0.769440017,58.0409892 C0.716249632,58.2360133 0.65638581,58.4598952 0.589848549,58.7126349 L0.589859181,58.7126377 C0.235413735,60.058988 0.84214439,61.4738787 2.06181267,62.1452206 C2.06181267,62.1452206 2.06181267,62.1452206 2.06181267,62.1452206 C3.8656865,63.1381268 8.02608171,65.4378359 14.5429983,69.0443479 C19.0187828,65.281657 22.8311785,64.3179609 25.9801853,66.1532598 C29.1291922,67.9885587 29.7339342,71.4968855 27.7944112,76.6782401 L41.624345,83.3964753 L41.8726041,83.5170733 C42.9674951,84.0489344 44.2862415,83.5925177 44.8181103,82.4976305 C44.827658,82.4779759 44.8369129,82.4581805 44.8458718,82.4382507 C44.8458718,82.4382507 44.8458718,82.4382507 44.8458718,82.4382507 C56.7976808,55.8507593 67.1352852,36.4108413 75.8586848,24.1184966 C75.8586848,24.1184966 75.8586848,24.1184966 75.8586848,24.1184966 C76.1925516,23.6480371 76.0818214,22.9960019 75.6113619,22.6621351 C75.5725723,22.6346076 75.5319478,22.6097618 75.4897856,22.5877447 L60.7939627,14.9252575 L60.7939627,14.9252575 C57.2938751,18.5879853 53.485257,19.6098564 49.3681085,17.9908709 C45.25096,16.3718854 44.3246059,12.7204897 46.589046,7.03668383 Z" id="path-8"></path>
        <filter x="-0.0%" y="0.4%" width="101.3%" height="100.4%" filterUnits="objectBoundingBox" id="filter-9">
            <feOffset dx="1" dy="1" in="SourceAlpha" result="shadowOffsetOuter1"></feOffset>
            <feColorMatrix values="0 0 0 0 0.725490196   0 0 0 0 0.725490196   0 0 0 0 0.725490196  0 0 0 1 0" type="matrix" in="shadowOffsetOuter1"></feColorMatrix>
        </filter>
    </defs>
    <g stroke="none" stroke-width="1" fill="none" fill-rule="evenodd">
        <g transform="translate(-278.000000, -107.000000)">
            <g id="img_addcode" transform="translate(278.000000, 107.000000)">
                <g transform="translate(0.000000, 14.004893)">
                    <mask id="mask-2" fill="white">
                        <use xlink:href="#path-1"></use>
                    </mask>
                    <use fill="#D8D8D8" opacity="0" xlink:href="#path-1"></use>
                    <path d="M158.372456,88.6199323 C164.461499,71.2954925 170.419888,62.6332726 176.247623,62.6332726 C184.989225,62.6332726 195.255439,97.1264977 195.255439,99.3154047 C195.255439,100.774676 182.961111,97.2095186 158.372456,88.6199323 Z" fill="url(#linearGradient-3)" mask="url(#mask-2)"></path>
                    <path d="M62.9504059,83.5358134 C106.902309,52.0910599 135.96183,38.719612 150.12897,43.4214696 C171.379679,50.4742561 172.600318,117.504061 171.989999,117.504061 C171.583119,117.504061 135.236588,106.181312 62.9504059,83.5358134 Z" fill="url(#linearGradient-4)" mask="url(#mask-2)"></path>
                    <path d="M8.06461706,84.9252894 C16.9805776,72.4959378 27.6219207,65.129496 39.9886462,62.8259642 C58.5387344,59.3706665 101.857998,83.7113078 103.962968,85.6682586 C105.366282,86.9728924 73.4001649,86.725236 8.06461706,84.9252894 Z" fill="url(#linearGradient-5)" mask="url(#mask-2)"></path>
                </g>
                <ellipse fill="url(#linearGradient-6)" cx="115.067939" cy="99.2588414" rx="18" ry="3.5"></ellipse>
                <g transform="translate(71.045446, 14.758841)">
                    <g>
                        <use fill="black" fill-opacity="1" filter="url(#filter-9)" xlink:href="#path-8"></use>
                        <use fill="url(#linearGradient-7)" fill-rule="evenodd" xlink:href="#path-8"></use>
                    </g>
                    <polygon fill="#B9B9B9" points="46.589046 7.03668383 47.5871724 8.04229487 46.4296856 7.45245815"></polygon>
                    <polygon fill="#B9B9B9" points="27.7944112 76.6782401 28.8022678 77.6826566 28.9608223 77.2400193"></polygon>
                    <path d="M33.8111526,22.8879605 C41.8836427,25.4077556 48.2913323,30.2135677 53.0342214,37.3053966" stroke="#D3D3D3" stroke-width="2" stroke-linecap="round" transform="translate(43.422687, 30.096679) rotate(-8.000000) translate(-43.422687, -30.096679) "></path>
                    <path d="M28.0342214,32.8879605 C36.3675288,35.5235311 42.7752185,40.3293431 47.2572902,47.3053966" stroke="#D3D3D3" stroke-width="2" stroke-linecap="round" transform="translate(37.645756, 40.096679) rotate(-9.000000) translate(-37.645756, -40.096679) "></path>
                    <path d="M21.0342214,48.8879605 C29.3227922,51.9480559 35.7304818,56.7538679 40.2572902,63.3053966" stroke="#D3D3D3" stroke-width="2" stroke-linecap="round" transform="translate(30.645756, 56.096679) rotate(-9.000000) translate(-30.645756, -56.096679) "></path>
                </g>
                <polygon fill="#D7D7D7" transform="translate(103.980762, 4.565035) rotate(-6.000000) translate(-103.980762, -4.565035) " points="102.163815 0.165823394 105.79771 0.165823394 104.75204 8.96424684 102.712449 8.96424684"></polygon>
                <polygon fill="#C6C6C6" points="93.8563461 6.86687908 92.0679388 8.48054748 97.976861 14.7588414 99.0425221 13.9370355"></polygon>
                <polygon fill="#C6C6C6" points="113.567999 5.07970237 114.98847 6.23252774 108.555536 12.8096416 107.828688 11.8584222"></polygon>
            </g>
        </g>
    </g>
</svg>