<?xml version="1.0" encoding="UTF-8"?>
<svg width="24px" height="24px" viewBox="0 0 24 24" version="1.1" xmlns="http://www.w3.org/2000/svg" xmlns:xlink="http://www.w3.org/1999/xlink">
    <defs>
        <polygon id="path-1" points="0 0 24 0 24 24 0 24"></polygon>
    </defs>
    <g stroke="none" stroke-width="1" fill="none" fill-rule="evenodd">
        <g transform="translate(-1325.000000, -4614.000000)">
            <g transform="translate(1107.000000, 4261.000000)">
                <g transform="translate(218.000000, 353.000000)">
                    <path d="M17.7516202,4.54742174 C17.2632555,4.54742174 16.8113879,4.73651776 16.477701,5.08263102 C16.1596557,5.41186071 15.9910743,5.84576855 16.0067159,6.29655997 C16.0240954,6.74735139 16.2187461,7.16606402 16.5576468,7.47841013 C16.882644,7.77387267 17.3049664,7.93426662 17.7516202,7.93426662 C18.2399848,7.93426662 18.6901145,7.74517059 19.0238014,7.39905733 C19.6807474,6.7152726 19.6442504,5.64147731 18.9438556,5.00327823 C18.6171205,4.70781569 18.1930601,4.54742174 17.7516202,4.54742174 M17.7516202,8.98948998 C17.0321079,8.98948998 16.3438787,8.72610623 15.8172791,8.24830109 C15.2663482,7.74685895 14.9483029,7.06645093 14.9204956,6.33370383 C14.8961643,5.59926838 15.1655469,4.90028843 15.6851947,4.36339078 C16.2170082,3.80960957 16.9712795,3.49219838 17.7516202,3.49219838 C18.4711325,3.49219838 19.1576237,3.75558213 19.6842233,4.23338727 C20.8260581,5.27003869 20.8851485,7.01073514 19.8163077,8.11829757 C19.2827563,8.67207879 18.5302229,8.98948998 17.7516202,8.98948998" id="Fill-1" fill="#EA5A4F"></path>
                    <g>
                        <mask id="mask-2" fill="white">
                            <use xlink:href="#path-1"></use>
                        </mask>
                        <g id="Clip-4"></g>
                        <path d="M20.260007,1.05691171 C20.114019,1.05691171 19.964555,1.06704186 19.8116152,1.08561379 L13.5497725,1.89940204 C13.0336006,1.96524798 12.4635522,2.27928245 12.0238503,2.73513894 L1.51445177,13.6453043 C1.28678,13.8816743 1.13384018,14.1653183 1.09734318,14.4270137 C1.08343956,14.5164967 1.06432208,14.7393598 1.19466852,14.8575448 L9.99739771,22.8603588 C10.059964,22.9177629 10.1538134,22.9481534 10.2719942,22.9481534 C10.5083557,22.9481534 10.8820155,22.8215266 11.2191783,22.4703482 L21.7303147,11.5584945 C22.1700167,11.1026381 22.4550409,10.5269082 22.4863241,10.0237777 L22.9034326,3.90179388 C22.9590471,3.0930707 22.7122579,2.3603236 22.2099896,1.83693282 C21.7268388,1.33380232 21.0333958,1.05691171 20.260007,1.05691171 M10.2719942,24 C9.87574104,24 9.52293669,23.8716848 9.25702996,23.6302497 L0.45256282,15.6274358 C0.0962825661,15.3049595 -0.060133155,14.8102708 0.019812658,14.2733732 C0.0928066612,13.7989448 0.341333862,13.3211396 0.72194545,12.926064 L11.231344,2.01421034 C11.8465791,1.37601126 12.6408234,0.952233556 13.4055225,0.850932114 L19.6673652,0.0388322195 C19.8654918,0.0118185016 20.0653563,0 20.260007,0 C21.3375375,0 22.3142668,0.395075624 23.0059718,1.11431586 C23.7167944,1.85381639 24.0661228,2.86683081 23.9896529,3.96763982 L23.5725443,10.0930004 C23.5221437,10.8409427 23.1380562,11.6378473 22.5228211,12.2794231 L12.0151605,23.1895885 C11.5250579,23.6960957 10.8750637,24 10.2719942,24" id="Fill-3" fill="#EA5A4F" mask="url(#mask-2)"></path>
                    </g>
                </g>
            </g>
        </g>
    </g>
</svg>