<svg t="1624526826930" class="icon" viewBox="0 0 1024 1024" version="1.1" xmlns="http://www.w3.org/2000/svg" p-id="2053" width="12" height="12"><path d="M512 904a392 392 0 1 0 0-784 392 392 0 0 0 0 784zM512 960A448 448 0 1 1 512 64a448 448 0 0 1 0 896z m49.472-264.96c-12.48 0-21.248-1.92-26.24-5.952-5.12-3.968-7.68-11.456-7.68-22.4 0-4.352 0.832-10.816 2.368-19.328 1.6-8.512 3.328-16.064 5.312-22.72l24-82.56a124.8 124.8 0 0 0 4.864-24.96c0.896-9.152 1.28-15.424 1.28-19.072a53.504 53.504 0 0 0-18.88-42.432c-12.544-10.88-30.464-16.32-53.696-16.32a139.52 139.52 0 0 0-40.96 6.656c-14.464 4.48-29.568 9.792-45.44 16l-6.4 25.6c4.672-1.728 10.304-3.52 16.832-5.376 6.592-1.92 12.992-2.816 19.2-2.816 12.8 0 21.312 2.048 25.856 6.208 4.48 4.16 6.72 11.52 6.72 22.144 0 5.888-0.704 12.352-2.176 19.456-1.472 7.04-3.264 14.592-5.44 22.528l-24.128 82.944a236.672 236.672 0 0 0-4.672 23.424 144.896 144.896 0 0 0-1.472 20.288c0 17.024 6.464 31.04 19.456 42.112 12.928 11.072 31.104 16.64 54.528 16.64 15.168 0 28.544-1.92 40.064-5.824 11.52-3.84 26.88-9.536 46.208-16.896l6.4-25.6a112.64 112.64 0 0 1-16 5.312 77.568 77.568 0 0 1-19.904 2.944z m25.216-391.68a57.984 57.984 0 0 0-40.448-15.36 58.496 58.496 0 0 0-40.64 15.36 48 48 0 0 0-17.024 36.864c0 14.4 5.696 26.624 17.024 36.736a58.816 58.816 0 0 0 40.64 15.232c15.744 0 29.248-5.12 40.448-15.232a47.744 47.744 0 0 0 16.832-36.736 48.192 48.192 0 0 0-16.832-36.928z" fill="#8c3d0d" p-id="2054"></path></svg>