<svg width="194" height="132" xmlns="http://www.w3.org/2000/svg" xmlns:xlink="http://www.w3.org/1999/xlink"><defs><path d="M82 .001c0 1.498 1.343 2.713 3 2.713 1.656 0 3-1.214 3-2.713h31a1 1 0 0 1 1 1v36a1 1 0 0 1-1 1H88v-.002c0-1.499-1.343-2.714-3-2.714s-3 1.215-3 2.714V38H1a1 1 0 0 1-1-1V1.001a1 1 0 0 1 1-1h81z" id="a"/></defs><g transform="translate(.46)" fill="none" fill-rule="evenodd"><path d="M95.207 128.142c-12.184 0-18.1-1.974-18.1-1.974C45.346 121.065 7.166 91.715 7.166 61.26c0-17.714 13.74-30.61 33.6-30.61 32.533 0 39.833 25.605 74.506 25.605 16.63 0 30.428-6.273 40.466-6.273 15.167 0 18.324 18.794 18.324 27.815 0 29.908-23.481 50.344-78.855 50.344" fill="#FBF4EB"/><path d="M105.105 16.007c-3.679 0-21.053-.672-21.053 13.622 0 7.97 11.89 20.528 26.719 20.528 8.976 0 30.229-7.174 30.229-16.195 0-7.444-15.718-17.955-35.895-17.955" fill="#FBF4EB"/><path d="M158.427 23.437c-.047 0-.084-.037-.1-.147.874-1.3 2.118-1.542 3.152-1.769a.474.474 0 0 1 .211-.041c.085 0 .17.012.255.012a.439.439 0 0 0 .257-.068h.512c.275.241.63.399.79.76.043.096.095.127.149.127.124 0 1.391-.664 1.792-.664.252 0 .475.12.687.369.368.431 1.06.77 1.06.908 0 .031-.029.127-.123.127-.095 0-.818-.318-1.1-.592-.18-.177-.379-.284-.588-.284a.695.695 0 0 0-.373.116c-.441.277-1.082.225-1.34.816-.023.053-.074.067-.132.067-.065 0-.141-.018-.203-.022-.24.153-.546.192-.742.422-.062.072-.216.086-.216.19 0 .158.185.144.19.144l.087-.002c.018 0 .035 0 .052.003.103.062.348-.033.348.146a.411.411 0 0 1-.03.136c-.19.162-.384.265-.59.265a.742.742 0 0 1-.443-.161c-.046-.152-.248-.166-.287-.324a.874.874 0 0 1-.013-.145c0-.257.13-.454.379-.562.433-.19.734-.59 1.208-.697-.242-.568-.654-.754-1.13-.754-.1 0-2.236.12-3.557 1.548-.058.039-.115.076-.162.076" fill="#8EADBD"/><path d="M176.446 108.725c-.985.282-2.195 1.482-3.645 1.555.022-.266.155-.437.378-.52 1.314-.5 2.717-1.398 3.064-1.398.067 0 .134.017.203.056v.307z" fill="#8FAEBE"/><path d="M162.202 21.424a.428.428 0 0 1-.333.138c-.128 0-.261-.035-.39-.04a.3.3 0 0 0 .005-.098h.718z" fill="#BCCED7"/><path d="M44.707 37.996c-.134 0-.229-.088-.267-.307.62-1.335.62-1.29.62-1.41 0-.129-.093-.214-.315-.277a2.708 2.708 0 0 1-2.036-2.363c0-.995.98-1.33 1.182-1.33.507 0 1.411.512 1.558.96.102.31.3.593.3.933 0 .285-.119.384-.119.516 0 .24.318.442.633.442.6 0 1.215-.659 1.659-.957 1.624-1.09 1.753-2.082 2.13-2.082.112 0 .345.18.345.448 0 .539-2.305 3.146-4.42 3.475-.302.047-.53 1.851-1.01 1.877a.616.616 0 0 1-.26.075" fill="#88A9BA"/><path d="M44.44 37.69c.123.176.3.23.499.23h.027c-.249.97-2.382 3.155-5.337 3.155-.872 0-1.215-.251-1.38-.251-.103 0-.172.061-.246.183-.743 1.222-2.847 2.316-2.954 2.316-.119 0-.142-.105-.212-.17a.315.315 0 0 1-.127.04c-.054 0-.09-.038-.09-.147 1.138-.382 2.283-1.78 2.63-1.78.077 0 .096.02.163.02s.135-.023.135-.084c0-.1-.13-.139-.13-.267 0-.184.232-.229.232-.471 0-.41-.99-.78-.99-2.334 0-.357 0-1.276 1.076-1.276.998 0 1.415 1.1 1.415 1.675 0 .836-.517 1.333-.517 1.572 0 .123.136.165.441.238a.643.643 0 0 0 .149.016c.146 0 .3-.035.447-.035.174 0 .335.049.457.263.008.013.048.02.081.02.023 0 .043-.003.047-.01.325-.563.975-.377 1.434-.625.484-.262 1.073-.341 1.434-.818a.224.224 0 0 0 .092.023c.121 0 .141-.157.22-.223l1.004-1.26" fill="#89A9BA"/><path d="M160.25 39.877h-.049a.228.228 0 0 1-.128-.029c.113-.733 1.773-2.311 3.042-3.597.238-.241.347-.632.761-.665.098-.008.204-.071.302-.071.154 0 .242.19.242.313a.48.48 0 0 1-.16.33c-.275.275-.54.568-.853.794-1.21.872-2.431 2.669-3.047 2.943a.261.261 0 0 0-.11-.018" fill="#8AAABB"/><path d="M42.51 49.604c-.312.2-.509.544-.865.692-.106.044-.212.128-.318.128-.153 0-.28-.212-.28-.362 0-.23-.18.125 3.121-3.523a.274.274 0 0 1 .192-.082.41.41 0 0 1 .205.067.31.31 0 0 1 .064.184c0 .255-.634.9-1.674 2.314-.098.134-.28.12-.341.273a.512.512 0 0 1-.104.309" fill="#89AABA"/><path d="M145.51 102.93c-.084 0-.16-.057-.225-.145-4.04-1.241-2.763-.826-4.31-1.49-.128-.054-.188-.141-.188-.25 0-.08.036-.27.202-.27.04 0 3.971 1.149 4.813 1.512a.44.44 0 0 1 .063.216c0 .161-.185.427-.355.427" fill="#8BABBB"/><path d="M80.668 105.004c-.122 0-.239.064-.362.064a.306.306 0 0 1-.19-.065c-3.474-.283-3.804-.188-3.804-.702 0-.175.237-.206.3-.206.183 0 .2.082.495.082.275 0 .451-.063.86-.063.676 0 1.347.13 2.023.13.302 0 .422-.023.489-.023.12 0 .23.044.342.094.176.08.195.22.195.498 0 .135-.139.198-.251.198-.042 0-.05-.007-.097-.007" fill="#8AAABA"/><path d="m173.495 68.965-.21-.002h-.034a6.884 6.884 0 0 0-.84-.048c-1.05 0-2.7.238-3.023.238-.128 0-.472-.052-.472-.31 0-.195.175-.252.37-.276.863-.107 2.208-.345 2.998-.345.424 0 .856.057 1.287.057l.119-.001c.207 0 .286.27.286.373 0 .154-.174.314-.481.314" fill="#8AAABB"/><path d="M111.842 87.402c-.992-.065-1.956-.295-2.902-.583-.212-.064-.43-.024-.633-.122-.115-.056-.273-.069-.273-.207 0-.096.092-.295.272-.295.02 0 .042.003.063.01.395.116.81.05 1.199.152.787.207 1.58.365 2.385.365.514 0 .749-.058.863-.058.242 0 .22.172.267.328.013.041.02.07.02.092 0 .066-.067.071-.27.175-.324.166-.658.107-.991.143M113.92 45.612c-.115-.079-.282-.13-.282-.274 0-.228 3.743-2.978 4.286-2.978.124 0 .159.175.159.229 0 .115-.08.219-.24.317-1.874 1.146-2.926 2.144-3.923 2.706" fill="#8CABBC"/><path d="M107.577 72.384v.045c-.24.336-2.782 3.277-3.068 3.277-.116 0-.294-.107-.294-.242 0-.464.86-1.161 2.855-3.158.088-.089.18-.154.293-.154.224 0 .214.155.214.232" fill="#8BABBB"/><path d="M165.774 62.892a.53.53 0 0 1-.006.073c-.474.776-1.37 1.974-1.449 2.078-.276.365-.351.844-.707 1.164-.11.098-.2.253-.33.253-.08 0-.274-.093-.274-.331 0-.42 2.114-3.404 2.546-3.404.22 0 .22.11.22.167" fill="#8BAABB"/><path d="M79.515 89.956c0 .075-.081.148-.117.219-.434.38-3.127 2.561-3.518 2.561-.155 0-.254-.193-.254-.32 0-.262.215-.344 1.218-1.004.075-.107.21-.126.305-.206.648-.445 1.295-.89 1.942-1.337a.477.477 0 0 1 .218-.063c.12 0 .206.08.206.15" fill="#8CACBC"/><path d="M18.255 94.965c0-.04.007-.08.019-.124.035-.922.62-1.578 1.241-3.241.06-.159.088-.34.241-.435.055-.034.068-.174.138-.174.024 0 .055.016.096.057.06.06.212.025.212.127 0 .039-.014.035-.014.127v.071c0 .09-.01.174-.121.182-.154.012-.198.05-.198.1 0 .066.08.154.085.23.003.049.007.104.007.158 0 .091-.011.18-.056.24-.713.947-.824 2.994-1.348 2.994a.299.299 0 0 1-.301-.312M169.464 76.238c.543.085.957.384 1.366.681 1.367.996 1.414 1.105 1.414 1.29 0 .127-.11.43-.296.43-.11 0-.22-.092-.326-.149-.253-.134-.552-.236-.552-.594 0-.012 0-.024.002-.036-.568-.06-.818-.63-1.31-.813-.326-.122-.58-.407-.58-.561 0-.214.234-.238.282-.248M109.104 58.735c.542.012.937.232 1.356.356 1.998.588 2.487.382 2.487.84 0 .063-.012.348-.392.348-.247 0-3.733-.937-3.733-1.283 0-.023.002-.254.282-.26" fill="#8BABBB"/><path d="M139.943 72.74c0-.027.006-.055.02-.085 3.126-2.472 3.122-2.7 3.22-2.7.062 0 .226.102.226.233 0 .362-2.653 2.877-3.154 2.877-.061 0-.125-.025-.191-.094-.055-.073-.12-.142-.12-.232" fill="#8DACBC"/><path d="M171.208 59.95c0-.156.007-.313.022-.474a.923.923 0 0 1-.032-.25c0-.287.101-.587.101-.894 0-.275-.07-.35-.07-.43 0-.131.14-.24.272-.24.228 0 .33.452.33.836 0 .155-.01.31-.01.463 0 .107.004.136.004.37 0 .2-.004.398-.004.596 0 .994.14 1.121.14 1.304 0 .353-.127.515-.334.515-.073 0-.265-.006-.303-.36-.05-.471-.116-.94-.116-1.437M150.769 21.823c.156.01.296-.003.296.193 0 .161-.126.266-.26.336-.465.243-.929.491-1.41.696-1.229.524-1.36.844-1.77.844-.218 0-.264-.216-.264-.252 0-.091.081-.144.161-.203.88-.646.648-.528 3.247-1.614" fill="#8CACBC"/><path d="M30.707 36.555c.082 0 .143.03.196.158-.031.04-.062.1-.11.137-1.45 1.096-2.449 2.674-2.878 2.674-.09 0-.254-.068-.254-.22 0-.118.096-.243.153-.306 2.296-2.556 2.627-2.443 2.893-2.443" fill="#8EADBD"/><path d="M79.28 117.083a.346.346 0 0 1-.084.011c-.088 0-.15-.04-.15-.1v-.01c0-.082-.03-.171-.03-.255 0-.074.023-.143.107-.2 2.282-1.57 2.805-1.877 3.137-1.877.25 0 .268.244.268.252 0 .079-2.15 1.39-2.96 2.047-.087.072-.212.099-.287.132" fill="#8BABBB"/><path d="M142.646 87.256c.048 0 .061.099.069.151-.025.505-3.198 2.32-3.662 2.32-.15 0-.188-.161-.188-.2 0-.413 1.56-.841 3.275-2.09.154-.112.317-.01.452-.149.022-.023.04-.032.054-.032" fill="#8DACBC"/><path d="M19.758 83.908c.177 0 .294.092.294.252 0 .29-.416.483-.638.483-.193 0-.262-.111-.36-.111-.175 0 .05.349-.598.444-.564.082-1.128.153-1.698.153-.189 0-.254-.006-.313-.006h-.05c-.113 0-.225-.01-.225-.176 0-.206.113-.28.315-.303.467-.055.93-.162 1.398-.177.949-.03 1.48-.559 1.875-.559" fill="#8CABBC"/><path d="M145.477 38.503c0-.05.01-.103.028-.16 3.613-.612 3.144-.56 3.252-.56.252 0 .372.229.372.37 0 .171-.213.262-.377.268-.808.029-1.576.39-2.387.39-.29 0-.465-.046-.49-.046-.052 0-.115.048-.172.07-.149-.081-.226-.191-.226-.332" fill="#8DACBC"/><path d="M112.786 97.88c-.043.153-.056.297-.12.41-1.447 2.535-1.513 2.647-1.758 2.647-.127 0-.328-.115-.328-.308 0-.059-.108-.147 1.489-2.274.138-.184.203-.686.488-.686.115 0 .21.062.229.21" fill="#8AAABB"/><path d="M154.002 32.92c0-.076.043-.144.162-.164.563.222 1.352 3.784 1.352 3.882 0 .25-.236.283-.279.283-.072 0-.276.21-1.017-3.399-.083-.406-.218-.458-.218-.603" fill="#8FADBD"/><path d="M83.591 24.61a.417.417 0 0 0 .116-.016c.555.005 1.05.214 1.534.454.13.064.207.155.207.274 0 .068-.045.276-.204.276-.075 0-.156-.044-.222-.076-.684-.336-2.468-.608-2.657-.788-.178-.17-.594-.232-.594-.47 0-.087.073-.264.208-.264.163 0 .364.224.537.282.258.085.52.155.78.232.094.056.19.096.295.096" fill="#8DADBD"/><path d="M51.895 67.141c0-.122.089-.22.143-.328.578.055 1.135.113 1.66.45.263.167.695.05.996.279.086.116.18.233.18.35 0 .082-.047.165-.179.248-.74-.02-1.41-.292-2.048-.624-.24-.125-.57.042-.728-.263a.282.282 0 0 1-.024-.112" fill="#8CACBC"/><path d="M48.963 80.85c.86-.997.928-1.126 1.136-1.126.123 0 .255.104.255.21 0 .194-.634.67-.927 1.065-.202.273-.897 1.662-1.278 1.662a.228.228 0 0 1-.216-.23c0-.442.51-.85.721-1.17.243-.031.2-.278.309-.41" fill="#8DACBC"/><path d="M133.07 53.687c.116 0 .07.158.125.219-.538.868-1.372 1.462-2.046 2.204-.098.108-.224.195-.351.195-.113 0-.264-.093-.264-.221 0-.117.113-.236.17-.34.21-.383.339-.446 1.791-1.627.158-.075.338-.12.395-.32l.107-.095a.227.227 0 0 1 .072-.015" fill="#8BABBB"/><path d="M19.188 104.938c-.038.232-.154.367-.32.367-.215 0-1.016-.48-2.31-.48h-.028c-.24 0-.314-.173-.314-.335 0-.16.052-.226.144-.226.158 0 .231.125.473.125.225 0 .447-.109.679-.109.096 0 .195.02.296.073.62.329 1.362.106 1.38.585" fill="#8DACBC"/><path d="M76.94 72.074c.118 0 .222.11.363.144-2.693 2.963-1.264 1.379-2.185 2.262a.311.311 0 0 1-.205.092c-.137 0-.234-.144-.234-.257 0-.08.04-.158.112-.228 2.148-2.099 2.033-2.013 2.15-2.013" fill="#8DADBD"/><path d="M140.093 67.626a.374.374 0 0 1-.02.119.21.21 0 0 1-.173.084c-.027 0-1.653-.382-2.538-.99-.082-.057-.19-.102-.232-.181-.046-.085-.197-.146-.197-.248 0-.075.105-.194.209-.194.363 0-.746-.087 2.823 1.113.075.09.128.186.128.297" fill="#90AFBE"/><path d="M145.574 45.228c.13 0 .262.006.399.02a.169.169 0 0 0 .079.017c.093 0 .22-.042.355-.042.074 0 .152.013.227.052.097.05.266-.004.266.177 0 .169-.154.222-.277.238-.81.102-1.171.121-1.651.121-1.376 0-1.47.008-1.47-.209 0-.132.11-.19.238-.195.591-.022 1.17-.179 1.834-.179" fill="#8EADBD"/><path d="M136.176 94.756c0 .09-.028.191-.047.299-.905-.22-1.78-.52-2.704-.6-.134-.01-.369-.057-.369-.236 0-.196.233-.238.333-.238a.46.46 0 0 1 .089.009c.964.195 2.698.209 2.698.766" fill="#8DADBD"/><path d="M82.49 58.952c.052 0 .113.012.188.038 2.317.287 2.24.6 2.24.645 0 .158-.174.371-.395.371a.316.316 0 0 1-.118-.022c-.543-.218-1.194-.12-1.654-.57a.178.178 0 0 0-.129-.052c-.11 0-.212.092-.341.092-.096 0-.175-.07-.175-.12 0-.054.067-.102.095-.154.066-.122.133-.228.29-.228" fill="#8CACBC"/><path d="M45.683 101.545c-.05-.034-.198-.088-.198-.247a.22.22 0 0 1 .093-.176c.411-.312 1.757-1.583 2.141-1.583.113 0 .196.115.196.192 0 .069-.056.122-.115.169-2.266 1.795-1.983 1.572-2.117 1.645M44.756 92.218c.038 0 .079-.046.12-.086 1.092.201 1.304.188 1.304.441 0 .138-.066.263-.296.263-1.197 0-1.38-.385-2.077-.402-.225-.005-.238-.151-.238-.189 0-.1.088-.167.163-.167.026 0 .051.011.128.011.172 0 .346-.066.517-.066.101 0 .2.023.298.098.025.072.052.097.08.097" fill="#92B0BF"/><path d="M39.453 60.783c-.09 0-.155.01-.205.01a.166.166 0 0 1-.073-.014c-.178-.087-.512.034-.512-.228 0-.246.286-.255.502-.29.868-.142.994-.235 1.237-.235.25 0 .504.02.504.353-.001.203-.129.178-1.453.404" fill="#8DACBC"/><path d="M86.39 43.219c.1 0 .135.047.135.119 0 .06-.025.14-.053.22-1.324 1.407-1.783 1.504-1.838 1.504-.133 0-.196-.173-.196-.231 0-.11.12-.166.233-.252.6-.452 1.255-1.248 1.578-1.34a.612.612 0 0 1 .14-.02" fill="#93B0C0"/><path d="M168.594 43.19c0-.047.012-.096.037-.149.297-.44.834-.6 1.174-1a.436.436 0 0 1 .294-.125c.22 0 .24.225.24.28 0 .357-.321.478-1.248 1.063-.116.036-.152.216-.288.216a.212.212 0 0 1-.073-.015c-.082-.081-.136-.17-.136-.27" fill="#8EADBD"/><path d="M168.506 43.173c.172 0 .146.214.255.282.097-.062.148-.201.28-.201.016 0 .032.001.05.005-.114.45-1.276.94-1.795 1.73a.882.882 0 0 1-.054-.289c0-.442.433-.622.608-.923.138-.239.403-.403.612-.6a.255.255 0 0 1 .044-.004" fill="#97B4C2"/><path d="m109.525 111.95-.083.003c-.069 0-.128-.015-.128-.124 0-.013 0-.026.002-.042.069-.163.159-.293.363-.293h.1c.795 0 .897-.12 1.066-.12.082 0 .272.037.272.238 0 .15-.167.202-.292.24-.292.085-.586.163-.89.163-.1 0-.202-.009-.305-.029-.024-.03-.063-.035-.105-.035" fill="#8FAEBD"/><path d="M34.62 43.047c.048.084.131.097.216.107-.038.22-.113.375-.364.47-.629.24-1.188.642-1.37.642-.115 0-.157-.111-.157-.15 0-.192 1.36-.849 1.675-1.07" fill="#98B4C2"/><path d="M163.335 23.37c0 .378-.298.508-.619.617a.451.451 0 0 1-.222.063c-.14 0-.387-.116-.387-.287 0-.05.025-.091.084-.11.361-.112.593-.517 1-.517.045 0 .092.005.142.016l-.006.106c.006.04.008.076.008.112" fill="#FCFDFD"/><path d="M17.47 120.79c0 .071-.029.142-.068.212-.788.6-.75.594-.824.594-.087 0-.192-.115-.192-.206 0-.08.066-.146.144-.2.288-.194.527-.466.874-.57a.263.263 0 0 1 .066.17" fill="#97B4C2"/><path d="M163.022 24.178c0-.216-.225-.096-.306-.19.264-.194.511-.4.611-.73.2.072.279.165.279.277 0 .096-.059.207-.15.333-.118.162-.287.22-.434.323v-.013" fill="#A0BAC8"/><path d="m17.403 121.002.001-.383c.244-.114.474-.301.76-.301.106 0 .22.026.345.091-.32.363-.872.187-1.106.593" fill="#98B4C3"/><path d="m86.472 43.557.001-.044c0-.144-.038-.261-.224-.274.098-.09.208-.17.293-.272.086-.102.192-.177.291-.177.146 0 .213.155.213.226 0 .132-.127.255-.261.304-.141.052-.2.172-.313.237" fill="#A0BAC7"/><path d="M86.15 89.624c.039 0 .077.012.113.042-.23.313-.623.307-.93.472a.118.118 0 0 1-.055.015c-.065 0-.11-.068-.11-.123 0-.066.065-.107.105-.114.26-.05.463-.262.738-.262h.023a.273.273 0 0 1 .116-.03" fill="#F6B273"/><path d="M158.09 23.836c0-.19.127-.368.236-.546.043.063.1.075.16.075.033 0 .068-.004.103-.004-.12.257-.293.49-.378.78a.473.473 0 0 1-.122-.305" fill="#ABC2CE"/><path d="M145.567 103.016c-.1 0-.196-.062-.282-.231a.602.602 0 0 0 .212.049c.278 0 .192-.377.305-.548.16.078.254.177.254.291 0 .188-.322.439-.489.439" fill="#99B5C3"/><path d="M109.099 111.504c.165 0 .095.24.217.283l.314.199c-.076.002-.15.013-.226.013a.432.432 0 0 1-.216-.05c-.111-.061-.302-.034-.302-.216 0-.211.174-.229.213-.229" fill="#A4BDCA"/><path d="M86.565 89.353c.351-.13.595-.466 1.103-.582a3.91 3.91 0 0 1-.987.698c-.064-.013-.102-.052-.116-.116" fill="#F8C799"/><path d="M145.176 38.591c0-.145.215-.172.33-.248l.197.493a.814.814 0 0 1-.183.022c-.26 0-.344-.17-.344-.267" fill="#A1BBC8"/><path d="M79.69 89.863c0 .14-.17.228-.292.312a.469.469 0 0 0 .037-.162c0-.126-.104-.146-.23-.146l-.114.003c.037-.032.074-.092.111-.092h.003c.109 0 .23-.108.332-.108.112 0 .152.144.152.193" fill="#AEC4D0"/><path d="M86.565 89.353c.04.038.078.077.116.116a.57.57 0 0 1-.418.197l-.229-.012.531-.301" fill="#F7B87D"/><path d="M48.963 80.85a.165.165 0 0 0-.015.077c0 .076.027.173.027.25 0 .073-.025.127-.122.127a.644.644 0 0 1-.199-.042c.077-.157.137-.326.309-.412" fill="#A0BAC8"/><path d="M54.978 67.89c0 .087-.094.157-.282.25a.318.318 0 0 0 .097-.227c0-.124-.066-.248-.099-.372.19.16.284.262.284.35" fill="#D0DDE3"/><path d="M44.876 92.132a.091.091 0 0 0-.008.038c0 .068.056.158.056.221 0 .048-.03.08-.137.08-.134 0-.17-.108-.17-.176 0-.054.018-.115.058-.174l.2.011" fill="#DFE7EC"/><path d="M51.733 67.049c0-.106.212-.155.305-.236a.46.46 0 0 1 .004.067c0 .135-.057.255-.122.373-.137-.089-.187-.153-.187-.204" fill="#99B5C3"/><path d="M83.488 24.5c.079 0 .154.018.218.093-.07.12-.126.164-.174.164-.094 0-.156-.171-.237-.243.064-.002.13-.014.193-.014" fill="#9FB9C7"/><path d="M140.232 67.519c0 .061-.05.136-.159.226a.695.695 0 0 1-.108-.416c.169.042.267.103.267.19" fill="#B3C8D2"/><path d="M132.89 53.797a.585.585 0 0 1 .005.076c0 .231-.177.244-.364.244h-.036l.395-.32" fill="#A4BDC9"/><path d="M44.363 46.342c.065 0 .132.06.202.181l-.397.016c.062-.13.127-.197.195-.197" fill="#B1C6D1"/><path d="M168.761 43.455c-.163-.025-.175-.211-.3-.278.018-.094.085-.126.17-.136l.13.414" fill="#EFF3F5"/><path d="M43.436 38.95c-.047.094-.011.315-.117.315-.04 0-.101-.032-.195-.114l.312-.2" fill="#B3C8D2"/><path d="M84.891 90.118c.045 0 .093.029.148.124-.002 0-.117.05-.22.05a.1.1 0 0 1-.102-.07c0-.02.11-.104.174-.104" fill="#F6B06F"/><path d="M133.27 53.733c0 .058-.048.117-.075.173l-.198-.205c.04-.054.091-.092.143-.092.047 0 .13.049.13.124" fill="#A4BDC9"/><path d="M160.213 39.97c-.053 0-.1-.037-.14-.121.058-.02.12-.059.174-.059.043 0 .083.025.113.105-.053.048-.102.075-.147.075" fill="#B1C6D1"/><path d="M42.699 49.428c0 .08-.12.119-.189.175a.75.75 0 0 0 .001-.04v-.055c0-.083.008-.163.103-.214.06.056.085.1.085.134" fill="#ABC2CE"/><path d="M161.699 24.01c0-.012 0-.025.002-.04.094.102.288.115.288.3a.28.28 0 0 1 0 .025c-.117-.078-.29-.104-.29-.285" fill="#DEE7EC"/><path d="M139.865 72.828c0-.047.032-.105.097-.173l.101.316c-.131-.027-.198-.074-.198-.143" fill="#A8C0CC"/><path d="M77.115 91.207h.034c-.06.132-.167.191-.306.206.004-.198.135-.206.272-.206" fill="#C4D4DC"/><path d="M45.15 34.893a.757.757 0 0 1 .027.18c0 .123-.062.163-.175.163-1.184 0-1.66-1.264-1.66-1.64 0-.506.452-.612.666-.612.223 0 .443.098.641.291.451.439.47.992.501 1.618" fill="#FEFEFE"/><path d="M38.508 39.07c0 .077-.04.13-.111.166-.132.147-.124.47-.326.47-.398 0-.87-1.126-.87-1.699 0-.553.589-.597.68-.597.403 0 .652.523.652 1.03 0 .202-.024.407-.026.609v.02" fill="#FDFDFE"/><path d="M38.564 39.253c-.049 0-.104-.018-.153-.018l-.014.001c.01-.078.03-.15.11-.187.066.014.17.011.17.087 0 .017-.01.117-.113.117" fill="#C4D4DC"/><path d="M80.471 104.577c0 .034-.05.07-.087.117-.063-.057-.108-.063-.108-.127 0-.054.041-.09.095-.09.06 0 .1.076.1.1" fill="#ADC4CF"/><path d="M161.69 129.219c.175-.329.395-.617.72-.814.078.046.11.118.112.208-.177.2-.487.285-.525.606h-.307z" fill="#659A6C"/><path d="M49.942 109.054c0-.063-.088-.149-.088-.212 0-.015.005-.028.017-.04.076-.732.04-1.503.708-2.104.005.04 1.61 16.132 1.61 17.027 0 .703-.065.844-.065 1.188 0 .477.112.959.112 1.482 0 .13-.007.263-.024.398-.31-.342-2.735-8.738-2.735-15.717 0-.265.14-.423.303-.59a.432.432 0 0 1-.167-.312c0-.22.295-.202.295-.477 0-.154-.115-.308-.149-.464a.35.35 0 0 1 .026-.098c.12-.01.157-.04.157-.081" fill="#F5A55C"/><path d="M160.144 121.966a.483.483 0 0 0-.019-.132.116.116 0 0 1 .004-.087c.11-.232.15-.486.227-.728l-.001.001c.248-.423.425-.873.499-1.36.185-.888.711-1.623 1.082-2.428.022-.048.108-.067.164-.1.034.02.08.049.11.049.01 0 .02-.003.026-.01.02-.02.027-.031.027-.038 0-.022-.076.004-.085-.03a.568.568 0 0 1-.023-.14c0-.048.012-.095.05-.14.094-.294.146-.543 1.94-2.26.234-.06.395-.21.51-.416l-.001.001a.192.192 0 0 0 .079.022c.102 0 .056-.175.136-.203.09-.136.183-.267.342-.267.04 0 .086.009.137.028a.732.732 0 0 1 .04 0c.204 0 .324.084.324.288a.593.593 0 0 1-.005.074c-4.793 7.266-5.116 11.021-5.967 14.705-.135-.02-.286.029-.397-.093a.2.2 0 0 1-.021-.087c0-.115.099-.215.099-.33a.195.195 0 0 0-.007-.054c-.08-.105-.102-.238-.172-.348a.127.127 0 0 0 .001-.02c0-.087-.072-.17-.072-.257 0-.035.012-.07.045-.109a7.122 7.122 0 0 1-.021-.564c0-.61.067-1.218.127-1.825l-.011.002c.06-.226.15-.445.15-.68a.852.852 0 0 0-.01-.132c.06-.547.169-1.08.498-1.54a.262.262 0 0 1-.05-.148c0-.186.245-.351.245-.644M173.615 120.019a.396.396 0 0 1-.045.166c-8.725 3.793-10.073 7.212-11.265 7.888a.289.289 0 0 0-.094-.02c-.132 0-.041.194-.108.25l-.4.41a.55.55 0 0 1-.054.002c-.12 0-.188-.05-.188-.167 0-.023.003-.049.008-.077l.196-.39c.132-.061.16-.198.22-.311l-.007.008c.127-.254.315-.473.414-.742.732-1.037 3.545-4.881 5.834-6.026a.63.63 0 0 0 .328-.181c1.937-1.2 4.022-1.31 4.248-1.31.32 0 .635.073.876.373a.24.24 0 0 1 .037.127" fill="#498851"/><path d="M49.875 122.355c.016.02.023.044.023.069v.01c.036.19.025.399.213.528a.372.372 0 0 1 .09.408c.022.368 0 .748.307 1.032.015.082-.01.178.083.231a.11.11 0 0 1 .015.056c0 .058-.041.114-.041.172 0 .017.003.035.012.052.115.116.246.222.251.406-.053.19-.148.276-.279.276a.522.522 0 0 1-.231-.068c-1.712-5.227-7.878-11.162-7.878-11.727 0-.227.242-.367.522-.367.51 0 1.342.383 1.513.78.206.478.145-.549 2.03 2 .18.446.36.89.828 1.12l.094.107c.08.093.1.23.218.297.42.536.82 1.081 1.015 1.747a.276.276 0 0 0-.026.11c0 .195.298.22.32.402a.129.129 0 0 1 .023.073v.004c.073.256.25.472.287.742l.114.198c.098.162.03.388.203.52.202.237.034.606.294.822" fill="#F5A55C"/><path d="M142.015 114.155c.886 2.606.844 3.701.844 4.109 0 .702-.06 1.329-.06 1.684 0 .321.023.642.023.965 0 .28-.018.563-.086.846-.178.732-.206 1.5-.36 2.24-.09.435-.318.842-.318 1.294 0 .213.044.302.044.355 0 .154-.278.204-.316.204-.461 0-.946-9.341-.946-9.38 0-2.012.328-2.294.761-2.409.136.043.296-.028.414.092" fill="#F5A65C"/><path d="M53.068 117.743c0 .198-.053.452-.093.645.054.201.075.402.075.6 0 .567-.185 1.27-.185 1.635 0 .06.01.122.01.183a.365.365 0 0 1-.016.114c-.1.41.064 1.226-.422 1.226a.723.723 0 0 1-.071-.004c-.24-1.893-1.516-15.578-1.522-15.618 1.915 1.882 2.205 8.066 2.205 8.26 0 .202-.022.403-.084.604-.038.026-.128.032-.128.042 0 .006.19.167.19.495 0 .253-.098.514-.098.765v.043c0 .147-.109.28-.109.43 0 .091.04.188.166.296.06.052.082.157.082.284" fill="#F5A55C"/><path d="M137.624 117.811c0 .087.057.16.091.24.455.595.691 1.301 1.004 1.969.015.187.115.338.21.49l.124.282v.01c0 .494.28.91.383 1.376.009.039.029.05.054.05.03 0 .065-.016.096-.016.024 0 .044.01.055.041l.035.297c.182.543.185 1.137.481 1.646.018.03.03.062.036.096-.003.39-.098.546-.382.546-.069 0-.15-.009-.242-.026-.434-.844-1.094-1.552-1.471-2.425-.173-.4-.535-.662-.693-1.062-.168-.134-.064-.423-.295-.52-1.632-2.944-1.195-3.04-1.503-4.025a.52.52 0 0 1-.026-.156c0-.341.347-.499.503-.499.233 0 .673.21 1.553 1.614a.222.222 0 0 0-.013.072" fill="#F5A65C"/><path d="M164.552 118.73v.015c-.204.125-.185.338-.213.533-.428.736-.856 1.472-1.013 2.326-.077.182-.154.365-.232.546-.14.004-.175.052-.175.115 0 .065.038.147.038.212 0 .033-.01.06-.038.081-1.117 2.771-1.592 2.919-1.962 4.302-.156.097-.247.145-.315.145-.07 0-.116-.049-.185-.148.983-6.176 5.02-12.09 5.423-12.514.011.109.017.215.017.32 0 1.267-.778 2.61-.923 3.08-.137.051-.106.173-.117.277-.1.049-.084.151-.106.236-.097.146-.199.288-.199.473" fill="#498851"/><path d="M48.42 123.062c0-.061-.136-.046-.189-.077-.452-.239-.748-.67-.97-1.07-.253-.455-3.1-2.98-4.03-4.582-.013-.124-.14-.138-.204-.211-.472-.821-.884-1.658-.884-2.648 0-.106.004-.213.014-.322.706.316 7.613 9.175 7.613 10.725 0 .048-.017.1-.06.153-.021.022-.04.033-.058.033-.022 0-.041-.016-.058-.049-.313-.468-.65-.921-.865-1.45-.07-.172-.321-.19-.387-.384.056-.057.078-.093.078-.118" fill="#F5A65C"/><path d="M162.586 128.62a.3.3 0 0 1-.064-.007c-.084-.044-.106-.122-.113-.208 1.112-.978 2.002-2.17 3.144-3.129 3.74-3.137 7.73-4.67 7.808-4.67h.001a.201.201 0 0 1 .06-.011c.05 0 .068.033.068.084 0 .014-.001.03-.004.046l.003-.004c-.106.17-.31.235-.425.396a.174.174 0 0 1-.07.014h-.016c-.119.09-.265.153-.3.32l.002-.007c-.182.202-.507.235-.614.524l.004-.007a7.36 7.36 0 0 0-1.26 1.1c-.068.037-.135.076-.202.114-.18.174-.527.093-.62.403-.442.428-1.04.603-1.537.945-6.498 4.468-5.67 4.096-5.865 4.096" fill="#498851"/><path d="M136.456 123.188c.286 0 .437.169.672.59.07-.03.13-.044.183-.044.232 0 .317.251.503.387.744.542.888 1.44 1.41 2.101.005.008.007.019.007.032 0 .024-.006.056-.006.093a.574.574 0 0 0-.209-.042c-.23 0-.385.17-.515.35-.446-.845-1.442-1.281-2.34-2.438-.078-.113-.217-.13-.32-.204a.777.777 0 0 1-.17-.429c.037-.122.097-.225.22-.277.242-.075.421-.119.565-.119" fill="#F5A65D"/><path d="M139.569 124.811h.02c.345 0 .517-.209.604-.52.139.39.237.784.237 1.191 0 .145-.012.292-.04.44-.029.157-.004.38-.236.38-.14 0-.152-.083-.152-.177v-.059c0-.13-.018-.147-.433-1.255" fill="#F6AC68"/><path d="M52.366 122.142c.317-.15.383-.427.383-.719 0-.099-.007-.163-.007-.23 0-.105.018-.197.117-.273-.001.962-.024 1.923-.195 2.874a.43.43 0 0 1-.04.002c-.108 0-.123-.058-.123-.125 0-.028.003-.056.003-.083 0-.042-.006-.08-.036-.103l-.102-1.343" fill="#F6AD6A"/><path d="M53.091 118.04c0 .134-.016.247-.116.348a1.85 1.85 0 0 1-.031-.366c0-.148.01-.317.01-.448 0-.146-.025-.192-.062-.192-.063 0-.158.13-.223.142a.98.98 0 0 1-.021-.203c0-.424.26-.805.26-1.233v-.02c0-.093.045-.187.045-.265 0-.077-.044-.138-.218-.167-.065-.01-.09-.066-.09-.131 0-.122.085-.256.145-.256.066 0 .109.133.176.14.072.142.14.261.14.444 0 .09-.034.372-.034 1.077 0 .508.019 1.027.019 1.13" fill="#F5AB66"/><path d="M163.326 121.604a.828.828 0 0 1-.06-.3c0-.507.627-1.168.815-2 .01-.048.034-.063.064-.063.05 0 .115.04.17.04a.083.083 0 0 0 .025-.003c-.294.795-.587 1.59-1.014 2.326" fill="#558F5C"/><path d="m52.467 123.484.196.31c.084.222.115.442.115.66 0 .448-.127.89-.18 1.334-.043 0-.087 0-.13.002v-2.306z" fill="#F7B579"/><path d="M137.17 123.437c0 .085-.059.182-.059.27 0 .024.005.048.017.07-.406-.335-.489-.404-.879-.404-.101 0-.223.005-.376.01-.13-.037-.224-.099-.224-.225 0-.025.004-.054.012-.086.155-.1.3-.139.44-.139.336 0 .638.225.95.357.091.038.118.09.118.147" fill="#F6B273"/><path d="M139.642 122.253a.04.04 0 0 0-.022-.006c-.06 0-.155.106-.217.106-.037 0-.062-.038-.062-.158v-.05c0-.27-.358-.38-.358-.935 0-.136.025-.275.07-.419.328.435.403.97.589 1.462" fill="#F6AC68"/><path d="M50.318 125.527c.19-.02.37-.065.51-.208a1.472 1.472 0 0 1 .178.923c-.08.048-.14.141-.239.141a.19.19 0 0 1-.076-.017c-.013-.33-.3-.537-.373-.839" fill="#F6AE6C"/><path d="m159.169 125.859-.002-.166c0-.203.015-.409.155-.584.06.166.127.329.127.491 0 .354-.236.314-.236.627 0 .216.148.212.148.516 0 .256-.137.502-.145.755a1.537 1.537 0 0 1-.125-.645c0-.356.078-.697.078-.994" fill="#609767"/><path d="M160.44 127.25c.106 0 .174.033.174.124a.392.392 0 0 1-.037.147v.035c0 .342-.166.604-.402.835a3.89 3.89 0 0 1-.012-.297c0-.293.043-.574.187-.838a.719.719 0 0 1 .09-.006" fill="#5B9362"/><path d="M47.334 117.334c-.694-.064-.763-.59-.829-1.12.308.35.62.697.83 1.12" fill="#F5AC68"/><path d="M140.158 124.196c-.177-.13-.367-.236-.367-.463 0-.156.065-.195.065-.342 0-.389-.305-.42-.305-.631 0-.07.04-.142.125-.21.314.504.364 1.084.482 1.646" fill="#F6AC68"/><path d="M170.81 123.06c.265-.543.703-.89 1.26-1.099a4.206 4.206 0 0 1-1.26 1.1" fill="#538E5B"/><path d="M49.76 109.234c.08.158.33.3.33.466 0 .088-.07.184-.276.293-.092.05-.123.117-.123.192 0 .096.051.204.089.3-.17-.026-.205-.13-.205-.242 0-.231.142-.804.184-1.01" fill="#F6AD6A"/><path d="M160.853 119.66c.025.112.037.22.037.325 0 .41-.187.753-.536 1.036.052-.496.278-.928.5-1.361" fill="#56905E"/><path d="M50.508 124.402c-.284-.142-.426-.336-.426-.586 0-.133.04-.282.12-.446.154.328.295.66.306 1.032" fill="#F6B374"/><path d="M160.576 127.521a.213.213 0 0 0 .006-.048c0-.138-.17-.132-.233-.217a.76.76 0 0 0 .003-.07v-.066c0-.097.009-.192.105-.263a.249.249 0 0 0 .133.036c.097 0 .194-.044.291-.044a.26.26 0 0 1 .076.01c-.064.258-.142.506-.38.662" fill="#589260"/><path d="M159.856 122.447c0-.221.136-.417.27-.613.13.045.173.103.173.164 0 .097-.105.204-.13.292-.041.147-.227.235-.227.41 0 .018.002.038.007.06a.6.6 0 0 1-.093-.313" fill="#56905E"/><path d="M169.988 123.578a.913.913 0 0 1-.029-.206c0-.154.075-.193.175-.193.105 0 .237.042.341.042.054 0 .101-.011.133-.046-.13.253-.394.299-.62.403" fill="#538E5B"/><path d="M161.287 128.934c0-.174.08-.32.182-.462.045.112.12.196.233.241-.106.143-.151.341-.386.407a.617.617 0 0 1-.03-.186" fill="#538E5A"/><path d="M164.655 114.147c.002.023.002.045.002.067 0 .252-.097.384-.303.384a.753.753 0 0 1-.21-.034c.151-.163.265-.372.511-.417" fill="#599260"/><path d="M48.955 119.981v.015c-.117-.052-.228-.119-.344-.171-.106-.049-.167-.114-.167-.176 0-.065.065-.128.217-.165.086.172.294.275.294.497" fill="#F6AD6A"/><path d="m49.593 125.015.116.015c.235.258.35.567.391.909-.015.015-.03.023-.045.023-.016 0-.03-.008-.046-.024l-.416-.923" fill="#F7B579"/><path d="M159.301 124.952c0-.226.06-.443.15-.653.098.1.134.191.134.276 0 .194-.193.355-.274.535a1.222 1.222 0 0 1-.01-.158" fill="#72A278"/><path d="M50.884 126.72c-.18 0-.174-.205-.193-.354l.315-.124c-.009.032-.024.068-.024.1 0 .082.103.187.103.268 0 .101-.184.11-.2.11" fill="#F9C89C"/><path d="M137.1 120.904a.52.52 0 0 1 .01-.1h.002c.045 0 .088-.106.132-.106.077 0 .115.366.162.626-.173-.1-.306-.223-.306-.42" fill="#F8C493"/><path d="m172.065 121.968.001-.013c0-.061-.07-.149-.07-.21 0-.045.036-.076.157-.076l.064.001c.15 0 .308-.148.462-.226-.103.294-.4.36-.614.524" fill="#538E5B"/><path d="M49.875 122.355a.073.073 0 0 0-.036-.008c-.053 0-.127.033-.172.033-.025 0-.042-.01-.042-.04 0-.048.04-.1.04-.226 0-.183-.088-.345-.088-.519 0-.02.001-.041.004-.063.26.217.155.564.294.823" fill="#F6AE6B"/><path d="M50.01 125.938h.09c.174.19.25.416.3.745-.265-.243-.337-.49-.39-.745" fill="#F7BB83"/><path d="M165.83 113.883c0 .073-.035.15-.123.207a.72.72 0 0 0-.36-.362c.053-.095.118-.128.182-.128.09 0 .302.102.302.283" fill="#599260"/><path d="M49.275 120.68a.911.911 0 0 1-.01.135c-.108-.203-.304-.372-.304-.617 0-.04.005-.082.017-.125.193.166.297.366.297.607" fill="#F6AD6A"/><path d="M163.096 122.207c0 .142-.046.265-.177.352-.006-.032-.006-.068-.021-.095-.046-.086-.152-.157-.152-.253 0-.073.072-.16.112-.16.064 0 .098.151.164.151.02 0 .044-.014.072-.051a.73.73 0 0 1 .002.056" fill="#5B9362"/><path d="M135.52 123.357c0-.094.064-.19.142-.285l.21.311-.2.2c-.11-.074-.151-.15-.151-.226" fill="#F7BB83"/><path d="M159.482 128.955c-.066 0-.117-.065-.14-.252h.012c.075 0 .159-.042.233-.042.062 0 .117.03.153.136-.092.077-.184.158-.258.158" fill="#76A57B"/><path d="M161.878 127.763c0-.32.24-.504.414-.726-.006.32-.206.533-.414.74v-.014z" fill="#538E5A"/><path d="M162.094 117.035c0-.083.02-.16.11-.212.01.009.014.022.014.037 0 .032-.015.073-.015.107 0 .036.017.064.089.064.034 0 .053-.005.066-.005.032 0 .045.022.045.053 0 .116-.124.225-.199.225-.062 0-.092-.072-.104-.17-.003-.034-.006-.067-.006-.1" fill="#8CB491"/><path d="M138.93 120.51c-.16-.067-.284-.15-.284-.286 0-.058.023-.125.074-.204.201.107.2.301.21.49" fill="#F7BB84"/><path d="M49.581 121.533c-.198-.003-.252-.063-.252-.143 0-.092.071-.212.071-.305a.118.118 0 0 0-.02-.072c.17.133.19.325.201.52" fill="#F6AE6B"/><path d="m160.356 121.019.001.084c0 .238-.05.462-.228.645.008-.264.068-.512.227-.73" fill="#56905E"/><path d="M172.677 121.452a.466.466 0 0 1-.057-.19c0-.155.198-.125.358-.131-.004.197-.146.265-.301.32" fill="#538E5B"/><path d="M159.383 128.233c-.148 0-.188-.054-.188-.127 0-.066.033-.15.047-.223.152.023.187.104.187.201 0 .047-.008.098-.015.148h-.031" fill="#71A277"/><path d="M164.977 117.832c0 .08-.017.152-.12.188-.04-.068-.168-.092-.168-.18 0-.038.04-.145.128-.145.051 0 .105.032.157.05l.003.087M164.552 118.745a.333.333 0 0 1-.067-.182c0-.138.14-.22.266-.307-.05.17-.045.361-.199.489" fill="#558F5C"/><path d="M48.231 122.985a.25.25 0 0 1 .149-.058c.125 0 .213.13.332.172-.033.049-.07.064-.107.064-.059 0-.12-.036-.175-.036-.032 0-.062.013-.088.053l-.11-.195" fill="#F8C392"/><path d="M173.064 121.117c.044-.237.258-.29.425-.396-.04.24-.238.313-.425.396" fill="#5A9261"/><path d="M50.11 122.963c-.193-.055-.257-.163-.257-.296 0-.071.018-.15.045-.232l.213.528" fill="#F6AE6B"/><path d="M162.103 128.304a.281.281 0 0 1-.05-.152c0-.171.201-.272.21-.272.043 0 .026.132.042.193l-.202.231" fill="#538E5A"/><path d="M168.368 120.816c.026 0 .055.004.086.013-.013.153-.066.235-.163.235a.354.354 0 0 1-.165-.054c.056-.109.126-.194.242-.194" fill="#56905E"/><path d="M141.816 113.983c.08 0 .147.048.199.172a.431.431 0 0 0-.062-.003c-.044 0-.089.004-.133.004-.08 0-.156-.014-.218-.093a.434.434 0 0 1 .214-.08" fill="#F9C89B"/><path d="M49.77 109.02c0-.082.026-.156.101-.217.002.073.156.187.156.26 0 .043-.052.073-.217.073h-.025a.566.566 0 0 1-.014-.117" fill="#F6AD6A"/><path d="M137.748 117.95c0 .03-.01.064-.033.1-.075-.054-.192-.098-.192-.17 0-.038.031-.083.114-.142.05.068.11.132.11.211" fill="#F8C291"/><path d="M43.027 117.122c.018.012.047.015.08.015l.072-.002c.054 0 .101.008.101.061 0 .03-.014.073-.05.137a.324.324 0 0 1-.203-.211" fill="#FAD5B4"/><path d="M47.646 117.737h-.009c-.193 0-.21-.129-.21-.27v-.027c.142.05.194.164.22.297" fill="#F5AC68"/><path d="M164.806 113.96c.019 0 .04.002.062.007v.047c0 .093-.006.179-.085.179a.292.292 0 0 1-.13-.045c.013-.108.05-.189.153-.189" fill="#599260"/><path d="M161.884 127.77c.003.034.005.066.005.097 0 .12-.034.215-.204.215h-.02c.033-.132.092-.246.219-.311" fill="#538E5A"/><path d="M173.748 120.056c0 .044-.05.087-.178.129a.267.267 0 0 1-.044-.142c0-.05.017-.1.052-.15.099.055.17.11.17.163" fill="#699C70"/><path d="M50.687 124.734c0 .061-.09.119-.11.179-.085-.041-.116-.08-.116-.116 0-.057.072-.11.13-.164.071.036.096.069.096.101" fill="#F6B374"/><path d="M173.669 120.58c0 .061-.11.114-.183.145l-.124-.12c.052-.068.123-.12.19-.12.064 0 .117.058.117.095" fill="#5A9261"/><path d="M135.84 124.013a.599.599 0 0 1 .067-.004c.128 0 .224.052.255.208-.13-.033-.303.004-.321-.204" fill="#F8C290"/><path d="M28.952 52.546s.246-.545.568-.545c.361 0 1.924.53 2.126.985.207.466 1.01 3.652 1.01 3.652l-.491.23 1.036 4.148-1.554.207-.415-1.27v1.53l-1.279.26h-3.208l-.771.18-.285-1.995v2.451l-3.212.32s.466-2.486.596-4.895c.129-2.409.207-4.222.518-4.455.308-.23 2.47-1.554 3.317-1.554.801 0 2.044.75 2.044.75" fill="#AB4A55"/><path d="M29.289 53.116s-.681.464-.681 2.624c0 1.351.189 2.065.189 2.065l-.88.233s-.208-.622-.26-1.244c0 0-.132.486-.132.968 0 .121.013.299.013.385v.014c-.003 0-.013-.123-.013-.123l-1.733.259s-.175-1.46-.998-1.46c-.322 0-1.004.296-1.004.94 0 .593.654 1.609 1.625 1.609a.77.77 0 0 0 .222-.027s.407 1.321.903 1.943c.232.291.331.901.331 1.55 0 .736-.127 1.52-.331 1.946 0 0 1.322 1.555 1.88 1.555.573 0 1.672-1.917 1.672-1.917s-.184-1.082-.184-2.019c0-1.857 1.033-1.56 1.194-3.214.104-1.062.13-2.072.13-2.072l-.363.104s-.44-2.539-.57-3.134c-.13-.597-1.01-.985-1.01-.985" fill="#F6A88A"/><path d="M26.008 65.401S21.44 66.766 20.974 67c-.464.232-6.324 6.736-6.371 6.736 0-.044.491-.596.491-.906 0-.216-.29-.238-.295-.238-.144 0-.197.132-.197.132l.624-6.166s-2.485-.259-3.817-.259c-.289 0-.523.012-.666.042 0 0-1.181 12.93-1.181 13.076 0 .256.027.41.093.456.213.15 1.957.616 2.824.616.763 0 8.965-6.272 10.745-6.272.382 0 .568.276.568.961 0 4.689-1.186 14.823-1.186 14.823s2.901-.932 6.942-3.108c4.04-2.176 7.123-3.523 7.123-3.523s-.57-3.937-.596-5.465c-.025-1.528-.233-3.316-.233-3.316s1.969 1.554 3.316 2.85c1.282 1.232 2.043 2.098 2.42 2.098.428 0 3.073-1.328 3.214-2.073.143-.75.298-4.662.868-7.382.57-2.72 1.137-4.471 1.137-4.471s-2.517-.085-3.812-.085c-.361 0-.628.006-.718.023 0 0-1.362 6.534-1.379 6.534-.045 0-.268-.602-.538-.602-.285 0-.647.39-.647.39s-4.197-8.56-4.444-8.56c-.596 0-4.493 1.306-4.493 1.306l-2.227 1.711-2.531-.927z" fill="#225081"/><path d="M29.995 63.735s-.627 1.688-1.457 2.593l.88 1.89s.984-3.005 1.347-3.601l-.77-.882zM26.712 64.283s1.101 1.63 1.826 2.045l-1.027 1.889s-1.304-2.435-1.59-2.979l.79-.955zM10.302 64.953l5.828.104s-.346 1.583-.362 1.583v-.003c0-.065-3.094-.296-4.86-.296-.537 0-.916.011-.916.011l.31-1.399zM42.137 64.02s2.06-.045 3.718-.045c.829 0 1.557.011 1.877.046l-.492 1.606s-3.496-.147-3.8-.147c-1.11 0-1.588.147-1.588.147l.285-1.606z" fill="#F2F1EC"/><path d="M44.019 63.463c.778.39 2.264.425 2.264.425v.086h-2.489l.225-.51z" fill="#E27C6B"/><path d="M43.794 64.02s.42-.807.42-1.68c0-.15-.012-.303-.042-.454-.2-1.023-.155-2.735-.378-3.157 0 0 .092-.06.215-.06.724 0 .571 1.846 1.139 1.846.334 0 1.122-.164 1.737-.63 1.528-1.158 1.7-2.004 2.253-2.004.113 0 .196.04.196.095 0 .088-.648.997-.648.997s.82-.36 1.451-.36c.358 0 .575.094.575.094s.3.408.3.59c0 .174-.932.553-1.414.921-.378.29-1.868 1.49-2.624 1.713-.643.188-.691 1.566-.691 1.976l.001.114h-2.49z" fill="#F6A88A"/><path d="m36.412 83.486 3.678 19.697c.214.308.287.714.287.8 0 .178-.34.145-.34.347 0 .131.131.645.131.928 0 .26-1.191 10.698-1.191 10.698H34.08s.023-1.9.023-3.718c0-2.666-.041-2.194-.041-3.983 0-1.204.024-2.388.024-2.927 0-.307-.008-.26-.008-.326 0-.244.16-.432.16-.635 0-.325-.47-.017-.47-.37 0-.096.027-.2.027-.433 0-.353-.064-1.002-.388-2.372C30.852 90.389 29.91 89.69 29.91 89.69s-.261 3.096-.261 4.46c0 .579.042.489.042.723 0 .908-.727 3.425-1.231 6.5l-3.186 18.442-5.259-.337s1.192-11.06 1.192-11.656c0-.625.29-.733.29-1.397 0-.375-.182-.297-.182-1.495 0-1.67 1.478-14.992 1.478-14.992s3.232-1.517 7.298-3.434c4.067-1.917 6.32-3.02 6.32-3.02" fill="#88A9BA"/><path fill="#C9E8F1" d="m19.62 119.416 6.13.4-.168 1.285-6.109-.21zM33.734 115.898h5.75l-.19 1.39-5.56.106z"/><path d="m21.306 120.954-.254 5.777s.613.389 1.367.389c.377 0 .79-.097 1.178-.389l1.069-5.661-3.36-.116zM35 117.394l-.349 6.073s.69.42 1.538.42c.378 0 .787-.084 1.182-.322l.97-6.258-3.34.087z" fill="#2B2B2B"/><path d="M21.052 126.731s-.046-.148-.113-.148c-.02 0-.043.015-.068.052-.087.136.014.257-.12.484-.624 1.064-1.821 2.942-1.821 3.088 0 .001-.002.029.032.029.175 0 1.03-.664 2.096-.664 1.18 0 1.996.476 1.996.74 0 0 .637-2.977.637-3.007 0-.244-.095-.574-.095-.574s-.64.358-1.252.358c-.637 0-1.292-.358-1.292-.358M34.65 123.467a.197.197 0 0 0-.076-.017c-.085 0-.14.074-.14.19 0 .185.082.194.082.378 0 .577-.55 2.514-.55 2.514s5.103.14 6.065.2c0 0 .223-.973.825-1.06 0 0-1.478-.429-2.114-.979-.75-.649-1.054-1.282-1.178-1.282-.1 0-.193.153-.193.153s-.793.252-1.467.252c-.728 0-1.253-.349-1.253-.349" fill="#F6C15C"/><path d="m33.965 126.532-.36 1.323H42.9s.558-1.07.558-1.161c0-.407-2.602-1.021-2.602-1.021s-.705.12-.842.98l-6.049-.121zM21.095 129.481c-1.304 0-2.165.728-2.165.728-.42.393-.584 1.202-.584 1.553 0 .094.012.155.034.166.03.014.36.02.826.02.987 0 2.577-.023 3.145-.023.195 0 .204.003.208.003.19 0 .668-1.532.821-1.89.155-.362.292-2.578.292-2.578l-.618 2.852s-.29-.83-1.959-.83" fill="#F2F1EC"/><path d="M39.346 126.27a.197.197 0 0 1-.196-.196c0-.192.407-.795 1.155-.795.044 0 .089.002.135.007.103.009.18.095.18.196 0 .145-.128.197-.206.197-.016 0-.049-.005-.11-.005a.83.83 0 0 0-.775.475.198.198 0 0 1-.183.122M38.741 125.866a.197.197 0 0 1-.197-.197c0-.193.407-.795 1.156-.795.044 0 .089.002.135.006.103.01.18.095.18.197 0 .073-.053.197-.194.197-.023 0-.053-.005-.122-.005a.83.83 0 0 0-.774.475.199.199 0 0 1-.184.122M37.929 125.334a.197.197 0 0 1-.198-.197c0-.214.435-.795 1.157-.795.067 0 .314-.016.314.202 0 .142-.13.197-.206.197-.017 0-.047-.005-.108-.005a.827.827 0 0 0-.776.473.198.198 0 0 1-.183.125M37.265 124.797a.197.197 0 0 1-.196-.197c0-.213.435-.794 1.158-.794.068 0 .312-.014.312.202 0 .17-.164.198-.198.198-.022 0-.047-.005-.111-.005a.839.839 0 0 0-.781.474.2.2 0 0 1-.184.122M22.51 129.28c-.072 0-.69-.193-1.462-.193-.431 0-.583.056-.638.056-.12 0-.196-.1-.196-.198 0-.15.09-.254.833-.254.368 0 .876.043 1.51.2a.197.197 0 0 1-.048.388M22.664 128.645c-.066 0-.626-.149-1.331-.149-.393 0-.531.043-.58.043a.197.197 0 0 1-.199-.197c0-.154.084-.24.778-.24.335 0 .797.032 1.373.153a.197.197 0 0 1-.04.39M22.895 127.562c-.067 0-.626-.149-1.332-.149-.392 0-.532.044-.58.044a.197.197 0 0 1-.198-.198c0-.153.083-.24.778-.24.334 0 .796.032 1.372.153a.197.197 0 0 1-.04.39M22.756 128.103c-.067 0-.626-.149-1.332-.149-.39 0-.53.043-.58.043a.197.197 0 0 1-.198-.197c0-.15.075-.24.777-.24.335 0 .798.032 1.373.153a.197.197 0 0 1-.04.39" fill="#F2F1EC"/><path d="M35.842 74.59c-.103-1.594-1.036-4.08-1.036-4.08l.272-1.827v.03c0 .199.011 1.316.247 1.952.258.7 1.533 4.75 1.533 4.75l-1.016-.826zM42.038 66.64s3.07-.994 4.758-1.03c0 0-1.815-.095-3.298-.095-.466 0-.898.01-1.232.034l-.228 1.09zM27.605 68.045l.178.172.879-1.625-.124-.264zM29.51 67.941l.284.218s.33-1.428.758-2.38c.427-.952.792-1.353.792-1.353l-.579.19s-.413.919-.784 1.954c-.372 1.035-.471 1.371-.471 1.371M10.675 67.076s2.206-.525 4.166-.525c.13 0 .258.002.385.007 0 0-2.494-.226-4.014-.226-.17 0-.329.003-.47.01l-.067.734zM14.602 72.724l-.414.311.469-.855z" fill="#243C57"/><path d="M26.87 62.84c0-.424-.039-.973-.208-1.33.425.524 1.357.863 1.788.863.533 0 1.663-1.2 1.849-1.422 0 0-.796 1.544-1.658 2.003-.862.458-1.798.51-1.798.51s.027-.269.027-.624M27.19 58.966c.16 0 .306.045.306.149 0 .177-.426.386-.79.386-.16 0-.305-.046-.305-.15 0-.176.426-.385.79-.385M30.441 58.379c.16 0 .305.045.305.15 0 .176-.426.385-.789.385-.16 0-.305-.045-.305-.15 0-.176.426-.385.789-.385M25.469 58.794a.148.148 0 0 1-.148-.138c-.058-.949-.55-1.094-.865-1.094-.125 0-.155.019-.195.019a.147.147 0 0 1-.15-.148c0-.145.153-.167.346-.167 1.01 0 1.16 1.074 1.16 1.38 0 .104-.09.148-.148.148" fill="#E27C6B"/><path d="M24.533 58.7c-.168 0-.195-.275-.195-.379 0-.596.745-.765.805-.765.048 0 .149.037.149.148a.148.148 0 0 1-.111.143c-.388.1-.547.272-.547.476 0 .133.047.164.047.229a.148.148 0 0 1-.148.148M12.476 64.426c.34.16 2.437.631 2.437.631l-2.437-.104v-.527z" fill="#E27C6B"/><path d="M29.91 89.69v-1.37s.778-.482 1.205-1.18c0 0-.233.802-.602 1.275-.05.064-.072.2-.072.387 0 1.192.877 4.455.877 4.455s-1.058-3.191-1.407-3.566M34.094 114.53s.706.825 4.89 1.368h-4.902l.012-1.367zM25.36 119.323s-1.272.299-2.397.299c-.12 0-.237-.003-.352-.011l2.668.174.082-.462z" fill="#548492"/><path d="M22.611 119.66c-.042 0-.049-.04-.049-.05 0-.039 1.592-11.265 1.652-11.853.056-.54.687-.365.687-.764 0-.378-.986-.354-.986-.978 0-.478.83-.777.922-1.233.13-.649 1.012-16.37 1.095-16.37.01 0 .053.005.053.05 0 .1-.952 15.843-1.051 16.34-.1.495-.919.797-.919 1.215 0 .566.985.485.985.976 0 .485-.639.306-.687.774-.005.05-1.62 11.893-1.702 11.893M37.265 114.995c-.057 0-.072.51-.072-6.782 0-1.412.006-2.541.023-2.752.052-.636.541-.954.541-1.323 0-.036-.008-.083-.135-.083-.219 0-.602.132-.873.132-.317 0-.34-.208-.34-.3 0-.36.41-.797.41-1.256 0-.268-3.656-17.523-3.656-17.606 0-.031.027-.05.052-.05.065 0 3.703 17.461 3.703 17.657 0 .48-.41.941-.41 1.253 0 .17.107.204.242.204.258 0 .636-.133.87-.133.22 0 .236.127.236.182 0 .235-.23.56-.248.589-.362.56-.315.457-.315 3.465 0 2.89.022 6.714.022 6.753a.05.05 0 0 1-.05.05M39.158 102.823c.157.252.18.5.18.745 0 .104-.004.207-.004.309 0 .053.001.106.005.159.026.393.414.781.414.781s-.034-.126-.034-.318c0-.537.293-.95.293-.95l-.427.051s-.039-.44-.427-.777M39.635 102.95c.015 0 .022-.013.022-.037 0-.154-.292-.738-.292-.738v.047c0 .567.217.728.27.728M25.507 105.931a22.02 22.02 0 0 1-.233 1.166l.389-.44s-.24 1.023-.24 1.34c0 .057.009.092.028.092.106 0 .485-.733.485-.733v.733l.452-1.08.13.631s.34-1.088.34-1.488c0-.356-.133-.688-.133-.688l-.233.959-.26-.467-.166.82-.13-1.13-.273.44-.156-.155z" fill="#C9E8F1"/><path d="M20.43 68.159s.44-.512.648-.77c.207-.26.906-.313.906-.313l-.647.542-.492.6.13-.39-.545.33zM21.855 67.466l.622-.622.466-.14zM34.381 63.848c-.068-.019-.098-.036-.098-.05 0-.04.229-.063.476-.063.285 0 .595.03.606.097.026.146.467.707.467.707l-.467-.143.26.774s-.492-1.116-1.244-1.322M44.417 76.48s.042.182.042.405c0 .205-.036.444-.173.605-.285.337-.492.606-.492.606l.333-.683-.643.051s.543-.077.647-.362c.104-.285.286-.622.286-.622M11.52 79.9s.647.18.968.18a.317.317 0 0 0 .145-.025c.181-.104.57-.285.57-.285l-.842.155-.841-.026z" fill="#C79464"/><path d="M68.041 77.793s2.628 20.519 2.628 21.29l-.389 15.448-6.139 3.46s.507-13.186.507-14.55c0-.049 0-.082-.002-.1 0 0-.155-.083-.272-.391a.356.356 0 0 1-.022-.127c0-.295.294-.648.294-.648l-1.632-8.158s-.233 8.386-.272 8.933c-.039.546-3.497 14.444-3.497 14.444l-6.01-1.36s1.814-10.09 2.047-11.217c.233-1.127.738-3.73.738-3.73s-.233-.378-.233-1.102c0-.648.529-.385.529-1.18 0-.354-.05-.173-.05-1.123 0-2.74.43-10.892.43-13.112v-.097l11.345-6.68z" fill="#88A9BA"/><path d="m59.815 45.216.172-3.203s1.554 1.25 2.804 1.25c.04 0 .08-.001.12-.004v1.763l-3.096.194z" fill="#F6A88A"/><path d="M71.951 46.536s-1.425 7.02-1.891 8.73c-.467 1.71-.7 2.927-.7 2.927s-.449.292-.449.827c0 .081.01.168.035.26 0 0-3.368 3.165-4.093 3.85-.568.536-1.39.594-1.72.594-.091 0-.145-.004-.145-.004l-.077-1.8s.09-2.534.09-4.413c0-2.658-.301-4.74-.301-5.494 0-1.195.521-5.297.521-5.297l-5.386.39-.597 8.108s-.492 11.008-.492 13.185c0 2.935-.297 11.932-.297 13.916 0 1.044.012 2.195.012 2.195s3.652-.466 6.786-2.668c3.134-2.202 4.507-3.963 5.077-4.248.114-.057.157-.188.157-.387 0-.662-.486-2.072-.486-3.946 0-5.77 5.073-9.02 6.65-14.142l3.16-12.557-5.854-.026z" fill="#498851"/><path d="M58.995 63.463s-1.965-.608-3.596-1.074c-1.498-.428-3.017-1.597-3.017-2.427 0-.727 1.592-2.08 1.592-2.08s-.646-.688-.646-1.309c0-1.308 3.392-1.251 5.852-2.032 1-.318 1.727-.586 2.206-.586.418 0 .708.212.708.945 0 .705-.286 1.544-.286 1.544l-2.11 3.303-.7.314-.003 3.402z" fill="#AB4A55"/><path d="M61.223 57.017c.153 0 .31-.107.31-.55 0-.092-.006-.198-.021-.32.572.48 1.145 1.589 1.825 1.589.065 0 .088-.009.111-.009.066 0 .119.051.119.115 0 .018-.216.92-.216 1.646 0 .564.166 1.359.166 1.862 0 .462-.078.583-.954.583-.382 0-.74-.036-.74-.036l.491 1.243s-.174-.015-.449-.015c-.722 0-2.134.103-2.866.85 0 0 .008-.08.008-.215 0-.42-.074-1.383-.681-2.226 0 0-.06.01-.16.01-.908 0-1.526-.844-1.526-1.54 0-.757.712-1.285 1.259-1.285.81 0 1.1 1.342 1.1 1.342l.7-.314s-.13-.932-.208-1.528c0 0 .064.028.152.028.179 0 .456-.117.482-.831 0 0 .193.095.39.095.21 0 .427-.107.427-.547v-.04s.138.093.281.093" fill="#F6A88A"/><path d="m57.497 45.345 6.657-.466v1.761s-5.799.474-6.572.474c-.055 0-.085-.003-.085-.008v-1.761M71.718 44.305s.29-.002.762-.002c1.52 0 4.916.028 6.439.265l-.285 1.995s-2.533-.046-4.705-.046c-1.086 0-2.082.011-2.626.046l.415-2.258zM61.684 63.112c-.8 0-2.163.126-2.868.909l.416 1.48s2.02-1.462 3.756-1.782l-.673-.579s-.253-.028-.631-.028" fill="#F2F1EC"/><path fill="#C9E8F1" d="m52.859 115.781 7.008 1.613-.428 1.916-6.813-1.663zM63.753 118.094l6.916-3.796.155 2.348-7.071 3.402z"/><path d="m63.906 98.477-.736-4.927a40.768 40.768 0 0 0-1.127-5.052s-1.982-.194-2.797-1.36c0 0 .616 1.692 1.904 2.254l1.646 12.084.21-7.168.9 4.17zM69.27 115.066s-4.265 1.794-5.086 1.795l-.039 1.02 5.125-2.815zM54.339 116.165l5.024.756-.085.342z" fill="#548492"/><path d="m65.366 119.272-.292 6.4s.1-.02.259-.02c1.047 0 .947.624 1.952.624.584 0 1.201-.243 1.36-.603l.897-8.41-4.176 2.009zM53.806 117.991l-.947 6.467s.45-.43.999-.43c.823 0 .347.937 1.318.937.446 0 1.024-.169 1.433-.507l1.4-5.483-4.203-.984z" fill="#2B2B2B"/><path d="M64.748 125.89c0-.206.21-.363.21-.363a1.19 1.19 0 0 1 .285-.032c1.04 0 1.174.68 2.125.68.58 0 1.157-.25 1.276-.502 0 0 2.141 2.204 4.511 2.574 0 0-1.71.488-1.71 1.54v.053s-3.982-.37-5.322-.467c-1.34-.097-1.884-.213-1.884-.213l.596-2.89c0-.212-.087-.24-.087-.38M52.368 127.236s.426-2.333.49-2.778c.043-.289.493-.603.908-.603.788 0 .544 1.017 1.49 1.017.628 0 1.353-.414 1.353-.414s.364.971 1.238 1.36a8.977 8.977 0 0 0 1.613.544s-.096.058-.096.932c0 0-3.891.73-4.866.73-.48 0-2.13-.788-2.13-.788" fill="#225081"/><path d="m64.238 129.16-.156 1.282h10.646s.524-.73.524-1.158c0-.509-2.097-1.037-2.097-1.037s-1.69.038-1.71 1.593l-7.207-.68zM52.368 127.236l-.175 1.283s2.06.466 2.35.466c.292 0 5.835-1.318 5.835-1.318a.364.364 0 0 0 .02-.13c0-.846-.847-1.395-1.056-1.395-.09 0-.12.076-.12.197 0 .232.115.628.14.956 0 0-4.26.733-4.672.733-.316 0-2.322-.792-2.322-.792" fill="#F2F1EC"/><path d="M70.906 128.52a.197.197 0 0 1-.197-.197c0-.193.408-.795 1.154-.795.044 0 .09.002.137.006.103.01.18.096.18.197 0 .074-.054.197-.196.197-.025 0-.05-.005-.12-.005a.83.83 0 0 0-.775.474.198.198 0 0 1-.183.123M69.987 128.059a.197.197 0 0 1-.197-.197c0-.212.429-.795 1.149-.795.046 0 .093.002.142.006.102.01.179.096.179.197 0 .14-.12.197-.198.197-.022 0-.052-.005-.12-.005a.83.83 0 0 0-.772.475.2.2 0 0 1-.183.122M69.27 127.558a.197.197 0 0 1-.197-.196c0-.213.429-.796 1.15-.796.046 0 .092.003.14.007.103.01.18.095.18.197 0 .14-.125.196-.203.196-.02 0-.046-.004-.107-.004a.834.834 0 0 0-.78.474.198.198 0 0 1-.184.122M68.466 126.96a.197.197 0 0 1-.197-.196c0-.214.434-.795 1.157-.795.067 0 .313-.015.313.202 0 .141-.128.197-.206.197-.017 0-.047-.005-.11-.005a.822.822 0 0 0-.773.473.197.197 0 0 1-.184.125M58.799 126.753c-.061 0-.198-.047-.198-.197 0-.118.087-.13.087-.239 0-.108-.087-.129-.087-.243 0-.108.087-.197.197-.197.19 0 .284.28.284.435 0 .06-.05.441-.283.441M58.193 126.512c-.15 0-.197-.137-.197-.197 0-.045.015-.09.046-.126.016-.02.04-.06.04-.113 0-.109-.086-.127-.086-.243 0-.115.094-.198.197-.198.19 0 .284.282.284.435 0 .06-.05.442-.284.442M57.582 126.214c-.151 0-.197-.137-.197-.198 0-.044.015-.089.045-.126.016-.02.041-.06.041-.113 0-.109-.086-.127-.086-.243 0-.106.084-.197.197-.197.19 0 .283.28.283.435 0 .06-.05.442-.283.442M57.065 125.809c-.06 0-.197-.048-.197-.198 0-.118.086-.129.086-.238 0-.108-.086-.13-.086-.243 0-.107.086-.198.197-.198.19 0 .284.28.284.435 0 .063-.051.442-.284.442" fill="#F2F1EC"/><path d="M68.01 115.63a.05.05 0 0 1-.048-.05c0-.057.145-6.07.145-9.886 0-3.523-.135-2.67-.135-3.161 0-.554.463-1.073.463-1.579 0-.095-.024-.33-.12-.33-.154 0-.467.404-.744.404-.238 0-.392-.32-.392-.555 0-.478.56-.88.56-1.24 0-.04-2.256-17.937-2.256-19.154 0-.043.043-.05.052-.05.039 0 2.303 19.162 2.303 19.202 0 .419-.56.786-.56 1.243 0 .177.115.455.292.455.241 0 .535-.403.746-.403.213 0 .217.383.217.427 0 .55-.462 1.032-.462 1.582 0 .492.135-.434.135 3.223 0 .326-.067 9.872-.195 9.872M55.914 116.214a.05.05 0 0 1-.05-.049c0-.016 2.682-10.69 2.887-11.362.191-.624.68-.497.68-.667 0-.447-1.29-.328-1.29-1.117 0-.95 1.097-.088 1.27-1.082.21-1.217.35-11.985.456-11.985a.05.05 0 0 1 .05.05c0 .046-.234 10.94-.41 11.951-.186 1.077-1.267.242-1.267 1.065 0 .723 1.289.555 1.289 1.12 0 .292-.496.082-.683.694-.324 1.06-2.854 11.382-2.932 11.382M69.27 98.834s.194.66.194 1.438c0 .777-.097 1.379-.097 1.379l.447-.913s.017.397.017.823c0 .213-.005.434-.017.615l.35-1.088v.563s.283-1.2.283-2a1.72 1.72 0 0 0-.05-.467l-.273.583-.266-.932v.893l-.588-.894zM61.576 102.563c-.077.623-.233 1.75-.233 1.75l.428-.277-.214 1.43.525-1.192.35-1.45-.545.634-.311-.895z" fill="#C9E8F1"/><path fill="#386346" d="m56.9 63.31 1.413.425.92 1.767-.417-1.481.19-.183-.011-.375-2.076-.63zM57.732 48.5s2.782-1.062 5.49-1.785l-5.387.391-.103 1.394zM71.821 47.114s4.378-.525 5.984-.551l-5.853-.027-.13.578z"/><path d="M73.453 58.97c-.104.596-.647 1.606-.647 1.606l.492-.285-.492 1.321.647-.984-.13.725.907-1.632-.544.34.181-.676-.492.388.078-.803z" fill="#F6A65C"/><path d="M62.035 58.928c.119 0 .27.043.27.2 0 .28-.493.648-.876.648-.12 0-.27-.043-.27-.2 0-.28.493-.648.876-.648" fill="#E27C6B"/><path fill="#AB4A55" d="m59.025 60.174.751-.35.04.237-.726.385z"/><path d="m61.823 61.897-1.127-.13s1.135.466 1.344.68l-.217-.55zM58.598 60.594a.148.148 0 0 1-.147-.132c-.06-.558-.293-.804-.67-.804-.317 0-.518.146-.594.146a.148.148 0 0 1-.069-.28c.018-.009.32-.161.664-.161.89 0 .964 1.002.964 1.083 0 .026-.02.148-.148.148" fill="#E27C6B"/><path d="M57.769 61.009a.149.149 0 0 1-.135-.088 1.653 1.653 0 0 1-.13-.608c0-.74.674-.842.686-.842.048 0 .148.036.148.148 0 .25-.539.074-.539.694 0 .291.118.478.118.547 0 .118-.106.149-.148.149M73.176 43.516c.86.599 2.915.843 2.915.843l-2.976-.037.061-.806z" fill="#E27C6B"/><path d="M89.852 54.162s-.002-.043-.002-.123c0-1.339.056-3.222 1.855-4.764 0 0 .112-2.262.252-2.45.141-.188 1.207-1.086 1.432-1.536.092-.185.452-.264.874-.264.602 0 1.332.161 1.596.407.394.368 1.142 2.722 1.142 3.982 0 .71-.16 1.208-.16 1.208s.54 1.575.54 2.356c0 .737-.32 1.481-.32 1.481l-1.202 1.44h-5.586l.057-.421-.478-1.316z" fill="#2B2B2B"/><path d="M90.189 54.187s-.125-.026-.296-.026c-.607 0-.97.302-.97.935 0 .877.659 1.367 1.189 1.367a.76.76 0 0 0 .217-.03s.28.842.702 1.628c.407.759.787.994.787 1.389 0 .415-.4 2.196-.4 2.217 0 .48 1.272 1.504 1.61 1.504.248 0 1.438-1.02 1.845-1.559.084-.11.168-.207.168-.535 0-.454-.162-1.095-.162-1.61 0-1.024 1.015-1.338 1.232-2.641 0 0 .137.034.327.034.83 0 1.128-.6 1.128-1.225 0-.616-.295-1.26-.81-1.26-.557 0-.898.53-.898 1.12v.012l-.898-.085-.084-1.26-.225 1.344-1.066-.056s.073-.405.073-.906c0-.322-.03-.684-.13-1.002 0 0-.589.926-.617 1.571l-1.038-.056s-.005-.125-.005-.314c0-.283.01-.708.06-1.061 0 0-.365.811-.365 1.271l.001.048-.393-.028-.084-1.038-.253 1.459-.505.084-.14-1.29zM96.668 106.868c.044 0 2.092 6.886 2.092 6.886s.262.042.665.042c1.016 0 2.922-.266 3.739-2.14l-1.793-6.33-4.703 1.542zM90.284 106.967c-.664 0-1.35.082-1.91.327l.128 7.315s.53.49 1.812.49c.59 0 1.338-.104 2.268-.406l.272-7.4c0 .001-1.243-.326-2.57-.326" fill="#F6A88A"/><path d="M93.615 48.854s.195-.033.453-.033c.37 0 .87.068 1.117.398v-2.526s-.343-.272-.735-.272c-.146 0-.3.038-.444.142l-.39 2.291z" fill="#F2F1EC"/><path d="M99.03 77.736c.366 6.505 5.636 25.14 5.636 25.14s-3.538 4.523-12.919 4.523c-1.548 0-2.662-.111-3.491-.111-2.631 0-3.788.813-3.788.813l.926-12.569.272-7.333 1.64-1.091 1.03-6.2s4.399-2.084 10.695-3.172" fill="#F6C15C"/><path d="M89.144 80.612s-.279 3.457-.615 5.141c-.021.103-.03.221-.03.351 0 1.82 1.873 6.166 1.873 9.94 0 3.998-2.94 11.305-2.94 11.305s-.117-.019-.328-.019c-.487 0-1.47.101-2.636.77l.578-12.765-.176-3.165 1.126-3.46 2.34-7.803.808-.295z" fill="#F6A65C"/><path d="M97.943 62.85c1.831-1.628 5.36-9.496 5.838-9.655.14-.047.434.022.434-.193 0-.269-.403-.729-.403-.885 0-.098.078-.105.127-.105.175 0 .509.118.703.118.085 0 .143-.022.15-.087.028-.252 1.288-7.4 1.288-7.4l4.273 1.099s-2.238 8.961-2.238 9.267c0 .096.007.19.007.28 0 1.437-7.098 9.538-7.098 22.14 0 .758.007 1.307.007 1.307s-4.547.954-6.82 1.768c-2.274.814-3.874 1.403-3.874 1.403l-1.031 6.2-4.646-1.028s3.044-20.084 3.768-20.557c.253-.164 4.351-3.364 4.351-3.364s.956 1.01 2.222 1.01c1.31.001 2.942-1.318 2.942-1.318" fill="#C79464"/><path d="M103.914 41.697s3.509 1.431 5.025 1.516l-.28 1.6s-3.987-.91-4.94-1.298l.195-1.818zM95.04 61.036l.903.814s-.43 2.049-.903 3.003c-.472.955-.64 1.376-.64 1.376l-1.348-3.06s1.31-.813 1.988-2.133" fill="#F2F1EC"/><path d="M86.29 88.745s-.391 1.464-.391 1.814c0 .398.527 1.069.527 1.544 0 .33-.264 1.496-.264 1.69v.015c0 .05-.044.08-.107.08-.12 0-.306-.105-.37-.358a1.97 1.97 0 0 1-.031-.435v-.183c0-.362-.02-.744-.265-.744-.181 0-.239.336-.239.75 0 1.857.717 2.399.717 3.01 0 .084-.036.207-.096.207-.085 0-.183-.215-.183-.215l-.252.038s-.207.295-.312.295c-.099 0-.349-.547-.349-.547l-.435.077s-.005.006-.015.006c-.436 0-.726-4.136-.726-4.885 0-.963.222-.499.222-2.703v-.003l2.569.547z" fill="#915949"/><path d="M93.052 63.17s-1.32 1.74-1.684 2.61c0 0-.597-2.387-.597-3.44 0-1.017.927-2.049.927-2.049l-.274 1.321s.87 1.36 1.628 1.557M81.993 85.932l6.091 1.348-.337 1.852s-2.357-.59-3.705-.842c-1.347-.252-2.385-.59-2.385-.59l.336-1.768z" fill="#F2F1EC"/><path d="M85.997 88.711s-.234 1.562-.234 1.848c0 .398.527 1.069.527 1.544 0 .33-.264 1.496-.264 1.69v.015c0 .05-.044.08-.107.08-.67 0-.275-1.855-.838-1.855-.123 0-.166.177-.166.433 0 1.988.817 2.925.817 3.462a.32.32 0 0 1-.007.07c-.078.35-.292.35-.292.35l-.233-.39s-.207.295-.312.295c-.099 0-.349-.547-.349-.547l-.435.077s-.005.006-.015.006c-.037 0-.14-.072-.307-.743-.214-.855-.486-1.146-.486-1.34 0 0-.043.31-.043.592 0 .356.064.344.064.47 0 .198-.187.378-.32.378a.125.125 0 0 1-.03-.003s-.187-1.108-.307-1.554a.552.552 0 0 1-.014-.139c0-1.38.94-2.416.94-5.248v-.003l2.41.512z" fill="#F6A88A"/><path d="M90.564 114.978c-.64 0-1.363-.09-2.061-.369l.259 7.616s.676.862 1.43.862c.826 0 2.092-1.317 2.092-1.317l.298-7.077s-.877.285-2.018.285M98.814 113.754h-.054l2.798 8.496s.538.152 1.217.152c.959 0 2.196-.302 2.59-1.758l-2.201-8.988s-1.408 2.098-4.35 2.098" fill="#2B2B2B"/><path d="M101.939 122.265a5.056 5.056 0 0 1-.411-.019c-.068 0-.1.065-.1.155 0 .174.12.44.34.513.266.089.298 2.234.298 3.28 0 .339-.003.562-.003.562l7.643-1.248s.195-1.443 1.015-1.716c0 0-2.282-.947-3.316-1.546-.938-.544-1.686-1.637-1.968-1.637a.086.086 0 0 0-.07.035c-.002 0-1.127 1.62-3.428 1.62M90.034 122.623c-.789 0-1.288-.839-1.288-.839s-.014-.004-.036-.004c-.073 0-.227.041-.227.386 0 .2.036.242.036.5 0 2.1-2.12 4.446-2.12 6.025l.002.035s1.658-1.599 2.262-1.599c.604 0 2.36.917 2.36.917s.331-1.6.507-2.282c.95-3.696.91-3.37.91-3.742 0-.168-.026-.287-.088-.287-.027 0-1.24.89-2.318.89" fill="#498851"/><path d="M86.401 128.726c.117.585.663 1.521.663 1.521l4.505-.175s.312-3.862.468-4.74c.156-.877.404-1.65.404-1.65l-.185-.753s-.297.902-.55 2.072c-.254 1.17-.683 3.042-.683 3.042s-1.135-.895-2.234-.895c-1.377 0-2.388 1.578-2.388 1.578M102.062 126.756v1.327s8.17-1.58 9.515-1.814c1.346-.234 1.638-.312 1.638-.312s.111-.484.111-.975c0-.092-.004-.184-.013-.273-.058-.566-2.594-.917-2.594-.917s-.994.234-1.014 1.716l-7.643 1.248z" fill="#F2F1EC"/><path d="M108.925 124.848a.198.198 0 0 1-.197-.198c0-.056.53-1.36 1.203-1.36.028 0 .33.002.33.224 0 .13-.11.197-.197.197-.068 0-.079-.028-.133-.028-.271 0-.662.661-.824 1.045a.197.197 0 0 1-.182.12M108.076 124.265a.197.197 0 0 1-.197-.197c0-.056.53-1.362 1.202-1.362.028 0 .331.003.331.225 0 .13-.11.198-.197.198-.067 0-.08-.028-.133-.028-.272 0-.662.659-.824 1.044a.197.197 0 0 1-.182.12M107.125 123.866a.197.197 0 0 1-.197-.197c0-.064.534-1.361 1.202-1.361.027 0 .331.003.331.225 0 .13-.11.197-.197.197-.067 0-.08-.028-.134-.028-.271 0-.661.66-.823 1.044a.197.197 0 0 1-.182.12M106.264 123.413a.198.198 0 0 1-.197-.198c0-.056.529-1.36 1.203-1.36.028 0 .33.002.33.224 0 .13-.11.197-.197.197-.067 0-.08-.027-.134-.027-.27 0-.661.661-.823 1.043a.199.199 0 0 1-.182.12M87.65 126.953a.197.197 0 0 1-.198-.197c0-.243.853-.71 1.577-.71.54 0 1.314.292 1.314.542a.197.197 0 0 1-.198.197c-.166 0-.448-.349-1.13-.349-.856 0-1.178.517-1.366.517M90.145 125.94c-.16 0-.341-.306-.947-.306-.63 0-.942.306-1.08.306a.197.197 0 0 1-.198-.198c0-.26.814-.502 1.284-.502.528 0 1.14.274 1.14.502-.001.144-.129.198-.199.198M88.374 125.062a.197.197 0 0 1-.198-.198c0-.192.652-.58 1.283-.58.479 0 1.02.267 1.02.483a.198.198 0 0 1-.198.198c-.17 0-.3-.29-.827-.29-.612 0-.93.387-1.08.387M88.82 124.007c-.067 0-.198-.052-.198-.197 0-.27.684-.45.985-.45.43 0 .872.242.872.437a.197.197 0 0 1-.197.197c-.158 0-.253-.242-.677-.242-.438 0-.656.255-.785.255" fill="#F2F1EC"/><path d="M94.667 56.937c.394 0 .713.156.713.35 0 .192-.32.349-.713.349-.393 0-.712-.157-.712-.35 0-.193.32-.35.712-.35M91.6 56.587c.394 0 .713.156.713.35 0 .193-.32.349-.712.349-.394 0-.713-.156-.713-.35 0-.193.32-.35.713-.35" fill="#E27C6B"/><path d="M91.484 53.74c-.691 0-1.254.618-1.254 1.378 0 .761.562 1.38 1.254 1.38.69 0 1.253-.62 1.253-1.38 0-.76-.562-1.379-1.253-1.379m0 3.154c-.909 0-1.648-.796-1.648-1.774s.739-1.774 1.648-1.774c.908 0 1.647.796 1.647 1.774s-.739 1.774-1.647 1.774M94.838 54.105c-.69 0-1.253.618-1.253 1.379 0 .76.562 1.38 1.253 1.38.691 0 1.254-.62 1.254-1.38 0-.76-.563-1.38-1.254-1.38m0 3.154c-.908 0-1.648-.796-1.648-1.774s.74-1.773 1.648-1.773c.91 0 1.648.795 1.648 1.773 0 .978-.739 1.774-1.648 1.774" fill="#2B2B2B"/><path d="M93.318 55.282a.328.328 0 0 0-.167-.067.077.077 0 0 0-.061.025l-.316-.236a.468.468 0 0 1 .376-.183c.112 0 .242.036.388.135l-.22.326z" fill="#2B2B2B"/><path d="M91.75 59.554c0-.15-.008-.296-.027-.433.516.79 1.09 1.073 1.579 1.073.618 0 1.611-1.073 1.611-1.073s-1.251 1.87-1.979 2.336c-.728.466-1.211.574-1.211.574l-.3-.42c.001.001.327-1.107.327-2.057M105.194 41.352s1.13 1.243 2.532 1.644c0 0-1.9-.545-2.717-.867l.185-.777zM83.56 89.132s.597-.453 1.843-.453c.183 0 .382.01.594.032l-2.412-.512-.024.933z" fill="#E27C6B"/><path d="m91.6 65.375.205.51 1.44-2.278-.193-.438s-1.19 1.579-1.451 2.206M94.749 65.454l.164.325s.836-1.739 1.03-2.477c.123-.466.145-.978.145-1.292 0-.184-.007-.3-.007-.3l-.138.14s-.224 1.264-.564 2.133c-.339.87-.63 1.471-.63 1.471M88.336 80.908c.166-1.365.536-5.91.536-5.91s.292-.047.292-.31c0-.242-.418.005-.418-.256 0-.165.187-.238.223-.329.038-.097.195-3.438.195-3.438L88.6 69.48l.835 1.049s-.202 2.185-.202 3.105c0 .184.008.317.027.372.117.33.253 1.188.253 1.188l-.37 5.418-.807.296zM82.66 86.08s2.42.271 4.132.271c.425 0 .64-.009.64-.009l-.127.765-4.646-1.027z" fill="#915949"/><path d="M94.447 97.474s0 1.676-.194 2.295a.483.483 0 0 0-.027.115c0 .011.003.016.008.016.082 0 .757-1.279.757-1.279v1.728l.35-.932.31 1.399s.424-2.167.52-2.167c.12 0 .219.846.219.846l.278-2.876-.395 1.21-.466-1.481-.156 1.748-.583-1.399-.389 1.4-.232-.623zM97.342 96.686c-.132 0-.234.551-.234.551l.02 1.77 1.212-2.872s-.536.71-.8.71c-.129 0-.112-.159-.198-.159" fill="#F6A65C"/><path d="M88.084 82.01s7.79-3.255 11.04-3.278l-.093-.996s-6.703 1.176-10.695 3.172l-.252 1.102z" fill="#2B2B2B"/><path d="M88.373 108.1s.849.107 1.935.107c.793 0 1.713-.057 2.522-.254l.024-.66s-1.07.088-2.43.088c-.678 0-1.43-.021-2.155-.087l.104.806zM96.668 106.868l.394 1.232s3.447-1.836 4.45-2.274l-.141-.501s-2.166 1.13-4.703 1.543" fill="#E27C6B"/><path d="m119.474 83.664-.73 28.454c0 .4.79 1.014.79 1.014l4.973-.31s.415-13.021.57-13.815c.148-.756.51-.548.51-1.31 0-1.003-.462-.785-.462-1.448 0-.474.973-8.05.973-8.05l1.103 12.345c0 1.533.412 13.252.574 13.252.22 0 4.83-.664 4.83-.664s-.231-13.447-.231-16.719c0-5.38.184-14.121.184-14.121l-.694-.496-10.693 1.583-1.697.285z" fill="#88A9BA"/><path fill="#F2F1EC" d="m117.483 80.39-.923 1.782 1.64.716.563-1.596zM131.715 81.238l.401 1.324 1.38-.843-.664-1.576z"/><path d="M121.424 52.83s-.634-.975-.634-1.789c0-1.233 4.257-4.488 6.852-4.488 1.616 0 1.935 1.265 1.935 2.263 0 .652-.136 1.19-.136 1.19l.032-.001c.103 0 .422.042.422.57 0 .884-.64 1.968-.64 1.968l-6.768 1.195-.466.181-.597-1.089z" fill="#AB4A55"/><path d="M122.5 60.66s-5.038.034-5.401.376c-.435.411-4.846 10.204-4.846 13.38 0 .04 3.17 6.788 4.762 7.876l.468-.902 15.349-1.247.525 1.247s1.874-1.568 3.014-2.864c1.238-1.407 2.545-1.952 2.545-2.666 0-.35-.241.076-.525-.666-.311-.812-3.73-13.297-4.093-13.686-.362-.388-6.242-1.023-6.242-1.023l-2.746 1.023-2.81-.848z" fill="#225081"/><path d="M122.094 53.457c0-.162-.024-.358-.1-.574 0 0-.21-.057-.48-.057-.316 0-1.155.066-1.155 1.183 0 .999.732 1.407 1.307 1.407.188 0 .36-.044.484-.125 0 0 .104 1.451.492 2.073.388.621 1.01.492 1.01 1.088 0 .596-.156 1.45-.156 1.45s1.27 1.606 1.813 1.606c.544 0 1.943-1.735 1.943-1.735s-.046-.68-.046-1.278c0-1.45.539-1.344.772-2.09.13-.414.207-1.45.207-1.45s.218.09.508.09c.438 0 1.16-.301 1.16-1.136 0-.715-.51-1.559-1.045-1.559a.56.56 0 0 0-.364.144v-1.347s-.838.325-1.364.325c-.242 0-.417-.068-.417-.267 0-.071.022-.158.071-.265 0 0-.875.834-1.509.834-.245 0-.455-.125-.563-.472 0 0-.953.786-1.476.786-.127 0-.23-.047-.286-.164 0 0-.423.801-.423 1.62 0 .064.003.129.009.194l-.467.18c.002 0 .075-.177.075-.46" fill="#F6A88A"/><path d="M127.288 57.634s-.436.908-1.292 1.413c-.854.506-1.732 1.438-1.732 1.438s-.687-.569-.687-1.073c0-.019.001-.037.003-.056l.034-1.121 3.674-.601z" fill="#E27C6B"/><path fill="#AB4A55" d="m122.053 54.074.447-.194v.194l-.408.224zM127.03 56.588c0 .096-.328.547-.65.547-.168 0-.283-.083-.283-.186 0-.022.006-.042.016-.058-.076.099-.25.38-.458.38-.126 0-.283-.098-.283-.307 0-.059.012-.102.012-.102s-.24.326-.436.326c-.06 0-.159-.04-.159-.157 0-.112.09-.237.09-.237l-.378.03a.762.762 0 0 1-.003-.074c0-.322.159-.885.284-.966.008-.005.612-.382.846-.382.259 0 1.04.092 1.146.217.107.125.256.802.256.97zm1.414-4.31s-.438 3.692-.838 3.692c-.144 0-.469-.588-.638-.682-.175-.097-1.321-.175-1.477-.175-.155 0-.913.301-1.058.39-.148.087-.385.903-.61.903-.235 0-1.042-.8-1.09-.952-.049-.156-.233-1.117-.233-1.117l-.35.145v.81s.078 1.172.272 1.735c.195.564.614.736.894 1 .28.266.7.36.7.36a.392.392 0 0 0-.01.08c0 .141.102.188.238.188.273 0 .685-.19.685-.19v.015c0 .15.087.202.208.202.275 0 .724-.266.724-.266a.298.298 0 0 0-.008.067c0 .083.049.116.125.116.837 0 1.907-1.767 1.962-1.96.116-.418.246-1.684.246-1.684s.25-1.299.269-1.522c.019-.224.163-1.045.163-1.045l-.174-.11z"/><path d="M127.23 59.356s-.819 1.563-1.92 2.152l1.425 1.872s1.321-2.41 1.321-2.895c0-.485-.826-1.129-.826-1.129M123.571 59.43c0-.048.01-.074.01-.074s-.887.877-1.081 1.304c0 0 1.437 2.895 1.534 2.895.098 0 1.276-2.047 1.276-2.047s-1.295-1.217-1.548-1.586c-.161-.237-.19-.403-.19-.491" fill="#F2F1EC"/><path fill="#C9E8F1" d="m118.556 113.132 6.625-.414v1.429l-6.418.332zM127.097 113.796l6.269-.767v1.45l-6.269.674z"/><path d="M120.052 114.413v6.724s.553.638 1.393.638c.42 0 .912-.16 1.443-.638l.738-6.91-3.574.186zM128.8 114.97l.499 6.805s.652.615 1.417.615c.445 0 .927-.208 1.342-.865v-6.905l-3.259.35z" fill="#2B2B2B"/><path d="M120.052 120.877c-.285.207-.31.553-.31.898 0 .346-1.503 4.516-1.503 4.516s1.356-.547 2.107-.547c1.103 0 2.352.446 2.377.446.05 0 .078-3.129.256-3.685.099-.307.167-.768.167-1.122 0-.29-.046-.506-.158-.506-.054 0-.153.024-.153.116 0 .069.054.144.054.144s-.645.49-1.461.49c-1.188 0-1.376-.75-1.376-.75M129.277 121.475s-.256.157-.256.412c0 .07.02.15.071.234.288.48.88 5 .88 5s.978-1.194 1.93-1.194c.34 0 2.111.364 2.111.364s-.777-1.942-1.114-2.978c-.322-.991-.549-2.053-.806-2.053-.041 0-.156.05-.156.12 0 .076.12.145.12.145s-.549.742-1.41.742c-1.007 0-1.37-.792-1.37-.792" fill="#E35B5B"/><path d="M118.239 126.291c-.37.235-.434 1.077-.434 1.642 0 .308.019.534.019.534l5.103-.156.218-1.555v-3.67l-.06-1.035s-.192.935-.227 1.435-.139 2.701-.139 2.701-1.464-.442-2.425-.442c-.964 0-2.055.546-2.055.546M129.2 122.39v1.678l.28 3.414s-.304.194-.304.364a.13.13 0 0 0 .024.076c.125.181.28 1.062.28 1.062l5.337-.103s-.67-2.328-.918-2.615c-.18-.208-1.143-.446-1.885-.446-.281 0-.53.034-.694.117-.596.301-1.347 1.182-1.347 1.182s-.45-2.76-.535-3.634c-.087-.872-.238-1.095-.238-1.095" fill="#F2F1EC"/><path d="M119.171 125.456a.197.197 0 0 1-.197-.197c0-.25.894-.657 1.717-.657.47 0 1.5.2 1.5.497 0 .154-.14.198-.197.198-.13 0-.544-.3-1.305-.3-.946 0-1.372.459-1.518.459M121.839 124.265c-.113 0-.429-.24-1.05-.24-.64 0-.937.24-1.048.24-.074 0-.197-.058-.197-.197 0-.258.754-.437 1.244-.437.45 0 1.248.17 1.248.437a.197.197 0 0 1-.197.197M121.839 123.413c-.137 0-.286-.215-.82-.215-.526 0-.878.214-.966.214a.197.197 0 0 1-.088-.374c.029-.014.49-.236 1.053-.236.225 0 1.018.107 1.018.413 0 .035-.01.07-.029.102a.195.195 0 0 1-.168.096M121.995 122.587c-.118 0-.241-.156-.744-.156-.303 0-.568.066-.643.105a.197.197 0 0 1-.33-.146c0-.314.807-.353.965-.353.2 0 .949.055.949.353a.197.197 0 0 1-.197.197M130.776 125.737a.197.197 0 0 1-.197-.197c0-.307 1.04-.567 1.71-.567.26 0 .549.026.86.093a.198.198 0 0 1-.042.39c-.065 0-.348-.088-.81-.088-.98 0-1.387.369-1.52.369M130.776 124.779c-.078 0-.197-.062-.197-.198 0-.266.84-.485 1.326-.485.197 0 .985.068.985.364 0 .154-.143.197-.198.197-.12 0-.29-.164-.784-.164-.647 0-1.016.286-1.132.286M130.646 123.78a.198.198 0 0 1-.197-.197c0-.224.526-.469 1.048-.469.18 0 .383.024.612.085a.198.198 0 0 1 .146.191c0 .149-.132.197-.198.197-.076 0-.252-.079-.563-.079-.585 0-.69.272-.848.272M130.429 122.887a.197.197 0 0 1-.09-.372c.035-.019.735-.374 1.37-.374.261 0 .545.04.545.249 0 .109-.089.197-.197.197-.076 0-.12-.052-.348-.052-.601 0-1.17.352-1.28.352" fill="#F2F1EC"/><path d="M121.59 113.053h-.002a.05.05 0 0 1-.047-.05c0-.048.476-10.026.476-12.416 0-.246-.006-.401-.018-.445-.115-.417-.46-.307-.46-.685 0-.537.914-.56.914-.924 0-.171-.107-.394-.23-.65-.33-.685-.312-.652-.312-1.772 0-1.5.221-11.847.337-11.857a.05.05 0 0 1 .048.049c0 .04-.288 8.732-.288 11.844 0 .579.01.958.034 1.042.15.523.51.997.51 1.344 0 .457-.915.457-.915.927 0 .145.066.19.16.255.332.231.316.426.316.89 0 1.418-.415 12.448-.522 12.448M130.646 113.461a.05.05 0 0 1-.05-.047c-.637-17.732-.927-11.362-.927-13.314 0-.59.334-1.013.334-1.496 0-.817-.33.88-.33-4.78 0-.423.088-10.914.23-10.914a.05.05 0 0 1 .05.05c0 .046-.182 6.261-.182 10.922 0 5.825.33 3.693.33 4.72 0 .513-.333.926-.333 1.5 0 .039.928 3.8.928 13.31a.05.05 0 0 1-.048.05h-.002" fill="#C9E8F1"/><path d="M125.675 91.54s-.105-2.542-.105-3.731c0-.243.004-.43.015-.526.062-.571 2.16-2.63 2.16-2.63s-.544.932-1.321 2.454l-.024 4.774-.303-3.682-.422 3.341zM119.085 112.718l3.745.147-3.366.21zM127.68 113.004l2.558.407-2.49.305z" fill="#548492"/><path d="M124.073 53.919c.376 0 .68.109.68.243s-.304.243-.68.243c-.375 0-.68-.11-.68-.243 0-.134.305-.243.68-.243M127.24 54.055c.375 0 .68.109.68.243s-.305.242-.68.242c-.376 0-.68-.108-.68-.242s.304-.243.68-.243M121.723 54.902a.148.148 0 0 1-.148-.148c0-.041.05-.228.05-.478 0-.358-.108-.692-.56-.692-.157 0-.236.036-.276.036-.048 0-.146-.038-.146-.148 0-.117.104-.183.42-.183.734 0 .857.62.857.987 0 .152-.017.32-.052.505a.148.148 0 0 1-.145.121" fill="#E27C6B"/><path d="M120.984 54.688a.147.147 0 0 1-.147-.136.742.742 0 0 1-.002-.058c0-.38.17-.901.772-.901a.85.85 0 0 1 .053.001c.08.004.14.07.14.148 0 .13-.122.146-.155.148a.738.738 0 0 0-.048-.002c-.478 0-.467.556-.467.604 0 .032.002.037.002.048 0 .057-.044.148-.148.148M128.617 54.445c-.126 0-.148-.122-.148-.147 0-.073.133-1.224.818-1.224.186 0 .258.072.258.165a.149.149 0 0 1-.149.148c-.043 0-.05-.016-.107-.016-.22 0-.436.286-.525.947a.148.148 0 0 1-.147.127" fill="#E27C6B"/><path d="M129.397 54.243a.147.147 0 0 1-.148-.147c0-.032.012-.058.012-.155 0-.255-.1-.36-.284-.36-.04 0-.055.004-.073.004-.103 0-.146-.092-.146-.148 0-.076.059-.14.136-.147a.896.896 0 0 1 .069-.003c.395 0 .595.264.595.652 0 .105.003.304-.161.304M118.556 81.865l.207-.573s1.245.477 1.65.543c0 0-.53-.065-.907-.065a1.92 1.92 0 0 0-.193.009c-.35.034-.469.336-.469.336l-.288-.25zM131.715 81.238l.148.559-.774.46s.542-.549.626-1.02" fill="#E27C6B"/><path d="M123.345 98.568c0-.41-.046-1.054-.322-1.248.007.083.01.16.01.234 0 .54-.176.871-.176 1.218 0 .36.363.512.363.82 0 .046-.182.922-.182.922s.316-.332.503-.664c.038-.067.067-.094.09-.094.053 0 .068.157.068.303 0 .151-.014.23-.014.232 0 .003.001.004.002.004.033 0 .517-1.005.517-1.005l.208.145.103-.975-.435.311-.228-1.265-.519 1.41c0 .001.012-.144.012-.348M128.602 99.27a.768.768 0 0 0-.006.098c0 .307.151.71.151.71l-.415-.228v1.183s-.59-.867-.59-1.32c0-.253.217-1.148.217-1.148l.062.933.224-.58v.518l.336-.519.02.353zM128.245 104.496s.09.535.09.865c0 .226-.09.877-.09.877l-.266-.56v-.747l.178.435.088-.87z" fill="#C9E8F1"/><path d="M162.102 46.774s.378-1.48.896-1.61c.16-.04.606-.07 1.165-.07 1.26 0 3.087.153 3.446.691.362.543.635 2.259.635 4.258 0 4.97-1.904 8.02-1.904 8.02h-.829s.156-.88.207-1.243c0 0-.336 1.27-.777 1.736l-.673-.181s.517-1.632.595-2.254l-.44.959-.363-.26s.855-1.525.855-3.451c0-1.9-.844-5.005-1.518-5.616l-1.295-.979z" fill="#2B2B2B"/><path d="m160.261 47.442 2.996-1.086s.686.133.686.66a.799.799 0 0 1-.064.298l-2.015 1.836-1.603-1.708z" fill="#F2F1EC"/><path d="M161.263 48.194c.488.6 1.49 2.51 1.49 3.613 0 .184-.028.346-.091.475-2.285 4.677-4.99 3.627-5.096 5.03l-4.582-5.03s-.336-.428-.336-1.096c0-.23.04-.486.145-.764 0 0-.544.493-.57 1.244l-.57-1.14s1.054-4.282 4.906-4.282c1.242 0 2.386.373 2.788.604.854.491 1.916 1.346 1.916 1.346" fill="#2B2B2B"/><path d="M175.972 86.875c.292 0 .457.108.457.108a.39.39 0 0 1 .05.215c0 1.662-6.625 13.286-11.86 16.337-3.03 1.767-7.01 2.922-7.948 2.922-.36 0-.485-.19-.485-.451 0-.586.622-1.534.622-1.534s17.986-17.597 19.164-17.597" fill="#915949"/><path d="M156.238 47.314c-1.14.44-1.71 1.165-2.15 2.694-.423 1.47-1.182 2.7-1.792 2.7a.433.433 0 0 1-.073-.007s.311 1.14.467 2.228c.281 1.972.311 2.107.72 2.107.405 0 1.119-.138 1.119-.138l-.298 2.357s-.056.773-.056 1.503c0 .222-.004 1.27.213 1.27.388 0 2.71-2.654 3.093-3.369 0 0 .078-3.34.777-3.988 0 0 1.666-.134 1.666-1.574 0-.683-.579-1.017-1.07-1.017-.595 0-.932.984-.932.984l-.984-.052s.103-.647.233-.984c0 0-.544.518-.7 1.114l-1.036-.389s.293-1.062.639-1.865c0 0-.51.363-.769 1.192l-.958-.285s.751-3.264 1.89-4.481" fill="#F6A88A"/><path d="M151.29 77.58s-1.165 1.594-1.165 8.937c0 8.766 1.917 14.991 1.917 17.462 0 1.145-.55 1.168-.55 1.537 0 .133.143.216.55.234.296.014.797.109 1.52.109 11.028 0 19.561-18.892 22.768-18.892a.28.28 0 0 1 .1.017s-2.604-1.802-5.246-2.766c-2.642-.964-6.877-2.052-7.693-3.295-.816-1.243-1.36-2.487-2.215-2.7l-9.986-.642z" fill="#C79464"/><path d="M153.883 87.296s.523.345 1.034.345c.564 0 .634-.397.914-.397.186 0 .2.28.2.37v.027l-.974.707s-.232.135-.232.383a.46.46 0 0 0 .04.182c.048.111.066.159.107.159.091 0 .297-.25 1.214-.573 2.83-1 4.119-2.185 4.119-2.185l.621 2.185 1.36-.467-.505-1.157s2.02-.435 3.963-1.368c1.756-.843 3.733-1.23 5.188-1.23.154 0 .303.004.445.013 0 0-1.664-.53-3.336-1.127-.243-.087-.459-.185-1.102-.185-2.366 0-6.971 1.48-6.971 1.48l-6.085 2.838z" fill="#915949"/><path d="M159.036 81.797s-1.444.79-2.228 1.03c-.67.204-2.124.414-2.41.492-.232.063-1.32.84-1.32.863 0 .075.246.206.551.206.458 0 .561-.286 1.427-.286.187 0 .476.023.476.089 0 .167-.98.701-1.444.863-1.065.373-3.116.088-3.116 1.145 0 .026.002.052.006.078l.96-.109c-.052.042-.072.087-.072.134 0 .185.331.384.331.384l.752-.052c-.077.082-.108.159-.108.23 0 .28.476.471.63.471.04 0 1.021-.065 1.524-.26.533-.207 1.01-.7 1.01-.7s-.235.933-.52 1.062c-.495.226-1.52.304-1.52.852 0 .154.098.21.098.21s1.165-.13 1.736-.336c.57-.207 2.175-1.166 2.486-1.554.31-.389 1.684-1.896 1.684-1.896l-.933-2.916z" fill="#F6A88A"/><path d="M136.212 44.293s4.821-1.823 6.375-2.004l.467 1.683s-5.129 1.643-6.295 2.272l-.547-1.95z" fill="#F2F1EC"/><path d="M142.47 44.162s1.78 6.785 2.117 6.785c.167 0 .32-.16.48-.16.158 0 .328.2.328.424 0 .226-.136.469-.136.77 0 .074-.356.51 5.371 6.807a11.486 11.486 0 0 0 2.141 1.836l1.603 1.402 3.08-1.024s2.949 2.475 4.648 3.563c1.7 1.088 1.972 1.554 2.322 2.37.246.575 5.15 12.75 5.15 13.013 0 .42-.341.635-.341 1.253v.185c0 .318-.017.672-.224.87-1.606 1.536-6.777 4.058-6.777 4.058s-.645-1.079-.955-2.594c-.311-1.516-.661-2.596-.661-2.596l2.836-1.445s-.179-.212-.179-.35c0-.068.043-.118.17-.118a.57.57 0 0 1 .048.002s-1.437-4.236-1.632-4.663c0 0-.544 3.07-.583 3.672 0 0-1.88.878-4.395.878-.638 0-1.316-.056-2.016-.198-3.458-.7-3.574-1.321-3.574-1.321s-1.243-4.74-1.943-5.867c-.7-1.127-1.127-2.06-1.127-2.06s.26-1.14.26-2.187c0-.524-.065-1.024-.26-1.348-.63-1.05-5.796-7.76-5.796-7.893 0-.093.074-.164.074-.252 0-.086-.069-.188-.34-.34-.66-.374-.945-.206-1.385-2.155-.44-1.949-3.037-9.664-3.037-9.664s2.982-1.037 4.732-1.653" fill="#498851"/><path d="M157.481 58.66s-2.227 2.77-3.108 3.367c0 0-.014.432-.014.997 0 .752.025 1.737.144 2.24 0 0 2.927-4.507 3.548-4.921l-.57-1.684zM154.21 60.235c0 .558.037 1.202.163 1.791 0 0-1.45 1.658-1.684 2.85 0 0-.115-1.405-.115-2.602 0-.6.03-1.146.115-1.44.26-.88 1.6-2.047 1.6-2.047s-.08.632-.08 1.448M158.75 81.402s2.202 6.035 2.332 6.268l1.398-.7s-1.217-3.133-1.476-4.403c-.259-1.27-.647-2.124-.647-2.124l-1.607.959z" fill="#F2F1EC"/><path d="M153.488 105.857c-.314 0-.636-.018-.96-.06l.86 6.986s.732.412 1.75.412c.724 0 1.592-.208 2.447-.917l-.47-7.119s-1.67.698-3.627.698M164.619 100.197s4.13 4.275 4.916 4.275c.425 0 8.332-4.275 8.332-4.275s-2.137-2.257-2.293-4.005c0 0-3.378 1.515-4.33 1.904l-2.542-2.696s-2.61 3.463-4.083 4.797" fill="#F6A88A"/><path d="M155.053 113.151c-.928 0-1.665-.368-1.665-.368s.876 8.266 1.05 8.476c.139.169 1.22.594 1.776.594.19 0 1.995-.507 1.995-1.028 0-.798-.624-8.548-.624-8.548s-1.264.874-2.532.874M175.574 96.192s.156 1.87 2.293 4.005c0 0 2.331-1.372 4.818-2.747 2.486-1.374 3.535-1.88 3.535-1.88s-.35-.893-1.126-1.71c-.778-.815-2.099-1.165-2.099-1.165s-2.098.934-4.118 1.982c-1.583.82-3.303 1.515-3.303 1.515" fill="#2B2B2B"/><path d="M154.301 120.7s-.251.245-.251.57c0 .215.069.167.069.475 0 .788-1.352 6.722-1.352 6.722s1.245-.963 2.427-.963c1.057 0 2.048.83 2.345.83.31 0 .215-2.72.396-4.144.145-1.147.63-2.76.63-3.231 0-.06-.021-.226-.133-.226-.103 0-.223.143-.223.143s-1.434.911-2.368.911c-1.01 0-1.54-1.086-1.54-1.086M182.661 92.846s-.007-.037-.007-.092c0-.173.071-.527.659-.527.05 0 .068.002.091.002.863 0 3.095-2.448 3.393-2.448.264 0 4.358 6.665 4.358 6.665s-.759.387-.759 1.302c0 .14.018.294.06.46 0 0-2.72-2.537-4.422-2.537h-.016s-.971-2.636-3.357-2.825" fill="#F6C15C"/><path d="M153.117 130.733s-.636-.934-.636-1.648c0-.25.077-.472.286-.619.607-.427 1.445-1.08 2.419-1.08.32 0 .654.071 1 .243l1.399.695s.218-2.035.285-3.395c.06-1.249.641-3.56.641-3.56l.052 2.448s-.41 1.464-.41 2.626c0 .366.675 4.29.675 4.29h-5.711zM186.803 89.781c.648-.427 1.244-.868 1.244-.868s1.838 3.705 2.512 4.844c.754 1.277 2.981 4.44 2.981 4.677 0 .221-.188.66-.783.66-.58 0-2.478-.322-2.478-1.39 0-.593.576-1.222.876-1.258 0 0-2.254-3.466-2.85-4.294-.595-.83-1.502-2.37-1.502-2.37" fill="#F2F1EC"/><path d="M189.47 97.892c-.23 0-.207-.293-.207-.326 0-.693.558-1.008.774-1.008.064 0 .197.05.197.197 0 .31-.577.124-.577.806 0 .08.01.1.01.133 0 .034-.03.198-.198.198M188.817 97.423c-.229 0-.206-.294-.206-.327 0-.692.557-1.007.773-1.007.064 0 .198.05.198.197 0 .313-.577.115-.577.808 0 .081.01.1.01.132a.197.197 0 0 1-.198.197M188.142 96.953c-.229 0-.206-.293-.206-.326 0-.693.558-1.008.774-1.008.064 0 .198.05.198.197 0 .31-.577.123-.577.806 0 .08.009.1.009.133 0 .034-.03.198-.198.198M187.303 96.483c-.23 0-.206-.293-.206-.326 0-.692.558-1.007.774-1.007.063 0 .197.049.197.197 0 .309-.577.122-.577.805 0 .08.01.101.01.133 0 .035-.03.198-.198.198M153.622 127.24a.197.197 0 0 1-.072-.382 5.626 5.626 0 0 1 1.865-.328c.311 0 .64.03.972.107a.198.198 0 0 1-.045.39c-.08 0-.35-.102-.922-.102-1.038 0-1.693.314-1.798.314M153.933 126.248a.198.198 0 0 1-.075-.38 4.183 4.183 0 0 1 1.458-.253c.29 0 .606.03.935.108a.197.197 0 0 1-.044.39c-.077 0-.343-.102-.881-.102-.755 0-1.312.22-1.32.222a.18.18 0 0 1-.073.015M154.282 125.16a.197.197 0 0 1-.072-.38c.023-.01.441-.17 1.142-.17.26 0 .558.022.889.082.095.017.162.1.162.194a.2.2 0 0 1-.2.197c-.045 0-.377-.078-.846-.078-.714 0-.981.155-1.075.155M156.342 123.995c-.087 0-.493-.171-1.064-.171-.492 0-.582.112-.684.112a.198.198 0 0 1-.198-.197c0-.037-.03-.31.882-.31.293 0 .666.044 1.12.18a.197.197 0 0 1-.056.386" fill="#F2F1EC"/><path d="M155.49 54.223c0 .198-.21.266-.412.266-.571 0-1.309-.472-1.309-.84 0-.197.211-.265.413-.265.57 0 1.308.472 1.308.84M154.528 56.898l1.546-.337s-1.263 1.243-1.715 1.425l.17-1.088zM137.352 43.146c.69-.003 3.422-.42 3.422-.42l-3.32 1.111-.102-.691zM158.75 81.949l.823 3.199.395-.436-1.05-2.852zM166.41 101.978s-.034-.105-.034-.283c0-.405.171-1.19 1.292-1.986 1.612-1.147 2.375-.747 3.16-2.054l-2.126-2.255s-1.373 1.795-2.37 2.964c-.899 1.055-1.713 1.833-1.713 1.833l1.79 1.781zM152.529 106.022s1.352.47 3.612.47c.334 0 .688-.01 1.06-.035l-.085-1.298s-1.208.642-4.185.642c-.13 0-.264-.001-.402-.004v.225z" fill="#E27C6B"/><path d="M170.28 98.323a.693.693 0 0 1 .2-.028c.614 0 1.429.669 1.429.669l-.666-.868-.416-.441-.548.668z" fill="#E27C6B"/><path d="M151.29 77.58s2.587 1.526 5.648 1.526c2.41 0 4.338-.884 4.338-.884s.31.02.623.368c0 0-1.664 1.239-4.793 1.239-4.166 0-6.083-1.663-6.083-1.663l.267-.585z" fill="#2B2B2B"/><path d="M151.252 92.229c.155.505.155 2.137.155 2.137l.233-1.068s.039 1.03.35 1.457c.056.077.097.108.126.108.052 0 .068-.099.068-.22 0-.19-.039-.432-.039-.432l.544.816s-.102-1.981-.225-1.981c-.116 0-.319.582-.319.582l-.175-1.399-.291.467-.427-.467zM151.97 96.756c.214.446.559 1.04.559 1.04l.16-.52-.36-.99v.47h-.359z" fill="#F6C15C"/><path d="M161.859 74.55c-.622-1.476-1.891-3.161-1.891-3.161s1.373 4.872 1.388 6.192l.503-3.03zM152.995 64.038l.141.837s.658-1.631 1.223-1.98l.014-.869s-.956 1.097-1.378 2.012M154.86 64.72l.257.544 2.86-3.828-.525-.434s-.924 1.259-1.222 1.686a213.7 213.7 0 0 0-1.37 2.032M142.497 44.266s-3.715 1.39-4.513 2.287l-.247-.738 4.732-1.653.028.104z" fill="#386346"/><path d="M158.207 53.888c-.036 0-.1-.028-.1-.098 0-.047.106-1.135.837-1.135.176 0 .37.065.583.195.03.02.047.051.047.085a.099.099 0 0 1-.099.098c-.06 0-.272-.18-.53-.18-.556 0-.64.932-.64.944a.097.097 0 0 1-.098.09" fill="#E27C6B"/><path d="M159.217 54.035c-.07 0-.099-.063-.099-.099 0-.016.005-.033.013-.048.003-.005.056-.102.056-.238 0-.127-.04-.436-.625-.68a.098.098 0 0 1-.06-.09c0-.044.033-.1.097-.1.021 0 .785.255.785.87 0 .068-.029.385-.167.385" fill="#E27C6B"/><path d="M168.516 80.443v.752c0 .31-.207.803-.207.803l.44-.544v.647s.207-.259.26-.699c.051-.44.206-1.114.206-1.114l-.453.492-.246-.337zM141.266 55.758c.026.621.337 1.114.337 1.114l.894.259-.428-.26.428-.129s-.028.003-.073.003c-.15 0-.487-.031-.542-.301-.072-.35-.201-1.042-.201-1.042l-.181.822-.234-.466z" fill="#F2F1EC"/><g transform="translate(45.54)"><mask id="b" fill="#fff"><use xlink:href="#a"/></mask><use fill="#FFE6E0" xlink:href="#a"/><path d="M118 0a2 2 0 0 1 2 2v34a2 2 0 0 1-2 2H85v-3.618c1.105 0 2-.81 2-1.81 0-.999-.895-1.81-2-1.81v-1.809c1.105 0 2-.81 2-1.81 0-.999-.895-1.809-2-1.809v-1.81c1.105 0 2-.81 2-1.809 0-1-.895-1.81-2-1.81v-1.809c1.105 0 2-.81 2-1.81 0-.999-.895-1.809-2-1.809v-1.81c1.105 0 2-.81 2-1.809 0-1-.895-1.81-2-1.81V7.24c1.105 0 2-.81 2-1.81 0-.999-.895-1.809-2-1.809V0h33z" fill="#F0A098" mask="url(#b)"/></g><path d="M73.115 44.322s.198-2.551.198-3.046c0-.788-1.164-1.849-1.316-2.479-.154-.636-.176-1.228-.176-1.228s.143-.066.307-.066c.165 0 .351.066.44.33.167.503.537.967.722.967.08 0 .131-.103.131-.431 0-2.212-1.008-2.711-1.008-3.15 0-.24.46-.26.46-.26s.116-.645.391-.645c.257 0 .794.315.794.315s.351-.175.483-.175c.131 0 .79 1.272.899 1.47.11.197.614 1.93.614 1.93s-.029-.517-.029-1.037c0-.602-.016-1.236.485-1.236.03 0 .049.003.049.003s.022 1.612.131 2.073c.016.068.024.148.024.238 0 1.29-.78 1.795-.78 4.084 0 .822.073 1.714.164 2.433l-2.983-.09zM105.009 42.13s.693-2.75.693-3.456c0-.348-.075-.56-.075-1.16 0-1.318-.058-2.184-.058-2.228 0-.483.481-1.285.563-1.476.017-.042.049-.062.087-.062.13 0 .34.241.34.691 0 .34-.116.702-.116.919 0 .17.057.322.25.529.422.45 1.067 1.207 1.067 1.207l1.572.112s-.225 1.256-1.095 2.157c-.473.491-.58 1.537-.58 2.388 0 .715.075 1.293.075 1.293s-1.628-.145-2.723-.915M140.774 42.807s-1.2-2.45-1.2-3.944c0-.95.204-1.32.204-3.355 0-.518-.023-.994-.091-1.223-.13-.431-.54-1.27-.708-1.27-.117 0-.375.424-.375 1.03 0 .223.035.471.124.732 0 0-.13 1.165-.518 1.761-.388.596-.958.958-.958.958l-3.108.156s.828 1.425 1.399 1.813c.57.389 1.424.803 1.502 1.476.078.674.414 2.927.414 2.927l3.315-1.061z" fill="#F6A88A"/><rect fill="#FDD0C7" x="136.54" y="13.001" width="24" height="12" rx="6"/><rect fill="#FDD0C7" x="54.54" y="20.001" width="64" height="8" rx="1"/><rect fill="#FDD0C7" x="54.54" y="6.001" width="64" height="8" rx="1"/><rect fill="#FDD0C7" x="107.54" y="31.001" width="18" height="5" rx="1"/><g transform="translate(118.54 71)"><path d="M6.631 2.02C5.074 1.556 4.385 1.08 4.565.591 4.834-.142 6.212-.62 7.079 2.019c.1.079-.149-.24.162-.763C7.552.732 8.505-.53 9.221.246c.716.777-.377 1.41-1.776 1.92-.933.342-1.204.293-.814-.147z" stroke="#EA5A4F" stroke-width=".598"/><rect fill="#EA5A4F" y="1.751" width="14" height="2.562" rx="1.281"/><path fill="#EA5A4F" d="M1.251 4.313h11.256v7H1.251z"/><path fill="#FFF" d="M5.628 1.751h2.545v2.562H5.628zM6.297 4.313h1.251v7H6.297z"/><path fill-opacity=".497" fill="#571D18" d="M1.251 4.313h11.256v1H1.251z"/></g><path d="M131.864 81.797s-2.351 1.399-2.565 1.515c-.213.117-2.685.537-3.05.576 0 0-.151-.175-.151-.326 0-.108.077-.203.346-.21 3.572-.109 1.6-2.115 5.145-2.115l.126.001.149.559zM118.422 82.173s1.513.877 1.746 1.13c.097.104.335.142.637.142.755 0 1.356-.175 1.957-.175.711 0 1.486.15 1.641.175 0 0 .222-.225.222-.398 0-.372-1.473-.215-2.048-.502-.388-.195-1.69-.68-1.981-.68-.291 0-1.833-.573-1.833-.573l-.341.881z" fill="#F6A88A"/><path d="M11.5 36.46c6.351 0 11.5 5.15 11.5 11.5 0 6.352-5.149 11.5-11.5 11.5S0 54.313 0 47.96c0-6.35 5.149-11.5 11.5-11.5" fill="#F7C15A"/><path d="M13.149 65.048c.72 0 1.764.009 1.764.009s-.21-2.282-.21-3.227c0-1.26.193-2.26.313-2.914l-1.813.206s-.474-.309-.68-.886c-.206-.577-.289-1.669-.433-1.813-.144-.144-.433-.062-.597-.124-.07-.026-.2-.052-.33-.052-.18 0-.359.05-.37.217 0 0-.524.415-.524.806 0 .278.4 1.172.4 1.172s-.587-.435-1.09-.435c-.096 0-.52.034-.52.192 0 .01.002.016.002.016s.597.145 1.05.495c.454.35 1.543 1.813 1.926 2.287.382.474.547.866.547 1.422 0 .455-.124 1.945-.124 2.46 0 .112.006.178.02.178.012 0-.04-.01.669-.01" fill="#F6A88A"/></g></svg>