<svg xmlns="http://www.w3.org/2000/svg" viewBox="0 0 13 14"><defs><style>.cls-1{fill:#666;}</style></defs><g><g><path class="cls-1" d="M6.5,7.47a3.74,3.74,0,1,1,3.72-3.74A3.74,3.74,0,0,1,6.5,7.47ZM6.5.84A2.9,2.9,0,1,0,9.38,3.73,2.89,2.89,0,0,0,6.5.84ZM11.81,14H1.19A1.19,1.19,0,0,1,0,12.81V12l0-.07C.82,9.71,3.49,8.15,6.5,8.15S12.18,9.71,13,11.93L13,12v.81A1.19,1.19,0,0,1,11.81,14Zm-11-1.85v.66a.35.35,0,0,0,.35.35H11.81a.35.35,0,0,0,.35-.35v-.66C11.45,10.29,9.13,9,6.5,9S1.55,10.29.84,12.15Z"/></g></g></svg>